<svg width="23" height="23" viewBox="0 0 23 23" fill="none" xmlns="http://www.w3.org/2000/svg">
<path fill-rule="evenodd" clip-rule="evenodd" d="M22.663 1.96305C22.8725 1.74616 22.9884 1.45566 22.9858 1.15414C22.9832 0.852612 22.8623 0.564178 22.649 0.350959C22.4358 0.137739 22.1474 0.0167951 21.8459 0.0141749C21.5443 0.0115547 21.2538 0.127468 21.0369 0.33695L18.4 2.9739V1.15C18.4 0.845001 18.2788 0.552494 18.0632 0.336827C17.8475 0.12116 17.555 0 17.25 0C16.945 0 16.6525 0.12116 16.4368 0.336827C16.2212 0.552494 16.1 0.845001 16.1 1.15V5.75C16.1 6.055 16.2212 6.34751 16.4368 6.56317C16.6525 6.77884 16.945 6.9 17.25 6.9H21.85C22.155 6.9 22.4475 6.77884 22.6632 6.56317C22.8788 6.34751 23 6.055 23 5.75C23 5.445 22.8788 5.15249 22.6632 4.93683C22.4475 4.72116 22.155 4.6 21.85 4.6H20.0261L22.663 1.96305ZM11.5 2.3C9.68041 2.3 7.90169 2.83957 6.38875 3.85048C4.87582 4.86139 3.69663 6.29823 3.00031 7.97931C2.30398 9.66039 2.12179 11.5102 2.47678 13.2948C2.83176 15.0795 3.70797 16.7187 4.99462 18.0054C6.28126 19.292 7.92054 20.1682 9.70517 20.5232C11.4898 20.8782 13.3396 20.696 15.0207 19.9997C16.7018 19.3034 18.1386 18.1242 19.1495 16.6112C20.1604 15.0983 20.7 13.3196 20.7 11.5C20.7 11.195 20.8212 10.9025 21.0368 10.6868C21.2525 10.4712 21.545 10.35 21.85 10.35C22.155 10.35 22.4475 10.4712 22.6632 10.6868C22.8788 10.9025 23 11.195 23 11.5C23 17.8514 17.8514 23 11.5 23C5.14855 23 0 17.8514 0 11.5C0 5.14855 5.14855 0 11.5 0C11.805 0 12.0975 0.12116 12.3132 0.336827C12.5288 0.552494 12.65 0.845001 12.65 1.15C12.65 1.455 12.5288 1.74751 12.3132 1.96317C12.0975 2.17884 11.805 2.3 11.5 2.3ZM12.2049 9.2943H10.9342C10.8353 9.29261 10.737 9.3107 10.6452 9.3475C10.5534 9.38429 10.4698 9.43905 10.3995 9.50857C10.3291 9.57809 10.2733 9.66097 10.2354 9.75234C10.1975 9.84371 10.1782 9.94173 10.1786 10.0406C10.1786 10.4546 10.5087 10.787 10.9342 10.787H12.2049C13.7896 10.787 15.0892 12.0715 15.0892 13.6505C15.0892 15.0707 14.0127 16.2576 12.6339 16.4622V16.8855C12.6339 17.165 12.5229 17.4331 12.3252 17.6307C12.1275 17.8284 11.8595 17.9394 11.5799 17.9394C11.3004 17.9394 11.0323 17.8284 10.8347 17.6307C10.637 17.4331 10.5259 17.165 10.5259 16.8855V16.4622C9.98427 16.3843 9.47617 16.1531 9.06154 15.7959C8.64691 15.4387 8.34302 14.9705 8.1857 14.4463C8.14325 14.3048 8.13864 14.1546 8.17234 14.0107C8.20604 13.8668 8.27686 13.7343 8.37775 13.6263C8.47336 13.524 8.58914 13.4425 8.71779 13.3871C8.84644 13.3317 8.98517 13.3035 9.12525 13.3043C9.42885 13.3043 9.67725 13.4423 9.867 13.5964C10.0545 13.7494 10.2086 13.9426 10.3293 14.1024C10.4005 14.1948 10.4923 14.2694 10.5972 14.3203C10.7022 14.3712 10.8176 14.397 10.9342 14.3957H12.2049C12.6304 14.3957 12.9605 14.0645 12.9605 13.6494C12.9608 13.5505 12.9414 13.4525 12.9035 13.3612C12.8655 13.2699 12.8097 13.1871 12.7393 13.1176C12.669 13.0481 12.5855 12.9934 12.4938 12.9565C12.402 12.9197 12.3038 12.9015 12.2049 12.903H10.9342C9.35065 12.903 8.05 11.6184 8.05 10.0395C8.05 8.61925 9.12525 7.43245 10.5052 7.22775V6.80455C10.5052 6.52502 10.6163 6.25694 10.814 6.05928C11.0116 5.86162 11.2797 5.75058 11.5592 5.75058C11.8388 5.75058 12.1068 5.86162 12.3045 6.05928C12.5022 6.25694 12.6132 6.52502 12.6132 6.80455V7.22775C13.1548 7.30586 13.6629 7.53711 14.0775 7.89426C14.4921 8.25142 14.796 8.71961 14.9535 9.2437C14.9959 9.38523 15.0005 9.53543 14.9668 9.6793C14.9331 9.82317 14.8623 9.95569 14.7614 10.0637C14.6657 10.166 14.55 10.2474 14.4213 10.3028C14.2927 10.3582 14.154 10.3864 14.0139 10.3856C13.7103 10.3856 13.4619 10.2477 13.2722 10.0936C13.0991 9.94318 12.944 9.7734 12.8098 9.58755C12.7386 9.49517 12.6469 9.42059 12.5419 9.3697C12.437 9.31881 12.3216 9.293 12.2049 9.2943Z" fill="white"/>
</svg>
