<svg width="23" height="23" viewBox="0 0 23 23" fill="none" xmlns="http://www.w3.org/2000/svg">
<path d="M3.53426 6.90093C4.66382 4.94004 6.47657 3.46433 8.62583 2.75603C10.7751 2.04773 13.11 2.15653 15.1841 3.06164C17.2582 3.96676 18.9258 5.60465 19.8681 7.66209C20.8104 9.71953 20.9613 12.0521 20.2918 14.2138C20.2081 14.5031 20.2412 14.8137 20.3841 15.0788C20.527 15.344 20.7682 15.5424 21.0559 15.6316C21.3436 15.7208 21.6547 15.6935 21.9225 15.5557C22.1903 15.4178 22.3933 15.1804 22.4879 14.8945C24.0425 9.87896 21.99 4.27934 17.2493 1.54277C11.7497 -1.63303 4.71743 0.251526 1.54278 5.75111C-1.63303 11.2507 0.251526 18.283 5.75112 21.4576C10.4918 24.1942 16.3674 23.172 19.9342 19.319C20.0368 19.2082 20.1165 19.0782 20.1689 18.9365C20.2213 18.7949 20.2453 18.6443 20.2394 18.4934C20.2336 18.3424 20.1981 18.1942 20.135 18.0569C20.0719 17.9197 19.9823 17.7963 19.8715 17.6937C19.7607 17.5911 19.6307 17.5113 19.4891 17.459C19.3474 17.4066 19.1968 17.3826 19.0459 17.3884C18.895 17.3943 18.7467 17.4297 18.6095 17.4929C18.4723 17.556 18.3488 17.6455 18.2462 17.7564C16.7089 19.4167 14.6135 20.4522 12.3607 20.6648C10.108 20.8773 7.85588 20.2521 6.0351 18.9086C4.21433 17.5651 2.95263 15.5977 2.49126 13.3824C2.0299 11.1672 2.40123 8.8596 3.53426 6.90093Z" fill="white"/>
<path d="M12.5741 7.34066C12.4742 7.14133 12.3209 6.97372 12.1312 6.85659C11.9415 6.73946 11.7229 6.67743 11.5 6.67743C11.2771 6.67743 11.0585 6.73946 10.8688 6.85659C10.6791 6.97372 10.5257 7.14133 10.4259 7.34066L6.82138 14.5506C6.745 14.6922 6.69786 14.8478 6.68273 15.008C6.66761 15.1682 6.68482 15.3298 6.73333 15.4833C6.78185 15.6367 6.86069 15.7788 6.96518 15.9012C7.06966 16.0236 7.19766 16.1238 7.34158 16.1957C7.4855 16.2677 7.64241 16.31 7.803 16.3202C7.96358 16.3304 8.12458 16.3082 8.27642 16.2549C8.42827 16.2017 8.56787 16.1185 8.68696 16.0102C8.80604 15.902 8.90217 15.771 8.96965 15.6249L11.5 10.5659L14.0303 15.6249C14.0978 15.771 14.194 15.902 14.313 16.0102C14.4321 16.1185 14.5717 16.2017 14.7236 16.2549C14.8754 16.3082 15.0364 16.3304 15.197 16.3202C15.3576 16.31 15.5145 16.2677 15.6584 16.1957C15.8023 16.1238 15.9303 16.0236 16.0348 15.9012C16.1393 15.7788 16.2181 15.6367 16.2667 15.4833C16.3152 15.3298 16.3324 15.1682 16.3173 15.008C16.3021 14.8478 16.255 14.6922 16.1786 14.5506L12.5741 7.34066Z" fill="white"/>
</svg>
