<svg width="369" height="395" viewBox="0 0 369 395" fill="none" xmlns="http://www.w3.org/2000/svg">
<g filter="url(#filter0_d)">
<rect x="4" width="361" height="387" rx="10" fill="white"/>
</g>
<path d="M216.172 122.495L238.648 100.019C240.872 97.7945 239.297 93.9907 236.151 93.9907H152.931C151.103 93.9907 149.62 95.4729 149.62 97.3012V143.399C149.62 147.597 153.024 151 157.222 151H236.151C239.297 151 240.873 147.196 238.648 144.972L216.172 122.495Z" fill="#FFC805"/>
<path d="M238.648 144.972L216.172 122.495L238.648 100.019C240.873 97.7945 239.297 93.9907 236.151 93.9907H174.324V151H236.151C239.297 151 240.873 147.196 238.648 144.972V144.972Z" fill="#EE9B00"/>
<path d="M137.092 151C135.263 151 133.781 149.518 133.781 147.689V109.193C133.781 107.365 135.263 105.883 137.092 105.883C138.92 105.883 140.402 107.365 140.402 109.193V147.689C140.402 149.518 138.92 151 137.092 151Z" fill="#EE9B00"/>
<path d="M137.092 52.1837C141.009 52.1837 144.184 49.0086 144.184 45.0919C144.184 41.1751 141.009 38 137.092 38C133.175 38 130 41.1751 130 45.0919C130 49.0086 133.175 52.1837 137.092 52.1837Z" fill="#FFCF26"/>
<path d="M149.62 143.399C149.62 141.109 151.031 139.055 153.168 138.234C162.271 134.731 186.379 125.46 195.481 121.96C197.619 121.137 199.029 119.085 199.029 116.794C199.029 112.597 195.626 109.193 191.427 109.193C177.572 109.193 149.62 109.193 149.62 109.193V143.399Z" fill="#EE9B00"/>
<path d="M199.029 116.794C199.029 112.597 195.626 109.193 191.427 109.193C186.783 109.193 180.554 109.193 174.325 109.193V130.096C182.627 126.903 190.93 123.71 195.482 121.959C197.619 121.137 199.029 119.084 199.029 116.794V116.794Z" fill="#FFC805"/>
<path d="M191.427 52.1839H137.092C135.263 52.1839 133.781 53.6661 133.781 55.4944V109.193H191.427C195.625 109.193 199.028 112.596 199.028 116.794V59.7851C199.029 55.5869 195.625 52.1839 191.427 52.1839V52.1839Z" fill="#FFE769"/>
<path d="M199.029 116.794V59.7851C199.029 55.5871 195.625 52.1839 191.427 52.1839H174.325V109.193H191.427C195.625 109.193 199.029 112.596 199.029 116.794V116.794Z" fill="#FFE769"/>
<path d="M137.092 52.1839V38C141.002 38 144.184 41.1814 144.184 45.0919C144.184 49.0023 141.003 52.1839 137.092 52.1839Z" fill="#EE9B00"/>
<defs>
<filter id="filter0_d" x="0" y="0" width="369" height="395" filterUnits="userSpaceOnUse" color-interpolation-filters="sRGB">
<feFlood flood-opacity="0" result="BackgroundImageFix"/>
<feColorMatrix in="SourceAlpha" type="matrix" values="0 0 0 0 0 0 0 0 0 0 0 0 0 0 0 0 0 0 127 0"/>
<feOffset dy="4"/>
<feGaussianBlur stdDeviation="2"/>
<feColorMatrix type="matrix" values="0 0 0 0 0 0 0 0 0 0 0 0 0 0 0 0 0 0 0.1 0"/>
<feBlend mode="normal" in2="BackgroundImageFix" result="effect1_dropShadow"/>
<feBlend mode="normal" in="SourceGraphic" in2="effect1_dropShadow" result="shape"/>
</filter>
</defs>
</svg>
