<svg width="110" height="113" viewBox="0 0 110 113" fill="none" xmlns="http://www.w3.org/2000/svg">
<path d="M86.1715 84.4954L108.648 62.0189C110.872 59.7945 109.297 55.9907 106.151 55.9907H22.931C21.1027 55.9907 19.6205 57.4729 19.6205 59.3012V105.399C19.6205 109.597 23.0237 113 27.2217 113H106.151C109.297 113 110.873 109.196 108.648 106.972L86.1715 84.4954Z" fill="#FFC805"/>
<path d="M108.648 106.972L86.1717 84.4954L108.648 62.0189C110.873 59.7945 109.297 55.9907 106.151 55.9907H44.3244V113H106.151C109.297 113 110.873 109.196 108.648 106.972V106.972Z" fill="#EE9B00"/>
<path d="M7.09177 113C5.26346 113 3.78122 111.518 3.78122 109.689V71.1931C3.78122 69.3648 5.26346 67.8825 7.09177 67.8825C8.92007 67.8825 10.4023 69.3648 10.4023 71.1931V109.689C10.4023 111.518 8.92007 113 7.09177 113Z" fill="#EE9B00"/>
<path d="M7.09185 14.1837C11.0086 14.1837 14.1837 11.0086 14.1837 7.09185C14.1837 3.17513 11.0086 0 7.09185 0C3.17513 0 0 3.17513 0 7.09185C0 11.0086 3.17513 14.1837 7.09185 14.1837Z" fill="#FFCF26"/>
<path d="M19.6205 105.399C19.6205 103.109 21.0307 101.055 23.1678 100.234C32.2705 96.7315 56.3786 87.46 65.4815 83.9596C67.6185 83.1368 69.0286 81.0845 69.0286 78.7945C69.0286 74.5967 65.6256 71.1933 61.4274 71.1933C47.5716 71.1933 19.6205 71.1933 19.6205 71.1933V105.399Z" fill="#EE9B00"/>
<path d="M69.0287 78.7943C69.0287 74.5966 65.6256 71.1931 61.4274 71.1931C56.7825 71.1931 50.5536 71.1931 44.3247 71.1931V92.0959C52.6273 88.9028 60.9302 85.7096 65.4815 83.9595C67.6186 83.1367 69.0287 81.0844 69.0287 78.7943V78.7943Z" fill="#FFC805"/>
<path d="M61.4273 14.1839H7.09177C5.26346 14.1839 3.78122 15.6661 3.78122 17.4944V71.1933H61.4271C65.6251 71.1933 69.0283 74.5965 69.0283 78.7945V21.7851C69.0286 17.5869 65.6253 14.1839 61.4273 14.1839V14.1839Z" fill="#FFE769"/>
<path d="M69.0287 78.7943V21.7851C69.0287 17.5871 65.6254 14.1839 61.4274 14.1839H44.3247V71.1933H61.4274C65.6254 71.193 69.0287 74.5963 69.0287 78.7943V78.7943Z" fill="#FFE769"/>
<path d="M7.09193 14.1839V0C11.0024 0 14.1838 3.18143 14.1838 7.09185C14.1838 11.0023 11.0026 14.1839 7.09193 14.1839Z" fill="#EE9B00"/>
</svg>
