<svg width="23" height="20" viewBox="0 0 23 20" fill="none" xmlns="http://www.w3.org/2000/svg">
<path fill-rule="evenodd" clip-rule="evenodd" d="M19.7143 1.08493C19.7143 0.822212 19.5989 0.570258 19.3935 0.38449C19.1881 0.198723 18.9095 0.0943604 18.619 0.0943604C18.3286 0.0943604 18.05 0.198723 17.8446 0.38449C17.6392 0.570258 17.5238 0.822212 17.5238 1.08493V3.06606H15.3333C15.0429 3.06606 14.7643 3.17042 14.5589 3.35619C14.3535 3.54196 14.2381 3.79391 14.2381 4.05662C14.2381 4.31934 14.3535 4.57129 14.5589 4.75706C14.7643 4.94283 15.0429 5.04719 15.3333 5.04719H17.5238V7.02832C17.5238 7.29104 17.6392 7.54299 17.8446 7.72876C18.05 7.91453 18.3286 8.01889 18.619 8.01889C18.9095 8.01889 19.1881 7.91453 19.3935 7.72876C19.5989 7.54299 19.7143 7.29104 19.7143 7.02832V5.04719H21.9048C22.1952 5.04719 22.4738 4.94283 22.6792 4.75706C22.8846 4.57129 23 4.31934 23 4.05662C23 3.79391 22.8846 3.54196 22.6792 3.35619C22.4738 3.17042 22.1952 3.06606 21.9048 3.06606H19.7143V1.08493ZM10.9524 8.01889C10.9524 8.54432 10.7216 9.04823 10.3108 9.41976C9.90001 9.79129 9.34286 10 8.7619 10C8.18095 10 7.6238 9.79129 7.213 9.41976C6.80221 9.04823 6.57143 8.54432 6.57143 8.01889C6.57143 7.49346 6.80221 6.98955 7.213 6.61802C7.6238 6.24648 8.18095 6.03776 8.7619 6.03776C9.34286 6.03776 9.90001 6.24648 10.3108 6.61802C10.7216 6.98955 10.9524 7.49346 10.9524 8.01889ZM13.1429 8.01889C13.1429 9.06975 12.6813 10.0776 11.8597 10.8206C11.0381 11.5637 9.92381 11.9812 8.7619 11.9812C7.6 11.9812 6.48569 11.5637 5.6641 10.8206C4.84252 10.0776 4.38095 9.06975 4.38095 8.01889C4.38095 6.96803 4.84252 5.96021 5.6641 5.21714C6.48569 4.47408 7.6 4.05662 8.7619 4.05662C9.92381 4.05662 11.0381 4.47408 11.8597 5.21714C12.6813 5.96021 13.1429 6.96803 13.1429 8.01889ZM2.19048 17.9245C2.19048 17.1364 2.53665 16.3805 3.15284 15.8232C3.76903 15.2659 4.60476 14.9528 5.47619 14.9528H12.0476C12.919 14.9528 13.7548 15.2659 14.371 15.8232C14.9872 16.3805 15.3333 17.1364 15.3333 17.9245V18.9151C15.3333 19.1778 15.4487 19.4298 15.6541 19.6156C15.8595 19.8013 16.1381 19.9057 16.4286 19.9057C16.719 19.9057 16.9976 19.8013 17.203 19.6156C17.4084 19.4298 17.5238 19.1778 17.5238 18.9151V17.9245C17.5238 16.611 16.9469 15.3512 15.9199 14.4224C14.8929 13.4935 13.5 12.9717 12.0476 12.9717H5.47619C4.02381 12.9717 2.63092 13.4935 1.60394 14.4224C0.576954 15.3512 0 16.611 0 17.9245V18.9151C0 19.1778 0.115391 19.4298 0.320788 19.6156C0.526185 19.8013 0.804763 19.9057 1.09524 19.9057C1.38571 19.9057 1.66429 19.8013 1.86969 19.6156C2.07509 19.4298 2.19048 19.1778 2.19048 18.9151V17.9245Z" fill="white"/>
</svg>
