<svg width="22" height="21" viewBox="0 0 22 21" fill="none" xmlns="http://www.w3.org/2000/svg">
<path fill-rule="evenodd" clip-rule="evenodd" d="M11 2.16983C9.25952 2.16983 7.55813 2.65673 6.11098 3.56895C4.66383 4.48118 3.53591 5.77775 2.86986 7.29472C2.20381 8.8117 2.02954 10.4809 2.36909 12.0913C2.70864 13.7017 3.54676 15.181 4.77746 16.342C6.00816 17.5031 7.57617 18.2938 9.28321 18.6141C10.9902 18.9344 12.7596 18.77 14.3676 18.1417C15.9756 17.5133 17.35 16.4492 18.3169 15.084C19.2839 13.7188 19.8 12.1137 19.8 10.4717C19.8 10.1965 19.9159 9.93254 20.1222 9.73793C20.3285 9.54332 20.6083 9.43398 20.9 9.43398C21.1917 9.43398 21.4715 9.54332 21.6778 9.73793C21.8841 9.93254 22 10.1965 22 10.4717C22 16.2031 17.0753 20.8491 11 20.8491C4.9247 20.8491 0 16.2031 0 10.4717C0 4.7403 4.9247 0.0943604 11 0.0943604C11.2917 0.0943604 11.5715 0.203693 11.7778 0.398306C11.9841 0.592919 12.1 0.856871 12.1 1.1321C12.1 1.40732 11.9841 1.67127 11.7778 1.86589C11.5715 2.0605 11.2917 2.16983 11 2.16983ZM18.7 1.1321C18.7 0.856871 18.5841 0.592919 18.3778 0.398306C18.1715 0.203693 17.8917 0.0943604 17.6 0.0943604C17.3083 0.0943604 17.0285 0.203693 16.8222 0.398306C16.6159 0.592919 16.5 0.856871 16.5 1.1321V3.20757H14.3C14.0083 3.20757 13.7285 3.3169 13.5222 3.51151C13.3159 3.70613 13.2 3.97008 13.2 4.2453C13.2 4.52053 13.3159 4.78448 13.5222 4.97909C13.7285 5.17371 14.0083 5.28304 14.3 5.28304H16.5V7.35851C16.5 7.63374 16.6159 7.89769 16.8222 8.0923C17.0285 8.28691 17.3083 8.39625 17.6 8.39625C17.8917 8.39625 18.1715 8.28691 18.3778 8.0923C18.5841 7.89769 18.7 7.63374 18.7 7.35851V5.28304H20.9C21.1917 5.28304 21.4715 5.17371 21.6778 4.97909C21.8841 4.78448 22 4.52053 22 4.2453C22 3.97008 21.8841 3.70613 21.6778 3.51151C21.4715 3.3169 21.1917 3.20757 20.9 3.20757H18.7V1.1321ZM11.6743 8.48134H10.4588C10.3642 8.47982 10.2702 8.49614 10.1824 8.52934C10.0945 8.56255 10.0146 8.61197 9.94731 8.6747C9.87999 8.73743 9.82663 8.81222 9.79037 8.89467C9.7541 8.97711 9.73565 9.06557 9.7361 9.15483C9.7361 9.52842 10.0518 9.82832 10.4588 9.82832H11.6743C13.1901 9.82832 14.4331 10.9875 14.4331 12.4123C14.4331 13.6939 13.4035 14.7648 12.0846 14.9495V15.3314C12.0846 15.5837 11.9784 15.8256 11.7893 16.004C11.6003 16.1823 11.3438 16.2825 11.0765 16.2825C10.8091 16.2825 10.5526 16.1823 10.3636 16.004C10.1745 15.8256 10.0683 15.5837 10.0683 15.3314V14.9495C9.55017 14.8792 9.06417 14.6706 8.66756 14.3482C8.27096 14.0259 7.98028 13.6034 7.8298 13.1304C7.78919 13.0027 7.78479 12.8672 7.81702 12.7373C7.84925 12.6075 7.917 12.4879 8.0135 12.3905C8.10495 12.2981 8.21569 12.2246 8.33875 12.1746C8.46181 12.1246 8.59451 12.0992 8.7285 12.0999C9.0189 12.0999 9.2565 12.2245 9.438 12.3635C9.6173 12.5015 9.7647 12.6759 9.8802 12.8201C9.94834 12.9035 10.0361 12.9708 10.1365 13.0167C10.2369 13.0626 10.3472 13.0859 10.4588 13.0847H11.6743C12.0813 13.0847 12.397 12.7859 12.397 12.4112C12.3973 12.322 12.3788 12.2336 12.3424 12.1512C12.3061 12.0689 12.2527 11.9941 12.1855 11.9314C12.1182 11.8687 12.0383 11.8193 11.9505 11.786C11.8628 11.7528 11.7689 11.7364 11.6743 11.7378H10.4588C8.9441 11.7378 7.7 10.5786 7.7 9.15379C7.7 7.87219 8.7285 6.80125 10.0485 6.61653V6.23464C10.0485 5.9824 10.1547 5.74049 10.3438 5.56212C10.5328 5.38376 10.7893 5.28356 11.0567 5.28356C11.324 5.28356 11.5805 5.38376 11.7695 5.56212C11.9586 5.74049 12.0648 5.9824 12.0648 6.23464V6.61653C12.5829 6.68701 13.0688 6.89569 13.4654 7.21798C13.862 7.54027 14.1527 7.96275 14.3033 8.43568C14.3439 8.5634 14.3483 8.69893 14.3161 8.82875C14.2838 8.95858 14.2161 9.07817 14.1196 9.17559C14.0281 9.26792 13.9174 9.3414 13.7943 9.39141C13.6713 9.44141 13.5386 9.46686 13.4046 9.46615C13.1142 9.46615 12.8766 9.34162 12.6951 9.20257C12.5296 9.06688 12.3812 8.91367 12.2529 8.74596C12.1848 8.6626 12.097 8.5953 11.9966 8.54938C11.8962 8.50346 11.7859 8.48017 11.6743 8.48134Z" fill="white"/>
</svg>
