<svg width="42" height="42" viewBox="0 0 42 42" fill="none" xmlns="http://www.w3.org/2000/svg">
<circle cx="21" cy="21" r="21" fill="#6200EE"/>
<path d="M19.0573 8.89147C19.3072 8.33775 19.7713 7.63637 21.0029 7.63637C22.1274 7.63637 22.6985 8.3562 22.9484 8.89147L33.1939 31.2064C33.4437 31.7601 33.4794 32.3138 33.2831 32.886C33.0868 33.4582 32.7119 33.8827 32.1943 34.1411C31.6588 34.3995 31.1234 34.4364 30.57 34.2334C30.0167 34.0303 29.6062 33.6612 29.3563 33.1075L21.0207 14.9824L12.6673 33.1075C12.4174 33.6612 12.0069 34.0303 11.4536 34.2334C10.9002 34.4364 10.3469 34.3995 9.81144 34.1411C9.27596 33.8827 8.91898 33.4582 8.72264 32.886C8.5263 32.3138 8.54415 31.7416 8.81189 31.2064L19.0573 8.89147Z" fill="white"/>
</svg>
