<svg width="47" height="47" viewBox="0 0 47 47" fill="none" xmlns="http://www.w3.org/2000/svg">
<circle cx="23.5" cy="23.5" r="23.5" fill="#EE9B00"/>
<path d="M29.028 31.088C30.148 31.088 30.708 31.564 30.708 32.516C30.708 33.5053 30.148 34 29.028 34H19.564C18.4253 34 17.856 33.5053 17.856 32.516C17.856 31.564 18.4253 31.088 19.564 31.088H22.476V18.32L19.788 19.972C19.5267 20.1213 19.2933 20.196 19.088 20.196C18.696 20.196 18.36 20.028 18.08 19.692C17.8187 19.356 17.688 18.9827 17.688 18.572C17.688 18.0307 17.9307 17.6107 18.416 17.312L22.756 14.624C23.316 14.288 23.848 14.12 24.352 14.12C24.8747 14.12 25.2947 14.2787 25.612 14.596C25.9293 14.9133 26.088 15.352 26.088 15.912V31.088H29.028Z" fill="white"/>
</svg>
