<svg width="47" height="47" viewBox="0 0 47 47" fill="none" xmlns="http://www.w3.org/2000/svg">
<circle cx="23.5" cy="23.5" r="23.5" fill="#D51408"/>
<path d="M28.944 29.088C30.064 29.088 30.624 29.564 30.624 30.516C30.624 31.5053 30.064 32 28.944 32H18.304C17.8187 32 17.436 31.86 17.156 31.58C16.876 31.2813 16.736 30.9173 16.736 30.488C16.736 29.928 16.9507 29.424 17.38 28.976L23.764 22.116C24.548 21.2573 25.1173 20.4733 25.472 19.764C25.8453 19.036 26.032 18.3173 26.032 17.608C26.032 16.7307 25.78 16.0587 25.276 15.592C24.772 15.1253 24.0533 14.892 23.12 14.892C22.3547 14.892 21.608 15.0413 20.88 15.34C20.1707 15.62 19.452 16.012 18.724 16.516C18.5373 16.6467 18.3507 16.7587 18.164 16.852C17.9773 16.9267 17.7907 16.964 17.604 16.964C17.2867 16.964 17.0067 16.8147 16.764 16.516C16.54 16.2173 16.428 15.8627 16.428 15.452C16.428 15.172 16.4747 14.9293 16.568 14.724C16.68 14.5187 16.848 14.3227 17.072 14.136C17.8933 13.4827 18.8547 12.9693 19.956 12.596C21.0573 12.204 22.1587 12.008 23.26 12.008C25.1827 12.008 26.7133 12.4933 27.852 13.464C29.0093 14.4347 29.588 15.7413 29.588 17.384C29.588 18.5227 29.3453 19.596 28.86 20.604C28.3747 21.5933 27.5533 22.704 26.396 23.936L21.552 29.088H28.944Z" fill="white"/>
</svg>
