<svg width="47" height="47" viewBox="0 0 47 47" fill="none" xmlns="http://www.w3.org/2000/svg">
<circle cx="23.5" cy="23.5" r="23.5" fill="#00EDDF"/>
<path d="M26.424 21.864C27.6 22.1627 28.496 22.732 29.112 23.572C29.7467 24.3933 30.064 25.42 30.064 26.652C30.064 28.3507 29.4387 29.704 28.188 30.712C26.9373 31.72 25.248 32.224 23.12 32.224C21.9067 32.224 20.74 32.0373 19.62 31.664C18.5 31.2907 17.548 30.768 16.764 30.096C16.3347 29.7227 16.12 29.284 16.12 28.78C16.12 28.3693 16.232 28.024 16.456 27.744C16.6987 27.4453 16.9787 27.296 17.296 27.296C17.4827 27.296 17.6507 27.3333 17.8 27.408C17.9493 27.464 18.1547 27.5667 18.416 27.716C19.2 28.2387 19.9467 28.64 20.656 28.92C21.3653 29.2 22.14 29.34 22.98 29.34C24.212 29.34 25.1267 29.0973 25.724 28.612C26.3213 28.108 26.62 27.352 26.62 26.344C26.62 25.3547 26.3027 24.6267 25.668 24.16C25.052 23.6747 24.0907 23.432 22.784 23.432H21.188C20.7587 23.432 20.4227 23.292 20.18 23.012C19.956 22.7133 19.844 22.3773 19.844 22.004C19.844 21.612 19.956 21.276 20.18 20.996C20.4227 20.716 20.7587 20.576 21.188 20.576H22.308C24.8653 20.576 26.144 19.6147 26.144 17.692C26.144 16.796 25.8733 16.1053 25.332 15.62C24.7907 15.1347 24.044 14.892 23.092 14.892C21.7293 14.892 20.2733 15.4333 18.724 16.516C18.4627 16.6653 18.2573 16.7773 18.108 16.852C17.9587 16.908 17.7907 16.936 17.604 16.936C17.2867 16.936 17.0067 16.796 16.764 16.516C16.54 16.2173 16.428 15.8627 16.428 15.452C16.428 15.172 16.4747 14.9387 16.568 14.752C16.68 14.5467 16.848 14.3413 17.072 14.136C17.856 13.4827 18.7893 12.9693 19.872 12.596C20.9733 12.204 22.0933 12.008 23.232 12.008C25.1733 12.008 26.7133 12.484 27.852 13.436C29.0093 14.388 29.588 15.6573 29.588 17.244C29.5693 18.3267 29.28 19.2787 28.72 20.1C28.1787 20.9027 27.4133 21.4907 26.424 21.864Z" fill="white"/>
</svg>
