<svg width="47" height="47" viewBox="0 0 47 47" fill="none" xmlns="http://www.w3.org/2000/svg">
<circle cx="23.5" cy="23.5" r="23.5" fill="#6200EE"/>
<path d="M29.7 25.336C30.26 25.336 30.68 25.4573 30.96 25.7C31.24 25.9427 31.38 26.288 31.38 26.736C31.38 27.6693 30.82 28.136 29.7 28.136H28.272V30.348C28.272 30.9267 28.104 31.3747 27.768 31.692C27.4507 32.0093 27.0307 32.168 26.508 32.168C25.9853 32.168 25.556 32.0093 25.22 31.692C24.9027 31.3747 24.744 30.9267 24.744 30.348V28.136H17.408C16.904 28.136 16.512 27.996 16.232 27.716C15.952 27.4173 15.812 27.0533 15.812 26.624C15.812 26.176 15.9613 25.7467 16.26 25.336L24.912 12.904C25.0987 12.6427 25.332 12.4467 25.612 12.316C25.892 12.1667 26.1813 12.092 26.48 12.092C26.9653 12.092 27.3853 12.2507 27.74 12.568C28.0947 12.8853 28.272 13.3333 28.272 13.912V25.336H29.7ZM19.536 25.336H24.744V17.804L19.536 25.336Z" fill="white"/>
</svg>
