<svg width="71" height="71" viewBox="0 0 71 71" fill="none" xmlns="http://www.w3.org/2000/svg">
<path d="M49.8544 4.91563C44.1003 7.83258 34.171 13.7591 23.9626 23.9677C14.8078 33.1222 9.09646 42.061 5.91214 47.9609C5.31974 49.0587 8.07805 58.1098 9.72714 61.2637L37.6958 38.1139L62.868 8.12282C58.1443 6.04843 50.1882 4.74631 49.8544 4.91563Z" fill="#D7BBFF"/>
<path d="M62.868 8.12305L9.72729 61.2639C9.95541 61.7002 10.1626 62.0247 10.3363 62.1986C11.3068 63.169 21.7087 65.8169 22.8936 65.1767C28.7582 62.0079 37.7351 56.2711 47.0003 47.0059C57.1266 36.8795 63.0393 27.0556 65.9844 21.2907C66.2717 20.7283 65.9266 12.2384 66.1586 11.7567C66.8078 10.4088 65.2475 9.16808 62.868 8.12305Z" fill="#BD8FFF"/>
<path d="M47.7435 23.2411C44.7956 20.2935 40.1372 20.0641 36.9074 22.7076C34.3302 24.8171 31.8214 27.0886 29.4508 29.4592C27.1091 31.8008 24.8341 34.3206 22.6889 36.9485C20.0625 40.1655 20.2974 44.8078 23.2358 47.7549L37.6961 38.1136L47.7467 23.2441C47.7456 23.2433 47.7446 23.2422 47.7435 23.2411Z" fill="#6200EE"/>
<path d="M23.2443 47.7639C24.8195 49.3392 26.8813 50.1384 28.9529 50.1384C30.7639 50.1384 32.5827 49.5272 34.0894 48.29C36.6575 46.1812 39.1612 43.9104 41.5313 41.5402C43.8718 39.1997 46.1465 36.6828 48.2923 34.0591C50.9252 30.8397 50.6902 26.1912 47.7466 23.2441L23.2357 47.7549C23.2388 47.7579 23.2414 47.761 23.2443 47.7639Z" fill="#6200EE"/>
<path d="M4.22038 51.274C2.28855 55.2955 0.952723 59.0194 0.357545 62.0427C-0.354533 65.6587 -0.00521968 68.1121 1.42545 69.5428C1.42934 69.5465 1.4335 69.5501 1.43724 69.5539L9.01245 65.5978L12.1052 58.8859C9.10869 55.8444 6.97565 52.0596 5.91314 47.9612C5.23948 49.2094 4.67633 50.3247 4.22038 51.274Z" fill="#BD8FFF"/>
<path d="M69.5375 1.43057C68.1036 -0.00343579 65.6482 -0.35483 62.0317 0.356001C59.0087 0.950347 55.2848 2.28645 51.2627 4.21994C50.8279 4.42892 50.3553 4.66245 49.8549 4.91621C53.6133 6.05956 57.0203 8.10316 59.8646 10.9476C59.8944 10.9774 59.923 11.0085 59.9526 11.0384L67.0231 8.12285L69.5484 1.44263C69.5446 1.43875 69.5414 1.43445 69.5375 1.43057Z" fill="#BD8FFF"/>
<path d="M25.6312 14.5989L25.5361 12.6298C25.3953 9.71893 24.1829 6.98086 22.1222 4.92007L17.202 0L8.19727 9.00491L13.1173 13.925C15.178 15.9856 17.9161 17.1982 20.8269 17.3388L22.5721 17.4231L38.0699 32.9209H41.0115V29.9794L25.6312 14.5989Z" fill="#18D5CA"/>
<path d="M38.0623 32.9229L41.0035 29.9816L55.5754 44.5535L52.6342 47.4948L38.0623 32.9229Z" fill="#00EDDF"/>
<path d="M18.7214 23.5049L15.7798 26.4465L30.1621 40.8288H33.1037V37.8872L18.7214 23.5049Z" fill="#00EDDF"/>
<path d="M50.5385 53.6611L48.7933 53.5768L33.1037 37.8872L30.1621 40.8288L45.7342 56.401L45.8294 58.3701C45.9701 61.281 47.1825 64.019 49.2432 66.0798L54.1632 70.9999L63.168 61.995L58.2479 57.0749C56.1876 55.0143 53.4495 53.8018 50.5385 53.6611Z" fill="#18D5CA"/>
<path d="M5.82221 70.9998C6.76143 70.9998 7.812 70.8872 8.97102 70.6619C11.992 70.0743 15.717 68.7356 19.7432 66.7904C20.6315 66.3612 21.6665 65.8371 22.8211 65.2147C18.8321 64.1103 15.2197 62.0046 12.2291 59.014C12.187 58.9719 12.1469 58.9282 12.1051 58.8857L1.43713 69.5537C2.40783 70.5165 3.87623 70.9998 5.82221 70.9998Z" fill="#6200EE"/>
<path d="M59.9525 11.0386C62.7939 13.91 64.8622 17.4489 65.9842 21.2903C66.2711 20.7286 66.5312 20.2036 66.763 19.7226C68.7012 15.6989 70.0384 11.9745 70.6299 8.95225C71.3363 5.34387 70.9825 2.88745 69.5486 1.44263L59.9525 11.0386Z" fill="#6200EE"/>
</svg>
