<svg width="17" height="17" viewBox="0 0 17 17" fill="none" xmlns="http://www.w3.org/2000/svg">
<path d="M0.31109 9.26424C0.111899 9.065 0 8.79479 0 8.51306C0 8.23132 0.111899 7.96112 0.31109 7.76187L7.74869 0.324369C7.8467 0.222889 7.96395 0.141946 8.09358 0.086261C8.22321 0.0305765 8.36263 0.00126605 8.50371 4.01169e-05C8.64479 -0.00118581 8.7847 0.025697 8.91528 0.0791205C9.04586 0.132544 9.16449 0.211438 9.26425 0.311199C9.36402 0.41096 9.44291 0.52959 9.49634 0.660168C9.54976 0.790745 9.57664 0.930655 9.57542 1.07173C9.57419 1.21281 9.54488 1.35223 9.4892 1.48186C9.43351 1.61149 9.35256 1.72873 9.25108 1.82674L3.6272 7.45056H15.9375C16.2193 7.45056 16.4895 7.5625 16.6888 7.76176C16.8881 7.96101 17 8.23126 17 8.51306C17 8.79485 16.8881 9.0651 16.6888 9.26436C16.4895 9.46361 16.2193 9.57556 15.9375 9.57556H3.6272L9.25108 15.1994C9.44463 15.3998 9.55172 15.6681 9.5493 15.9467C9.54688 16.2253 9.43514 16.4918 9.23814 16.6888C9.04114 16.8858 8.77465 16.9975 8.49606 17C8.21747 17.0024 7.94908 16.8953 7.74869 16.7017L0.318527 9.27168L0.31109 9.26424Z" fill="#6200EE"/>
</svg>
