<svg width="13" height="17" viewBox="0 0 13 17" fill="none" xmlns="http://www.w3.org/2000/svg">
<path fill-rule="evenodd" clip-rule="evenodd" d="M0.607143 0C0.768167 0 0.922596 0.0639666 1.03646 0.177828C1.15032 0.291689 1.21429 0.446119 1.21429 0.607143V16.3929C1.21429 16.5539 1.15032 16.7083 1.03646 16.8222C0.922596 16.936 0.768167 17 0.607143 17C0.446119 17 0.29169 16.936 0.177828 16.8222C0.0639668 16.7083 0 16.5539 0 16.3929V0.607143C0 0.446119 0.0639668 0.291689 0.177828 0.177828C0.29169 0.0639666 0.446119 0 0.607143 0Z" fill="white"/>
<path fill-rule="evenodd" clip-rule="evenodd" d="M0.925274 1.89186C2.10677 1.10379 2.85113 0.607147 4.24999 0.607147C5.04292 0.607147 5.63306 1.00179 6.06534 1.28958L6.1042 1.31629C6.57899 1.632 6.88863 1.82143 7.2857 1.82143C7.4897 1.82143 7.71799 1.77043 7.99849 1.66843C8.2421 1.57597 8.48228 1.47471 8.71856 1.36486C8.78899 1.33208 8.86063 1.3005 8.93713 1.26772C9.62927 0.958076 10.489 0.607147 11.5357 0.607147C11.6967 0.607147 11.8512 0.671114 11.965 0.784975C12.0789 0.898837 12.1428 1.05327 12.1428 1.21429V8.5C12.1428 8.66103 12.0789 8.81546 11.965 8.92932C11.8512 9.04318 11.6967 9.10715 11.5357 9.10715C10.761 9.10715 10.1028 9.36215 9.43013 9.66208L9.23706 9.74708C8.96992 9.86851 8.68699 9.99601 8.41377 10.0956C8.05386 10.2363 7.67205 10.3127 7.2857 10.3214C6.49277 10.3214 5.90263 9.92679 5.47035 9.639L5.43149 9.61229C4.9567 9.29658 4.64706 9.10715 4.24999 9.10715C3.23849 9.10715 2.77099 9.40586 1.55063 10.2194C1.48222 10.2605 1.40639 10.2877 1.32748 10.2994C1.24856 10.3112 1.1681 10.3073 1.0907 10.288C1.01329 10.2686 0.940449 10.2342 0.876334 10.1867C0.812219 10.1392 0.758085 10.0796 0.717023 10.0112C0.675962 9.94277 0.648776 9.86695 0.63702 9.78803C0.625263 9.70912 0.629165 9.62866 0.648503 9.55125C0.667841 9.47384 0.702235 9.401 0.749724 9.33689C0.797212 9.27277 0.856864 9.21864 0.925274 9.17758C2.10677 8.3895 2.85113 7.89286 4.24999 7.89286C5.04292 7.89286 5.63306 8.2875 6.06534 8.57529L6.1042 8.602C6.57899 8.91772 6.88863 9.10715 7.2857 9.10715C7.4897 9.10715 7.71799 9.05615 7.99849 8.95415C8.22556 8.87158 8.45506 8.76836 8.71856 8.65058C8.78899 8.61779 8.86063 8.58622 8.93713 8.55343C9.49084 8.30572 10.1514 8.03129 10.9286 7.93172V1.87365C10.4028 1.9635 9.9207 2.15779 9.43013 2.37636L9.23706 2.46136C8.96992 2.58279 8.68699 2.71029 8.41377 2.80986C8.05386 2.95058 7.67205 3.02703 7.2857 3.03572C6.49277 3.03572 5.90263 2.64108 5.47035 2.35329L5.43149 2.32658C4.9567 2.01086 4.64706 1.82143 4.24999 1.82143C3.23849 1.82143 2.77099 2.12015 1.55063 2.93372C1.41666 3.01736 1.25536 3.04551 1.10098 3.01218C0.946591 2.97885 0.81127 2.88667 0.723733 2.75521C0.636196 2.62375 0.603333 2.46334 0.63212 2.30805C0.660907 2.15275 0.749076 2.01479 0.877916 1.92343L0.925274 1.89186Z" fill="white"/>
</svg>
