<svg width="52" height="442" viewBox="0 0 52 442" fill="none" xmlns="http://www.w3.org/2000/svg">
<g filter="url(#filter0_d)">
<path d="M48 0L48 434L14 434C8.47715 434 4 429.523 4 424L4.00002 10C4.00002 4.47716 8.47718 -1.43144e-06 14 -1.23141e-06L48 0Z" fill="#F8F7F4"/>
</g>
<path d="M27 170.041L41.3836 162.263L40.1354 178.567" stroke="#D7BBFF" stroke-width="3" stroke-linecap="round" stroke-linejoin="round"/>
<path d="M44 78.8C44.5067 78.8 44.92 78.9733 45.24 79.32C45.5867 79.64 45.76 80.0533 45.76 80.56C45.76 81.0667 45.5867 81.4933 45.24 81.84C44.92 82.16 44.5067 82.32 44 82.32H37.76V88.52C37.76 89.0267 37.5867 89.4533 37.24 89.8C36.92 90.1467 36.5067 90.32 36 90.32C35.4933 90.32 35.0667 90.1467 34.72 89.8C34.4 89.4533 34.24 89.0267 34.24 88.52V82.32H28C27.4933 82.32 27.0667 82.16 26.72 81.84C26.4 81.4933 26.24 81.0667 26.24 80.56C26.24 80.0533 26.4 79.64 26.72 79.32C27.0667 78.9733 27.4933 78.8 28 78.8H34.24V72.56C34.24 72.0533 34.4 71.64 34.72 71.32C35.0667 70.9733 35.4933 70.8 36 70.8C36.5067 70.8 36.92 70.9733 37.24 71.32C37.5867 71.64 37.76 72.0533 37.76 72.56V78.8H44Z" fill="#D7BBFF"/>
<circle cx="24.8796" cy="127.786" r="2.58644" transform="rotate(-15 24.8796 127.786)" fill="#D7BBFF"/>
<circle cx="22.0347" cy="117.168" r="2.58644" transform="rotate(-15 22.0347 117.168)" fill="#D7BBFF"/>
<circle cx="11.6738" cy="125.969" r="2.58644" transform="rotate(-15 11.6738 125.969)" fill="#D7BBFF"/>
<path d="M5.72859 56.4561C4.87593 57.1583 4.75396 58.4188 5.45614 59.2714C6.15832 60.1241 7.41876 60.246 8.27141 59.5439L5.72859 56.4561ZM25.2714 45.5439C26.1241 44.8417 26.246 43.5812 25.5439 42.7286C24.8417 41.8759 23.5812 41.754 22.7286 42.4561L25.2714 45.5439ZM8.27141 59.5439L25.2714 45.5439L22.7286 42.4561L5.72859 56.4561L8.27141 59.5439Z" fill="#D7BBFF"/>
<circle cx="38" cy="14" r="7.5" stroke="#D7BBFF" stroke-width="3"/>
<path d="M26 267.526L40.3836 275.304L39.1354 259" stroke="#D7BBFF" stroke-width="3" stroke-linecap="round" stroke-linejoin="round"/>
<path d="M43 358.767C43.5067 358.767 43.92 358.594 44.24 358.247C44.5867 357.927 44.76 357.514 44.76 357.007C44.76 356.501 44.5867 356.074 44.24 355.727C43.92 355.407 43.5067 355.247 43 355.247H36.76V349.047C36.76 348.541 36.5867 348.114 36.24 347.767C35.92 347.421 35.5067 347.247 35 347.247C34.4933 347.247 34.0667 347.421 33.72 347.767C33.4 348.114 33.24 348.541 33.24 349.047V355.247H27C26.4933 355.247 26.0667 355.407 25.72 355.727C25.4 356.074 25.24 356.501 25.24 357.007C25.24 357.514 25.4 357.927 25.72 358.247C26.0667 358.594 26.4933 358.767 27 358.767H33.24V365.007C33.24 365.514 33.4 365.927 33.72 366.247C34.0667 366.594 34.4933 366.767 35 366.767C35.5067 366.767 35.92 366.594 36.24 366.247C36.5867 365.927 36.76 365.514 36.76 365.007V358.767H43Z" fill="#D7BBFF"/>
<circle r="2.58644" transform="matrix(0.965926 0.258819 0.258819 -0.965926 23.8796 309.782)" fill="#D7BBFF"/>
<circle r="2.58644" transform="matrix(0.965926 0.258819 0.258819 -0.965926 21.0347 320.4)" fill="#D7BBFF"/>
<circle r="2.58644" transform="matrix(0.965926 0.258819 0.258819 -0.965926 10.6738 311.599)" fill="#D7BBFF"/>
<path d="M4.72859 381.111C3.87593 380.409 3.75396 379.148 4.45614 378.296C5.15832 377.443 6.41876 377.321 7.27141 378.023L4.72859 381.111ZM24.2714 392.023C25.1241 392.726 25.246 393.986 24.5439 394.839C23.8417 395.691 22.5812 395.813 21.7286 395.111L24.2714 392.023ZM7.27141 378.023L24.2714 392.023L21.7286 395.111L4.72859 381.111L7.27141 378.023Z" fill="#D7BBFF"/>
<circle r="7.5" transform="matrix(1 0 0 -1 37 423.567)" stroke="#D7BBFF" stroke-width="3"/>
<path d="M18.22 256.364C18.22 256.028 18.328 255.758 18.544 255.554C18.748 255.35 19.024 255.248 19.372 255.248L30.028 255.248C30.364 255.248 30.628 255.344 30.82 255.536C31.012 255.728 31.108 255.98 31.108 256.292C31.108 256.604 31.012 256.85 30.82 257.03C30.628 257.21 30.364 257.3 30.028 257.3L22.612 257.3L28.408 260.36C28.672 260.504 28.87 260.66 29.002 260.828C29.122 260.996 29.182 261.194 29.182 261.422C29.182 261.65 29.122 261.848 29.002 262.016C28.882 262.184 28.684 262.34 28.408 262.484L22.702 265.562L30.028 265.562C30.352 265.562 30.616 265.658 30.82 265.85C31.012 266.03 31.108 266.276 31.108 266.588C31.108 266.9 31.012 267.146 30.82 267.326C30.628 267.506 30.364 267.596 30.028 267.596L19.372 267.596C19.024 267.596 18.748 267.5 18.544 267.308C18.328 267.104 18.22 266.834 18.22 266.498C18.22 266.03 18.478 265.664 18.994 265.4L26.608 261.404L18.994 257.426C18.478 257.162 18.22 256.808 18.22 256.364ZM29.614 240.995C29.77 240.923 29.926 240.887 30.082 240.887C30.358 240.887 30.592 241.001 30.784 241.229C30.976 241.445 31.072 241.697 31.072 241.985C31.072 242.177 31.024 242.357 30.928 242.525C30.82 242.693 30.658 242.825 30.442 242.921L28.03 244.001L28.03 250.337L30.442 251.417C30.658 251.513 30.82 251.645 30.928 251.813C31.024 251.981 31.072 252.167 31.072 252.371C31.072 252.647 30.976 252.899 30.784 253.127C30.592 253.355 30.358 253.469 30.082 253.469C29.926 253.469 29.77 253.433 29.614 253.361L18.94 248.393C18.7 248.285 18.52 248.123 18.4 247.907C18.268 247.679 18.202 247.439 18.202 247.187C18.202 246.935 18.268 246.701 18.4 246.485C18.52 246.257 18.7 246.089 18.94 245.981L29.614 240.995ZM26.23 249.545L26.23 244.793L20.884 247.169L26.23 249.545ZM31.162 233.872C31.162 235.096 30.898 236.17 30.37 237.094C29.842 238.006 29.086 238.708 28.102 239.2C27.118 239.692 25.966 239.938 24.646 239.938C23.326 239.938 22.18 239.692 21.208 239.2C20.224 238.708 19.468 238.006 18.94 237.094C18.412 236.17 18.148 235.096 18.148 233.872C18.148 233.08 18.268 232.336 18.508 231.64C18.736 230.944 19.072 230.326 19.516 229.786C19.636 229.63 19.762 229.522 19.894 229.462C20.026 229.402 20.188 229.372 20.38 229.372C20.644 229.372 20.866 229.444 21.046 229.588C21.226 229.732 21.316 229.906 21.316 230.11C21.316 230.35 21.232 230.596 21.064 230.848C20.68 231.364 20.416 231.844 20.272 232.288C20.116 232.732 20.038 233.224 20.038 233.764C20.038 235.012 20.428 235.96 21.208 236.608C21.988 237.244 23.134 237.562 24.646 237.562C26.17 237.562 27.322 237.244 28.102 236.608C28.882 235.96 29.272 235.012 29.272 233.764C29.272 233.248 29.194 232.774 29.038 232.342C28.882 231.898 28.618 231.4 28.246 230.848C28.174 230.728 28.114 230.608 28.066 230.488C28.018 230.368 27.994 230.242 27.994 230.11C27.994 229.906 28.084 229.732 28.264 229.588C28.444 229.444 28.666 229.372 28.93 229.372C29.11 229.372 29.272 229.402 29.416 229.462C29.548 229.522 29.674 229.63 29.794 229.786C30.238 230.326 30.58 230.944 30.82 231.64C31.048 232.336 31.162 233.08 31.162 233.872ZM18.22 217.425C18.22 217.077 18.328 216.801 18.544 216.597C18.748 216.393 19.024 216.291 19.372 216.291L29.938 216.291C30.286 216.291 30.568 216.399 30.784 216.615C31 216.819 31.108 217.089 31.108 217.425C31.108 217.773 31 218.049 30.784 218.253C30.568 218.457 30.286 218.559 29.938 218.559L25.492 218.559L25.492 225.057L29.938 225.057C30.286 225.057 30.568 225.165 30.784 225.381C31 225.585 31.108 225.861 31.108 226.209C31.108 226.545 31 226.821 30.784 227.037C30.568 227.241 30.286 227.343 29.938 227.343L19.372 227.343C19.024 227.343 18.748 227.241 18.544 227.037C18.328 226.833 18.22 226.557 18.22 226.209C18.22 225.861 18.328 225.585 18.544 225.381C18.748 225.165 19.024 225.057 19.372 225.057L23.62 225.057L23.62 218.559L19.372 218.559C19.024 218.559 18.748 218.457 18.544 218.253C18.328 218.049 18.22 217.773 18.22 217.425ZM31 207.577C31 207.925 30.904 208.195 30.712 208.387C30.52 208.579 30.256 208.675 29.92 208.675L19.372 208.675C19.024 208.675 18.748 208.573 18.544 208.369C18.328 208.153 18.22 207.871 18.22 207.523C18.22 207.163 18.328 206.881 18.544 206.677C18.748 206.461 19.024 206.353 19.372 206.353L29.092 206.353L29.092 201.295C29.092 200.575 29.41 200.215 30.046 200.215C30.682 200.215 31 200.575 31 201.295L31 207.577ZM31.144 194.927C31.144 195.827 30.958 196.619 30.586 197.303C30.214 197.975 29.68 198.497 28.984 198.869C28.288 199.241 27.478 199.427 26.554 199.427C25.63 199.427 24.826 199.241 24.142 198.869C23.446 198.497 22.912 197.975 22.54 197.303C22.168 196.619 21.982 195.827 21.982 194.927C21.982 194.027 22.168 193.241 22.54 192.569C22.912 191.885 23.446 191.363 24.142 191.003C24.826 190.631 25.63 190.445 26.554 190.445C27.478 190.445 28.288 190.631 28.984 191.003C29.68 191.363 30.214 191.885 30.586 192.569C30.958 193.241 31.144 194.027 31.144 194.927ZM29.398 194.945C29.398 194.213 29.158 193.655 28.678 193.271C28.198 192.887 27.49 192.695 26.554 192.695C25.63 192.695 24.928 192.887 24.448 193.271C23.956 193.655 23.71 194.207 23.71 194.927C23.71 195.647 23.956 196.205 24.448 196.601C24.928 196.985 25.63 197.177 26.554 197.177C27.49 197.177 28.198 196.985 28.678 196.601C29.158 196.217 29.398 195.665 29.398 194.945ZM22.666 182.59C22.45 182.494 22.288 182.368 22.18 182.212C22.072 182.044 22.018 181.864 22.018 181.672C22.018 181.396 22.114 181.15 22.306 180.934C22.486 180.706 22.714 180.592 22.99 180.592C23.134 180.592 23.278 180.628 23.422 180.7L30.388 184.03C30.616 184.138 30.79 184.294 30.91 184.498C31.03 184.69 31.09 184.906 31.09 185.146C31.09 185.374 31.03 185.596 30.91 185.812C30.79 186.016 30.616 186.172 30.388 186.28L23.422 189.628C23.302 189.688 23.164 189.718 23.008 189.718C22.732 189.718 22.498 189.604 22.306 189.376C22.114 189.136 22.018 188.866 22.018 188.566C22.018 188.134 22.228 187.816 22.648 187.612L28.21 185.092L22.666 182.59ZM28.588 172.428C28.588 172.224 28.666 172.062 28.822 171.942C28.978 171.81 29.188 171.744 29.452 171.744C29.824 171.744 30.136 171.966 30.388 172.41C30.616 172.818 30.802 173.28 30.946 173.796C31.078 174.312 31.144 174.804 31.144 175.272C31.144 176.688 30.736 177.81 29.92 178.638C29.104 179.466 27.988 179.88 26.572 179.88C25.672 179.88 24.874 179.7 24.178 179.34C23.482 178.98 22.942 178.476 22.558 177.828C22.174 177.168 21.982 176.424 21.982 175.596C21.982 174.804 22.156 174.114 22.504 173.526C22.852 172.938 23.344 172.482 23.98 172.158C24.616 171.834 25.366 171.672 26.23 171.672C26.746 171.672 27.004 171.9 27.004 172.356L27.004 177.666C27.832 177.594 28.444 177.36 28.84 176.964C29.224 176.568 29.416 175.992 29.416 175.236C29.416 174.852 29.368 174.516 29.272 174.228C29.176 173.928 29.044 173.592 28.876 173.22C28.684 172.86 28.588 172.596 28.588 172.428ZM23.566 175.542C23.566 176.154 23.758 176.646 24.142 177.018C24.526 177.378 25.078 177.594 25.798 177.666L25.798 173.598C25.066 173.622 24.514 173.802 24.142 174.138C23.758 174.474 23.566 174.942 23.566 175.542ZM22.018 164.918C21.994 164.606 22.06 164.36 22.216 164.18C22.372 164 22.606 163.91 22.918 163.91C23.242 163.91 23.482 163.988 23.638 164.144C23.794 164.3 23.896 164.582 23.944 164.99L23.998 165.53C24.07 166.238 24.31 166.76 24.718 167.096C25.126 167.42 25.636 167.582 26.248 167.582L30.028 167.582C30.376 167.582 30.646 167.69 30.838 167.906C31.018 168.122 31.108 168.392 31.108 168.716C31.108 169.04 31.018 169.31 30.838 169.526C30.646 169.73 30.376 169.832 30.028 169.832L23.062 169.832C22.726 169.832 22.468 169.73 22.288 169.526C22.108 169.31 22.018 169.046 22.018 168.734C22.018 168.422 22.108 168.17 22.288 167.978C22.456 167.786 22.702 167.69 23.026 167.69L23.746 167.69C23.218 167.462 22.81 167.126 22.522 166.682C22.234 166.226 22.072 165.722 22.036 165.17L22.018 164.918Z" fill="#6200EE"/>
<defs>
<filter id="filter0_d" x="0" y="0" width="52" height="442" filterUnits="userSpaceOnUse" color-interpolation-filters="sRGB">
<feFlood flood-opacity="0" result="BackgroundImageFix"/>
<feColorMatrix in="SourceAlpha" type="matrix" values="0 0 0 0 0 0 0 0 0 0 0 0 0 0 0 0 0 0 127 0"/>
<feOffset dy="4"/>
<feGaussianBlur stdDeviation="2"/>
<feColorMatrix type="matrix" values="0 0 0 0 0 0 0 0 0 0 0 0 0 0 0 0 0 0 0.25 0"/>
<feBlend mode="normal" in2="BackgroundImageFix" result="effect1_dropShadow"/>
<feBlend mode="normal" in="SourceGraphic" in2="effect1_dropShadow" result="shape"/>
</filter>
</defs>
</svg>
