<svg width="52" height="442" viewBox="0 0 52 442" fill="none" xmlns="http://www.w3.org/2000/svg">
<g filter="url(#filter0_d)">
<path d="M48 0L48 434L14 434C8.47715 434 4 429.523 4 424L4.00002 10C4.00002 4.47716 8.47718 -1.43144e-06 14 -1.23141e-06L48 0Z" fill="#F8F7F4"/>
</g>
<path d="M27 170.041L41.3836 162.263L40.1354 178.567" stroke="#FFBEBA" stroke-width="3" stroke-linecap="round" stroke-linejoin="round"/>
<path d="M44 78.8C44.5067 78.8 44.92 78.9733 45.24 79.32C45.5867 79.64 45.76 80.0533 45.76 80.56C45.76 81.0667 45.5867 81.4933 45.24 81.84C44.92 82.16 44.5067 82.32 44 82.32H37.76V88.52C37.76 89.0267 37.5867 89.4533 37.24 89.8C36.92 90.1467 36.5067 90.32 36 90.32C35.4933 90.32 35.0667 90.1467 34.72 89.8C34.4 89.4533 34.24 89.0267 34.24 88.52V82.32H28C27.4933 82.32 27.0667 82.16 26.72 81.84C26.4 81.4933 26.24 81.0667 26.24 80.56C26.24 80.0533 26.4 79.64 26.72 79.32C27.0667 78.9733 27.4933 78.8 28 78.8H34.24V72.56C34.24 72.0533 34.4 71.64 34.72 71.32C35.0667 70.9733 35.4933 70.8 36 70.8C36.5067 70.8 36.92 70.9733 37.24 71.32C37.5867 71.64 37.76 72.0533 37.76 72.56V78.8H44Z" fill="#FFBEBA"/>
<circle cx="24.8796" cy="127.786" r="2.58644" transform="rotate(-15 24.8796 127.786)" fill="#FFBEBA"/>
<circle cx="22.0347" cy="117.168" r="2.58644" transform="rotate(-15 22.0347 117.168)" fill="#FFBEBA"/>
<circle cx="11.6738" cy="125.969" r="2.58644" transform="rotate(-15 11.6738 125.969)" fill="#FFBEBA"/>
<path d="M5.72859 56.4561C4.87593 57.1583 4.75396 58.4188 5.45614 59.2714C6.15832 60.1241 7.41876 60.246 8.27141 59.5439L5.72859 56.4561ZM25.2714 45.5439C26.1241 44.8417 26.246 43.5812 25.5439 42.7286C24.8417 41.8759 23.5812 41.754 22.7286 42.4561L25.2714 45.5439ZM8.27141 59.5439L25.2714 45.5439L22.7286 42.4561L5.72859 56.4561L8.27141 59.5439Z" fill="#FFBEBA"/>
<circle cx="38" cy="14" r="7.5" stroke="#FFBEBA" stroke-width="3"/>
<path d="M26 267.526L40.3836 275.304L39.1354 259" stroke="#FFBEBA" stroke-width="3" stroke-linecap="round" stroke-linejoin="round"/>
<path d="M43 359.2C43.5067 359.2 43.92 359.027 44.24 358.68C44.5867 358.36 44.76 357.947 44.76 357.44C44.76 356.933 44.5867 356.507 44.24 356.16C43.92 355.84 43.5067 355.68 43 355.68H36.76V349.48C36.76 348.973 36.5867 348.547 36.24 348.2C35.92 347.853 35.5067 347.68 35 347.68C34.4933 347.68 34.0667 347.853 33.72 348.2C33.4 348.547 33.24 348.973 33.24 349.48V355.68H27C26.4933 355.68 26.0667 355.84 25.72 356.16C25.4 356.507 25.24 356.933 25.24 357.44C25.24 357.947 25.4 358.36 25.72 358.68C26.0667 359.027 26.4933 359.2 27 359.2H33.24V365.44C33.24 365.947 33.4 366.36 33.72 366.68C34.0667 367.027 34.4933 367.2 35 367.2C35.5067 367.2 35.92 367.027 36.24 366.68C36.5867 366.36 36.76 365.947 36.76 365.44V359.2H43Z" fill="#FFBEBA"/>
<circle r="2.58644" transform="matrix(0.965926 0.258819 0.258819 -0.965926 23.8796 309.782)" fill="#FFBEBA"/>
<circle r="2.58644" transform="matrix(0.965926 0.258819 0.258819 -0.965926 21.0347 320.4)" fill="#FFBEBA"/>
<circle r="2.58644" transform="matrix(0.965926 0.258819 0.258819 -0.965926 10.6738 311.599)" fill="#FFBEBA"/>
<path d="M4.72859 381.111C3.87593 380.409 3.75396 379.148 4.45614 378.296C5.15832 377.443 6.41876 377.321 7.27141 378.023L4.72859 381.111ZM24.2714 392.023C25.1241 392.726 25.246 393.986 24.5439 394.839C23.8417 395.691 22.5812 395.813 21.7286 395.111L24.2714 392.023ZM7.27141 378.023L24.2714 392.023L21.7286 395.111L4.72859 381.111L7.27141 378.023Z" fill="#FFBEBA"/>
<circle r="7.5" transform="matrix(1 0 0 -1 37 423.567)" stroke="#FFBEBA" stroke-width="3"/>
<path d="M18.22 251.364C18.22 251.028 18.328 250.758 18.544 250.554C18.748 250.35 19.024 250.248 19.372 250.248L30.028 250.248C30.364 250.248 30.628 250.344 30.82 250.536C31.012 250.728 31.108 250.98 31.108 251.292C31.108 251.604 31.012 251.85 30.82 252.03C30.628 252.21 30.364 252.3 30.028 252.3L22.612 252.3L28.408 255.36C28.672 255.504 28.87 255.66 29.002 255.828C29.122 255.996 29.182 256.194 29.182 256.422C29.182 256.65 29.122 256.848 29.002 257.016C28.882 257.184 28.684 257.34 28.408 257.484L22.702 260.562L30.028 260.562C30.352 260.562 30.616 260.658 30.82 260.85C31.012 261.03 31.108 261.276 31.108 261.588C31.108 261.9 31.012 262.146 30.82 262.326C30.628 262.506 30.364 262.596 30.028 262.596L19.372 262.596C19.024 262.596 18.748 262.5 18.544 262.308C18.328 262.104 18.22 261.834 18.22 261.498C18.22 261.03 18.478 260.664 18.994 260.4L26.608 256.404L18.994 252.426C18.478 252.162 18.22 251.808 18.22 251.364ZM29.614 235.995C29.77 235.923 29.926 235.887 30.082 235.887C30.358 235.887 30.592 236.001 30.784 236.229C30.976 236.445 31.072 236.697 31.072 236.985C31.072 237.177 31.024 237.357 30.928 237.525C30.82 237.693 30.658 237.825 30.442 237.921L28.03 239.001L28.03 245.337L30.442 246.417C30.658 246.513 30.82 246.645 30.928 246.813C31.024 246.981 31.072 247.167 31.072 247.371C31.072 247.647 30.976 247.899 30.784 248.127C30.592 248.355 30.358 248.469 30.082 248.469C29.926 248.469 29.77 248.433 29.614 248.361L18.94 243.393C18.7 243.285 18.52 243.123 18.4 242.907C18.268 242.679 18.202 242.439 18.202 242.187C18.202 241.935 18.268 241.701 18.4 241.485C18.52 241.257 18.7 241.089 18.94 240.981L29.614 235.995ZM26.23 244.545L26.23 239.793L20.884 242.169L26.23 244.545ZM31.162 228.872C31.162 230.096 30.898 231.17 30.37 232.094C29.842 233.006 29.086 233.708 28.102 234.2C27.118 234.692 25.966 234.938 24.646 234.938C23.326 234.938 22.18 234.692 21.208 234.2C20.224 233.708 19.468 233.006 18.94 232.094C18.412 231.17 18.148 230.096 18.148 228.872C18.148 228.08 18.268 227.336 18.508 226.64C18.736 225.944 19.072 225.326 19.516 224.786C19.636 224.63 19.762 224.522 19.894 224.462C20.026 224.402 20.188 224.372 20.38 224.372C20.644 224.372 20.866 224.444 21.046 224.588C21.226 224.732 21.316 224.906 21.316 225.11C21.316 225.35 21.232 225.596 21.064 225.848C20.68 226.364 20.416 226.844 20.272 227.288C20.116 227.732 20.038 228.224 20.038 228.764C20.038 230.012 20.428 230.96 21.208 231.608C21.988 232.244 23.134 232.562 24.646 232.562C26.17 232.562 27.322 232.244 28.102 231.608C28.882 230.96 29.272 230.012 29.272 228.764C29.272 228.248 29.194 227.774 29.038 227.342C28.882 226.898 28.618 226.4 28.246 225.848C28.174 225.728 28.114 225.608 28.066 225.488C28.018 225.368 27.994 225.242 27.994 225.11C27.994 224.906 28.084 224.732 28.264 224.588C28.444 224.444 28.666 224.372 28.93 224.372C29.11 224.372 29.272 224.402 29.416 224.462C29.548 224.522 29.674 224.63 29.794 224.786C30.238 225.326 30.58 225.944 30.82 226.64C31.048 227.336 31.162 228.08 31.162 228.872ZM18.22 212.425C18.22 212.077 18.328 211.801 18.544 211.597C18.748 211.393 19.024 211.291 19.372 211.291L29.938 211.291C30.286 211.291 30.568 211.399 30.784 211.615C31 211.819 31.108 212.089 31.108 212.425C31.108 212.773 31 213.049 30.784 213.253C30.568 213.457 30.286 213.559 29.938 213.559L25.492 213.559L25.492 220.057L29.938 220.057C30.286 220.057 30.568 220.165 30.784 220.381C31 220.585 31.108 220.861 31.108 221.209C31.108 221.545 31 221.821 30.784 222.037C30.568 222.241 30.286 222.343 29.938 222.343L19.372 222.343C19.024 222.343 18.748 222.241 18.544 222.037C18.328 221.833 18.22 221.557 18.22 221.209C18.22 220.861 18.328 220.585 18.544 220.381C18.748 220.165 19.024 220.057 19.372 220.057L23.62 220.057L23.62 213.559L19.372 213.559C19.024 213.559 18.748 213.457 18.544 213.253C18.328 213.049 18.22 212.773 18.22 212.425ZM31 202.559C31 202.907 30.904 203.183 30.712 203.387C30.52 203.579 30.25 203.675 29.902 203.675L19.408 203.675C19.06 203.675 18.79 203.579 18.598 203.387C18.406 203.183 18.31 202.907 18.31 202.559L18.31 196.061C18.31 195.713 18.388 195.443 18.544 195.251C18.7 195.059 18.922 194.963 19.21 194.963C19.51 194.963 19.744 195.059 19.912 195.251C20.068 195.443 20.146 195.713 20.146 196.061L20.146 201.407L23.638 201.407L23.638 196.421C23.638 196.073 23.716 195.803 23.872 195.611C24.028 195.419 24.256 195.323 24.556 195.323C24.844 195.323 25.066 195.419 25.222 195.611C25.378 195.803 25.456 196.073 25.456 196.421L25.456 201.407L29.164 201.407L29.164 196.061C29.164 195.713 29.248 195.443 29.416 195.251C29.572 195.059 29.8 194.963 30.1 194.963C30.388 194.963 30.61 195.059 30.766 195.251C30.922 195.443 31 195.713 31 196.061L31 202.559ZM29.344 185.641C29.56 185.425 29.806 185.317 30.082 185.317C30.346 185.317 30.586 185.419 30.802 185.623C31.006 185.827 31.108 186.067 31.108 186.343C31.108 186.643 30.982 186.901 30.73 187.117L27.922 189.655L30.73 192.193C30.97 192.421 31.09 192.679 31.09 192.967C31.09 193.231 30.988 193.465 30.784 193.669C30.58 193.873 30.346 193.975 30.082 193.975C29.806 193.975 29.56 193.867 29.344 193.651L26.482 191.023L23.782 193.507C23.566 193.723 23.32 193.831 23.044 193.831C22.768 193.831 22.534 193.729 22.342 193.525C22.138 193.321 22.036 193.087 22.036 192.823C22.036 192.535 22.156 192.277 22.396 192.049L25.024 189.655L22.396 187.261C22.156 187.033 22.036 186.775 22.036 186.487C22.036 186.211 22.138 185.977 22.342 185.785C22.534 185.581 22.768 185.479 23.044 185.479C23.32 185.479 23.566 185.587 23.782 185.803L26.482 188.287L29.344 185.641ZM21.982 178.635C21.982 177.879 22.174 177.207 22.558 176.619C22.942 176.019 23.488 175.557 24.196 175.233C24.892 174.897 25.696 174.729 26.608 174.729C27.52 174.729 28.318 174.897 29.002 175.233C29.686 175.557 30.214 176.013 30.586 176.601C30.958 177.189 31.144 177.867 31.144 178.635C31.144 179.259 31.012 179.817 30.748 180.309C30.484 180.801 30.118 181.179 29.65 181.443L33.322 181.443C33.634 181.443 33.88 181.545 34.06 181.749C34.24 181.953 34.33 182.223 34.33 182.559C34.33 182.895 34.234 183.171 34.042 183.387C33.85 183.591 33.598 183.693 33.286 183.693L23.08 183.693C22.756 183.693 22.498 183.597 22.306 183.405C22.114 183.201 22.018 182.931 22.018 182.595C22.018 182.259 22.114 181.989 22.306 181.785C22.498 181.581 22.756 181.479 23.08 181.479L23.53 181.479C23.038 181.215 22.66 180.837 22.396 180.345C22.12 179.841 21.982 179.271 21.982 178.635ZM29.398 179.229C29.398 178.521 29.158 177.969 28.678 177.573C28.186 177.177 27.496 176.979 26.608 176.979C25.696 176.979 24.988 177.177 24.484 177.573C23.98 177.969 23.728 178.521 23.728 179.229C23.728 179.949 23.974 180.507 24.466 180.903C24.958 181.287 25.66 181.479 26.572 181.479C27.472 181.479 28.168 181.287 28.66 180.903C29.152 180.507 29.398 179.949 29.398 179.229ZM31.108 171.767C31.108 172.091 31.018 172.361 30.838 172.577C30.646 172.781 30.376 172.883 30.028 172.883L19.282 172.883C18.934 172.883 18.67 172.781 18.49 172.577C18.31 172.361 18.22 172.091 18.22 171.767C18.22 171.443 18.31 171.173 18.49 170.957C18.67 170.741 18.934 170.633 19.282 170.633L30.028 170.633C30.376 170.633 30.646 170.741 30.838 170.957C31.018 171.173 31.108 171.443 31.108 171.767ZM31.144 164.298C31.144 165.198 30.958 165.99 30.586 166.674C30.214 167.346 29.68 167.868 28.984 168.24C28.288 168.612 27.478 168.798 26.554 168.798C25.63 168.798 24.826 168.612 24.142 168.24C23.446 167.868 22.912 167.346 22.54 166.674C22.168 165.99 21.982 165.198 21.982 164.298C21.982 163.398 22.168 162.612 22.54 161.94C22.912 161.256 23.446 160.734 24.142 160.374C24.826 160.002 25.63 159.816 26.554 159.816C27.478 159.816 28.288 160.002 28.984 160.374C29.68 160.734 30.214 161.256 30.586 161.94C30.958 162.612 31.144 163.398 31.144 164.298ZM29.398 164.316C29.398 163.584 29.158 163.026 28.678 162.642C28.198 162.258 27.49 162.066 26.554 162.066C25.63 162.066 24.928 162.258 24.448 162.642C23.956 163.026 23.71 163.578 23.71 164.298C23.71 165.018 23.956 165.576 24.448 165.972C24.928 166.356 25.63 166.548 26.554 166.548C27.49 166.548 28.198 166.356 28.678 165.972C29.158 165.588 29.398 165.036 29.398 164.316ZM22.018 153.045C21.994 152.733 22.06 152.487 22.216 152.307C22.372 152.127 22.606 152.037 22.918 152.037C23.242 152.037 23.482 152.115 23.638 152.271C23.794 152.427 23.896 152.709 23.944 153.117L23.998 153.657C24.07 154.365 24.31 154.887 24.718 155.223C25.126 155.547 25.636 155.709 26.248 155.709L30.028 155.709C30.376 155.709 30.646 155.817 30.838 156.033C31.018 156.249 31.108 156.519 31.108 156.843C31.108 157.167 31.018 157.437 30.838 157.653C30.646 157.857 30.376 157.959 30.028 157.959L23.062 157.959C22.726 157.959 22.468 157.857 22.288 157.653C22.108 157.437 22.018 157.173 22.018 156.861C22.018 156.549 22.108 156.297 22.288 156.105C22.456 155.913 22.702 155.817 23.026 155.817L23.746 155.817C23.218 155.589 22.81 155.253 22.522 154.809C22.234 154.353 22.072 153.849 22.036 153.297L22.018 153.045ZM28.588 144.278C28.588 144.074 28.666 143.912 28.822 143.792C28.978 143.66 29.188 143.594 29.452 143.594C29.824 143.594 30.136 143.816 30.388 144.26C30.616 144.668 30.802 145.13 30.946 145.646C31.078 146.162 31.144 146.654 31.144 147.122C31.144 148.538 30.736 149.66 29.92 150.488C29.104 151.316 27.988 151.73 26.572 151.73C25.672 151.73 24.874 151.55 24.178 151.19C23.482 150.83 22.942 150.326 22.558 149.678C22.174 149.018 21.982 148.274 21.982 147.446C21.982 146.654 22.156 145.964 22.504 145.376C22.852 144.788 23.344 144.332 23.98 144.008C24.616 143.684 25.366 143.522 26.23 143.522C26.746 143.522 27.004 143.75 27.004 144.206L27.004 149.516C27.832 149.444 28.444 149.21 28.84 148.814C29.224 148.418 29.416 147.842 29.416 147.086C29.416 146.702 29.368 146.366 29.272 146.078C29.176 145.778 29.044 145.442 28.876 145.07C28.684 144.71 28.588 144.446 28.588 144.278ZM23.566 147.392C23.566 148.004 23.758 148.496 24.142 148.868C24.526 149.228 25.078 149.444 25.798 149.516L25.798 145.448C25.066 145.472 24.514 145.652 24.142 145.988C23.758 146.324 23.566 146.792 23.566 147.392ZM22.018 136.768C21.994 136.456 22.06 136.21 22.216 136.03C22.372 135.85 22.606 135.76 22.918 135.76C23.242 135.76 23.482 135.838 23.638 135.994C23.794 136.15 23.896 136.432 23.944 136.84L23.998 137.38C24.07 138.088 24.31 138.61 24.718 138.946C25.126 139.27 25.636 139.432 26.248 139.432L30.028 139.432C30.376 139.432 30.646 139.54 30.838 139.756C31.018 139.972 31.108 140.242 31.108 140.566C31.108 140.89 31.018 141.16 30.838 141.376C30.646 141.58 30.376 141.682 30.028 141.682L23.062 141.682C22.726 141.682 22.468 141.58 22.288 141.376C22.108 141.16 22.018 140.896 22.018 140.584C22.018 140.272 22.108 140.02 22.288 139.828C22.456 139.636 22.702 139.54 23.026 139.54L23.746 139.54C23.218 139.312 22.81 138.976 22.522 138.532C22.234 138.076 22.072 137.572 22.036 137.02L22.018 136.768Z" fill="#F8554B"/>
<defs>
<filter id="filter0_d" x="0" y="0" width="52" height="442" filterUnits="userSpaceOnUse" color-interpolation-filters="sRGB">
<feFlood flood-opacity="0" result="BackgroundImageFix"/>
<feColorMatrix in="SourceAlpha" type="matrix" values="0 0 0 0 0 0 0 0 0 0 0 0 0 0 0 0 0 0 127 0"/>
<feOffset dy="4"/>
<feGaussianBlur stdDeviation="2"/>
<feColorMatrix type="matrix" values="0 0 0 0 0 0 0 0 0 0 0 0 0 0 0 0 0 0 0.25 0"/>
<feBlend mode="normal" in2="BackgroundImageFix" result="effect1_dropShadow"/>
<feBlend mode="normal" in="SourceGraphic" in2="effect1_dropShadow" result="shape"/>
</filter>
</defs>
</svg>
