<svg width="18" height="19" viewBox="0 0 18 19" fill="none" xmlns="http://www.w3.org/2000/svg">
<path fill-rule="evenodd" clip-rule="evenodd" d="M4.16 0.574784C3.63396 0.940903 3.25704 1.46827 3.09289 2.06782C2.92873 2.66737 2.98741 3.30237 3.259 3.86558C2.34288 4.02983 1.51589 4.49285 0.92087 5.17468C0.325845 5.85651 0.00013858 6.71434 0 7.60002V11.4C0 11.652 0.105357 11.8936 0.292893 12.0718C0.48043 12.2499 0.734784 12.35 1 12.35C1.26522 12.35 1.51957 12.2499 1.70711 12.0718C1.89464 11.8936 2 11.652 2 11.4V9.50002H8V17.1H4C3.46957 17.1 2.96086 16.8998 2.58579 16.5435C2.21071 16.1872 2 15.7039 2 15.2C2 14.9481 1.89464 14.7064 1.70711 14.5283C1.51957 14.3501 1.26522 14.25 1 14.25C0.734784 14.25 0.48043 14.3501 0.292893 14.5283C0.105357 14.7064 0 14.9481 0 15.2C0 16.2078 0.421427 17.1744 1.17157 17.887C1.92172 18.5996 2.93913 19 4 19H14C15.0609 19 16.0783 18.5996 16.8284 17.887C17.5786 17.1744 18 16.2078 18 15.2V7.60002C17.9999 6.71434 17.6742 5.85651 17.0791 5.17468C16.4841 4.49285 15.6571 4.02983 14.741 3.86558C15.291 2.73508 14.953 1.36613 13.841 0.574784C13.313 0.200022 12.6711 -0.00167892 12.012 3.50586e-05C11.119 3.50586e-05 10.236 0.366734 9.647 1.06593C9.345 1.42313 9.14 2.06913 8.999 2.79778C8.858 2.06913 8.653 1.42313 8.351 1.06593C8.06633 0.731217 7.70605 0.461623 7.29683 0.277114C6.88762 0.0926051 6.43996 -0.00209211 5.987 3.50586e-05C5.348 3.50586e-05 4.704 0.187185 4.16 0.574784ZM6.206 3.80003H7.134C7.034 3.03053 6.897 2.42063 6.749 2.17553C6.65515 2.07086 6.53828 1.98701 6.40662 1.92989C6.27497 1.87277 6.13173 1.84377 5.987 1.84493C5.77112 1.84411 5.56083 1.91014 5.388 2.03303C5.28673 2.10412 5.20153 2.19382 5.13746 2.29679C5.07339 2.39977 5.03174 2.51392 5.015 2.63248C4.983 2.86194 5.04769 3.09411 5.195 3.27848C5.357 3.42003 5.72 3.60243 6.206 3.80003ZM10.866 3.80003H11.791C12.279 3.60148 12.643 3.41908 12.805 3.27753C12.8792 3.18407 12.933 3.07755 12.9635 2.96415C12.9939 2.85075 13.0004 2.73273 12.9824 2.61694C12.9645 2.50116 12.9225 2.38991 12.8589 2.28968C12.7953 2.18944 12.7114 2.1022 12.612 2.03303C12.4396 1.90987 12.2297 1.8435 12.014 1.84398C11.8693 1.84289 11.7261 1.87192 11.5944 1.92903C11.4628 1.98615 11.3459 2.06996 11.252 2.17458C11.104 2.41968 10.967 3.02958 10.866 3.80003ZM8 7.60002H2C2 7.09611 2.21071 6.61284 2.58579 6.25652C2.96086 5.9002 3.46957 5.70002 4 5.70002H14C14.5304 5.70002 15.0391 5.9002 15.4142 6.25652C15.7893 6.61284 16 7.09611 16 7.60002H8ZM10 9.50002H16V15.2C16 15.7039 15.7893 16.1872 15.4142 16.5435C15.0391 16.8998 14.5304 17.1 14 17.1H10V9.50002Z" fill="#6200EE"/>
</svg>
