<svg width="272" height="247" viewBox="0 0 272 247" fill="none" xmlns="http://www.w3.org/2000/svg">
<g filter="url(#filter0_d)">
<rect y="29.4111" width="113.635" height="113.635" rx="20" transform="rotate(-15 0 29.4111)" fill="white"/>
</g>
<path d="M93.6858 36.1335C84.1093 30.4761 71.7276 33.7954 65.9414 43.295L64.9103 44.988C64.2431 46.0835 62.8322 46.4615 61.7066 45.8464L59.9672 44.8958C50.2065 39.5623 37.8239 42.8783 32.3591 52.5659C26.8066 62.4091 30.3876 74.8574 40.2749 80.26C40.9791 80.6449 68.3504 95.6014 76.1877 99.8841C77.3132 100.499 78.7213 100.122 79.3885 99.0264C84.0347 91.3988 100.26 64.7606 100.678 64.0751C106.539 54.4528 103.416 41.8817 93.6858 36.1335Z" fill="#BD8FFF"/>
<path d="M51.3685 73.8045C41.4907 68.3988 37.9094 55.9495 43.4527 46.1081C44.13 44.9059 44.914 43.8022 45.786 42.8008C40.2896 43.9461 35.3061 47.3173 32.3513 52.5633C26.808 62.4047 30.389 74.854 40.2672 80.2597C40.9709 80.6448 68.3166 95.6099 76.1465 99.895C77.2711 100.511 78.6772 100.134 79.3435 99.0384C80.3786 97.3368 81.9901 94.6875 83.8725 91.5927C73.5231 85.9288 51.9919 74.1458 51.3685 73.8045Z" fill="#6200EE"/>
<g filter="url(#filter1_d)">
<rect x="189.737" y="9.92944" width="85.1649" height="85.1649" rx="20" transform="rotate(15 189.737 9.92944)" fill="white"/>
</g>
<path d="M196.249 76.3696C192.821 70.4026 194.867 62.766 200.82 59.3129L216.317 50.4363L230.594 56.5601L228.734 72.0447L213.237 80.9213C207.284 84.3743 199.678 82.3364 196.249 76.3696Z" fill="#BD8FFF"/>
<path d="M216.418 50.922L234.658 40.3236C240.679 36.8631 248.383 38.9275 251.867 44.9346C255.35 50.9416 253.294 58.6166 247.273 62.0771L229.033 72.6756L216.418 50.922Z" fill="#DEFFFD"/>
<path d="M223.51 62.7907L241.557 52.2445C245.722 49.8369 247.97 45.3857 247.773 40.8884C249.404 41.9293 250.818 43.3646 251.851 45.1577C255.288 51.1182 253.245 58.7417 247.289 62.1852L229.241 72.7314L223.51 62.7907Z" fill="#00EDDF"/>
<path d="M213.928 81.8955C207.988 85.4411 200.438 83.4183 197.066 77.3773C196.052 75.5601 195.535 73.5863 195.464 71.6182C199.213 74.0537 204.151 74.2999 208.305 71.8208L223.77 62.7052L229.393 72.78L213.928 81.8955Z" fill="#6200EE"/>
<g filter="url(#filter2_d)">
<rect x="42.8713" y="144.527" width="81.1776" height="80.3894" rx="20" transform="rotate(15 42.8713 144.527)" fill="white"/>
</g>
<path d="M95.2885 179.136L77.068 174.254L58.8476 169.372C58.0083 169.147 57.1471 169.645 56.922 170.485L54.8857 178.085L57.5152 180.418L74.2172 184.893L90.9193 189.369L94.3633 188.663L96.3996 181.063C96.6247 180.223 96.1277 179.361 95.2885 179.136ZM61.7737 176.672L58.7369 175.858L59.5514 172.819L62.5882 173.632L61.7737 176.672ZM67.8472 178.299L64.8104 177.486L65.6249 174.446L68.6617 175.26L67.8472 178.299ZM73.9206 179.927L70.8839 179.113L71.6984 176.073L74.7352 176.887L73.9206 179.927ZM79.9941 181.554L76.9574 180.741L77.7719 177.701L80.8086 178.514L79.9941 181.554ZM86.0676 183.182L83.0309 182.368L83.8454 179.328L86.8821 180.142L86.0676 183.182ZM92.1411 184.809L89.1043 183.995L89.9189 180.956L92.9556 181.769L92.1411 184.809Z" fill="#6200EE"/>
<path d="M94.3634 188.663L96.3997 181.063C96.6248 180.223 96.1327 179.363 95.2994 179.139L77.2081 174.292L74.3573 184.931L90.9409 189.375L94.3634 188.663ZM80.1019 181.583L77.0867 180.775L77.9012 177.736L80.9164 178.543L80.1019 181.583ZM86.1323 183.199L83.1171 182.391L83.9316 179.351L86.9468 180.159L86.1323 183.199ZM89.962 180.967L92.9772 181.775L92.1627 184.815L89.1475 184.007L89.962 180.967Z" fill="#6200EE"/>
<path d="M86.0429 207.568L69.3409 203.093L52.6388 198.617L49.1948 199.324L47.1585 206.923C46.9334 207.763 47.4304 208.625 48.2696 208.85L66.4901 213.732L84.7105 218.614C85.5498 218.839 86.411 218.341 86.6361 217.501L88.6724 209.902L86.0429 207.568ZM53.6392 207.031L50.6025 206.217L51.417 203.177L54.4538 203.991L53.6392 207.031ZM59.7127 208.658L56.676 207.844L57.4905 204.805L60.5272 205.618L59.7127 208.658ZM65.7862 210.285L62.7495 209.472L63.564 206.432L66.6007 207.246L65.7862 210.285ZM71.8597 211.913L68.8229 211.099L69.6375 208.059L72.6742 208.873L71.8597 211.913ZM77.9332 213.54L74.8964 212.726L75.7109 209.687L78.7477 210.5L77.9332 213.54ZM84.0067 215.168L80.9699 214.354L81.7844 211.314L84.8212 212.128L84.0067 215.168Z" fill="#6200EE"/>
<path d="M86.6362 217.501L88.6725 209.901L86.0646 207.573L69.481 203.13L66.6301 213.769L84.7214 218.617C85.5547 218.84 86.4111 218.341 86.6362 217.501ZM71.9675 211.941L68.9523 211.133L69.7668 208.094L72.782 208.901L71.9675 211.941ZM77.9979 213.557L74.9827 212.749L75.7972 209.709L78.8124 210.517L77.9979 213.557ZM84.0283 215.173L81.0131 214.365L81.8276 211.325L84.8428 212.133L84.0283 215.173Z" fill="#6200EE"/>
<path d="M74.5923 183.494L54.8535 178.205L49.2269 199.203L68.9657 204.492L88.7046 209.781L94.3311 188.783L74.5923 183.494Z" fill="#18D5CA"/>
<path d="M74.7324 183.531L94.3312 188.782L88.7047 209.781L69.1058 204.53L74.7324 183.531Z" fill="#00EDDF"/>
<path d="M79.136 194.591L73.3752 188.036L71.5471 185.956C71.1622 185.516 70.5596 185.322 69.9871 185.455C69.4146 185.589 68.962 186.027 68.8097 186.595L65.5087 198.915C65.3564 199.483 65.5294 200.089 65.9585 200.491C66.3813 200.888 66.9968 201.028 67.5596 200.838L70.1827 199.95L78.4494 197.154C78.9546 196.983 79.3407 196.57 79.4785 196.056C79.6163 195.542 79.4881 194.992 79.136 194.591Z" fill="#FFF5F5"/>
<g filter="url(#filter3_d)">
<rect x="156.662" y="150.126" width="89.8381" height="89.8381" rx="20" transform="rotate(-15 156.662 150.126)" fill="white"/>
</g>
<path d="M196.319 181.345L224.723 173.734C225.436 173.543 226.169 173.966 226.36 174.679L227.743 179.843C227.934 180.556 227.511 181.289 226.798 181.48L198.395 189.091C197.682 189.282 196.949 188.859 196.758 188.146L195.374 182.982C195.183 182.269 195.606 181.536 196.319 181.345Z" fill="#B0BEC5"/>
<path d="M180.63 174.589L183.186 173.904C185.304 173.337 187.487 174.617 188.062 176.764L193.618 197.496C194.193 199.643 192.942 201.843 190.825 202.411L188.268 203.096C186.151 203.663 183.968 202.383 183.392 200.236L177.837 179.504C177.262 177.357 178.512 175.157 180.63 174.589Z" fill="#6200EE"/>
<path d="M186.301 164.767L188.857 164.083C190.975 163.515 193.157 164.793 193.732 166.937L203.441 203.172C204.015 205.316 202.764 207.514 200.647 208.082L198.09 208.767C195.973 209.334 193.79 208.056 193.216 205.912L183.507 169.677C182.932 167.533 184.183 165.335 186.301 164.767Z" fill="#BD8FFF"/>
<path d="M232.376 160.724L234.932 160.039C237.05 159.472 239.233 160.752 239.808 162.899L245.363 183.631C245.938 185.778 244.688 187.978 242.57 188.546L240.014 189.231C237.896 189.798 235.713 188.518 235.138 186.371L229.583 165.639C229.008 163.492 230.258 161.292 232.376 160.724Z" fill="#6200EE"/>
<path d="M222.554 155.053L225.11 154.368C227.228 153.801 229.41 155.079 229.985 157.223L239.694 193.458C240.268 195.602 239.017 197.8 236.9 198.368L234.343 199.053C232.226 199.62 230.043 198.342 229.469 196.198L219.76 159.963C219.185 157.819 220.436 155.621 222.554 155.053Z" fill="#BD8FFF"/>
<defs>
<filter id="filter0_d" x="0.48999" y="4.48999" width="138.194" height="138.194" filterUnits="userSpaceOnUse" color-interpolation-filters="sRGB">
<feFlood flood-opacity="0" result="BackgroundImageFix"/>
<feColorMatrix in="SourceAlpha" type="matrix" values="0 0 0 0 0 0 0 0 0 0 0 0 0 0 0 0 0 0 127 0"/>
<feOffset dy="4"/>
<feGaussianBlur stdDeviation="2"/>
<feColorMatrix type="matrix" values="0 0 0 0 0 0 0 0 0 0 0 0 0 0 0 0 0 0 0.25 0"/>
<feBlend mode="normal" in2="BackgroundImageFix" result="effect1_dropShadow"/>
<feBlend mode="normal" in="SourceGraphic" in2="effect1_dropShadow" result="shape"/>
</filter>
<filter id="filter1_d" x="168.185" y="14.4194" width="103.325" height="103.325" filterUnits="userSpaceOnUse" color-interpolation-filters="sRGB">
<feFlood flood-opacity="0" result="BackgroundImageFix"/>
<feColorMatrix in="SourceAlpha" type="matrix" values="0 0 0 0 0 0 0 0 0 0 0 0 0 0 0 0 0 0 127 0"/>
<feOffset dy="4"/>
<feGaussianBlur stdDeviation="2"/>
<feColorMatrix type="matrix" values="0 0 0 0 0 0 0 0 0 0 0 0 0 0 0 0 0 0 0.25 0"/>
<feBlend mode="normal" in2="BackgroundImageFix" result="effect1_dropShadow"/>
<feBlend mode="normal" in="SourceGraphic" in2="effect1_dropShadow" result="shape"/>
</filter>
<filter id="filter2_d" x="22.5549" y="149.017" width="98.2379" height="97.6806" filterUnits="userSpaceOnUse" color-interpolation-filters="sRGB">
<feFlood flood-opacity="0" result="BackgroundImageFix"/>
<feColorMatrix in="SourceAlpha" type="matrix" values="0 0 0 0 0 0 0 0 0 0 0 0 0 0 0 0 0 0 127 0"/>
<feOffset dy="4"/>
<feGaussianBlur stdDeviation="2"/>
<feColorMatrix type="matrix" values="0 0 0 0 0 0 0 0 0 0 0 0 0 0 0 0 0 0 0.25 0"/>
<feBlend mode="normal" in2="BackgroundImageFix" result="effect1_dropShadow"/>
<feBlend mode="normal" in="SourceGraphic" in2="effect1_dropShadow" result="shape"/>
</filter>
<filter id="filter3_d" x="157.152" y="131.365" width="109.049" height="109.049" filterUnits="userSpaceOnUse" color-interpolation-filters="sRGB">
<feFlood flood-opacity="0" result="BackgroundImageFix"/>
<feColorMatrix in="SourceAlpha" type="matrix" values="0 0 0 0 0 0 0 0 0 0 0 0 0 0 0 0 0 0 127 0"/>
<feOffset dy="4"/>
<feGaussianBlur stdDeviation="2"/>
<feColorMatrix type="matrix" values="0 0 0 0 0 0 0 0 0 0 0 0 0 0 0 0 0 0 0.25 0"/>
<feBlend mode="normal" in2="BackgroundImageFix" result="effect1_dropShadow"/>
<feBlend mode="normal" in="SourceGraphic" in2="effect1_dropShadow" result="shape"/>
</filter>
</defs>
</svg>
