<svg width="44" height="24" viewBox="0 0 50 29" fill="none" xmlns="http://www.w3.org/2000/svg">
<path fill-rule="evenodd" clip-rule="evenodd" d="M20.16 0.574784C19.634 0.940903 19.257 1.46827 19.0929 2.06782C18.9287 2.66737 18.9874 3.30237 19.259 3.86558C18.3429 4.02983 17.5159 4.49285 16.9209 5.17468C16.3258 5.85651 16.0001 6.71434 16 7.60002V11.4C16 11.652 16.1054 11.8936 16.2929 12.0718C16.4804 12.2499 16.7348 12.35 17 12.35C17.2652 12.35 17.5196 12.2499 17.7071 12.0718C17.8946 11.8936 18 11.652 18 11.4V9.50002H24V17.1H20C19.4696 17.1 18.9609 16.8998 18.5858 16.5435C18.2107 16.1872 18 15.7039 18 15.2C18 14.9481 17.8946 14.7064 17.7071 14.5283C17.5196 14.3501 17.2652 14.25 17 14.25C16.7348 14.25 16.4804 14.3501 16.2929 14.5283C16.1054 14.7064 16 14.9481 16 15.2C16 16.2078 16.4214 17.1744 17.1716 17.887C17.9217 18.5996 18.9391 19 20 19H30C31.0609 19 32.0783 18.5996 32.8284 17.887C33.5786 17.1744 34 16.2078 34 15.2V7.60002C33.9999 6.71434 33.6742 5.85651 33.0791 5.17468C32.4841 4.49285 31.6571 4.02983 30.741 3.86558C31.291 2.73508 30.953 1.36613 29.841 0.574784C29.313 0.200022 28.6711 -0.00167892 28.012 3.50586e-05C27.119 3.50586e-05 26.236 0.366734 25.647 1.06593C25.345 1.42313 25.14 2.06913 24.999 2.79778C24.858 2.06913 24.653 1.42313 24.351 1.06593C24.0663 0.731217 23.706 0.461623 23.2968 0.277114C22.8876 0.0926051 22.44 -0.00209211 21.987 3.50586e-05C21.348 3.50586e-05 20.704 0.187185 20.16 0.574784ZM22.206 3.80003H23.134C23.034 3.03053 22.897 2.42063 22.749 2.17553C22.6551 2.07086 22.5383 1.98701 22.4066 1.92989C22.275 1.87277 22.1317 1.84377 21.987 1.84493C21.7711 1.84411 21.5608 1.91014 21.388 2.03303C21.2867 2.10412 21.2015 2.19382 21.1375 2.29679C21.0734 2.39977 21.0317 2.51392 21.015 2.63248C20.983 2.86194 21.0477 3.09411 21.195 3.27848C21.357 3.42003 21.72 3.60243 22.206 3.80003ZM26.866 3.80003H27.791C28.279 3.60148 28.643 3.41908 28.805 3.27753C28.8792 3.18407 28.933 3.07755 28.9635 2.96415C28.9939 2.85075 29.0004 2.73273 28.9824 2.61694C28.9645 2.50116 28.9225 2.38991 28.8589 2.28968C28.7953 2.18944 28.7114 2.1022 28.612 2.03303C28.4396 1.90987 28.2297 1.8435 28.014 1.84398C27.8693 1.84289 27.7261 1.87192 27.5944 1.92903C27.4628 1.98615 27.3459 2.06996 27.252 2.17458C27.104 2.41968 26.967 3.02958 26.866 3.80003ZM24 7.60002H18C18 7.09611 18.2107 6.61284 18.5858 6.25652C18.9609 5.9002 19.4696 5.70002 20 5.70002H30C30.5304 5.70002 31.0391 5.9002 31.4142 6.25652C31.7893 6.61284 32 7.09611 32 7.60002H24ZM26 9.50002H32V15.2C32 15.7039 31.7893 16.1872 31.4142 16.5435C31.0391 16.8998 30.5304 17.1 30 17.1H26V9.50002Z" fill="#999999"/>
<rect y="9" width="50" height="19.1176" rx="5" fill="#00EDDF"/>
<path d="M13.568 13.06C13.7733 13.06 13.9367 13.13 14.058 13.27C14.1887 13.4007 14.254 13.5733 14.254 13.788V22.342C14.254 22.5567 14.1887 22.734 14.058 22.874C13.9273 23.0047 13.7593 23.07 13.554 23.07C13.3113 23.07 13.1247 22.9767 12.994 22.79L7.506 15.552V22.342C7.506 22.5567 7.44067 22.734 7.31 22.874C7.18867 23.0047 7.02533 23.07 6.82 23.07C6.61467 23.07 6.45133 23.0047 6.33 22.874C6.20867 22.7433 6.148 22.566 6.148 22.342V13.788C6.148 13.5733 6.21333 13.4007 6.344 13.27C6.47467 13.13 6.64267 13.06 6.848 13.06C7.09067 13.06 7.27733 13.1533 7.408 13.34L12.896 20.592V13.788C12.896 13.5733 12.9567 13.4007 13.078 13.27C13.1993 13.13 13.3627 13.06 13.568 13.06ZM21.6763 16.028C21.891 16.028 22.059 16.0887 22.1803 16.21C22.311 16.3313 22.3763 16.4993 22.3763 16.714V22.412C22.3763 22.608 22.311 22.7667 22.1803 22.888C22.0496 23.0093 21.877 23.07 21.6623 23.07C21.4663 23.07 21.3076 23.014 21.1863 22.902C21.065 22.7807 21.0043 22.622 21.0043 22.426V21.894C20.7896 22.286 20.491 22.5847 20.1083 22.79C19.735 22.9953 19.315 23.098 18.8483 23.098C17.187 23.098 16.3563 22.1833 16.3563 20.354V16.714C16.3563 16.4993 16.417 16.3313 16.5383 16.21C16.669 16.0887 16.8463 16.028 17.0703 16.028C17.285 16.028 17.453 16.0887 17.5743 16.21C17.705 16.3313 17.7703 16.4993 17.7703 16.714V20.34C17.7703 20.8907 17.8823 21.2967 18.1063 21.558C18.3303 21.8193 18.6756 21.95 19.1423 21.95C19.693 21.95 20.1316 21.7727 20.4583 21.418C20.7943 21.0633 20.9623 20.592 20.9623 20.004V16.714C20.9623 16.5087 21.0276 16.3453 21.1583 16.224C21.289 16.0933 21.4616 16.028 21.6763 16.028ZM29.703 21.278C29.8337 21.278 29.941 21.3293 30.025 21.432C30.109 21.5347 30.151 21.6653 30.151 21.824C30.151 22.0947 29.983 22.3233 29.647 22.51C29.3203 22.6967 28.961 22.8413 28.569 22.944C28.1863 23.0467 27.8177 23.098 27.463 23.098C26.3803 23.098 25.5263 22.7853 24.901 22.16C24.2757 21.5253 23.963 20.662 23.963 19.57C23.963 18.87 24.0983 18.2493 24.369 17.708C24.649 17.1667 25.0363 16.7467 25.531 16.448C26.035 16.1493 26.6043 16 27.239 16C28.1537 16 28.877 16.294 29.409 16.882C29.941 17.47 30.207 18.2633 30.207 19.262C30.207 19.6353 30.039 19.822 29.703 19.822H25.377C25.4703 21.2687 26.1657 21.992 27.463 21.992C27.8083 21.992 28.107 21.9453 28.359 21.852C28.611 21.7587 28.877 21.6373 29.157 21.488C29.185 21.4693 29.2597 21.432 29.381 21.376C29.5117 21.3107 29.619 21.278 29.703 21.278ZM27.267 17.036C26.7257 17.036 26.2917 17.2087 25.965 17.554C25.6383 17.8993 25.4423 18.3847 25.377 19.01H28.989C28.961 18.3753 28.7977 17.89 28.499 17.554C28.2097 17.2087 27.799 17.036 27.267 17.036ZM36.5275 16.448C36.5835 16.308 36.6628 16.2053 36.7655 16.14C36.8775 16.0747 36.9941 16.042 37.1155 16.042C37.2928 16.042 37.4468 16.1027 37.5775 16.224C37.7175 16.3453 37.7875 16.49 37.7875 16.658C37.7875 16.7513 37.7688 16.84 37.7315 16.924L35.0575 22.594C34.9921 22.7433 34.8895 22.86 34.7495 22.944C34.6188 23.0187 34.4788 23.056 34.3295 23.056C34.1801 23.056 34.0355 23.0187 33.8955 22.944C33.7648 22.86 33.6668 22.7433 33.6015 22.594L30.9275 16.924C30.8901 16.8493 30.8715 16.7607 30.8715 16.658C30.8715 16.49 30.9461 16.3453 31.0955 16.224C31.2448 16.1027 31.4128 16.042 31.5995 16.042C31.8701 16.042 32.0708 16.1727 32.2015 16.434L34.3715 21.25L36.5275 16.448ZM41.8152 23.098C41.1432 23.098 40.5505 22.9533 40.0372 22.664C39.5332 22.3747 39.1412 21.964 38.8612 21.432C38.5905 20.8907 38.4552 20.2653 38.4552 19.556C38.4552 18.8373 38.5905 18.212 38.8612 17.68C39.1412 17.1387 39.5332 16.7233 40.0372 16.434C40.5505 16.1447 41.1432 16 41.8152 16C42.4872 16 43.0752 16.1447 43.5792 16.434C44.0925 16.7233 44.4845 17.1387 44.7552 17.68C45.0352 18.212 45.1752 18.8373 45.1752 19.556C45.1752 20.2653 45.0352 20.8907 44.7552 21.432C44.4845 21.964 44.0925 22.3747 43.5792 22.664C43.0752 22.9533 42.4872 23.098 41.8152 23.098ZM41.8152 21.978C42.4405 21.978 42.9165 21.7727 43.2432 21.362C43.5792 20.9513 43.7472 20.3493 43.7472 19.556C43.7472 18.772 43.5792 18.1747 43.2432 17.764C42.9072 17.344 42.4312 17.134 41.8152 17.134C41.1992 17.134 40.7232 17.344 40.3872 17.764C40.0512 18.1747 39.8832 18.772 39.8832 19.556C39.8832 20.3493 40.0465 20.9513 40.3732 21.362C40.7092 21.7727 41.1899 21.978 41.8152 21.978Z" fill="#6200EE"/>
</svg>
