<svg width="106" height="64" viewBox="0 0 106 64" fill="none" xmlns="http://www.w3.org/2000/svg">
<rect x="0.541016" y="0.429932" width="105.226" height="63.1354" rx="5" fill="#6200EE"/>
<path d="M47.8926 59.3563L74.2724 9.90027L99.4531 59.3563" stroke="#BD8FFF" stroke-width="8" stroke-linecap="round" stroke-linejoin="round"/>
<path d="M20.0982 7.64667C20.2755 7.64667 20.4109 7.70267 20.5042 7.81467C20.6069 7.91734 20.6582 8.05734 20.6582 8.23467V17.0967C20.6582 17.2647 20.6115 17.4 20.5182 17.5027C20.4249 17.6053 20.2942 17.6567 20.1262 17.6567C19.9582 17.6567 19.8322 17.6053 19.7482 17.5027C19.6642 17.4 19.6222 17.2647 19.6222 17.0967V9.94267L16.5842 15.7667C16.4535 16.0373 16.2622 16.1727 16.0102 16.1727C15.7675 16.1727 15.5762 16.0373 15.4362 15.7667L12.3842 10.0127V17.0967C12.3842 17.2647 12.3375 17.4 12.2442 17.5027C12.1602 17.6053 12.0342 17.6567 11.8662 17.6567C11.6982 17.6567 11.5675 17.6053 11.4742 17.5027C11.3809 17.4 11.3342 17.2647 11.3342 17.0967V8.23467C11.3342 8.05734 11.3855 7.91734 11.4882 7.81467C11.5909 7.70267 11.7309 7.64667 11.9082 7.64667C12.1415 7.64667 12.3282 7.782 12.4682 8.05267L16.0242 14.8707L19.5382 8.05267C19.6129 7.90334 19.6922 7.80067 19.7762 7.74467C19.8695 7.67934 19.9769 7.64667 20.0982 7.64667ZM31.6037 16.9287C31.641 17.0033 31.6597 17.0827 31.6597 17.1667C31.6597 17.3067 31.6037 17.4233 31.4917 17.5167C31.389 17.61 31.263 17.6567 31.1137 17.6567C30.8804 17.6567 30.717 17.5447 30.6237 17.3207L29.6297 15.0527H24.3517L23.3437 17.3207C23.2504 17.5447 23.087 17.6567 22.8537 17.6567C22.7044 17.6567 22.5737 17.61 22.4617 17.5167C22.3497 17.414 22.2937 17.2927 22.2937 17.1527C22.2937 17.078 22.3124 17.0033 22.3497 16.9287L26.3537 8.02467C26.4097 7.894 26.4937 7.796 26.6057 7.73067C26.7177 7.66534 26.839 7.63267 26.9697 7.63267C27.1097 7.63267 27.2357 7.67 27.3477 7.74467C27.4597 7.81 27.5437 7.90334 27.5997 8.02467L31.6037 16.9287ZM24.7717 14.1007H29.2097L26.9837 9.07467L24.7717 14.1007ZM37.1218 17.6987C36.1884 17.6987 35.3811 17.498 34.6998 17.0967C34.0184 16.686 33.4911 16.1027 33.1178 15.3467C32.7538 14.5813 32.5718 13.6807 32.5718 12.6447C32.5718 11.618 32.7538 10.7267 33.1178 9.97067C33.4911 9.20534 34.0184 8.622 34.6998 8.22067C35.3811 7.81 36.1884 7.60467 37.1218 7.60467C37.7471 7.60467 38.3351 7.70734 38.8858 7.91267C39.4458 8.10867 39.9311 8.39334 40.3418 8.76667C40.4911 8.90667 40.5658 9.07 40.5658 9.25667C40.5658 9.38734 40.5284 9.504 40.4538 9.60667C40.3791 9.7 40.2904 9.74667 40.1878 9.74667C40.0758 9.74667 39.9404 9.69534 39.7818 9.59267C39.3058 9.21934 38.8718 8.958 38.4798 8.80867C38.0971 8.65934 37.6538 8.58467 37.1498 8.58467C36.0671 8.58467 35.2318 8.93934 34.6438 9.64867C34.0651 10.3487 33.7758 11.3473 33.7758 12.6447C33.7758 13.9513 34.0651 14.9593 34.6438 15.6687C35.2318 16.3687 36.0671 16.7187 37.1498 16.7187C37.6444 16.7187 38.0878 16.644 38.4798 16.4947C38.8718 16.3453 39.3058 16.084 39.7818 15.7107C39.9404 15.608 40.0758 15.5567 40.1878 15.5567C40.2904 15.5567 40.3791 15.6033 40.4538 15.6967C40.5284 15.79 40.5658 15.9067 40.5658 16.0467C40.5658 16.2333 40.4911 16.3967 40.3418 16.5367C39.9311 16.91 39.4458 17.1993 38.8858 17.4047C38.3351 17.6007 37.7471 17.6987 37.1218 17.6987ZM50.0264 7.64667C50.2037 7.64667 50.339 7.70267 50.4324 7.81467C50.535 7.91734 50.5864 8.05734 50.5864 8.23467V17.0687C50.5864 17.246 50.535 17.3907 50.4324 17.5027C50.339 17.6053 50.2037 17.6567 50.0264 17.6567C49.8491 17.6567 49.709 17.6053 49.6064 17.5027C49.5037 17.3907 49.4524 17.246 49.4524 17.0687V13.0647H43.5444V17.0687C43.5444 17.246 43.493 17.3907 43.3904 17.5027C43.2877 17.6053 43.1477 17.6567 42.9704 17.6567C42.793 17.6567 42.653 17.6053 42.5504 17.5027C42.457 17.3907 42.4104 17.246 42.4104 17.0687V8.23467C42.4104 8.05734 42.457 7.91734 42.5504 7.81467C42.653 7.70267 42.793 7.64667 42.9704 7.64667C43.1477 7.64667 43.2877 7.70267 43.3904 7.81467C43.493 7.91734 43.5444 8.05734 43.5444 8.23467V12.0847H49.4524V8.23467C49.4524 8.05734 49.5037 7.91734 49.6064 7.81467C49.709 7.70267 49.8491 7.64667 50.0264 7.64667Z" fill="#BD8FFF"/>
<circle cx="11.0635" cy="27.7886" r="2.10451" fill="#D7BBFF"/>
<circle cx="25.7951" cy="27.7886" r="2.10451" fill="#D7BBFF"/>
<circle cx="40.5268" cy="27.7886" r="2.10451" fill="#D7BBFF"/>
<circle cx="18.4293" cy="27.7886" r="2.10451" fill="#D7BBFF"/>
<circle cx="33.1609" cy="27.7886" r="2.10451" fill="#D7BBFF"/>
<circle cx="47.8925" cy="27.7886" r="2.10451" fill="#D7BBFF"/>
</svg>
