<svg width="21" height="21" viewBox="0 0 21 21" fill="none" xmlns="http://www.w3.org/2000/svg">
<path fill-rule="evenodd" clip-rule="evenodd" d="M0.45713 18.4211C0.314116 18.5594 0.200043 18.725 0.121567 18.908C0.0430911 19.091 0.00178423 19.2878 5.65363e-05 19.487C-0.00167116 19.6861 0.0362146 19.8837 0.111504 20.068C0.186793 20.2523 0.297977 20.4198 0.43857 20.5607C0.579162 20.7015 0.746346 20.8129 0.930368 20.8883C1.11439 20.9637 1.31156 21.0017 1.51038 20.9999C1.7092 20.9982 1.90569 20.9568 2.08837 20.8782C2.27106 20.7996 2.43628 20.6853 2.57441 20.5421L10.5 12.6026L18.4256 20.5421C18.5637 20.6853 18.7289 20.7996 18.9116 20.8782C19.0943 20.9568 19.2908 20.9982 19.4896 20.9999C19.6884 21.0017 19.8856 20.9637 20.0696 20.8883C20.2537 20.8129 20.4208 20.7015 20.5614 20.5607C20.702 20.4198 20.8132 20.2523 20.8885 20.068C20.9638 19.8837 21.0017 19.6861 20.9999 19.487C20.9982 19.2878 20.9569 19.091 20.8784 18.908C20.8 18.725 20.6859 18.5594 20.5429 18.4211L12.6173 10.4816L20.5429 2.54207C20.8156 2.25916 20.9666 1.88026 20.9631 1.48697C20.9597 1.09367 20.8023 0.717452 20.5246 0.43934C20.247 0.161228 19.8714 0.00347433 19.4788 5.67037e-05C19.0862 -0.00336092 18.708 0.147831 18.4256 0.421068L10.5 8.36057L2.57441 0.421068C2.29201 0.147831 1.91377 -0.00336092 1.52116 5.67037e-05C1.12855 0.00347433 0.752995 0.161228 0.47537 0.43934C0.197745 0.717452 0.0402679 1.09367 0.0368562 1.48697C0.0334446 1.88026 0.184372 2.25916 0.45713 2.54207L8.38272 10.4816L0.45713 18.4211Z" fill="white"/>
</svg>
