<svg width="77" height="85" viewBox="0 0 77 85" fill="none" xmlns="http://www.w3.org/2000/svg">
<path d="M50.2128 28.0935C50.2128 29.2285 58.0566 31.3147 57.9299 32.4169C57.3275 37.6618 55.3281 42.4824 52.3117 46.4971C51.2407 47.9232 41.409 43.4043 40.0991 44.6097C36.1346 48.2577 39.7866 56.6602 34.2612 57.6578H34.2597C32.5736 57.9626 30.8347 58.1221 29.0603 58.1221C27.0081 58.1221 25.0045 57.9099 23.0734 57.504C19.7372 56.8052 17.9086 50.2034 15.1005 48.4679C11.7331 46.3868 7.52548 48.9686 5.25632 45.7351C2.55045 41.8787 0.75754 37.3343 0.192178 32.4169C0.0654839 31.3145 6.86805 25.7966 6.86805 24.6615C6.86805 18.6276 1.83854 17.4223 4.98718 12.7769C8.42498 7.70418 13.4222 3.77651 19.2924 1.68311C22.3442 0.593737 25.6347 7.67152 29.061 7.67152C32.4888 7.67152 35.7764 0.593573 38.8297 1.68311C44.6985 3.77651 49.6971 7.70418 53.1349 12.7769C44.7598 19.7811 50.2128 22.0596 50.2128 28.0935Z" fill="#D7BBFF"/>
<path d="M31.1964 57.5043C31.8302 57.6382 32.4709 57.7506 33.1204 57.8404C31.7946 58.0255 30.4374 58.1223 29.0603 58.1223C27.0081 58.1223 25.0045 57.9101 23.0734 57.5043C15.7363 55.9677 9.41752 51.6654 5.25632 45.7354C2.55045 41.8789 0.757537 37.3345 0.192174 32.4171C0.0654803 31.3148 0 30.1955 0 29.0606C0 23.0267 1.83854 17.4228 4.98717 12.7773C8.42497 7.70461 13.4222 3.77693 19.2924 1.68353C22.3442 0.594162 25.6338 0.000244141 29.0603 0.000244141C30.4388 0.000244141 31.7946 0.0955927 33.1219 0.282187C31.1494 0.558386 29.2398 1.03267 27.4154 1.68353C21.5439 3.77693 16.548 7.70461 13.1102 12.7773C9.96154 17.4228 8.12153 23.0267 8.12153 29.0606C8.12153 30.1955 8.18849 31.3149 8.31518 32.4171C8.88054 37.3345 10.6735 41.8789 13.3793 45.7354C17.5407 51.6655 23.858 55.9677 31.1964 57.5043Z" fill="#BD8FFF"/>
<path d="M25.8322 20.83L21.1684 24.2186C19.2433 25.6172 18.4379 28.0964 19.1731 30.3593L20.9545 35.8421C21.6897 38.1052 23.7987 39.6373 26.1782 39.6373H31.9431C34.3225 39.6373 36.4313 38.1052 37.1667 35.8421L38.9481 30.3593C39.6834 28.0962 38.8779 25.6172 36.9529 24.2186L32.289 20.83C30.364 19.4313 27.7572 19.4313 25.8322 20.83Z" fill="#6200EE"/>
<path d="M37.6377 11.3629L32.5693 15.0457C30.4772 16.5667 27.6447 16.5667 25.5528 15.0457L20.4829 11.3629C18.3908 9.84338 17.5164 7.14901 18.3153 4.68948L19.2922 1.68312C22.3442 0.593918 25.6338 0 29.0603 0C32.4881 0 35.7764 0.593918 38.8297 1.68329L39.8066 4.68964C40.6055 7.14901 39.7297 9.84338 37.6377 11.3629Z" fill="#6200EE"/>
<path d="M13.6045 29.1058L8.73547 33.0477C6.72609 34.6755 3.89633 34.8236 1.72891 33.4152L0.192338 32.4169C0.0656446 31.3145 0 30.1953 0 29.0603C0 23.0264 1.83854 17.4225 4.98717 12.777L7.28998 12.6559C9.87325 12.5207 12.2488 14.0643 13.1758 16.4782L15.4202 22.327C16.3473 24.7409 15.6139 27.478 13.6045 29.1058Z" fill="#6200EE"/>
<path d="M23.7697 56.8774L23.0734 57.5039C15.7363 55.9674 9.41755 51.665 5.25635 45.735C5.91854 43.4051 7.93645 41.692 10.3717 41.4356L16.6036 40.782C19.1741 40.5114 21.6279 41.927 22.6804 44.2895L25.228 50.0131C26.2805 52.3758 25.6908 55.1471 23.7697 56.8774Z" fill="#6200EE"/>
<path d="M33.1219 0.281943C31.1495 0.558142 29.2399 1.03242 27.4154 1.68329C23.9435 2.92085 20.7776 4.80058 18.059 7.17888C17.9679 6.35717 18.049 5.51118 18.3153 4.68948L19.2923 1.68312C22.3442 0.593918 25.6339 0 29.0603 0C30.4374 0 31.7946 0.0953486 33.1219 0.281943Z" fill="#6200EE"/>
<path d="M8.31535 32.417C8.34817 32.7061 8.38657 32.9937 8.42793 33.28C6.44563 34.6871 3.78818 34.7539 1.72891 33.4153L0.192338 32.417C0.0656446 31.3146 0 30.1954 0 29.0604C0 23.0265 1.83854 17.4226 4.98717 12.7771L7.28998 12.656C9.10144 12.5607 10.809 13.2911 11.9895 14.5686C9.52862 18.8351 8.12153 23.7826 8.12153 29.0602C8.12153 30.1954 8.18849 31.3146 8.31535 32.417Z" fill="#6200EE"/>
<path d="M24.9446 55.4264C24.6371 55.959 24.244 56.4503 23.7697 56.8777L23.0734 57.5043C15.7363 55.9677 9.41755 51.6653 5.25635 45.7354C5.91854 43.4055 7.93645 41.6923 10.3717 41.436L10.8588 41.3848C11.5736 42.9128 12.4196 44.3668 13.3795 45.7354C16.3017 49.9008 20.2878 53.2617 24.9446 55.4264Z" fill="#6200EE"/>
<path d="M58.122 29.0601C58.122 30.1951 58.0565 31.3145 57.9298 32.4166L56.3932 33.4149C54.2243 34.8233 51.3946 34.6753 49.3852 33.0475L44.5162 29.1055C42.5068 27.4777 41.7734 24.7407 42.7005 22.3268L44.9463 16.478C45.8721 14.0641 48.2489 12.5205 50.8307 12.6557L53.135 12.7768C56.2834 17.4223 58.122 23.0262 58.122 29.0601Z" fill="#6200EE"/>
<path d="M52.3117 46.497C47.9995 52.2391 41.6123 56.3305 34.2611 57.6577H34.2596L33.6772 57.1322C31.7547 55.402 31.1665 52.6306 32.2174 50.2694L34.7666 44.5459C35.8175 42.1833 38.2713 40.7662 40.8433 41.0368L47.0738 41.692C49.6457 41.9626 51.7506 43.8581 52.2889 46.3872L52.3117 46.497Z" fill="#6200EE"/>
<path d="M58.1355 71.92C56.5635 72.432 54.9913 72.8244 53.4193 73.0973C48.2585 73.9948 43.0976 73.6024 37.9356 71.92C34.0311 68.1383 34.0311 64.3557 37.9356 60.573C43.0976 58.8907 48.2585 58.4981 53.4193 59.3945C54.9913 59.6674 56.5634 60.061 58.1355 60.573C62.0402 64.3557 62.0402 68.1383 58.1355 71.92Z" fill="#00EDDF"/>
<path d="M58.1356 60.573C56.5636 60.061 54.9914 59.6674 53.4194 59.3945C53.3756 61.8199 53.3551 64.0484 53.3579 66.2888C53.3592 67.4343 52.4477 68.3693 51.3029 68.4057C46.8471 68.548 42.3915 68.4006 37.9357 67.9618C35.9851 67.3905 35.0086 66.8192 35.0074 66.247C35.0074 68.1384 35.9839 70.0286 37.9357 71.9198C44.6637 74.1127 51.3918 74.114 58.12 71.9244C58.1253 71.9228 58.1304 71.9215 58.1356 71.9198C62.0403 68.1384 62.0403 64.3558 58.1356 60.573Z" fill="#18D5CA"/>
<path d="M33.4377 76.6221C33.3738 77.9131 32.3997 78.9779 31.1202 79.1543C28.5775 79.5062 26.0348 79.5607 23.491 79.3204C23.0161 79.2751 22.5425 79.2206 22.0675 79.1543C20.787 78.9779 19.8128 77.9131 19.7501 76.6221C19.4122 69.7045 19.4122 62.7882 19.7501 55.8706C19.8128 54.5806 20.787 53.5147 22.0675 53.3383C22.5425 53.2733 23.0161 53.2175 23.491 53.1722C26.0349 52.9331 28.5777 52.9876 31.1202 53.3383C32.3997 53.5147 33.3738 54.5806 33.4377 55.8706C33.7756 62.7882 33.7756 69.7045 33.4377 76.6221Z" fill="#00EDDF"/>
<path d="M33.4377 76.6222C33.3739 77.9132 32.3997 78.978 31.1203 79.1544C28.5776 79.5063 26.0348 79.5607 23.4911 79.3205C23.1939 70.6045 23.1939 61.8884 23.4911 53.1725C26.035 52.9334 28.5777 52.9879 31.1203 53.3386C32.3997 53.515 33.3739 54.5809 33.4377 55.8708C33.7756 62.7882 33.7756 69.7045 33.4377 76.6222Z" fill="#18D5CA"/>
<path d="M31.5846 69.9586C32.4599 69.9272 33.2065 69.7972 33.6629 69.6138C33.6269 71.9499 33.5526 74.2858 33.4377 76.6218C33.375 77.9129 32.4009 78.9776 31.1203 79.154C28.1028 79.5709 25.0851 79.5709 22.0676 79.154C20.7882 78.9776 19.814 77.9129 19.7502 76.6218C19.6365 74.2857 19.561 71.9497 19.525 69.6138C19.9813 69.7972 20.7278 69.9272 21.6045 69.9586C24.9305 70.0782 28.2569 70.0782 31.5846 69.9586Z" fill="#18D5CA"/>
<path d="M37.3944 83.5825C34.297 84.172 31.1996 84.172 28.1021 83.5825C26.8769 83.3493 25.9843 82.2885 25.9362 81.042C25.5559 71.1781 25.5559 61.3142 25.9362 51.4503C25.9843 50.2041 26.8769 49.1431 28.1021 48.9099C31.1996 48.3204 34.297 48.3204 37.3944 48.9099C38.6197 49.1431 39.5123 50.2039 39.5604 51.4503C39.9406 61.3142 39.9406 71.1781 39.5604 81.042C39.5123 82.2885 38.6197 83.3494 37.3944 83.5825Z" fill="#00EDDF"/>
<path d="M39.7962 72.3979C39.7509 75.2797 39.672 78.1602 39.5605 81.042C39.5129 82.2878 38.62 83.3491 37.3952 83.5824C34.2975 84.1723 31.1999 84.1723 28.1021 83.5824C26.8772 83.3491 25.9844 82.2879 25.9368 81.042C25.8254 78.1602 25.7465 75.2797 25.7012 72.3979C26.1366 72.5593 26.7333 72.6766 27.4207 72.7196C30.9736 72.9402 34.5253 72.9402 38.0768 72.7196C38.7641 72.6766 39.3608 72.5594 39.7962 72.3979Z" fill="#18D5CA"/>
<path d="M63.0591 76.6221C63.1229 77.9131 64.0971 78.9779 65.3765 79.1543C67.9192 79.5062 70.462 79.5607 73.0057 79.3204C73.4806 79.2751 73.9543 79.2206 74.4292 79.1543C75.7098 78.9779 76.6839 77.9131 76.7466 76.6221C77.0845 69.7045 77.0845 62.7882 76.7466 55.8706C76.6839 54.5806 75.7098 53.5147 74.4292 53.3383C73.9543 53.2733 73.4806 53.2175 73.0057 53.1722C70.4618 52.9331 67.9191 52.9876 65.3765 53.3383C64.0971 53.5147 63.1229 54.5806 63.0591 55.8706C62.7212 62.7882 62.7212 69.7045 63.0591 76.6221Z" fill="#00EDDF"/>
<path d="M64.9123 69.9586C64.0369 69.9272 63.2904 69.7972 62.834 69.6138C62.8699 71.9499 62.9443 74.2858 63.0591 76.6218C63.1218 77.9129 64.096 78.9776 65.3766 79.154C68.3941 79.5709 71.4117 79.5709 74.4293 79.154C75.7087 78.9776 76.6828 77.9129 76.7467 76.6218C76.8604 74.2857 76.9359 71.9497 76.9718 69.6138C76.5156 69.7972 75.7691 69.9272 74.8924 69.9586C71.5663 70.0782 68.24 70.0782 64.9123 69.9586Z" fill="#18D5CA"/>
<path d="M59.1024 83.5825C62.1998 84.172 65.2972 84.172 68.3947 83.5825C69.6199 83.3493 70.5125 82.2885 70.5606 81.042C70.9409 71.1781 70.9409 61.3142 70.5606 51.4503C70.5125 50.2041 69.6199 49.1431 68.3947 48.9099C65.2972 48.3204 62.1998 48.3204 59.1024 48.9099C57.8771 49.1431 56.9845 50.2039 56.9364 51.4503C56.5562 61.3142 56.5562 71.1781 56.9364 81.042C56.9845 82.2885 57.8771 83.3494 59.1024 83.5825Z" fill="#00EDDF"/>
<path d="M56.7007 72.3979C56.746 75.2797 56.8249 78.1602 56.9363 81.042C56.9839 82.2878 57.8769 83.3491 59.1016 83.5824C62.1992 84.1723 65.297 84.1723 68.3948 83.5824C69.6197 83.3491 70.5124 82.2879 70.56 81.042C70.6715 78.1602 70.7504 75.2797 70.7957 72.3979C70.3603 72.5593 69.7636 72.6766 69.0761 72.7196C65.5233 72.9402 61.9716 72.9402 58.4201 72.7196C57.7329 72.6766 57.1361 72.5594 56.7007 72.3979Z" fill="#18D5CA"/>
</svg>
