<svg width="22" height="19" viewBox="0 0 22 19" fill="none" xmlns="http://www.w3.org/2000/svg">
<path d="M1.69208 17.2974L13.7972 17.2974C14.13 18.2859 15.0649 19 16.1641 19C17.2633 19 18.1983 18.2859 18.5311 17.2974L20.4206 17.2974C20.8595 17.2974 21.2154 16.9416 21.2154 16.5026C21.2154 16.0637 20.8595 15.7079 20.4206 15.7079L18.531 15.7079C18.1982 14.7194 17.2633 14.0053 16.1641 14.0053C15.0648 14.0053 14.1299 14.7194 13.7971 15.7079L1.69203 15.7079C1.2531 15.7079 0.897247 16.0637 0.897247 16.5026C0.897247 16.9416 1.2531 17.2974 1.69208 17.2974V17.2974ZM16.1641 15.5948C16.6647 15.5948 17.0719 16.0021 17.0719 16.5026C17.0719 17.0032 16.6647 17.4104 16.1641 17.4104C15.6636 17.4104 15.2563 17.0032 15.2563 16.5026C15.2563 16.0021 15.6636 15.5948 16.1641 15.5948Z" fill="#6200EE"/>
<path d="M1.69208 10.4871L3.58164 10.4871C3.91444 11.4756 4.84942 12.1897 5.9486 12.1897C7.04778 12.1897 7.98271 11.4756 8.31551 10.4871L20.4206 10.4871C20.8595 10.4871 21.2154 10.1313 21.2154 9.69234C21.2154 9.25341 20.8595 8.89756 20.4206 8.89756L8.31551 8.89756C7.98271 7.90912 7.04773 7.19499 5.94855 7.19499C4.84937 7.19499 3.91439 7.90912 3.58159 8.89756L1.69203 8.89756C1.2531 8.89756 0.897247 9.25341 0.897247 9.69234C0.897247 10.1313 1.2531 10.4871 1.69208 10.4871ZM5.94855 8.78455C6.4491 8.78455 6.85635 9.19179 6.85635 9.69234C6.85635 10.1929 6.4491 10.6001 5.94855 10.6001C5.448 10.6001 5.04075 10.1929 5.04075 9.69234C5.04075 9.19179 5.448 8.78455 5.94855 8.78455Z" fill="#6200EE"/>
<path d="M1.69208 3.6767L10.3919 3.6767C10.7247 4.66514 11.6597 5.37927 12.7589 5.37927C13.8581 5.37927 14.7931 4.66514 15.1259 3.6767L20.4206 3.6767C20.8595 3.6767 21.2154 3.32085 21.2154 2.88192C21.2154 2.44299 20.8595 2.08714 20.4206 2.08714L15.1259 2.08714C14.7931 1.0987 13.8581 0.384562 12.7589 0.384562C11.6597 0.384562 10.7247 1.0987 10.3919 2.08714L1.69203 2.08714C1.2531 2.08714 0.897247 2.44299 0.897247 2.88192C0.897247 3.32085 1.2531 3.6767 1.69208 3.6767ZM12.7589 1.97407C13.2595 1.97407 13.6667 2.38131 13.6667 2.88186C13.6667 3.38242 13.2595 3.78966 12.7589 3.78966C12.2584 3.78966 11.8511 3.38247 11.8511 2.88192C11.8511 2.38137 12.2584 1.97407 12.7589 1.97407V1.97407Z" fill="#6200EE"/>
</svg>
