<svg width="59" height="46" viewBox="0 0 59 46" fill="none" xmlns="http://www.w3.org/2000/svg">
<path d="M55.238 45.1751H3.68946C1.69076 45.1751 0.00781252 43.5314 0.00781252 41.4634V3.92382C0.00758103 1.90886 1.63798 0.212189 3.68946 0.212189H55.238C57.2367 0.212189 58.9201 1.85589 58.9201 3.92382V41.4634C58.9201 43.5314 57.2895 45.1751 55.238 45.1751Z" fill="#E3E3E3"/>
<path opacity="0.1" d="M7.37158 45.1751L29.4112 27.3065L29.5691 26.3521L6.84563 9.8623L6.79285 44.3798L7.37158 45.1751Z" fill="#231F20"/>
<path d="M3.68957 45.1749C1.63809 45.1749 0.00769043 43.5312 0.00769043 41.4633V3.8705C0.00769043 1.80281 1.63809 1.43155 3.68957 1.43155C5.74104 1.43155 7.37167 1.85578 7.37167 3.8705V45.1749H3.68957Z" fill="#D54B3D"/>
<path d="M3.68946 1.96172C6.31943 1.96172 6.84561 2.7572 6.84561 3.8705V44.6448H3.68946C1.95373 44.6448 0.53353 43.2132 0.53353 41.4633V3.8705C0.53353 2.70399 1.05948 1.96172 3.68946 1.96172ZM3.68946 1.43155C1.63798 1.43155 0.0078125 1.85578 0.0078125 3.8705V41.4636C0.0078125 43.5315 1.63821 45.1752 3.68969 45.1752H7.37156V3.8705C7.37156 1.80281 5.74094 1.43155 3.68946 1.43155Z" fill="#D72B27"/>
<path d="M55.238 45.1749H51.5559V3.76456C51.5559 1.69663 53.1865 1.43155 55.238 1.43155C57.2895 1.43155 58.9201 1.69663 58.9201 3.76456V41.5165C58.9201 43.5312 57.2895 45.1749 55.238 45.1749Z" fill="#D54B3D"/>
<path d="M55.238 1.96172C57.605 1.96172 58.3939 2.43891 58.3939 3.76456V41.5165C58.3939 43.2662 56.9737 44.6977 55.238 44.6977H52.0819V3.76456C52.0819 2.38594 52.871 1.96172 55.238 1.96172ZM55.238 1.43155C53.1865 1.43155 51.5559 1.69663 51.5559 3.76456V45.2281H55.238C57.2895 45.2281 58.9201 43.5842 58.9201 41.5165V3.76456C58.9201 1.69663 57.2895 1.43155 55.238 1.43155Z" fill="#D72B27"/>
<path d="M39.4579 45.175L0.315674 5.41255L2.37456 6.25657L29.6216 26.034L58.9201 4.37766V41.5166C58.9201 43.5313 57.2895 45.175 55.238 45.175H39.4579Z" fill="url(#paint0_linear)"/>
<path d="M29.4118 27.3073L1.58607 6.94674C-0.044562 5.72726 -0.517962 3.39425 0.691813 1.75055C1.90205 0.106843 4.26882 -0.26418 5.952 0.955296L29.4646 18.1876L53.1344 0.74295C54.765 -0.476526 57.0795 -0.10527 58.2893 1.5914C59.499 3.23511 59.131 5.56812 57.4476 6.78759L29.4116 27.307L29.4118 27.3073Z" fill="#D54B3D"/>
<path d="M55.2381 0.530166C56.2374 0.530166 57.1842 1.00736 57.8155 1.85558C58.8149 3.28741 58.4993 5.24916 57.1317 6.30973L29.4113 26.6703L1.90125 6.52184C0.481047 5.46127 0.112744 3.44632 1.11209 2.06793C1.69082 1.27245 2.69017 0.742513 3.74207 0.742513C4.4259 0.742513 5.10972 0.954393 5.63567 1.37862L29.0957 18.5577L29.4113 18.77L29.7268 18.5577L53.3445 1.11354C53.9232 0.742513 54.5543 0.530166 55.2381 0.530166ZM55.2381 0C54.5017 0 53.7126 0.212113 53.0815 0.68931L29.4113 18.1335L5.89865 0.901423C5.26783 0.424226 4.47891 0.212113 3.68975 0.212113C2.53253 0.212113 1.3753 0.74228 0.638924 1.74988C-0.518303 3.39334 -0.0449023 5.72636 1.58573 6.94583L29.4115 27.3596L57.3947 6.78692C59.0253 5.56745 59.3936 3.2874 58.2364 1.59073C57.5 0.530166 56.3953 0 55.2381 0Z" fill="#D72B27"/>
<defs>
<linearGradient id="paint0_linear" x1="0.318018" y1="24.7755" x2="58.9389" y2="24.7755" gradientUnits="userSpaceOnUse">
<stop stop-opacity="0.1"/>
<stop offset="1" stop-opacity="0.2"/>
</linearGradient>
</defs>
</svg>
