<svg width="20" height="20" viewBox="0 0 20 20" fill="none" xmlns="http://www.w3.org/2000/svg">
<path fill-rule="evenodd" clip-rule="evenodd" d="M4.46203 3.35101C6.17194 2.46031 8.07205 1.99678 10 2.00001C12 2.00001 13.882 2.48801 15.538 3.35101C15.6548 3.41577 15.7833 3.45648 15.9161 3.47077C16.0488 3.48505 16.1831 3.47261 16.3109 3.43418C16.4388 3.39575 16.5576 3.3321 16.6605 3.247C16.7634 3.1619 16.8481 3.05706 16.9099 2.93866C16.9716 2.82027 17.0089 2.69072 17.0198 2.55765C17.0306 2.42459 17.0147 2.2907 16.9729 2.16389C16.9312 2.03707 16.8645 1.9199 16.7767 1.81927C16.689 1.71865 16.582 1.63662 16.462 1.57801C14.4669 0.538417 12.2498 -0.00298753 10 1.23993e-05C7.67103 1.23993e-05 5.47203 0.570012 3.53803 1.57801C3.41808 1.63662 3.31107 1.71865 3.22333 1.81927C3.13558 1.9199 3.06887 2.03707 3.02714 2.16389C2.9854 2.2907 2.96948 2.42459 2.98031 2.55765C2.99115 2.69072 3.02851 2.82027 3.09022 2.93866C3.15192 3.05706 3.2367 3.1619 3.33957 3.247C3.44243 3.3321 3.5613 3.39575 3.68915 3.43418C3.81701 3.47261 3.95126 3.48505 4.084 3.47077C4.21674 3.45648 4.34528 3.41577 4.46203 3.35101ZM10 14C9.07815 14.0002 8.18458 14.3186 7.47035 14.9014C6.75611 15.4843 6.26501 16.2959 6.08003 17.199C6.0539 17.3277 6.00267 17.45 5.92928 17.5589C5.85589 17.6678 5.76176 17.7612 5.65228 17.8337C5.5428 17.9062 5.42011 17.9565 5.29121 17.9816C5.16231 18.0067 5.02973 18.0061 4.90103 17.98C4.77234 17.9539 4.65005 17.9027 4.54115 17.8293C4.43225 17.7559 4.33888 17.6617 4.26635 17.5523C4.19383 17.4428 4.14358 17.3201 4.11848 17.1912C4.09337 17.0623 4.0939 16.9297 4.12003 16.801C4.39742 15.4463 5.13407 14.229 6.20546 13.3547C7.27684 12.4805 8.61723 12.003 10 12.003C11.3828 12.003 12.7232 12.4805 13.7946 13.3547C14.866 14.229 15.6026 15.4463 15.88 16.801C15.9062 16.9297 15.9067 17.0623 15.8816 17.1912C15.8565 17.3201 15.8062 17.4428 15.7337 17.5523C15.6612 17.6617 15.5678 17.7559 15.4589 17.8293C15.35 17.9027 15.2277 17.9539 15.099 17.98C14.9703 18.0061 14.8378 18.0067 14.7089 17.9816C14.58 17.9565 14.4573 17.9062 14.3478 17.8337C14.2383 17.7612 14.1442 17.6678 14.0708 17.5589C13.9974 17.45 13.9462 17.3277 13.92 17.199C13.7351 16.2959 13.244 15.4843 12.5297 14.9014C11.8155 14.3186 10.9219 14.0002 10 14ZM10 18C9.73482 18 9.48046 18.1054 9.29293 18.2929C9.10539 18.4804 9.00003 18.7348 9.00003 19C9.00003 19.2652 8.89468 19.5196 8.70714 19.7071C8.5196 19.8947 8.26525 20 8.00003 20C7.73482 20 7.48046 19.8947 7.29293 19.7071C7.10539 19.5196 7.00003 19.2652 7.00003 19C7.00003 18.2044 7.3161 17.4413 7.87871 16.8787C8.44132 16.3161 9.20438 16 10 16C10.7957 16 11.5587 16.3161 12.1214 16.8787C12.684 17.4413 13 18.2044 13 19C13 19.2652 12.8947 19.5196 12.7071 19.7071C12.5196 19.8947 12.2653 20 12 20C11.7348 20 11.4805 19.8947 11.2929 19.7071C11.1054 19.5196 11 19.2652 11 19C11 18.7348 10.8947 18.4804 10.7071 18.2929C10.5196 18.1054 10.2653 18 10 18ZM10 6.00001C8.63774 5.99827 7.28954 6.27573 6.03864 6.81527C4.78774 7.35481 3.66069 8.14498 2.72703 9.13701C2.63741 9.23457 2.5293 9.31335 2.40897 9.36878C2.28864 9.4242 2.1585 9.45517 2.02611 9.45987C1.89371 9.46457 1.7617 9.44292 1.63775 9.39618C1.51379 9.34943 1.40036 9.27852 1.30404 9.18757C1.20772 9.09661 1.13043 8.98743 1.07666 8.86635C1.02289 8.74527 0.993722 8.61472 0.990838 8.48227C0.987953 8.34983 1.01141 8.21813 1.05986 8.09483C1.1083 7.97152 1.18076 7.85907 1.27303 7.76401C2.39361 6.574 3.74603 5.6261 5.24695 4.97875C6.74787 4.3314 8.36547 3.99831 10 4.00001C13.438 4.00001 16.54 5.44801 18.727 7.76401C18.8193 7.85907 18.8918 7.97152 18.9402 8.09483C18.9887 8.21813 19.0121 8.34983 19.0092 8.48227C19.0063 8.61472 18.9772 8.74527 18.9234 8.86635C18.8696 8.98743 18.7924 9.09661 18.696 9.18757C18.5997 9.27852 18.4863 9.34943 18.3623 9.39618C18.2384 9.44292 18.1064 9.46457 17.974 9.45987C17.8416 9.45517 17.7114 9.4242 17.5911 9.36878C17.4708 9.31335 17.3627 9.23457 17.273 9.13701C16.3394 8.14498 15.2123 7.35481 13.9614 6.81527C12.7105 6.27573 11.3623 5.99827 10 6.00001ZM3.78803 13.142C5.30303 11.202 7.53403 10 10 10C12.466 10 14.697 11.201 16.212 13.142C16.378 13.3425 16.6155 13.4703 16.8742 13.4984C17.1329 13.5266 17.3924 13.4527 17.5976 13.2926C17.8027 13.1325 17.9373 12.8987 17.9729 12.641C18.0085 12.3832 17.9422 12.1217 17.788 11.912C15.934 9.53501 13.144 8.00001 10 8.00001C6.85703 8.00001 4.06603 9.53601 2.21203 11.911C2.12674 12.014 2.06298 12.1331 2.02452 12.2612C1.98607 12.3893 1.9737 12.5238 1.98815 12.6568C2.00261 12.7898 2.04358 12.9185 2.10867 13.0353C2.17375 13.1522 2.2616 13.2548 2.36704 13.3371C2.47248 13.4194 2.59335 13.4797 2.72251 13.5144C2.85166 13.5491 2.98648 13.5576 3.11897 13.5394C3.25146 13.5211 3.37894 13.4764 3.49387 13.408C3.60879 13.3396 3.70882 13.2488 3.78803 13.141V13.142Z" fill="#FFFFFF"/>
</svg>
