<svg width="86" height="62" viewBox="0 0 86 62" fill="none" xmlns="http://www.w3.org/2000/svg">
<path d="M81.2572 8.2876H4.13172C1.85342 8.2876 0 10.141 0 12.4193V57.8683C0 60.1466 1.85342 62 4.13172 62H81.2572C83.5355 62 85.3889 60.1466 85.3889 57.8683V12.4193C85.3889 10.141 83.5355 8.2876 81.2572 8.2876Z" fill="#6200EE"/>
<path d="M46.8262 55.1135H38.5627V61.9997H46.8262V55.1135Z" fill="#BD8FFF"/>
<path d="M79.9176 50.9821V55.1138C79.9176 55.8744 79.3009 56.491 78.5404 56.491H6.92387C6.16329 56.491 5.54663 55.8744 5.54663 55.1138V50.9821L13.7724 46.8503L46.8261 48.2276L74.3709 46.8503L79.9176 50.9821Z" fill="#18D5CA"/>
<path d="M7.4789 52.8837C18.7962 48.2116 31.5951 48.496 42.7321 53.7366V4.1559C31.2279 -1.25751 17.9506 -1.38232 6.36454 3.78129C5.86598 4.00355 5.54663 4.50813 5.54663 5.05404V51.6246C5.54663 52.6194 6.55942 53.2633 7.4789 52.8837Z" fill="#D7BBFF"/>
<path d="M42.7322 53.7366C53.8692 48.4958 66.6681 48.2116 77.9854 52.8837C78.9049 53.2633 79.9177 52.6194 79.9177 51.6246V5.05404C79.9177 4.50813 79.5983 4.00355 79.0998 3.78129C67.5137 -1.38232 54.2363 -1.25751 42.7322 4.1559V53.7366Z" fill="#BD8FFF"/>
<path d="M48.2411 44.7424C47.6547 44.7424 47.1112 44.3657 46.927 43.7775C46.6998 43.0519 47.1031 42.2785 47.8281 42.0506C49.2215 41.6128 50.6552 41.2389 52.0903 40.9383C52.8328 40.7823 53.5644 41.2577 53.7204 42.0036C53.8764 42.748 53.4004 43.4778 52.6551 43.6337C51.3075 43.9163 49.9612 44.268 48.6539 44.6787C48.5167 44.7216 48.3769 44.7424 48.2411 44.7424Z" fill="#D7BBFF"/>
<path d="M74.4086 44.7424C74.2728 44.7424 74.1329 44.7216 73.9958 44.6785C68.799 43.0465 63.4122 42.4352 57.9907 42.867C57.2214 42.922 56.5691 42.3607 56.5087 41.6027C56.4494 40.8441 57.0144 40.181 57.773 40.1206C63.5589 39.6659 69.2886 40.3129 74.8216 42.0506C75.5466 42.2785 75.9501 43.0519 75.7227 43.7775C75.5383 44.3659 74.995 44.7424 74.4086 44.7424Z" fill="#D7BBFF"/>
<path d="M74.4086 39.2168C74.2728 39.2168 74.1328 39.196 73.9958 39.153C65.7055 36.5491 56.9443 36.5491 48.654 39.153C47.9251 39.3809 47.153 38.9768 46.9271 38.2519C46.6999 37.5263 47.1032 36.7529 47.8282 36.525C56.6592 33.7518 65.9905 33.7518 74.8216 36.525C75.5465 36.7529 75.9501 37.5263 75.7226 38.2519C75.5383 38.8403 74.9949 39.2168 74.4086 39.2168Z" fill="#D7BBFF"/>
<path d="M48.2411 33.7243C47.6547 33.7243 47.1112 33.3476 46.927 32.7594C46.6998 32.0337 47.1031 31.2604 47.8281 31.0325C52.8972 29.4414 58.1574 28.7642 63.4565 29.0131C64.215 29.0494 64.8027 29.6943 64.7664 30.4542C64.7314 31.2155 64.0965 31.7965 63.3246 31.7648C58.3522 31.5302 53.4123 32.1663 48.6537 33.6606C48.5167 33.7035 48.3769 33.7243 48.2411 33.7243Z" fill="#D7BBFF"/>
<path d="M74.4087 33.7243C74.2729 33.7243 74.1329 33.7034 73.9959 33.6604C72.2556 33.1136 70.46 32.6751 68.6591 32.3579C67.9099 32.2253 67.4096 31.5112 67.5429 30.762C67.6747 30.0135 68.3902 29.5125 69.138 29.645C71.056 29.9833 72.9671 30.45 74.8219 31.0324C75.5469 31.2604 75.9504 32.0337 75.723 32.7593C75.5384 33.3478 74.9951 33.7243 74.4087 33.7243Z" fill="#D7BBFF"/>
<path d="M74.4086 28.199C74.2728 28.199 74.1328 28.1782 73.9958 28.1351C65.7055 25.5313 56.9443 25.5313 48.654 28.1351C47.9251 28.3617 47.153 27.9583 46.9271 27.2341C46.6999 26.5084 47.1032 25.7351 47.8282 25.5072C56.6592 22.7339 65.9905 22.7339 74.8216 25.5072C75.5465 25.7351 75.9501 26.5084 75.7226 27.2341C75.5383 27.8225 74.9949 28.199 74.4086 28.199Z" fill="#D7BBFF"/>
<path d="M48.2411 22.6904C47.6547 22.6904 47.1112 22.3137 46.927 21.7254C46.6998 20.9998 47.1031 20.2265 47.8281 19.9985C50.5987 19.1283 53.4661 18.5246 56.3537 18.2043C57.1203 18.1122 57.7915 18.6664 57.8749 19.4208C57.9582 20.1767 57.4135 20.8579 56.6577 20.9413C53.9477 21.2425 51.2536 21.8094 48.6539 22.6265C48.5167 22.6694 48.3769 22.6904 48.2411 22.6904Z" fill="#D7BBFF"/>
<path d="M74.4088 22.69C74.2729 22.69 74.133 22.6692 73.996 22.6262C70.1077 21.4042 66.0701 20.7519 61.9935 20.6881C61.2322 20.676 60.6257 20.0499 60.6377 19.2893C60.6498 18.5294 61.3143 17.8892 62.0365 17.9336C66.3781 18.0021 70.6806 18.6969 74.8218 19.9981C75.5467 20.226 75.9503 20.9993 75.7228 21.7249C75.5371 22.3134 74.9951 22.69 74.4088 22.69Z" fill="#D7BBFF"/>
<path d="M48.2411 17.1975C47.6547 17.1975 47.1112 16.8208 46.927 16.2326C46.6998 15.507 47.1031 14.7336 47.8281 14.5057C53.8292 12.6208 60.0402 12.0155 66.297 12.7115C67.053 12.7948 67.5977 13.476 67.5142 14.232C67.4308 14.9872 66.7637 15.5467 65.993 15.4484C60.1235 14.7975 54.2878 15.363 48.6537 17.1337C48.5167 17.1767 48.3769 17.1975 48.2411 17.1975Z" fill="#D7BBFF"/>
<path d="M74.4088 17.1975C74.2729 17.1975 74.133 17.1767 73.996 17.1336C73.1218 16.8585 72.2247 16.6091 71.3276 16.3906C70.5892 16.2104 70.1359 15.4653 70.3161 14.7262C70.4964 13.9872 71.2361 13.5353 71.9812 13.7141C72.9348 13.9469 73.8897 14.213 74.8218 14.5057C75.5467 14.7336 75.9503 15.507 75.7228 16.2326C75.5385 16.821 74.9951 17.1975 74.4088 17.1975Z" fill="#D7BBFF"/>
<path d="M48.2411 11.6723C47.6547 11.6723 47.1112 11.2951 46.927 10.7067C46.6998 9.98037 47.1031 9.20774 47.8294 8.98049C48.7763 8.68318 49.7312 8.41754 50.6686 8.18961C51.403 8.00867 52.1521 8.46334 52.3323 9.2024C52.5126 9.94146 52.0579 10.6865 51.3195 10.8661C50.44 11.0799 49.5429 11.3294 48.6525 11.6084C48.5153 11.6513 48.3769 11.6723 48.2411 11.6723Z" fill="#D7BBFF"/>
<path d="M74.4086 11.6724C74.2728 11.6724 74.1329 11.6515 73.9958 11.6085C68.3605 9.83789 62.5274 9.27305 56.6565 9.92328C55.8953 10.0161 55.2187 9.46122 55.1354 8.70683C55.052 7.9509 55.5967 7.26968 56.3525 7.18636C62.6066 6.49034 68.8189 7.09564 74.8215 8.98056C75.5464 9.20849 75.95 9.98182 75.7225 10.7074C75.5383 11.2957 74.995 11.6724 74.4086 11.6724Z" fill="#D7BBFF"/>
<path d="M11.0555 44.7424C10.4692 44.7424 9.92584 44.3657 9.74146 43.7775C9.51421 43.0519 9.91757 42.2785 10.6425 42.0506C12.0359 41.6128 13.4696 41.2389 14.9047 40.9383C15.6484 40.7823 16.3789 41.2577 16.5349 42.0036C16.6908 42.748 16.2148 43.4778 15.4696 43.6337C14.1219 43.9163 12.7757 44.268 11.4683 44.6787C11.3311 44.7216 11.1913 44.7424 11.0555 44.7424Z" fill="#F5EEFF"/>
<path d="M37.2232 44.7424C37.0874 44.7424 36.9474 44.7216 36.8104 44.6785C31.6148 43.0465 26.2268 42.4352 20.8053 42.867C20.0253 42.922 19.3837 42.3607 19.3232 41.6027C19.264 40.8441 19.829 40.181 20.5875 40.1206C26.3735 39.6659 32.1018 40.3129 37.6362 42.0506C38.3612 42.2785 38.7647 43.0519 38.5373 43.7775C38.3529 44.3659 37.8096 44.7424 37.2232 44.7424Z" fill="#F5EEFF"/>
<path d="M37.223 39.2168C37.0872 39.2168 36.9472 39.196 36.8102 39.153C28.5199 36.5491 19.7588 36.5491 11.4685 39.153C10.7368 39.3809 9.96745 38.9768 9.74158 38.2519C9.51433 37.5263 9.91769 36.7529 10.6426 36.525C19.4737 33.7518 28.805 33.7518 37.636 36.525C38.361 36.7529 38.7645 37.5263 38.5371 38.2519C38.3527 38.8403 37.8094 39.2168 37.223 39.2168Z" fill="#F5EEFF"/>
<path d="M11.0555 33.7243C10.4692 33.7243 9.92584 33.3476 9.74146 32.7594C9.51421 32.0337 9.91757 31.2604 10.6425 31.0325C15.7116 29.4414 20.9758 28.7642 26.2709 29.0131C27.0294 29.0494 27.6172 29.6943 27.5809 30.4542C27.5445 31.2155 26.9029 31.7965 26.1391 31.7648C21.1653 31.5302 16.2267 32.1663 11.4682 33.6606C11.3311 33.7035 11.1913 33.7243 11.0555 33.7243Z" fill="#F5EEFF"/>
<path d="M37.2232 33.7243C37.0874 33.7243 36.9474 33.7034 36.8104 33.6604C35.07 33.1136 33.2745 32.6751 31.4736 32.3579C30.7243 32.2253 30.2241 31.5112 30.3573 30.762C30.4878 30.0135 31.206 29.5125 31.9525 29.645C33.8705 29.9833 35.7816 30.45 37.6364 31.0324C38.3613 31.2604 38.7648 32.0337 38.5374 32.7593C38.3529 33.3478 37.8095 33.7243 37.2232 33.7243Z" fill="#F5EEFF"/>
<path d="M11.0555 28.1991C10.4692 28.1991 9.92584 27.8224 9.74146 27.2342C9.51421 26.5085 9.91757 25.7352 10.6425 25.5073C18.4716 23.0494 26.8251 22.7757 34.794 24.7164C35.5337 24.8966 35.987 25.6417 35.8068 26.3808C35.6265 27.1192 34.8775 27.569 34.1431 27.3929C26.6597 25.5684 18.8185 25.8273 11.4683 28.1354C11.3311 28.1783 11.1913 28.1991 11.0555 28.1991Z" fill="#F5EEFF"/>
<path d="M11.0555 22.6904C10.4692 22.6904 9.92584 22.3137 9.74146 21.7254C9.51421 20.9998 9.91757 20.2265 10.6425 19.9985C13.4132 19.1283 16.2806 18.5246 19.1682 18.2043C19.928 18.1122 20.606 18.6664 20.6893 19.4208C20.7726 20.1767 20.2279 20.8579 19.4722 20.9413C16.7621 21.2425 14.0681 21.8094 11.4683 22.6265C11.3311 22.6694 11.1913 22.6904 11.0555 22.6904Z" fill="#F5EEFF"/>
<path d="M34.4701 21.9228C34.3625 21.9228 34.2522 21.91 34.1434 21.8837C31.0904 21.14 27.9485 20.7371 24.8079 20.6881C24.0467 20.676 23.4402 20.0499 23.4522 19.2893C23.4643 18.5294 24.0587 17.8892 24.851 17.9336C28.1971 17.9868 31.5421 18.4151 34.7943 19.2072C35.534 19.3874 35.9873 20.1325 35.8071 20.8716C35.6535 21.5011 35.0901 21.9228 34.4701 21.9228Z" fill="#F5EEFF"/>
<path d="M11.0555 17.1975C10.4692 17.1975 9.92584 16.8208 9.74146 16.2326C9.51421 15.507 9.91757 14.7336 10.6425 14.5057C16.645 12.6208 22.8561 12.0155 29.1115 12.7115C29.8674 12.7948 30.4121 13.476 30.3286 14.232C30.2453 14.9872 29.5727 15.5467 28.8075 15.4484C22.938 14.7975 17.1023 15.363 11.4682 17.1337C11.3311 17.1767 11.1913 17.1975 11.0555 17.1975Z" fill="#F5EEFF"/>
<path d="M11.0555 11.6723C10.4691 11.6723 9.92583 11.2951 9.74145 10.7067C9.5142 9.98037 9.91756 9.20774 10.6439 8.98049C11.5907 8.68318 12.5457 8.41754 13.4831 8.18961C14.2161 8.00867 14.9665 8.46334 15.1468 9.2024C15.327 9.94146 14.8724 10.6865 14.134 10.8661C13.2544 11.0799 12.3573 11.3294 11.467 11.6084C11.3298 11.6513 11.1913 11.6723 11.0555 11.6723Z" fill="#F5EEFF"/>
<path d="M34.4701 10.9046C34.3625 10.9046 34.2522 10.8918 34.1434 10.8655C29.3297 9.69331 24.3937 9.37792 19.4711 9.92331C18.7152 10.0161 18.0333 9.46262 17.9499 8.70686C17.8666 7.95092 18.4113 7.26971 19.1671 7.18638C24.4083 6.60261 29.6685 6.94158 34.7941 8.18902C35.5339 8.36926 35.9871 9.11435 35.8069 9.85341C35.6535 10.4828 35.09 10.9046 34.4701 10.9046Z" fill="#F5EEFF"/>
<path d="M34.4688 25.502C34.4689 26.0519 35.0818 26.38 35.5394 26.075L38.6005 24.0342L41.6616 26.075C42.1192 26.38 42.7322 26.0521 42.7322 25.502V4.27015C42.7322 3.72614 42.4149 3.22397 41.9177 3.00292C39.7732 2.04918 37.5693 1.28429 35.3307 0.692942C34.894 0.577598 34.4648 0.915366 34.465 1.3671L34.4688 25.502Z" fill="#00EDDF"/>
</svg>
