<svg width="51" height="51" viewBox="0 0 51 51" fill="none" xmlns="http://www.w3.org/2000/svg">
<path d="M43.4544 43.4551H35.8978V31.6209C35.8978 28.799 35.8474 25.1662 31.9676 25.1662C28.0319 25.1662 27.4296 28.241 27.4296 31.4155V43.4543H19.8733V19.1185H27.1274V22.4443H27.229C27.955 21.203 29.0041 20.1818 30.2645 19.4895C31.5249 18.7972 32.9495 18.4598 34.3866 18.5131C42.0455 18.5131 43.4576 23.551 43.4576 30.1049L43.4544 43.4551ZM11.3467 15.7922C8.9248 15.7926 6.9611 13.8295 6.9607 11.4076C6.9603 8.98569 8.92321 7.02199 11.3451 7.02159C13.767 7.02099 15.7307 8.98409 15.7311 11.406C15.7313 12.569 15.2695 13.6845 14.4473 14.5071C13.6251 15.3297 12.5098 15.7919 11.3467 15.7922ZM15.1251 43.4553H7.56055V19.1185H15.1249V43.4551L15.1251 43.4553ZM47.2216 0.00371182H3.76344C1.7095 -0.0193975 0.0251016 1.62595 0 3.67989V47.3193C0.0243047 49.3743 1.7085 51.0212 3.76324 50.9997H47.2216C49.2807 51.0252 50.9715 49.3783 51 47.3193V3.67651C50.9707 1.61858 49.2797 -0.0265694 47.2216 0.000325103" fill="#0A66C2"/>
</svg>
