<svg width="81" height="83" viewBox="0 0 81 83" fill="none" xmlns="http://www.w3.org/2000/svg">
<path d="M62.9326 71.7297C72.9109 71.7297 81 63.6407 81 53.6623C81 43.684 72.9109 35.595 62.9326 35.595C52.9543 35.595 44.8652 43.684 44.8652 53.6623C44.8652 63.6407 52.9543 71.7297 62.9326 71.7297Z" fill="#00EDDF"/>
<path d="M67.9109 71.0348C66.3302 71.4874 64.6598 71.7304 62.9327 71.7304C52.9546 71.7304 44.865 63.6407 44.865 53.6627C44.865 43.6846 52.9546 35.595 62.9327 35.595C64.6598 35.595 66.3302 35.838 67.9109 36.2905C60.3521 38.452 54.8198 45.4117 54.8198 53.6628C54.8197 61.9137 60.3519 68.8736 67.9109 71.0348Z" fill="#18D5CA"/>
<path d="M57.7163 7.35422C57.4517 8.13789 57.0691 8.92817 56.6614 9.65536C56.5965 9.77347 56.5299 9.88996 56.4634 10.0031C55.2488 12.0762 54.7247 14.4855 54.9227 16.8797C56.2971 33.4816 56.3053 50.0834 54.9461 66.6837C54.7365 69.241 52.7398 71.2942 50.1875 71.5588C36.0897 73.028 21.992 73.028 7.89247 71.5588C5.34173 71.2942 3.34521 69.241 3.13546 66.6837C1.77611 50.0834 1.7845 33.4816 3.15886 16.8797C3.35683 14.4855 2.83277 12.0762 1.61654 10.0031C1.5499 9.88996 1.48342 9.77347 1.41856 9.65536C1.01084 8.92994 0.629895 8.13789 0.365285 7.35584C-0.130536 5.88677 -0.21718 4.44916 0.714602 3.51738C3.33682 0.89677 20.3879 0 29.04 0C37.6937 0 54.7447 0.89677 57.3654 3.51738C58.2954 4.44755 58.2121 5.88677 57.7163 7.35422Z" fill="#BD8FFF"/>
<path d="M11.3261 68.8788C11.3859 70.0336 11.6638 71.0935 12.0981 71.9536C10.6955 71.8371 9.29455 71.7056 7.89196 71.5593C5.34137 71.2947 3.3447 69.2415 3.13511 66.6842C1.77575 50.0839 1.78398 33.4821 3.15834 16.8802C3.35631 14.4842 2.83226 12.0767 1.61763 10.0036C0.362994 7.86394 -0.791609 5.02535 0.715861 3.51788C1.79576 2.43798 5.32298 1.65109 9.70389 1.09863C9.69389 1.11364 9.68227 1.13026 9.67227 1.14688C8.64061 2.76422 9.43105 5.80563 10.288 8.10015C11.1199 10.3246 11.4776 12.907 11.3429 15.476C10.4027 33.2759 10.3977 51.0773 11.3261 68.8788Z" fill="#6200EE"/>
<path d="M49.8366 36.3306C49.8366 46.9027 40.5258 55.4732 29.0402 55.4732C21.5879 55.4732 15.0506 51.8627 11.3801 46.4401C11.1205 46.0574 10.8743 45.6647 10.6447 45.2621C9.11057 42.5967 8.24365 39.5551 8.24365 36.3306C8.24365 32.9513 9.19544 29.7766 10.8659 27.0213C11.0322 26.7451 11.207 26.4723 11.3883 26.2044C15.0604 20.7886 21.5944 17.188 29.0401 17.188C40.5257 17.188 49.8366 25.7568 49.8366 36.3306Z" fill="#18D5CA"/>
<path d="M10.6447 45.2621C9.11057 42.5966 8.24365 39.555 8.24365 36.3305C8.24365 32.9512 9.19544 29.7766 10.8659 27.0212C10.6813 33.101 10.608 39.1823 10.6447 45.2621Z" fill="#18D5CA"/>
<path d="M57.7163 7.35422C57.4517 8.13789 57.0691 8.92817 56.6614 9.65536C56.5815 9.61551 56.5033 9.56549 56.4318 9.50402C55.9127 9.06983 53.7663 7.96992 45.081 7.14463C39.3075 6.59557 33.0098 6.39921 29.0398 6.39921C17.6041 6.39921 3.86748 7.64707 1.6496 9.50402C1.57635 9.56565 1.49987 9.61551 1.41839 9.65536C1.01066 8.92994 0.629722 8.13789 0.365112 7.35584C5.46805 3.94333 28.7986 3.90332 29.0398 3.90332C29.281 3.90332 52.6115 3.94333 57.7163 7.35422Z" fill="#D7BBFF"/>
<path d="M39.4868 29.6504C37.5511 29.6504 35.9763 31.2251 35.9763 33.1607C35.9763 35.0962 37.5511 36.6709 39.4868 36.6709C41.4223 36.6709 42.997 35.0962 42.997 33.1607C42.997 31.2251 41.4223 29.6504 39.4868 29.6504Z" fill="#6200EE"/>
<path d="M33.5233 30.5711C35.4589 30.5711 37.0336 28.9965 37.0336 27.0608C37.0336 25.1253 35.459 23.5505 33.5233 23.5505C31.5878 23.5505 30.0131 25.1253 30.0131 27.0608C30.0129 28.9965 31.5877 30.5711 33.5233 30.5711Z" fill="#6200EE"/>
<path d="M18.5939 36.6709C20.5326 36.6709 22.1042 35.0993 22.1042 33.1607C22.1042 31.222 20.5326 29.6504 18.5939 29.6504C16.6552 29.6504 15.0836 31.222 15.0836 33.1607C15.0836 35.0993 16.6552 36.6709 18.5939 36.6709Z" fill="#6200EE"/>
<path d="M24.5573 30.5711C26.4928 30.5711 28.0676 28.9965 28.0676 27.0608C28.0676 25.1253 26.4928 23.5505 24.5573 23.5505C22.6217 23.5505 21.047 25.1253 21.047 27.0608C21.047 28.9965 22.6216 30.5711 24.5573 30.5711Z" fill="#6200EE"/>
<path d="M36.5849 38.0329C35.8508 37.411 35.3667 36.6303 35.1851 35.7753C34.8917 34.395 34.16 33.1812 33.0692 32.2654C30.7722 30.3371 27.3079 30.3369 25.011 32.2654C23.9203 33.181 23.1885 34.3947 22.8951 35.7753C22.7134 36.6304 22.2293 37.411 21.4954 38.0329C19.9551 39.3377 19.15 41.2437 19.2867 43.2622C19.4995 46.4058 22.033 48.9155 25.1797 49.0997C25.3028 49.1068 25.4258 49.1105 25.5489 49.1105C26.4629 49.1105 27.3702 48.9127 28.1932 48.5314C28.7234 48.2859 29.3567 48.2859 29.8869 48.5314C30.8208 48.964 31.8626 49.1601 32.9004 49.0999C36.047 48.9156 38.5805 46.406 38.7933 43.2623C38.9301 41.2435 38.1251 39.3375 36.5849 38.0329Z" fill="#6200EE"/>
<path d="M74.4121 70.2161C75.9467 68.929 76.923 66.9982 76.923 64.8385C76.923 60.9635 73.7816 57.822 69.9065 57.822C66.0314 57.822 62.89 60.9635 62.89 64.8385C62.89 65.0412 62.9012 65.2411 62.9182 65.4394C56.8189 65.3232 50.7197 65.3232 44.6204 65.4394C44.6372 65.2411 44.6486 65.0412 44.6486 64.8385C44.6486 60.9635 41.5072 57.822 37.6321 57.822C33.757 57.822 30.6156 60.9635 30.6156 64.8385C30.6156 66.9982 31.5921 68.929 33.1265 70.2161C31.5919 71.5032 30.6156 73.434 30.6156 75.5936C30.6156 79.4687 33.757 82.6102 37.6321 82.6102C41.5072 82.6102 44.6486 79.4687 44.6486 75.5936C44.6486 75.391 44.6373 75.1911 44.6204 74.9928C50.7197 75.109 56.8189 75.109 62.9182 74.9928C62.9012 75.1911 62.89 75.391 62.89 75.5936C62.89 79.4687 66.0314 82.6102 69.9065 82.6102C73.7816 82.6102 76.923 79.4687 76.923 75.5936C76.923 73.434 75.9467 71.5032 74.4121 70.2161Z" fill="#EDEDED"/>
<path d="M76.9229 75.5931C76.9229 79.4682 73.7814 82.6095 69.9063 82.6095C66.0313 82.6095 62.89 79.4682 62.89 75.5931C62.89 75.3902 62.9016 75.1906 62.9182 74.9924C56.8186 75.1089 50.7189 75.1089 44.6209 74.9924C44.6375 75.1904 44.6492 75.3902 44.6492 75.5931C44.6492 79.4682 41.5079 82.6095 37.6326 82.6095C33.7576 82.6095 30.6145 79.4682 30.6145 75.5931C30.6145 75.0939 30.6661 74.6081 30.7658 74.1389C31.4364 75.9625 34.2566 77.3318 37.6325 77.3318C41.5076 77.3318 44.649 75.5283 44.649 73.3036C44.649 73.1871 44.6374 73.0724 44.6208 72.9575C50.7187 73.0258 56.8185 73.0258 62.9181 72.9575C62.9014 73.0722 62.8898 73.1871 62.8898 73.3036C62.8898 75.5283 66.0311 77.3318 69.9062 77.3318C73.2821 77.3318 76.1024 75.9625 76.7712 74.1389C76.8712 74.6081 76.9229 75.0939 76.9229 75.5931Z" fill="#DBDBDB"/>
<path d="M69.3091 66.349C69.1817 66.349 69.0524 66.3294 68.9248 66.2881L68.8567 66.2662C68.201 66.0542 67.8412 65.3506 68.0534 64.6948C68.2654 64.0391 68.969 63.6793 69.6246 63.8915L69.6926 63.9134C70.3484 64.1254 70.7082 64.8291 70.496 65.4848C70.3253 66.0129 69.8358 66.349 69.3091 66.349Z" fill="#DBDBDB"/>
<path d="M72.6275 65.7542C72.5002 65.7542 72.3708 65.7347 72.2431 65.6934L72.1751 65.6714C71.5193 65.4594 71.1595 64.7558 71.3717 64.1001C71.5839 63.4442 72.2883 63.0847 72.9429 63.2967L73.011 63.3187C73.6667 63.5307 74.0265 64.2343 73.8144 64.89C73.6436 65.4181 73.1541 65.7542 72.6275 65.7542Z" fill="#DBDBDB"/>
<path d="M70.3496 63.1322C70.2222 63.1322 70.0929 63.1127 69.9653 63.0713L69.8972 63.0494C69.2415 62.8374 68.8817 62.1338 69.0939 61.478C69.3059 60.8223 70.0095 60.4625 70.6651 60.6747L70.7332 60.6966C71.3889 60.9086 71.7487 61.6123 71.5365 62.268C71.3658 62.7961 70.8763 63.1322 70.3496 63.1322Z" fill="#DBDBDB"/>
<path d="M37.2687 77.1049C36.6656 77.1049 36.1353 76.6668 36.0378 76.0523C35.9299 75.3715 36.3941 74.7323 37.0748 74.6243L37.1455 74.6132C37.8247 74.5044 38.4654 74.9693 38.5734 75.6502C38.6813 76.3309 38.2171 76.9702 37.5364 77.0781L37.4657 77.0892C37.3997 77.0999 37.3337 77.1049 37.2687 77.1049Z" fill="#DBDBDB"/>
<path d="M34.0494 75.8017C33.447 75.8017 32.9168 75.3645 32.8187 74.7506C32.7099 74.07 33.1735 73.4303 33.854 73.3213L33.9247 73.31C34.6048 73.2011 35.245 73.6649 35.3538 74.3454C35.4625 75.026 34.999 75.6657 34.3184 75.7745L34.2477 75.7858C34.1811 75.7966 34.1149 75.8017 34.0494 75.8017Z" fill="#DBDBDB"/>
</svg>
