<svg width="106" height="106" viewBox="0 0 106 106" fill="none" xmlns="http://www.w3.org/2000/svg">
<path d="M66.0896 17.803L69.5256 13.3862C69.6557 13.2189 69.6791 12.9922 69.5862 12.8017C69.4931 12.6114 69.3 12.4905 69.0879 12.4905H51.4778V23.1152H69.0879C69.2998 23.1152 69.4931 22.9944 69.5862 22.8041C69.6791 22.6136 69.6557 22.3871 69.5256 22.2196L66.0896 17.803Z" fill="#00EDDF"/>
<path d="M69.5256 22.2198L66.0896 17.803H51.4778V23.1155H69.0879C69.2998 23.1155 69.4931 22.9947 69.5862 22.8043C69.6791 22.6138 69.6557 22.3871 69.5256 22.2198Z" fill="#18D5CA"/>
<path d="M49.4213 36.9162C49.5658 36.6532 49.8418 36.4898 50.1419 36.4898C50.4419 36.4898 50.7179 36.6532 50.8624 36.9162L51.6832 38.4103V12.2379C51.6832 11.3867 50.9931 10.6965 50.1419 10.6965C49.2906 10.6965 48.6005 11.3867 48.6005 12.2379V38.4103L49.4213 36.9162Z" fill="#6200EE"/>
<path d="M37.8323 92.2124H57.6492H74.8197C77.0053 92.2124 78.4574 89.9502 77.5472 87.9632L69.5617 70.5279L65.2781 62.7303H55.0196C54.5237 62.7303 53.8087 62.4341 53.4581 62.0835L51.0728 59.6983C50.8459 59.4714 50.5432 59.3464 50.2205 59.3464C49.8979 59.3464 49.5951 59.4714 49.3683 59.6983L45.4833 63.5832C45.3341 63.7324 45.1346 63.8146 44.9217 63.8146C44.7087 63.8146 44.5092 63.7324 44.36 63.5832L41.3748 60.598C40.9447 60.1679 40.131 59.8308 39.5227 59.8308H36.5983L20.855 87.7384C19.7268 89.7382 21.1718 92.2124 23.4679 92.2124H37.8323Z" fill="#BD8FFF"/>
<path d="M23.8088 92.3527C24.8937 92.3527 25.894 91.767 26.425 90.8209L41.7713 63.4743C42.2984 62.535 42.1363 61.3597 41.3746 60.5982C40.9445 60.168 40.1308 59.831 39.5225 59.831H38.354C37.2695 59.831 36.2694 60.4163 35.7383 61.3618L20.8413 87.8836C19.7181 89.8834 21.1633 92.3527 23.457 92.3527H23.8088Z" fill="#6200EE"/>
<path d="M39.5228 60.0363C40.0727 60.0363 40.8407 60.3545 41.2296 60.7433L44.2148 63.7285C44.6036 64.1173 45.2399 64.1173 45.6287 63.7285L49.5137 59.8435C49.9025 59.4547 50.5388 59.4547 50.9276 59.8435L53.3129 62.2288C53.7017 62.6178 54.4697 62.9358 55.0197 62.9358H65.391L51.0425 36.8172C50.8621 36.4886 50.5168 36.2843 50.1419 36.2843C49.7671 36.2843 49.4218 36.4886 49.2413 36.8172L36.4856 60.0365H39.5228V60.0363Z" fill="#F5EEFF"/>
<path d="M39.5228 60.0363C40.0727 60.0363 40.8407 60.3545 41.2296 60.7433L42.5597 62.0734L53.7385 41.7246L51.0425 36.8172C50.8621 36.4886 50.5168 36.2843 50.1419 36.2843C49.7671 36.2843 49.4218 36.4886 49.2413 36.8172L36.4856 60.0365H39.5228V60.0363Z" fill="#D7BBFF"/>
</svg>
