<svg width="62" height="82" viewBox="0 0 62 82" fill="none" xmlns="http://www.w3.org/2000/svg">
<path d="M47.7583 7.1064L51.1943 2.6896C51.3244 2.5223 51.3478 2.29562 51.255 2.1051C51.1619 1.91479 50.9687 1.79395 50.7566 1.79395H33.1465V12.4187H50.7566C50.9685 12.4187 51.1619 12.2978 51.255 12.1075C51.3478 11.917 51.3244 11.6905 51.1943 11.523L47.7583 7.1064Z" fill="#00EDDF"/>
<path d="M51.1943 11.5233L47.7583 7.10651H33.1465V12.419H50.7566C50.9685 12.419 51.1618 12.2981 51.2549 12.1078C51.3478 11.9173 51.3244 11.6906 51.1943 11.5233Z" fill="#18D5CA"/>
<path d="M31.0904 26.2197C31.2349 25.9566 31.5109 25.7932 31.8109 25.7932C32.111 25.7932 32.387 25.9566 32.5315 26.2197L33.3523 27.7138V1.54139C33.3523 0.690132 32.6622 0 31.8109 0C30.9597 0 30.2695 0.690132 30.2695 1.54139V27.7138L31.0904 26.2197Z" fill="#6200EE"/>
<path d="M19.5012 81.5159H39.3182H56.4887C58.6743 81.5159 60.1263 79.2537 59.2162 77.2666L51.2307 59.8314L46.947 52.0338H36.6886C36.1926 52.0338 35.4776 51.7376 35.127 51.387L32.7418 49.0018C32.5149 48.7749 32.2122 48.6499 31.8895 48.6499C31.5668 48.6499 31.2641 48.7749 31.0372 49.0018L27.1523 52.8867C27.0031 53.0359 26.8035 53.1181 26.5906 53.1181C26.3777 53.1181 26.1781 53.0359 26.0289 52.8867L23.0438 49.9015C22.6136 49.4714 21.8 49.1343 21.1916 49.1343H18.2673L2.52391 77.0418C1.39574 79.0417 2.8407 81.5159 5.13682 81.5159H19.5012Z" fill="#BD8FFF"/>
<path d="M5.4777 81.6561C6.5626 81.6561 7.56297 81.0704 8.0939 80.1243L23.4402 52.7777C23.9674 51.8384 23.8053 50.6632 23.0436 49.9016V49.9016C22.6134 49.4715 21.7998 49.1344 21.1915 49.1344H20.0229C18.9384 49.1344 17.9384 49.7197 17.4073 50.6652L2.51029 77.187C1.38703 79.1868 2.83226 81.6561 5.12592 81.6561H5.4777Z" fill="#6200EE"/>
<path d="M21.1919 49.3398C21.7419 49.3398 22.5099 49.6579 22.8988 50.0468L25.8839 53.0319C26.2728 53.4208 26.9091 53.4208 27.2979 53.0319L31.1828 49.147C31.5717 48.7582 32.208 48.7582 32.5968 49.147L34.9821 51.5323C35.3709 51.9213 36.1389 52.2392 36.6889 52.2392H47.0602L32.7117 26.1207C32.5312 25.7921 32.186 25.5878 31.8111 25.5878C31.4362 25.5878 31.091 25.7921 30.9105 26.1207L18.1548 49.34H21.1919V49.3398Z" fill="#F5EEFF"/>
<path d="M21.1919 49.3398C21.7419 49.3398 22.5099 49.6579 22.8988 50.0468L24.2289 51.3769L35.4077 31.0281L32.7117 26.1207C32.5313 25.7921 32.186 25.5878 31.8111 25.5878C31.4362 25.5878 31.091 25.7921 30.9105 26.1207L18.1548 49.34H21.1919V49.3398Z" fill="#D7BBFF"/>
</svg>
