<svg width="77" height="77" viewBox="0 0 77 77" fill="none" xmlns="http://www.w3.org/2000/svg">
<g clip-path="url(#clip0)">
<path d="M1.64668 48.0695C1.55938 48.0695 1.47548 48.0674 1.39498 48.0637C0.767874 48.0352 0.272461 47.523 0.272461 46.8953V46.8899C0.272461 46.2534 0.781783 45.7426 1.41792 45.721C2.50448 45.684 4.1779 45.2901 5.59844 43.509C5.67805 43.4093 5.75056 43.3097 5.8167 43.2108C3.41274 42.6944 1.96423 41.873 1.40075 40.7119C1.06678 40.0238 0.89291 38.9075 1.96039 37.497C2.6964 36.5242 3.75751 36.051 4.87219 36.2002C6.28681 36.3888 7.62019 37.5535 8.26935 39.1672C8.56367 39.8986 8.69877 40.6525 8.67923 41.3995C9.35355 41.4693 10.0391 41.5134 10.7016 41.5279C11.3131 41.5413 11.8358 42.0211 11.8432 42.6328C11.8509 43.2679 11.337 43.7753 10.7029 43.7665C10.6442 43.7653 9.56293 43.7425 8.16518 43.5846C7.9555 44.0421 7.68279 44.4847 7.34822 44.9042C5.22807 47.5624 3.0215 48.0695 1.64668 48.0695ZM4.46349 38.4102C4.27231 38.4102 4.01928 38.4843 3.74464 38.8471C3.57136 39.0762 3.29806 39.4958 3.41392 39.7347C3.67509 40.2734 4.87856 40.7361 6.42724 41.0574C6.39986 40.5957 6.28311 40.2256 6.19314 40.0022C5.81123 39.0531 5.0906 38.487 4.5761 38.4183C4.54162 38.4136 4.50389 38.4102 4.46349 38.4102Z" fill="#6200EE"/>
<path d="M73.8755 41.6754L70.7265 40.6667C69.9729 40.4254 69.3877 39.8304 69.1503 39.0756C65.5265 27.5523 52.0701 22.2604 38.5253 22.2604C22.6787 22.2604 9.83264 29.5017 9.83264 45.4931C9.83264 54.7096 14.3531 61.1649 21.3371 64.8931C21.5089 64.9848 21.6311 65.1478 21.6679 65.3389L23.2326 73.466C23.3775 74.2317 24.0466 74.786 24.8258 74.786H30.1095C30.8887 74.786 31.5577 74.2317 31.7027 73.466L32.558 68.9475C32.621 68.6142 32.9318 68.3895 33.2687 68.4288C34.9729 68.6266 36.7298 68.7259 38.5253 68.7259C40.9253 68.7259 43.3223 68.5486 45.6626 68.195C46.0065 68.143 46.3306 68.3691 46.3954 68.7108L47.2955 73.466C47.4404 74.2317 48.1095 74.786 48.8887 74.786H54.1724C54.9516 74.786 55.6206 74.2317 55.7656 73.466L57.3908 64.8611C57.4275 64.6668 57.5524 64.5013 57.7279 64.4101C61.8754 62.2537 65.3066 59.287 67.495 55.505C67.7866 55.001 68.2477 54.6168 68.8023 54.4393L73.876 52.8141C75.1622 52.4021 76.0349 51.2062 76.0349 49.8557V44.6339C76.0345 43.2833 75.1619 42.0874 73.8755 41.6754Z" fill="#BD8FFF"/>
<path d="M50.8331 25.0807C50.9938 24.3179 51.5215 23.6837 52.2303 23.3592C54.9536 22.1127 61.892 19.1131 63.6757 20.0474C65.9093 21.2175 64.7393 33.8484 61.3356 35.7763C58.048 37.6386 48.5083 36.1142 50.8331 25.0807Z" fill="#D7BBFF"/>
<path d="M61.175 45.2042C59.1579 45.2042 57.5167 43.563 57.5167 41.5458C57.5167 40.9279 58.0176 40.427 58.6355 40.427C59.2535 40.427 59.7544 40.9279 59.7544 41.5458C59.7544 42.3292 60.3917 42.9664 61.1749 42.9664C61.9583 42.9664 62.5956 42.3292 62.5956 41.5458C62.5956 40.9279 63.0965 40.427 63.7144 40.427C64.3323 40.427 64.8332 40.9279 64.8332 41.5458C64.8335 43.563 63.1923 45.2042 61.175 45.2042Z" fill="#6200EE"/>
<path d="M44.7282 31.5695C44.6106 31.5695 44.491 31.5508 44.3734 31.5115C38.2716 29.4715 31.5505 29.4715 25.4487 31.5115C24.8627 31.7072 24.2287 31.3912 24.0329 30.805C23.837 30.2189 24.1532 29.585 24.7393 29.3891C31.2988 27.1961 38.5236 27.1961 45.083 29.3891C45.6692 29.585 45.9854 30.2189 45.7895 30.805C45.6328 31.2735 45.1962 31.5695 44.7282 31.5695Z" fill="#F5EEFF"/>
<path d="M34.9114 29.9832C42.7274 29.9832 49.0635 23.6471 49.0635 15.8311C49.0635 8.01513 42.7274 1.67902 34.9114 1.67902C27.0954 1.67902 20.7593 8.01513 20.7593 15.8311C20.7593 23.6471 27.0954 29.9832 34.9114 29.9832Z" fill="#00EDDF"/>
<path d="M62.7285 21.5111C61.1754 21.5111 57.4142 22.7911 52.9132 24.8516C52.6674 24.9641 52.49 25.1764 52.4388 25.4192C51.7828 28.5323 52.1337 31.0379 53.4536 32.6647C53.6079 32.8548 53.7772 33.0339 53.9595 33.2014C54.1719 33.3964 54.5141 33.2871 54.5847 33.0077C56.1489 26.8121 63.7407 21.5111 62.7285 21.5111Z" fill="#F5EEFF"/>
<path d="M45.0916 6.0022L25.0815 26.0124C30.6212 31.3644 39.4501 31.3072 44.9183 25.839C50.3865 20.3708 50.4436 11.5419 45.0916 6.0022Z" fill="#00EDDF"/>
<path d="M34.5903 22.6886C32.1801 22.6497 30.5474 21.3474 30.5474 20.3951C30.5474 19.9285 30.9555 19.287 31.4414 19.287C32.0829 19.287 32.6076 20.6476 34.5903 20.8032V16.2354C32.8409 15.6135 30.8972 14.9137 30.8972 12.4257C30.8972 9.9766 32.7437 9.00471 34.5903 8.81028V8.24665C34.5903 8.01344 34.8235 7.79962 35.1541 7.79962C35.4456 7.79962 35.7372 8.01344 35.7372 8.24665V8.77151C37.0589 8.81042 38.925 9.21853 38.925 10.171C38.925 10.5404 38.6529 11.2789 38.0697 11.2789C37.6033 11.2789 37.0978 10.657 35.7372 10.5598V14.5054C37.4283 15.1274 39.2748 15.9827 39.2748 18.6262C39.2748 21.017 37.8365 22.3387 35.7372 22.6303V23.2912C35.7372 23.5244 35.4457 23.7382 35.1541 23.7382C34.8236 23.7382 34.5903 23.5244 34.5903 23.2912V22.6886ZM34.7069 14.1363V10.5987C33.6184 10.7347 32.8409 11.2206 32.8409 12.2314C32.8409 13.3393 33.6767 13.7475 34.7069 14.1363ZM35.6205 16.663V20.7642C36.67 20.5698 37.3309 19.9479 37.3309 18.8399C37.3309 17.6155 36.573 17.0713 35.6205 16.663Z" fill="#FFFBD6"/>
<ellipse cx="73.5333" cy="46.8096" rx="1.07211" ry="2.85896" fill="#6200EE"/>
</g>
<defs>
<clipPath id="clip0">
<rect width="75.7625" height="75.7625" fill="white" transform="translate(0.272461 0.351562)"/>
</clipPath>
</defs>
</svg>
