<svg width="306" height="295" viewBox="0 0 306 295" fill="none" xmlns="http://www.w3.org/2000/svg">
<path d="M204.524 166.432L232.569 138.387C235.345 135.611 233.379 130.865 229.454 130.865H125.613C123.332 130.865 121.482 132.714 121.482 134.995V192.515C121.482 197.754 125.729 202 130.967 202H229.454C233.379 202 235.345 197.254 232.57 194.478L204.524 166.432Z" fill="#BD8FFF"/>
<path d="M232.57 194.478L204.524 166.432L232.57 138.387C235.345 135.611 233.38 130.865 229.454 130.865H152.307V202H229.454C233.379 202 235.345 197.254 232.57 194.478Z" fill="#D7BBFF"/>
<path d="M105.849 202C103.568 202 101.718 200.15 101.718 197.869V149.834C101.718 147.552 103.568 145.703 105.849 145.703C108.13 145.703 109.98 147.552 109.98 149.834V197.869C109.98 200.15 108.13 202 105.849 202Z" fill="#6200EE"/>
<path d="M105.849 78.6982C110.736 78.6982 114.698 74.7364 114.698 69.8491C114.698 64.9619 110.736 61 105.849 61C100.962 61 97 64.9619 97 69.8491C97 74.7364 100.962 78.6982 105.849 78.6982Z" fill="#BD8FFF"/>
<path d="M121.482 192.515C121.482 189.658 123.242 187.095 125.908 186.07C137.267 181.7 167.348 170.131 178.707 165.764C181.373 164.737 183.133 162.176 183.133 159.319C183.133 154.081 178.887 149.834 173.648 149.834C156.359 149.834 121.482 149.834 121.482 149.834V192.515Z" fill="#6200EE"/>
<path d="M183.133 159.318C183.133 154.081 178.887 149.834 173.648 149.834C167.852 149.834 160.08 149.834 152.308 149.834V175.916C162.668 171.932 173.028 167.947 178.707 165.763C181.374 164.737 183.133 162.176 183.133 159.318Z" fill="#BD8FFF"/>
<path d="M173.648 78.6987H105.849C103.568 78.6987 101.718 80.5483 101.718 82.8296V149.834H173.648C178.886 149.834 183.133 154.081 183.133 159.319V88.1835C183.133 82.945 178.886 78.6987 173.648 78.6987Z" fill="#D7BBFF"/>
<path d="M183.133 159.319V88.1835C183.133 82.9453 178.887 78.6987 173.648 78.6987H152.308V149.834H173.648C178.887 149.834 183.133 154.081 183.133 159.319Z" fill="#D7BBFF"/>
<path d="M105.849 78.6985V61C110.729 61 114.698 64.9698 114.698 69.8491C114.698 74.7285 110.729 78.6985 105.849 78.6985Z" fill="#6200EE"/>
<path d="M11 147.4C11.2533 147.4 11.46 147.487 11.62 147.66C11.7933 147.82 11.88 148.027 11.88 148.28C11.88 148.533 11.7933 148.747 11.62 148.92C11.46 149.08 11.2533 149.16 11 149.16H7.88V152.26C7.88 152.513 7.79333 152.727 7.62 152.9C7.46 153.073 7.25333 153.16 7 153.16C6.74667 153.16 6.53333 153.073 6.36 152.9C6.2 152.727 6.12 152.513 6.12 152.26V149.16H3C2.74667 149.16 2.53333 149.08 2.36 148.92C2.2 148.747 2.12 148.533 2.12 148.28C2.12 148.027 2.2 147.82 2.36 147.66C2.53333 147.487 2.74667 147.4 3 147.4H6.12V144.28C6.12 144.027 6.2 143.82 6.36 143.66C6.53333 143.487 6.74667 143.4 7 143.4C7.25333 143.4 7.46 143.487 7.62 143.66C7.79333 143.82 7.88 144.027 7.88 144.28V147.4H11ZM23.0122 151.92C23.8122 151.92 24.2122 152.26 24.2122 152.94C24.2122 153.647 23.8122 154 23.0122 154H16.2522C15.4389 154 15.0322 153.647 15.0322 152.94C15.0322 152.26 15.4389 151.92 16.2522 151.92H18.3322V142.8L16.4122 143.98C16.2255 144.087 16.0589 144.14 15.9122 144.14C15.6322 144.14 15.3922 144.02 15.1922 143.78C15.0055 143.54 14.9122 143.273 14.9122 142.98C14.9122 142.593 15.0855 142.293 15.4322 142.08L18.5322 140.16C18.9322 139.92 19.3122 139.8 19.6722 139.8C20.0455 139.8 20.3455 139.913 20.5722 140.14C20.7989 140.367 20.9122 140.68 20.9122 141.08V151.92H23.0122ZM27.4644 154.12C27.0377 154.12 26.6844 153.98 26.4044 153.7C26.1244 153.407 25.9844 153.047 25.9844 152.62C25.9844 152.193 26.1244 151.84 26.4044 151.56C26.6844 151.267 27.0377 151.12 27.4644 151.12C27.891 151.12 28.2444 151.267 28.5244 151.56C28.8044 151.84 28.9444 152.193 28.9444 152.62C28.9444 153.047 28.8044 153.407 28.5244 153.7C28.2444 153.98 27.891 154.12 27.4644 154.12ZM35.9453 154.18C34.2786 154.18 33.0053 153.567 32.1253 152.34C31.2453 151.1 30.8053 149.3 30.8053 146.94C30.8053 144.593 31.2453 142.807 32.1253 141.58C33.0053 140.34 34.2786 139.72 35.9453 139.72C37.612 139.72 38.8853 140.34 39.7653 141.58C40.6453 142.807 41.0853 144.593 41.0853 146.94C41.0853 149.287 40.6453 151.08 39.7653 152.32C38.8853 153.56 37.612 154.18 35.9453 154.18ZM35.9453 152.16C36.852 152.16 37.512 151.747 37.9253 150.92C38.3386 150.08 38.5453 148.753 38.5453 146.94C38.5453 145.113 38.3386 143.793 37.9253 142.98C37.512 142.153 36.852 141.74 35.9453 141.74C35.0386 141.74 34.3786 142.153 33.9653 142.98C33.552 143.807 33.3453 145.127 33.3453 146.94C33.3453 148.753 33.552 150.08 33.9653 150.92C34.3786 151.747 35.0386 152.16 35.9453 152.16ZM47.9375 154.18C46.2708 154.18 44.9975 153.567 44.1175 152.34C43.2375 151.1 42.7975 149.3 42.7975 146.94C42.7975 144.593 43.2375 142.807 44.1175 141.58C44.9975 140.34 46.2708 139.72 47.9375 139.72C49.6042 139.72 50.8775 140.34 51.7575 141.58C52.6375 142.807 53.0775 144.593 53.0775 146.94C53.0775 149.287 52.6375 151.08 51.7575 152.32C50.8775 153.56 49.6042 154.18 47.9375 154.18ZM47.9375 152.16C48.8442 152.16 49.5042 151.747 49.9175 150.92C50.3308 150.08 50.5375 148.753 50.5375 146.94C50.5375 145.113 50.3308 143.793 49.9175 142.98C49.5042 142.153 48.8442 141.74 47.9375 141.74C47.0308 141.74 46.3708 142.153 45.9575 142.98C45.5442 143.807 45.3375 145.127 45.3375 146.94C45.3375 148.753 45.5442 150.08 45.9575 150.92C46.3708 151.747 47.0308 152.16 47.9375 152.16ZM59.9297 154.18C58.263 154.18 56.9897 153.567 56.1097 152.34C55.2297 151.1 54.7897 149.3 54.7897 146.94C54.7897 144.593 55.2297 142.807 56.1097 141.58C56.9897 140.34 58.263 139.72 59.9297 139.72C61.5964 139.72 62.8697 140.34 63.7497 141.58C64.6297 142.807 65.0697 144.593 65.0697 146.94C65.0697 149.287 64.6297 151.08 63.7497 152.32C62.8697 153.56 61.5964 154.18 59.9297 154.18ZM59.9297 152.16C60.8364 152.16 61.4964 151.747 61.9097 150.92C62.323 150.08 62.5297 148.753 62.5297 146.94C62.5297 145.113 62.323 143.793 61.9097 142.98C61.4964 142.153 60.8364 141.74 59.9297 141.74C59.023 141.74 58.363 142.153 57.9497 142.98C57.5364 143.807 57.3297 145.127 57.3297 146.94C57.3297 148.753 57.5364 150.08 57.9497 150.92C58.363 151.747 59.023 152.16 59.9297 152.16Z" fill="#F8554B"/>
<path d="M237 93.74C237.279 93.74 237.506 93.8353 237.682 94.026C237.873 94.202 237.968 94.4293 237.968 94.708C237.968 94.9867 237.873 95.2213 237.682 95.412C237.506 95.588 237.279 95.676 237 95.676H233.568V99.086C233.568 99.3647 233.473 99.5993 233.282 99.79C233.106 99.9807 232.879 100.076 232.6 100.076C232.321 100.076 232.087 99.9807 231.896 99.79C231.72 99.5993 231.632 99.3647 231.632 99.086V95.676H228.2C227.921 95.676 227.687 95.588 227.496 95.412C227.32 95.2213 227.232 94.9867 227.232 94.708C227.232 94.4293 227.32 94.202 227.496 94.026C227.687 93.8353 227.921 93.74 228.2 93.74H231.632V90.308C231.632 90.0293 231.72 89.802 231.896 89.626C232.087 89.4353 232.321 89.34 232.6 89.34C232.879 89.34 233.106 89.4353 233.282 89.626C233.473 89.802 233.568 90.0293 233.568 90.308V93.74H237ZM250.147 98.712C251.027 98.712 251.467 99.086 251.467 99.834C251.467 100.611 251.027 101 250.147 101H241.787C241.406 101 241.105 100.89 240.885 100.67C240.665 100.435 240.555 100.149 240.555 99.812C240.555 99.372 240.724 98.976 241.061 98.624L246.077 93.234C246.693 92.5593 247.141 91.9433 247.419 91.386C247.713 90.814 247.859 90.2493 247.859 89.692C247.859 89.0027 247.661 88.4747 247.265 88.108C246.869 87.7413 246.305 87.558 245.571 87.558C244.97 87.558 244.383 87.6753 243.811 87.91C243.254 88.13 242.689 88.438 242.117 88.834C241.971 88.9367 241.824 89.0247 241.677 89.098C241.531 89.1567 241.384 89.186 241.237 89.186C240.988 89.186 240.768 89.0687 240.577 88.834C240.401 88.5993 240.313 88.3207 240.313 87.998C240.313 87.778 240.35 87.5873 240.423 87.426C240.511 87.2647 240.643 87.1107 240.819 86.964C241.465 86.4507 242.22 86.0473 243.085 85.754C243.951 85.446 244.816 85.292 245.681 85.292C247.192 85.292 248.395 85.6733 249.289 86.436C250.199 87.1987 250.653 88.2253 250.653 89.516C250.653 90.4107 250.463 91.254 250.081 92.046C249.7 92.8233 249.055 93.696 248.145 94.664L244.339 98.712H250.147ZM255.132 101.132C254.663 101.132 254.274 100.978 253.966 100.67C253.658 100.347 253.504 99.9513 253.504 99.482C253.504 99.0127 253.658 98.624 253.966 98.316C254.274 97.9933 254.663 97.832 255.132 97.832C255.602 97.832 255.99 97.9933 256.298 98.316C256.606 98.624 256.76 99.0127 256.76 99.482C256.76 99.9513 256.606 100.347 256.298 100.67C255.99 100.978 255.602 101.132 255.132 101.132ZM264.461 101.198C262.628 101.198 261.227 100.523 260.259 99.174C259.291 97.81 258.807 95.83 258.807 93.234C258.807 90.6527 259.291 88.6873 260.259 87.338C261.227 85.974 262.628 85.292 264.461 85.292C266.295 85.292 267.695 85.974 268.663 87.338C269.631 88.6873 270.115 90.6527 270.115 93.234C270.115 95.8153 269.631 97.788 268.663 99.152C267.695 100.516 266.295 101.198 264.461 101.198ZM264.461 98.976C265.459 98.976 266.185 98.5213 266.639 97.612C267.094 96.688 267.321 95.2287 267.321 93.234C267.321 91.2247 267.094 89.7727 266.639 88.878C266.185 87.9687 265.459 87.514 264.461 87.514C263.464 87.514 262.738 87.9687 262.283 88.878C261.829 89.7873 261.601 91.2393 261.601 93.234C261.601 95.2287 261.829 96.688 262.283 97.612C262.738 98.5213 263.464 98.976 264.461 98.976ZM277.653 101.198C275.819 101.198 274.419 100.523 273.451 99.174C272.483 97.81 271.999 95.83 271.999 93.234C271.999 90.6527 272.483 88.6873 273.451 87.338C274.419 85.974 275.819 85.292 277.653 85.292C279.486 85.292 280.887 85.974 281.855 87.338C282.823 88.6873 283.307 90.6527 283.307 93.234C283.307 95.8153 282.823 97.788 281.855 99.152C280.887 100.516 279.486 101.198 277.653 101.198ZM277.653 98.976C278.65 98.976 279.376 98.5213 279.831 97.612C280.285 96.688 280.513 95.2287 280.513 93.234C280.513 91.2247 280.285 89.7727 279.831 88.878C279.376 87.9687 278.65 87.514 277.653 87.514C276.655 87.514 275.929 87.9687 275.475 88.878C275.02 89.7873 274.793 91.2393 274.793 93.234C274.793 95.2287 275.02 96.688 275.475 97.612C275.929 98.5213 276.655 98.976 277.653 98.976ZM290.844 101.198C289.011 101.198 287.61 100.523 286.642 99.174C285.674 97.81 285.19 95.83 285.19 93.234C285.19 90.6527 285.674 88.6873 286.642 87.338C287.61 85.974 289.011 85.292 290.844 85.292C292.677 85.292 294.078 85.974 295.046 87.338C296.014 88.6873 296.498 90.6527 296.498 93.234C296.498 95.8153 296.014 97.788 295.046 99.152C294.078 100.516 292.677 101.198 290.844 101.198ZM290.844 98.976C291.841 98.976 292.567 98.5213 293.022 97.612C293.477 96.688 293.704 95.2287 293.704 93.234C293.704 91.2247 293.477 89.7727 293.022 88.878C292.567 87.9687 291.841 87.514 290.844 87.514C289.847 87.514 289.121 87.9687 288.666 88.878C288.211 89.7873 287.984 91.2393 287.984 93.234C287.984 95.2287 288.211 96.688 288.666 97.612C289.121 98.5213 289.847 98.976 290.844 98.976Z" fill="#EE9B00"/>
<path d="M12 59.08C12.304 59.08 12.552 59.184 12.744 59.392C12.952 59.584 13.056 59.832 13.056 60.136C13.056 60.44 12.952 60.696 12.744 60.904C12.552 61.096 12.304 61.192 12 61.192H8.256V64.912C8.256 65.216 8.152 65.472 7.944 65.68C7.752 65.888 7.504 65.992 7.2 65.992C6.896 65.992 6.64 65.888 6.432 65.68C6.24 65.472 6.144 65.216 6.144 64.912V61.192H2.4C2.096 61.192 1.84 61.096 1.632 60.904C1.44 60.696 1.344 60.44 1.344 60.136C1.344 59.832 1.44 59.584 1.632 59.392C1.84 59.184 2.096 59.08 2.4 59.08H6.144V55.336C6.144 55.032 6.24 54.784 6.432 54.592C6.64 54.384 6.896 54.28 7.2 54.28C7.504 54.28 7.752 54.384 7.944 54.592C8.152 54.784 8.256 55.032 8.256 55.336V59.08H12ZM24.1826 58.312C25.1906 58.568 25.9586 59.056 26.4866 59.776C27.0306 60.48 27.3026 61.36 27.3026 62.416C27.3026 63.872 26.7666 65.032 25.6946 65.896C24.6226 66.76 23.1746 67.192 21.3506 67.192C20.3106 67.192 19.3106 67.032 18.3506 66.712C17.3906 66.392 16.5746 65.944 15.9026 65.368C15.5346 65.048 15.3506 64.672 15.3506 64.24C15.3506 63.888 15.4466 63.592 15.6386 63.352C15.8466 63.096 16.0866 62.968 16.3586 62.968C16.5186 62.968 16.6626 63 16.7906 63.064C16.9186 63.112 17.0946 63.2 17.3186 63.328C17.9906 63.776 18.6306 64.12 19.2386 64.36C19.8466 64.6 20.5106 64.72 21.2306 64.72C22.2866 64.72 23.0706 64.512 23.5826 64.096C24.0946 63.664 24.3506 63.016 24.3506 62.152C24.3506 61.304 24.0786 60.68 23.5346 60.28C23.0066 59.864 22.1826 59.656 21.0626 59.656H19.6946C19.3266 59.656 19.0386 59.536 18.8306 59.296C18.6386 59.04 18.5426 58.752 18.5426 58.432C18.5426 58.096 18.6386 57.808 18.8306 57.568C19.0386 57.328 19.3266 57.208 19.6946 57.208H20.6546C22.8466 57.208 23.9426 56.384 23.9426 54.736C23.9426 53.968 23.7106 53.376 23.2466 52.96C22.7826 52.544 22.1426 52.336 21.3266 52.336C20.1586 52.336 18.9106 52.8 17.5826 53.728C17.3586 53.856 17.1826 53.952 17.0546 54.016C16.9266 54.064 16.7826 54.088 16.6226 54.088C16.3506 54.088 16.1106 53.968 15.9026 53.728C15.7106 53.472 15.6146 53.168 15.6146 52.816C15.6146 52.576 15.6546 52.376 15.7346 52.216C15.8306 52.04 15.9746 51.864 16.1666 51.688C16.8386 51.128 17.6386 50.688 18.5666 50.368C19.5106 50.032 20.4706 49.864 21.4466 49.864C23.1106 49.864 24.4306 50.272 25.4066 51.088C26.3986 51.904 26.8946 52.992 26.8946 54.352C26.8786 55.28 26.6306 56.096 26.1506 56.8C25.6866 57.488 25.0306 57.992 24.1826 58.312ZM31.7573 67.144C31.2453 67.144 30.8213 66.976 30.4853 66.64C30.1493 66.288 29.9813 65.856 29.9813 65.344C29.9813 64.832 30.1493 64.408 30.4853 64.072C30.8213 63.72 31.2453 63.544 31.7573 63.544C32.2693 63.544 32.6933 63.72 33.0293 64.072C33.3653 64.408 33.5333 64.832 33.5333 65.344C33.5333 65.856 33.3653 66.288 33.0293 66.64C32.6933 66.976 32.2693 67.144 31.7573 67.144ZM41.9344 67.216C39.9344 67.216 38.4064 66.48 37.3504 65.008C36.2944 63.52 35.7664 61.36 35.7664 58.528C35.7664 55.712 36.2944 53.568 37.3504 52.096C38.4064 50.608 39.9344 49.864 41.9344 49.864C43.9344 49.864 45.4624 50.608 46.5184 52.096C47.5744 53.568 48.1024 55.712 48.1024 58.528C48.1024 61.344 47.5744 63.496 46.5184 64.984C45.4624 66.472 43.9344 67.216 41.9344 67.216ZM41.9344 64.792C43.0224 64.792 43.8144 64.296 44.3104 63.304C44.8064 62.296 45.0544 60.704 45.0544 58.528C45.0544 56.336 44.8064 54.752 44.3104 53.776C43.8144 52.784 43.0224 52.288 41.9344 52.288C40.8464 52.288 40.0544 52.784 39.5584 53.776C39.0624 54.768 38.8144 56.352 38.8144 58.528C38.8144 60.704 39.0624 62.296 39.5584 63.304C40.0544 64.296 40.8464 64.792 41.9344 64.792ZM56.325 67.216C54.325 67.216 52.797 66.48 51.741 65.008C50.685 63.52 50.157 61.36 50.157 58.528C50.157 55.712 50.685 53.568 51.741 52.096C52.797 50.608 54.325 49.864 56.325 49.864C58.325 49.864 59.853 50.608 60.909 52.096C61.965 53.568 62.493 55.712 62.493 58.528C62.493 61.344 61.965 63.496 60.909 64.984C59.853 66.472 58.325 67.216 56.325 67.216ZM56.325 64.792C57.413 64.792 58.205 64.296 58.701 63.304C59.197 62.296 59.445 60.704 59.445 58.528C59.445 56.336 59.197 54.752 58.701 53.776C58.205 52.784 57.413 52.288 56.325 52.288C55.237 52.288 54.445 52.784 53.949 53.776C53.453 54.768 53.205 56.352 53.205 58.528C53.205 60.704 53.453 62.296 53.949 63.304C54.445 64.296 55.237 64.792 56.325 64.792ZM70.7156 67.216C68.7156 67.216 67.1876 66.48 66.1316 65.008C65.0756 63.52 64.5476 61.36 64.5476 58.528C64.5476 55.712 65.0756 53.568 66.1316 52.096C67.1876 50.608 68.7156 49.864 70.7156 49.864C72.7156 49.864 74.2436 50.608 75.2996 52.096C76.3556 53.568 76.8836 55.712 76.8836 58.528C76.8836 61.344 76.3556 63.496 75.2996 64.984C74.2436 66.472 72.7156 67.216 70.7156 67.216ZM70.7156 64.792C71.8036 64.792 72.5956 64.296 73.0916 63.304C73.5876 62.296 73.8356 60.704 73.8356 58.528C73.8356 56.336 73.5876 54.752 73.0916 53.776C72.5956 52.784 71.8036 52.288 70.7156 52.288C69.6276 52.288 68.8356 52.784 68.3396 53.776C67.8436 54.768 67.5956 56.352 67.5956 58.528C67.5956 60.704 67.8436 62.296 68.3396 63.304C68.8356 64.296 69.6276 64.792 70.7156 64.792Z" fill="#00EDDF"/>
<path d="M155 17.42C155.329 17.42 155.598 17.5327 155.806 17.758C156.031 17.966 156.144 18.2347 156.144 18.564C156.144 18.8933 156.031 19.1707 155.806 19.396C155.598 19.604 155.329 19.708 155 19.708H150.944V23.738C150.944 24.0673 150.831 24.3447 150.606 24.57C150.398 24.7953 150.129 24.908 149.8 24.908C149.471 24.908 149.193 24.7953 148.968 24.57C148.76 24.3447 148.656 24.0673 148.656 23.738V19.708H144.6C144.271 19.708 143.993 19.604 143.768 19.396C143.56 19.1707 143.456 18.8933 143.456 18.564C143.456 18.2347 143.56 17.966 143.768 17.758C143.993 17.5327 144.271 17.42 144.6 17.42H148.656V13.364C148.656 13.0347 148.76 12.766 148.968 12.558C149.193 12.3327 149.471 12.22 149.8 12.22C150.129 12.22 150.398 12.3327 150.606 12.558C150.831 12.766 150.944 13.0347 150.944 13.364V17.42H155ZM171.24 19.812C171.76 19.812 172.15 19.9247 172.41 20.15C172.67 20.3753 172.8 20.696 172.8 21.112C172.8 21.9787 172.28 22.412 171.24 22.412H169.914V24.466C169.914 25.0033 169.758 25.4193 169.446 25.714C169.151 26.0087 168.761 26.156 168.276 26.156C167.791 26.156 167.392 26.0087 167.08 25.714C166.785 25.4193 166.638 25.0033 166.638 24.466V22.412H159.826C159.358 22.412 158.994 22.282 158.734 22.022C158.474 21.7447 158.344 21.4067 158.344 21.008C158.344 20.592 158.483 20.1933 158.76 19.812L166.794 8.268C166.967 8.02533 167.184 7.84333 167.444 7.722C167.704 7.58333 167.973 7.514 168.25 7.514C168.701 7.514 169.091 7.66133 169.42 7.956C169.749 8.25067 169.914 8.66667 169.914 9.204V19.812H171.24ZM161.802 19.812H166.638V12.818L161.802 19.812ZM176.404 26.156C175.849 26.156 175.39 25.974 175.026 25.61C174.662 25.2287 174.48 24.7607 174.48 24.206C174.48 23.6513 174.662 23.192 175.026 22.828C175.39 22.4467 175.849 22.256 176.404 22.256C176.958 22.256 177.418 22.4467 177.782 22.828C178.146 23.192 178.328 23.6513 178.328 24.206C178.328 24.7607 178.146 25.2287 177.782 25.61C177.418 25.974 176.958 26.156 176.404 26.156ZM187.429 26.234C185.262 26.234 183.607 25.4367 182.463 23.842C181.319 22.23 180.747 19.89 180.747 16.822C180.747 13.7713 181.319 11.4487 182.463 9.854C183.607 8.242 185.262 7.436 187.429 7.436C189.596 7.436 191.251 8.242 192.395 9.854C193.539 11.4487 194.111 13.7713 194.111 16.822C194.111 19.8727 193.539 22.204 192.395 23.816C191.251 25.428 189.596 26.234 187.429 26.234ZM187.429 23.608C188.608 23.608 189.466 23.0707 190.003 21.996C190.54 20.904 190.809 19.1793 190.809 16.822C190.809 14.4473 190.54 12.7313 190.003 11.674C189.466 10.5993 188.608 10.062 187.429 10.062C186.25 10.062 185.392 10.5993 184.855 11.674C184.318 12.7487 184.049 14.4647 184.049 16.822C184.049 19.1793 184.318 20.904 184.855 21.996C185.392 23.0707 186.25 23.608 187.429 23.608ZM203.019 26.234C200.852 26.234 199.197 25.4367 198.053 23.842C196.909 22.23 196.337 19.89 196.337 16.822C196.337 13.7713 196.909 11.4487 198.053 9.854C199.197 8.242 200.852 7.436 203.019 7.436C205.185 7.436 206.841 8.242 207.985 9.854C209.129 11.4487 209.701 13.7713 209.701 16.822C209.701 19.8727 209.129 22.204 207.985 23.816C206.841 25.428 205.185 26.234 203.019 26.234ZM203.019 23.608C204.197 23.608 205.055 23.0707 205.593 21.996C206.13 20.904 206.399 19.1793 206.399 16.822C206.399 14.4473 206.13 12.7313 205.593 11.674C205.055 10.5993 204.197 10.062 203.019 10.062C201.84 10.062 200.982 10.5993 200.445 11.674C199.907 12.7487 199.639 14.4647 199.639 16.822C199.639 19.1793 199.907 20.904 200.445 21.996C200.982 23.0707 201.84 23.608 203.019 23.608ZM218.609 26.234C216.442 26.234 214.787 25.4367 213.643 23.842C212.499 22.23 211.927 19.89 211.927 16.822C211.927 13.7713 212.499 11.4487 213.643 9.854C214.787 8.242 216.442 7.436 218.609 7.436C220.775 7.436 222.431 8.242 223.575 9.854C224.719 11.4487 225.291 13.7713 225.291 16.822C225.291 19.8727 224.719 22.204 223.575 23.816C222.431 25.428 220.775 26.234 218.609 26.234ZM218.609 23.608C219.787 23.608 220.645 23.0707 221.183 21.996C221.72 20.904 221.989 19.1793 221.989 16.822C221.989 14.4473 221.72 12.7313 221.183 11.674C220.645 10.5993 219.787 10.062 218.609 10.062C217.43 10.062 216.572 10.5993 216.035 11.674C215.497 12.7487 215.229 14.4647 215.229 16.822C215.229 19.1793 215.497 20.904 216.035 21.996C216.572 23.0707 217.43 23.608 218.609 23.608Z" fill="#6200EE"/>
<rect x="51" y="233" width="203" height="62" rx="10" fill="#6200EE"/>
<path d="M88.7532 270C88.4052 270 88.1292 269.904 87.9252 269.712C87.7332 269.52 87.6372 269.25 87.6372 268.902V258.408C87.6372 258.06 87.7332 257.79 87.9252 257.598C88.1292 257.406 88.4052 257.31 88.7532 257.31H92.3172C94.3932 257.31 96.0012 257.868 97.1412 258.984C98.2932 260.088 98.8692 261.642 98.8692 263.646C98.8692 265.662 98.2932 267.228 97.1412 268.344C96.0012 269.448 94.3932 270 92.3172 270H88.7532ZM92.1732 268.11C95.0892 268.11 96.5472 266.622 96.5472 263.646C96.5472 260.682 95.0892 259.2 92.1732 259.2H89.9592V268.11H92.1732ZM107.976 267.588C108.18 267.588 108.342 267.666 108.462 267.822C108.594 267.978 108.66 268.188 108.66 268.452C108.66 268.824 108.438 269.136 107.994 269.388C107.586 269.616 107.124 269.802 106.608 269.946C106.092 270.078 105.6 270.144 105.132 270.144C103.716 270.144 102.594 269.736 101.766 268.92C100.938 268.104 100.524 266.988 100.524 265.572C100.524 264.672 100.704 263.874 101.064 263.178C101.424 262.482 101.928 261.942 102.576 261.558C103.236 261.174 103.98 260.982 104.808 260.982C105.6 260.982 106.29 261.156 106.878 261.504C107.466 261.852 107.922 262.344 108.246 262.98C108.57 263.616 108.732 264.366 108.732 265.23C108.732 265.746 108.504 266.004 108.048 266.004H102.738C102.81 266.832 103.044 267.444 103.44 267.84C103.836 268.224 104.412 268.416 105.168 268.416C105.552 268.416 105.888 268.368 106.176 268.272C106.476 268.176 106.812 268.044 107.184 267.876C107.544 267.684 107.808 267.588 107.976 267.588ZM104.862 262.566C104.25 262.566 103.758 262.758 103.386 263.142C103.026 263.526 102.81 264.078 102.738 264.798H106.806C106.782 264.066 106.602 263.514 106.266 263.142C105.93 262.758 105.462 262.566 104.862 262.566ZM113.758 270.144C112.45 270.144 111.394 269.886 110.59 269.37C110.206 269.142 110.014 268.818 110.014 268.398C110.014 268.158 110.08 267.966 110.212 267.822C110.344 267.666 110.506 267.588 110.698 267.588C110.902 267.588 111.184 267.684 111.544 267.876C111.928 268.056 112.276 268.194 112.588 268.29C112.912 268.386 113.32 268.434 113.812 268.434C114.316 268.434 114.706 268.35 114.982 268.182C115.27 268.014 115.414 267.78 115.414 267.48C115.414 267.276 115.354 267.114 115.234 266.994C115.126 266.874 114.922 266.766 114.622 266.67C114.334 266.562 113.89 266.442 113.29 266.31C112.222 266.094 111.454 265.788 110.986 265.392C110.53 264.996 110.302 264.45 110.302 263.754C110.302 263.226 110.458 262.752 110.77 262.332C111.082 261.9 111.508 261.57 112.048 261.342C112.6 261.102 113.224 260.982 113.92 260.982C114.424 260.982 114.91 261.048 115.378 261.18C115.846 261.3 116.266 261.48 116.638 261.72C117.022 261.96 117.214 262.278 117.214 262.674C117.214 262.914 117.148 263.118 117.016 263.286C116.884 263.442 116.722 263.52 116.53 263.52C116.398 263.52 116.266 263.496 116.134 263.448C116.014 263.388 115.858 263.304 115.666 263.196C115.318 263.016 115.018 262.884 114.766 262.8C114.514 262.704 114.202 262.656 113.83 262.656C113.386 262.656 113.032 262.746 112.768 262.926C112.516 263.106 112.39 263.352 112.39 263.664C112.39 263.964 112.522 264.192 112.786 264.348C113.05 264.504 113.56 264.66 114.316 264.816C115.12 264.984 115.75 265.176 116.206 265.392C116.662 265.608 116.986 265.878 117.178 266.202C117.382 266.526 117.484 266.94 117.484 267.444C117.484 268.26 117.142 268.914 116.458 269.406C115.786 269.898 114.886 270.144 113.758 270.144ZM123.124 260.982C124.348 260.982 125.254 261.288 125.842 261.9C126.442 262.5 126.742 263.418 126.742 264.654V269.046C126.742 269.37 126.646 269.628 126.454 269.82C126.262 270 125.998 270.09 125.662 270.09C125.35 270.09 125.092 269.994 124.888 269.802C124.696 269.61 124.6 269.358 124.6 269.046V268.65C124.396 269.118 124.072 269.484 123.628 269.748C123.196 270.012 122.692 270.144 122.116 270.144C121.528 270.144 120.994 270.024 120.514 269.784C120.034 269.544 119.656 269.214 119.38 268.794C119.104 268.374 118.966 267.906 118.966 267.39C118.966 266.742 119.128 266.232 119.452 265.86C119.788 265.488 120.328 265.218 121.072 265.05C121.816 264.882 122.842 264.798 124.15 264.798H124.6V264.384C124.6 263.796 124.474 263.37 124.222 263.106C123.97 262.83 123.562 262.692 122.998 262.692C122.65 262.692 122.296 262.746 121.936 262.854C121.576 262.95 121.15 263.094 120.658 263.286C120.346 263.442 120.118 263.52 119.974 263.52C119.758 263.52 119.578 263.442 119.434 263.286C119.302 263.13 119.236 262.926 119.236 262.674C119.236 262.47 119.284 262.296 119.38 262.152C119.488 261.996 119.662 261.852 119.902 261.72C120.322 261.492 120.82 261.312 121.396 261.18C121.984 261.048 122.56 260.982 123.124 260.982ZM122.566 268.524C123.166 268.524 123.652 268.326 124.024 267.93C124.408 267.522 124.6 267 124.6 266.364V265.986H124.276C123.472 265.986 122.848 266.022 122.404 266.094C121.96 266.166 121.642 266.292 121.45 266.472C121.258 266.652 121.162 266.898 121.162 267.21C121.162 267.594 121.294 267.912 121.558 268.164C121.834 268.404 122.17 268.524 122.566 268.524ZM133.475 258.984C132.923 259.02 132.521 259.188 132.269 259.488C132.017 259.788 131.891 260.22 131.891 260.784V261.198H133.421C134.093 261.198 134.429 261.48 134.429 262.044C134.429 262.608 134.093 262.89 133.421 262.89H131.891V269.028C131.891 269.376 131.783 269.64 131.567 269.82C131.363 270 131.099 270.09 130.775 270.09C130.451 270.09 130.181 270 129.965 269.82C129.749 269.64 129.641 269.376 129.641 269.028V262.89H128.741C128.069 262.89 127.733 262.608 127.733 262.044C127.733 261.48 128.069 261.198 128.741 261.198H129.641V261.072C129.641 259.944 129.935 259.062 130.523 258.426C131.123 257.778 131.963 257.412 133.043 257.328L133.511 257.292C133.991 257.256 134.327 257.31 134.519 257.454C134.723 257.586 134.825 257.796 134.825 258.084C134.825 258.6 134.531 258.888 133.943 258.948L133.475 258.984ZM137.967 270.108C137.643 270.108 137.373 270.018 137.157 269.838C136.953 269.646 136.851 269.376 136.851 269.028V262.08C136.851 261.732 136.953 261.468 137.157 261.288C137.373 261.108 137.643 261.018 137.967 261.018C138.291 261.018 138.561 261.108 138.777 261.288C138.993 261.468 139.101 261.732 139.101 262.08V269.028C139.101 269.376 138.993 269.646 138.777 269.838C138.561 270.018 138.291 270.108 137.967 270.108ZM138.417 259.992C138.285 260.088 138.153 260.136 138.021 260.136C137.853 260.136 137.709 260.082 137.589 259.974C137.481 259.854 137.427 259.716 137.427 259.56C137.427 259.428 137.475 259.296 137.571 259.164L139.317 256.842C139.593 256.482 139.911 256.302 140.271 256.302C140.535 256.302 140.757 256.398 140.937 256.59C141.129 256.77 141.225 256.986 141.225 257.238C141.225 257.574 141.063 257.862 140.739 258.102L138.417 259.992ZM145.436 270.144C144.536 270.144 143.744 269.958 143.06 269.586C142.388 269.214 141.866 268.68 141.494 267.984C141.122 267.288 140.936 266.478 140.936 265.554C140.936 264.63 141.122 263.826 141.494 263.142C141.866 262.446 142.388 261.912 143.06 261.54C143.744 261.168 144.536 260.982 145.436 260.982C146.336 260.982 147.122 261.168 147.794 261.54C148.478 261.912 149 262.446 149.36 263.142C149.732 263.826 149.918 264.63 149.918 265.554C149.918 266.478 149.732 267.288 149.36 267.984C149 268.68 148.478 269.214 147.794 269.586C147.122 269.958 146.336 270.144 145.436 270.144ZM145.418 268.398C146.15 268.398 146.708 268.158 147.092 267.678C147.476 267.198 147.668 266.49 147.668 265.554C147.668 264.63 147.476 263.928 147.092 263.448C146.708 262.956 146.156 262.71 145.436 262.71C144.716 262.71 144.158 262.956 143.762 263.448C143.378 263.928 143.186 264.63 143.186 265.554C143.186 266.49 143.378 267.198 143.762 267.678C144.146 268.158 144.698 268.398 145.418 268.398ZM154.961 270.144C153.653 270.144 152.597 269.886 151.793 269.37C151.409 269.142 151.217 268.818 151.217 268.398C151.217 268.158 151.283 267.966 151.415 267.822C151.547 267.666 151.709 267.588 151.901 267.588C152.105 267.588 152.387 267.684 152.747 267.876C153.131 268.056 153.479 268.194 153.791 268.29C154.115 268.386 154.523 268.434 155.015 268.434C155.519 268.434 155.909 268.35 156.185 268.182C156.473 268.014 156.617 267.78 156.617 267.48C156.617 267.276 156.557 267.114 156.437 266.994C156.329 266.874 156.125 266.766 155.825 266.67C155.537 266.562 155.093 266.442 154.493 266.31C153.425 266.094 152.657 265.788 152.189 265.392C151.733 264.996 151.505 264.45 151.505 263.754C151.505 263.226 151.661 262.752 151.973 262.332C152.285 261.9 152.711 261.57 153.251 261.342C153.803 261.102 154.427 260.982 155.123 260.982C155.627 260.982 156.113 261.048 156.581 261.18C157.049 261.3 157.469 261.48 157.841 261.72C158.225 261.96 158.417 262.278 158.417 262.674C158.417 262.914 158.351 263.118 158.219 263.286C158.087 263.442 157.925 263.52 157.733 263.52C157.601 263.52 157.469 263.496 157.337 263.448C157.217 263.388 157.061 263.304 156.869 263.196C156.521 263.016 156.221 262.884 155.969 262.8C155.717 262.704 155.405 262.656 155.033 262.656C154.589 262.656 154.235 262.746 153.971 262.926C153.719 263.106 153.593 263.352 153.593 263.664C153.593 263.964 153.725 264.192 153.989 264.348C154.253 264.504 154.763 264.66 155.519 264.816C156.323 264.984 156.953 265.176 157.409 265.392C157.865 265.608 158.189 265.878 158.381 266.202C158.585 266.526 158.687 266.94 158.687 267.444C158.687 268.26 158.345 268.914 157.661 269.406C156.989 269.898 156.089 270.144 154.961 270.144ZM176.864 257.22C177.2 257.22 177.47 257.328 177.674 257.544C177.878 257.748 177.98 258.024 177.98 258.372V269.028C177.98 269.364 177.884 269.628 177.692 269.82C177.5 270.012 177.248 270.108 176.936 270.108C176.624 270.108 176.378 270.012 176.198 269.82C176.018 269.628 175.928 269.364 175.928 269.028V261.612L172.868 267.408C172.724 267.672 172.568 267.87 172.4 268.002C172.232 268.122 172.034 268.182 171.806 268.182C171.578 268.182 171.38 268.122 171.212 268.002C171.044 267.882 170.888 267.684 170.744 267.408L167.666 261.702V269.028C167.666 269.352 167.57 269.616 167.378 269.82C167.198 270.012 166.952 270.108 166.64 270.108C166.328 270.108 166.082 270.012 165.902 269.82C165.722 269.628 165.632 269.364 165.632 269.028V258.372C165.632 258.024 165.728 257.748 165.92 257.544C166.124 257.328 166.394 257.22 166.73 257.22C167.198 257.22 167.564 257.478 167.828 257.994L171.824 265.608L175.802 257.994C176.066 257.478 176.42 257.22 176.864 257.22ZM192.233 268.614C192.305 268.77 192.341 268.926 192.341 269.082C192.341 269.358 192.227 269.592 191.999 269.784C191.783 269.976 191.531 270.072 191.243 270.072C191.051 270.072 190.871 270.024 190.703 269.928C190.535 269.82 190.403 269.658 190.307 269.442L189.227 267.03H182.891L181.811 269.442C181.715 269.658 181.583 269.82 181.415 269.928C181.247 270.024 181.061 270.072 180.857 270.072C180.581 270.072 180.329 269.976 180.101 269.784C179.873 269.592 179.759 269.358 179.759 269.082C179.759 268.926 179.795 268.77 179.867 268.614L184.835 257.94C184.943 257.7 185.105 257.52 185.321 257.4C185.549 257.268 185.789 257.202 186.041 257.202C186.293 257.202 186.527 257.268 186.743 257.4C186.971 257.52 187.139 257.7 187.247 257.94L192.233 268.614ZM183.683 265.23H188.435L186.059 259.884L183.683 265.23ZM199.356 270.162C198.132 270.162 197.058 269.898 196.134 269.37C195.222 268.842 194.52 268.086 194.028 267.102C193.536 266.118 193.29 264.966 193.29 263.646C193.29 262.326 193.536 261.18 194.028 260.208C194.52 259.224 195.222 258.468 196.134 257.94C197.058 257.412 198.132 257.148 199.356 257.148C200.148 257.148 200.892 257.268 201.588 257.508C202.284 257.736 202.902 258.072 203.442 258.516C203.598 258.636 203.706 258.762 203.766 258.894C203.826 259.026 203.856 259.188 203.856 259.38C203.856 259.644 203.784 259.866 203.64 260.046C203.496 260.226 203.322 260.316 203.118 260.316C202.878 260.316 202.632 260.232 202.38 260.064C201.864 259.68 201.384 259.416 200.94 259.272C200.496 259.116 200.004 259.038 199.464 259.038C198.216 259.038 197.268 259.428 196.62 260.208C195.984 260.988 195.666 262.134 195.666 263.646C195.666 265.17 195.984 266.322 196.62 267.102C197.268 267.882 198.216 268.272 199.464 268.272C199.98 268.272 200.454 268.194 200.886 268.038C201.33 267.882 201.828 267.618 202.38 267.246C202.5 267.174 202.62 267.114 202.74 267.066C202.86 267.018 202.986 266.994 203.118 266.994C203.322 266.994 203.496 267.084 203.64 267.264C203.784 267.444 203.856 267.666 203.856 267.93C203.856 268.11 203.826 268.272 203.766 268.416C203.706 268.548 203.598 268.674 203.442 268.794C202.902 269.238 202.284 269.58 201.588 269.82C200.892 270.048 200.148 270.162 199.356 270.162ZM215.803 257.22C216.151 257.22 216.427 257.328 216.631 257.544C216.835 257.748 216.937 258.024 216.937 258.372V268.938C216.937 269.286 216.829 269.568 216.613 269.784C216.409 270 216.139 270.108 215.803 270.108C215.455 270.108 215.179 270 214.975 269.784C214.771 269.568 214.669 269.286 214.669 268.938V264.492H208.171V268.938C208.171 269.286 208.063 269.568 207.847 269.784C207.643 270 207.367 270.108 207.019 270.108C206.683 270.108 206.407 270 206.191 269.784C205.987 269.568 205.885 269.286 205.885 268.938V258.372C205.885 258.024 205.987 257.748 206.191 257.544C206.395 257.328 206.671 257.22 207.019 257.22C207.367 257.22 207.643 257.328 207.847 257.544C208.063 257.748 208.171 258.024 208.171 258.372V262.62H214.669V258.372C214.669 258.024 214.771 257.748 214.975 257.544C215.179 257.328 215.455 257.22 215.803 257.22Z" fill="white"/>
</svg>
