<svg width="133" height="82" viewBox="0 0 133 82" fill="none" xmlns="http://www.w3.org/2000/svg">
<path d="M74.3664 21.271L92.3649 21.271L98.8498 26.7743L118.375 26.7743C119.436 26.7743 120.296 27.6343 120.296 28.695L120.296 52.005C120.296 53.0657 119.436 53.9257 118.375 53.9257L112.434 53.9257C112.225 53.9257 112.022 53.9939 111.856 54.1197L107.669 57.2828C104.57 59.624 100.794 60.8884 96.9132 60.8884L74.3664 60.8883L74.3664 21.271Z" fill="#D7BBFF"/>
<path d="M74.3665 26.326L89.1687 26.326C94.5843 26.326 98.9889 30.7306 98.9889 36.1462C98.9889 39.3303 97.4662 42.1636 95.1105 43.9591C95.2566 44.6315 95.3346 45.3281 95.3346 46.0419C95.3346 48.7559 94.231 51.2139 92.4476 52.9924C92.74 53.923 92.8984 54.9122 92.8984 55.9402C92.8984 57.7454 92.4111 59.4337 91.5585 60.8881L74.3663 60.8881L74.3665 26.326Z" fill="#8A43EF"/>
<path d="M90.9614 33.8792L91.4166 34.3343C93.8251 36.7428 97.5185 37.8492 100.607 37.0885C101.116 36.9637 101.627 37.125 101.972 37.4707C102.151 37.6493 102.286 37.8797 102.351 38.1429C102.541 38.915 102.069 39.6967 101.296 39.8867C97.4475 40.8337 93.0817 39.6715 89.9607 36.9173L83.8953 42.9808C81.337 45.5392 77.5264 46.3939 74.367 45.4643L74.367 42.4028C76.7622 43.5744 80.0175 42.785 81.8595 40.9451L88.9257 33.8789C89.4884 33.3164 90.3987 33.3164 90.9614 33.8792Z" fill="#8A43EF"/>
<path d="M88.0268 55.94C88.0268 58.6729 85.8112 60.8885 83.0783 60.8885L72.6103 60.8885C70.5921 60.8885 68.956 59.2524 68.956 57.2342L68.956 54.6457C68.956 52.6275 70.5921 50.9914 72.6103 50.9914L83.0783 50.9914C85.8112 50.9914 88.0268 53.207 88.0268 55.94Z" fill="#BD8FFF"/>
<path d="M72.6099 50.9922L83.0782 50.9922C85.8106 50.9922 88.0257 53.2073 88.0271 55.9411C88.0271 56.756 87.8301 57.526 87.4785 58.2038C86.6554 56.6094 84.9931 55.5201 83.0782 55.5201L72.6099 55.5201C70.9285 55.5201 69.512 56.6568 69.087 58.2038C69.0014 57.8955 68.9565 57.5709 68.9565 57.2341L68.9565 54.6456C68.9567 52.6273 70.5918 50.9922 72.6099 50.9922V50.9922Z" fill="#8A43EF"/>
<path d="M90.4631 46.0428C90.4631 48.7758 88.2475 50.9914 85.5146 50.9914L72.6105 50.9914C70.5923 50.9914 68.9562 49.3553 68.9562 47.3371L68.9562 44.7486C68.9562 42.7304 70.5923 41.0943 72.6105 41.0943L85.5146 41.0943C88.2477 41.0944 90.4631 43.3099 90.4631 46.0428Z" fill="#BD8FFF"/>
<path d="M72.6095 41.0942L85.5143 41.0942C88.2468 41.0942 90.4633 43.3107 90.4633 46.0431C90.4633 46.8606 90.2649 47.6294 89.9145 48.3085C89.0929 46.7127 87.4319 45.6221 85.5142 45.6222L72.6093 45.6222C70.9254 45.6222 69.5074 46.7604 69.085 48.3099C68.9994 48.0017 68.9547 47.6743 68.9547 47.3375L68.9547 44.749C68.9548 42.7307 70.5913 41.0942 72.6095 41.0942Z" fill="#8A43EF"/>
<path d="M94.117 36.1458C94.117 38.8788 91.9014 41.0944 89.1684 41.0944L72.6099 41.0944C70.5918 41.0944 68.9556 39.4582 68.9556 37.4401L68.9556 34.8515C68.9556 32.8334 70.5918 31.1973 72.6099 31.1973L89.1684 31.1973C91.9014 31.1973 94.117 33.4128 94.117 36.1458Z" fill="#BD8FFF"/>
<path d="M72.6096 31.198L89.1694 31.198C91.9005 31.198 94.117 33.4124 94.117 36.1456C94.117 36.9025 93.946 37.6226 93.6407 38.2641C92.8475 36.5912 91.1438 35.433 89.1695 35.433L72.6097 35.433C70.8754 35.433 69.4234 36.6411 69.0526 38.2641C68.9893 37.999 68.9567 37.7225 68.9567 37.4402L68.9567 34.8511C68.9563 32.8326 70.5909 31.198 72.6096 31.198V31.198Z" fill="#8A43EF"/>
<path d="M90.4631 26.2489C90.4631 28.9818 88.2475 31.1974 85.5146 31.1974L72.6105 31.1974C70.5923 31.1974 68.9562 29.5613 68.9562 27.5432L68.9562 24.9546C68.9562 22.9365 70.5923 21.3003 72.6105 21.3003L85.5146 21.3003C88.2475 21.3003 90.463 23.5158 90.4631 26.2489Z" fill="#BD8FFF"/>
<path d="M72.6098 21.3012L85.5147 21.3012C88.2471 21.3012 90.4622 23.5163 90.4623 26.2488C90.4623 27.0067 90.2925 27.7251 89.9869 28.3649C89.1924 26.693 87.4894 25.5386 85.5147 25.5387L72.6112 25.5373C70.8783 25.5373 69.4265 26.7446 69.0502 28.3649C68.9877 28.1014 68.9564 27.8257 68.9564 27.5431L68.9564 24.9546C68.9566 22.9363 70.5916 21.3012 72.6098 21.3012Z" fill="#8A43EF"/>
<path d="M71.6929 37.5944L84.7685 23.3627C86.217 21.7861 88.0345 20.5939 90.0577 19.8933L96.2752 17.74C98.1242 17.0998 100.15 17.2084 101.92 18.0429L105.244 19.6098C106.927 20.4031 108.46 21.4814 109.775 22.797L117.144 30.1658L113.872 31.434C110.509 32.7379 107.286 34.3611 104.126 36.1023C100.002 38.3755 94.7115 37.7635 91.2142 34.2663L89.9439 32.996L82.063 40.8768C79.2269 43.713 74.6287 43.713 71.7926 40.8768C70.8967 39.9812 70.8531 38.5428 71.6929 37.5944Z" fill="#D7BBFF"/>
<path d="M96.2751 17.741L90.0581 19.8921C88.0337 20.5937 86.2162 21.7851 84.7691 23.3636L71.6942 37.5934C71.2922 38.049 71.0925 38.6166 71.0924 39.1842C71.0924 39.7982 71.3263 40.4121 71.7915 40.8774C73.0705 42.154 74.7052 42.8556 76.374 42.9823C76.3497 42.9604 76.3277 42.9383 76.3033 42.914C75.8575 42.4681 75.631 41.881 75.631 41.2914C75.631 40.7506 75.8236 40.2073 76.2084 39.7714L85.8534 29.2812C87.2396 27.7708 88.9813 26.6282 90.9182 25.9581L96.8722 23.8971C98.6409 23.2831 100.582 23.388 102.276 24.1869L107.893 26.8351L111.884 31.2844C113.006 32.535 114.607 33.2495 116.287 33.2495L120.296 33.2495L120.296 28.6947C120.296 27.634 119.436 26.774 118.376 26.774L113.753 26.774L109.775 22.7966C108.459 21.4807 106.926 20.4022 105.242 19.6087L101.92 18.0428C100.151 17.2075 98.1241 17.1002 96.2751 17.741Z" fill="#8A43EF"/>
<path d="M58.3802 21.2708L40.3817 21.2708L33.8968 26.7742L14.3717 26.7742C13.311 26.7742 12.451 27.6342 12.451 28.6949L12.4509 52.0049C12.4509 53.0655 13.3109 53.9255 14.3716 53.9255L20.3122 53.9255C20.5212 53.9255 20.7244 53.9937 20.891 54.1196L25.0777 57.2827C28.1765 59.6239 31.9526 60.8882 35.8334 60.8882L58.3802 60.8882L58.3802 21.2708Z" fill="#D7BBFF"/>
<path d="M44.7198 55.9398C44.7198 58.6727 46.9354 60.8883 49.6683 60.8883L60.1363 60.8883C62.1545 60.8883 63.7906 59.2522 63.7906 57.2341L63.7906 54.6455C63.7906 52.6274 62.1545 50.9912 60.1363 50.9912L49.6683 50.9912C46.9354 50.9912 44.7198 53.2068 44.7198 55.9398Z" fill="#6200EE"/>
<path d="M49.6684 50.992L60.1367 50.992C62.1548 50.992 63.79 52.6272 63.79 54.6453L63.79 57.2339C63.79 57.5707 63.7452 57.8953 63.6596 58.2035C63.2346 56.6566 61.818 55.5198 60.1367 55.5198L49.6684 55.5198C47.7535 55.5198 46.0911 56.6091 45.2681 58.2035C44.9163 57.5258 44.7195 56.7558 44.7195 55.9409C44.7208 53.2069 46.9358 50.9918 49.6684 50.992Z" fill="#BD8FFF"/>
<path d="M42.2838 46.0427C42.2838 48.7757 44.4994 50.9912 47.2324 50.9912L60.1366 50.9914C62.1548 50.9914 63.7909 49.3553 63.7909 47.3371L63.7909 44.7486C63.7909 42.7304 62.1548 41.0943 60.1366 41.0943L47.2325 41.0943C44.4993 41.0943 42.2838 43.3097 42.2838 46.0427V46.0427Z" fill="#6200EE"/>
<path d="M47.2319 41.094L60.1368 41.094C62.1549 41.094 63.7914 42.7305 63.7914 44.7487L63.7914 47.3372C63.7914 47.674 63.7467 48.0013 63.6611 48.3096C63.2388 46.76 61.821 45.6219 60.1368 45.6219L47.2319 45.6219C45.3143 45.6219 43.6533 46.7125 42.8316 48.3082C42.4813 47.6292 42.283 46.8604 42.2828 46.0428C42.283 43.3105 44.4995 41.094 47.2319 41.094Z" fill="#BD8FFF"/>
<path d="M44.2433 34.3404C44.2433 34.7091 44.1027 35.0777 43.8215 35.3591L42.5512 36.6294C39.4808 39.6998 35.1277 40.9124 30.9068 39.8732C30.1343 39.6831 29.6631 38.9028 29.8523 38.1302C30.0426 37.3575 30.823 36.8857 31.5955 37.0758C34.8289 37.8718 38.1629 36.9435 40.5141 34.592L41.7844 33.3217C42.347 32.7591 43.259 32.7593 43.8216 33.3219C44.1028 33.6031 44.2435 33.9719 44.2433 34.3404Z" fill="#6200EE"/>
<path d="M38.6291 36.1457C38.6291 38.8787 40.8447 41.0943 43.5777 41.0943L60.1362 41.0943C62.1543 41.0943 63.7904 39.4582 63.7904 37.44L63.7904 34.8515C63.7904 32.8333 62.1543 31.1972 60.1362 31.1972L43.5777 31.1972C40.8447 31.1972 38.6291 33.4128 38.6291 36.1457Z" fill="#6200EE"/>
<path d="M43.5775 31.1974L60.1355 31.1974C60.2252 31.1974 60.3161 31.2014 60.4031 31.2096L63.7903 34.8955L63.7904 37.4406C63.7904 39.4587 62.1552 41.094 60.1371 41.094L45.4694 41.094L42.7016 38.3261C41.9301 38.9047 41.1098 39.4017 40.2542 39.8119C39.256 38.906 38.6299 37.5982 38.6299 36.145C38.63 33.4125 40.8451 31.1974 43.5775 31.1974V31.1974Z" fill="#BD8FFF"/>
<path d="M42.2835 26.2486C42.2835 28.9815 44.4991 31.1971 47.232 31.1971L60.1361 31.1971C62.1543 31.1971 63.7904 29.561 63.7904 27.5429L63.7904 24.9543C63.7904 22.9362 62.1543 21.3 60.1361 21.3L47.232 21.3C44.4991 21.3 42.2836 23.5155 42.2835 26.2486Z" fill="#6200EE"/>
<path d="M42.2845 26.2485C42.2831 28.9824 44.4982 31.1974 47.2322 31.1962L60.1356 31.1976C60.2199 31.1976 60.3013 31.1947 60.3841 31.1881L57.3976 27.9371C56.5874 27.0551 57.213 25.6307 58.4108 25.6307H60.1371C61.8537 25.6307 63.2947 26.8163 63.6858 28.4107C63.755 28.1322 63.7903 27.8416 63.7904 27.5428L63.7904 24.9542C63.7904 22.9366 62.1547 21.3009 60.1371 21.3009L47.2323 21.301C44.4996 21.301 42.2845 23.5161 42.2845 26.2485Z" fill="#6200EE"/>
<path d="M61.0537 37.5944L47.9781 23.3627C46.5296 21.7861 44.7121 20.594 42.6889 19.8933L36.4713 17.7401C34.6224 17.0998 32.5964 17.2085 30.8265 18.0429L27.5028 19.6098C25.8199 20.4032 24.2868 21.4815 22.9713 22.797L15.6025 30.1658L18.8743 31.4341C22.2378 32.7379 25.4608 34.3612 28.6201 36.1023C32.7449 38.3756 38.0351 37.7636 41.5324 34.2663L42.8027 32.996L50.6836 40.8769C53.5197 43.7131 58.1179 43.7131 60.954 40.8769C61.8499 39.9813 61.8935 38.5428 61.0537 37.5944Z" fill="#D7BBFF"/>
<path d="M36.4715 17.7409L42.6885 19.8921C44.7129 20.5936 46.5304 21.785 47.9775 23.3635L61.0524 37.5933C61.4544 38.049 61.6541 38.6165 61.6542 39.1842C61.6542 39.7981 61.4203 40.4121 60.9551 40.8773C59.6761 42.154 58.0414 42.8556 56.3726 42.9822C56.3969 42.9603 56.4189 42.9383 56.4433 42.9139C56.8891 42.4681 57.1155 41.881 57.1155 41.2914C57.1155 40.7505 56.923 40.2072 56.5382 39.7713L46.8932 29.2811C45.507 27.7707 43.7652 26.6281 41.8284 25.9581L35.8744 23.897C34.1056 23.283 32.1641 23.3879 30.4709 24.1869L24.8531 26.835L20.8624 31.2844C19.7407 32.5349 18.14 33.2495 16.4599 33.2495L12.4503 33.2495L12.4503 28.6946C12.4503 27.634 13.3103 26.774 14.371 26.774L18.994 26.774L22.9714 22.7965C24.2874 21.4806 25.8208 20.4022 27.5041 19.6087L30.8264 18.0427C32.5955 17.2075 34.6225 17.1001 36.4715 17.7409V17.7409Z" fill="#6200EE"/>
<path d="M14.8439 26.7747L18.9176 26.7747L15.8311 29.8612C15.2684 30.4239 14.356 30.4239 13.7953 29.8612C13.2326 29.2984 13.2326 28.3861 13.7953 27.8233L14.8439 26.7747Z" fill="#BD8FFF"/>
<path d="M66.6965 7.83804C66.9576 8.09913 67.119 8.4599 67.1185 8.8584L67.1124 14.0701C67.1115 14.8657 66.4658 15.5098 65.6702 15.5089C64.8746 15.508 64.2303 14.8622 64.2314 14.0667L64.2375 8.85502C64.2384 8.05945 64.8841 7.4153 65.6796 7.41621C66.0767 7.4166 66.4363 7.57787 66.6965 7.83804V7.83804Z" fill="#00EDDF"/>
<path d="M74.4233 10.5947C74.9092 11.0806 74.9903 11.8592 74.582 12.4407L71.9197 16.2288C71.4622 16.8797 70.5637 17.0364 69.9128 16.5789C69.2623 16.1213 69.1053 15.223 69.5625 14.5722L72.2249 10.784C72.6824 10.1331 73.5809 9.97634 74.2318 10.4338C74.301 10.4826 74.3651 10.5365 74.4233 10.5947Z" fill="#00EDDF"/>
<path d="M58.9646 10.5922C59.0227 10.6503 59.0766 10.7143 59.1256 10.784L61.788 14.5721C62.2453 15.2229 62.0886 16.1214 61.4377 16.5788C60.7868 17.0361 59.8887 16.8802 59.4308 16.2284L56.7685 12.4404C56.3112 11.7896 56.4679 10.8911 57.1188 10.4336C57.7001 10.025 58.4789 10.1064 58.9646 10.5922V10.5922Z" fill="#00EDDF"/>
<path d="M66.6966 67.0096C66.9576 67.2707 67.119 67.6315 67.1185 68.03L67.1124 73.2417C67.1115 74.0372 66.4658 74.6814 65.6702 74.6805C64.8745 74.6797 64.2304 74.0337 64.2314 73.2383L64.2375 68.0266C64.2384 67.231 64.8841 66.5869 65.6797 66.5878C66.0768 66.5882 66.4362 66.7493 66.6966 67.0096Z" fill="#00EDDF"/>
<path d="M61.6291 65.6787C62.115 66.1645 62.1962 66.9431 61.7877 67.5245L59.1253 71.3127C58.6678 71.9636 57.7693 72.1203 57.1184 71.6629C56.468 71.2056 56.3109 70.307 56.7681 69.6561L59.4305 65.8679C59.888 65.217 60.7865 65.0603 61.4374 65.5178C61.5069 65.5665 61.5711 65.6206 61.6291 65.6787Z" fill="#00EDDF"/>
<path d="M71.7582 65.676C71.8163 65.7341 71.8702 65.7981 71.9192 65.8679L74.5814 69.6561C75.0388 70.3068 74.8819 71.2055 74.2311 71.6628C73.5802 72.12 72.6821 71.9642 72.2243 71.3124L69.5621 67.5242C69.1047 66.8735 69.2616 65.9748 69.9124 65.5175C70.4936 65.1091 71.2726 65.1904 71.7582 65.676V65.676Z" fill="#00EDDF"/>
</svg>
