<svg width="191" height="191" viewBox="0 0 191 191" fill="none" xmlns="http://www.w3.org/2000/svg">
<g clip-path="url(#clip0)">
<path d="M103.762 76.1523L121.761 76.1523L128.246 81.6557L147.771 81.6557C148.831 81.6557 149.691 82.5157 149.691 83.5763L149.692 106.886C149.692 107.947 148.832 108.807 147.771 108.807L141.83 108.807C141.621 108.807 141.418 108.875 141.251 109.001L137.065 112.164C133.966 114.505 130.19 115.77 126.309 115.77L103.762 115.77L103.762 76.1523Z" fill="#D7BBFF"/>
<path d="M103.762 81.2074L118.564 81.2074C123.98 81.2074 128.385 85.612 128.385 91.0276C128.385 94.2117 126.862 97.045 124.506 98.8404C124.652 99.5128 124.73 100.209 124.73 100.923C124.73 103.637 123.627 106.095 121.843 107.874C122.136 108.804 122.294 109.793 122.294 110.822C122.294 112.627 121.807 114.315 120.954 115.769L103.762 115.769L103.762 81.2074Z" fill="#6200EE"/>
<path d="M120.357 88.7605L120.813 89.2157C123.221 91.6242 126.914 92.7306 130.003 91.9699C130.512 91.8451 131.023 92.0063 131.368 92.3521C131.547 92.5307 131.682 92.7611 131.747 93.0242C131.937 93.7963 131.465 94.578 130.692 94.7681C126.843 95.715 122.478 94.5529 119.357 91.7987L113.291 97.8622C110.733 100.421 106.922 101.275 103.763 100.346L103.763 97.2841C106.158 98.4558 109.414 97.6663 111.256 95.8264L118.322 88.7603C118.884 88.1978 119.795 88.1978 120.357 88.7605Z" fill="#6200EE"/>
<path d="M117.423 110.821C117.423 113.554 115.207 115.77 112.474 115.77L102.006 115.77C99.9881 115.77 98.352 114.134 98.352 112.116L98.352 109.527C98.352 107.509 99.9881 105.873 102.006 105.873L112.474 105.873C115.207 105.873 117.423 108.088 117.423 110.821Z" fill="#BD8FFF"/>
<path d="M102.006 105.874L112.474 105.874C115.206 105.874 117.421 108.089 117.423 110.822C117.423 111.637 117.226 112.407 116.874 113.085C116.051 111.491 114.389 110.401 112.474 110.401L102.006 110.401C100.324 110.401 98.9078 111.538 98.4827 113.085C98.3971 112.777 98.3523 112.452 98.3523 112.115L98.3523 109.527C98.3524 107.509 99.9875 105.874 102.006 105.874Z" fill="#6200EE"/>
<path d="M119.859 100.924C119.859 103.657 117.643 105.873 114.91 105.873L102.006 105.873C99.9881 105.873 98.3519 104.237 98.3519 102.218L98.3519 99.6299C98.3519 97.6118 99.9881 95.9756 102.006 95.9756L114.91 95.9756C117.643 95.9758 119.859 98.1912 119.859 100.924Z" fill="#BD8FFF"/>
<path d="M102.006 95.9755L114.91 95.9756C117.643 95.9756 119.859 98.192 119.859 100.924C119.859 101.742 119.661 102.511 119.311 103.19C118.489 101.594 116.828 100.503 114.91 100.504L102.005 100.504C100.321 100.504 98.9035 101.642 98.4811 103.191C98.3955 102.883 98.3508 102.556 98.3508 102.219L98.3508 99.6303C98.3509 97.6121 99.9874 95.9755 102.006 95.9755Z" fill="#6200EE"/>
<path d="M123.513 91.0272C123.513 93.7601 121.298 95.9757 118.565 95.9757L102.006 95.9757C99.9879 95.9757 98.3518 94.3396 98.3518 92.3214L98.3518 89.7329C98.3518 87.7147 99.9879 86.0786 102.006 86.0786L118.565 86.0786C121.298 86.0786 123.513 88.2942 123.513 91.0272Z" fill="#BD8FFF"/>
<path d="M102.006 86.0794L118.565 86.0794C121.297 86.0794 123.513 88.2938 123.513 91.027C123.513 91.7838 123.342 92.5039 123.037 93.1455C122.244 91.4725 120.54 90.3144 118.566 90.3144L102.006 90.3144C100.272 90.3144 98.8195 91.5225 98.4488 93.1455C98.3854 92.8804 98.3528 92.6039 98.3528 92.3215L98.3528 89.7325C98.3524 87.7139 99.987 86.0794 102.006 86.0794Z" fill="#6200EE"/>
<path d="M119.859 81.1302C119.859 83.8632 117.643 86.0788 114.91 86.0788L102.006 86.0788C99.9882 86.0788 98.3521 84.4427 98.3521 82.4245L98.3521 79.836C98.3521 77.8178 99.9882 76.1817 102.006 76.1817L114.91 76.1817C117.643 76.1817 119.859 78.3971 119.859 81.1302Z" fill="#BD8FFF"/>
<path d="M102.006 76.1825L114.911 76.1825C117.643 76.1826 119.858 78.3976 119.858 81.1302C119.858 81.888 119.688 82.6065 119.383 83.2462C118.588 81.5743 116.885 80.4199 114.911 80.4201L102.007 80.4186C100.274 80.4186 98.8224 81.6259 98.446 83.2462C98.3836 82.9828 98.3523 82.7071 98.3523 82.4245L98.3523 79.8359C98.3524 77.8176 99.9875 76.1825 102.006 76.1825Z" fill="#6200EE"/>
<path d="M101.089 92.4757L114.164 78.244C115.613 76.6674 117.43 75.4753 119.453 74.7746L125.671 72.6214C127.52 71.9811 129.546 72.0897 131.316 72.9242L134.639 74.4911C136.322 75.2845 137.855 76.3628 139.171 77.6783L146.54 85.0471L143.268 86.3153C139.904 87.6192 136.681 89.2425 133.522 90.9836C129.397 93.2569 124.107 92.6449 120.61 89.1476L119.34 87.8773L111.459 95.7582C108.622 98.5943 104.024 98.5943 101.188 95.7582C100.292 94.8626 100.249 93.4241 101.089 92.4757Z" fill="#D7BBFF"/>
<path d="M125.671 72.6223L119.454 74.7735C117.429 75.4751 115.612 76.6664 114.165 78.245L101.09 92.4747C100.688 92.9304 100.488 93.4979 100.488 94.0656C100.488 94.6795 100.722 95.2935 101.187 95.7587C102.466 97.0354 104.101 97.737 105.77 97.8636C105.745 97.8417 105.723 97.8197 105.699 97.7953C105.253 97.3495 105.027 96.7624 105.027 96.1728C105.027 95.632 105.219 95.0887 105.604 94.6527L115.249 84.1625C116.635 82.6522 118.377 81.5096 120.314 80.8395L126.268 78.7784C128.037 78.1645 129.978 78.2693 131.671 79.0683L137.289 81.7164L141.28 86.1658C142.402 87.4164 144.002 88.1309 145.682 88.1309L149.692 88.1309L149.692 83.5761C149.692 82.5154 148.832 81.6554 147.771 81.6554L143.148 81.6554L139.171 77.6779C137.855 76.362 136.321 75.2836 134.638 74.4901L131.316 72.9241C129.547 72.0889 127.52 71.9815 125.671 72.6223Z" fill="#6200EE"/>
<path d="M87.7762 76.1522L69.7777 76.1522L63.2927 81.6556L43.7677 81.6556C42.707 81.6556 41.847 82.5156 41.847 83.5762L41.8469 106.886C41.8469 107.947 42.7069 108.807 43.7676 108.807L49.7082 108.807C49.9172 108.807 50.1204 108.875 50.287 109.001L54.4737 112.164C57.5725 114.505 61.3486 115.77 65.2294 115.77L87.7762 115.77L87.7762 76.1522Z" fill="#D7BBFF"/>
<path d="M74.1158 110.821C74.1158 113.554 76.3314 115.77 79.0643 115.77L89.5323 115.77C91.5505 115.77 93.1866 114.134 93.1866 112.115L93.1866 109.527C93.1866 107.509 91.5505 105.873 89.5323 105.873L79.0643 105.873C76.3314 105.873 74.1158 108.088 74.1158 110.821Z" fill="#6200EE"/>
<path d="M79.0645 105.873L89.5328 105.873C91.5509 105.873 93.1862 107.509 93.1862 109.527L93.1862 112.115C93.1862 112.452 93.1413 112.777 93.0557 113.085C92.6307 111.538 91.2142 110.401 89.5328 110.401L79.0645 110.401C77.1496 110.401 75.4873 111.49 74.6642 113.085C74.3124 112.407 74.1156 111.637 74.1156 110.822C74.1169 108.088 76.332 105.873 79.0645 105.873Z" fill="#BD8FFF"/>
<path d="M71.6797 100.924C71.6797 103.657 73.8953 105.873 76.6282 105.873L89.5325 105.873C91.5506 105.873 93.1868 104.237 93.1867 102.218L93.1867 99.6299C93.1867 97.6118 91.5506 95.9756 89.5325 95.9756L76.6284 95.9756C73.8952 95.9756 71.6797 98.1911 71.6797 100.924Z" fill="#6200EE"/>
<path d="M76.6281 95.9754L89.533 95.9754C91.5512 95.9754 93.1877 97.6119 93.1877 99.63L93.1877 102.219C93.1877 102.555 93.1429 102.883 93.0574 103.191C92.635 101.641 91.2172 100.503 89.533 100.503L76.6281 100.503C74.7106 100.503 73.0496 101.594 72.2278 103.19C71.8775 102.511 71.6792 101.742 71.6791 100.924C71.6792 98.1919 73.8957 95.9754 76.6281 95.9754Z" fill="#BD8FFF"/>
<path d="M73.6393 89.2218C73.6393 89.5905 73.4987 89.959 73.2175 90.2404L71.9472 91.5107C68.8768 94.5811 64.5237 95.7937 60.3028 94.7546C59.5303 94.5644 59.0591 93.7841 59.2483 93.0115C59.4386 92.2389 60.219 91.767 60.9915 91.9572C64.2249 92.7531 67.5589 91.8248 69.9101 89.4734L71.1804 88.2031C71.743 87.6405 72.655 87.6406 73.2176 88.2032C73.4988 88.4844 73.6395 88.8532 73.6393 89.2218Z" fill="#6200EE"/>
<path d="M68.0254 91.0271C68.0254 93.76 70.2409 95.9756 72.9739 95.9756L89.5324 95.9756C91.5506 95.9756 93.1867 94.3395 93.1867 92.3214L93.1867 89.7328C93.1867 87.7147 91.5506 86.0785 89.5324 86.0785L72.9739 86.0785C70.2409 86.0785 68.0254 88.2941 68.0254 91.0271Z" fill="#6200EE"/>
<path d="M72.9734 86.0787L89.5314 86.0787C89.6211 86.0787 89.712 86.0828 89.7989 86.0909L93.1862 89.7768L93.1863 92.3219C93.1863 94.3401 91.5511 95.9753 89.5329 95.9753L74.8653 95.9753L72.0975 93.2075C71.326 93.786 70.5057 94.2831 69.6501 94.6932C68.6519 93.7873 68.0258 92.4796 68.0258 91.0264C68.0259 88.2938 70.241 86.0787 72.9734 86.0787Z" fill="#BD8FFF"/>
<path d="M71.6795 81.1299C71.6795 83.8629 73.8951 86.0785 76.628 86.0785L89.5321 86.0785C91.5503 86.0785 93.1864 84.4424 93.1864 82.4242L93.1864 79.8357C93.1864 77.8175 91.5503 76.1814 89.5321 76.1814L76.628 76.1814C73.8951 76.1814 71.6796 78.3968 71.6795 81.1299Z" fill="#6200EE"/>
<path d="M71.6804 81.1299C71.679 83.8637 73.8941 86.0788 76.6281 86.0775L89.5315 86.0789C89.6158 86.0789 89.6972 86.0761 89.78 86.0695L86.7935 82.8185C85.9833 81.9364 86.6089 80.512 87.8067 80.512L89.5329 80.512C91.2496 80.512 92.6906 81.6977 93.0817 83.292C93.1509 83.0136 93.1862 82.7229 93.1863 82.4241L93.1863 79.8356C93.1863 77.818 91.5506 76.1822 89.5329 76.1822L76.6282 76.1823C73.8955 76.1824 71.6804 78.3974 71.6804 81.1299Z" fill="#6200EE"/>
<path d="M90.4499 92.4758L77.3743 78.2441C75.9258 76.6675 74.1083 75.4754 72.0851 74.7747L65.8676 72.6214C64.0186 71.9812 61.9927 72.0898 60.2228 72.9243L56.8991 74.4912C55.2161 75.2845 53.6831 76.3628 52.3676 77.6784L44.9987 85.0472L48.2706 86.3154C51.6341 87.6193 54.8571 89.2426 58.0164 90.9837C62.1411 93.257 67.4314 92.645 70.9287 89.1477L72.1989 87.8774L80.0798 95.7583C82.916 98.5944 87.5141 98.5944 90.3503 95.7583C91.2462 94.8626 91.2897 93.4242 90.4499 92.4758Z" fill="#D7BBFF"/>
<path d="M65.8676 72.6222L72.0846 74.7734C74.109 75.475 75.9265 76.6663 77.3736 78.2449L90.4485 92.4746C90.8505 92.9303 91.0502 93.4978 91.0503 94.0655C91.0503 94.6795 90.8164 95.2934 90.3512 95.7587C89.0722 97.0353 87.4375 97.7369 85.7687 97.8636C85.793 97.8416 85.815 97.8196 85.8394 97.7952C86.2852 97.3494 86.5117 96.7623 86.5117 96.1727C86.5117 95.6319 86.3192 95.0886 85.9343 94.6526L76.2893 84.1625C74.9031 82.6521 73.1614 81.5095 71.2245 80.8394L65.2705 78.7783C63.5018 78.1644 61.5602 78.2693 59.8671 79.0682L54.2492 81.7164L50.2585 86.1657C49.1368 87.4163 47.5361 88.1308 45.856 88.1308L41.8464 88.1308L41.8464 83.576C41.8464 82.5153 42.7064 81.6553 43.7671 81.6553L48.3901 81.6553L52.3676 77.6779C53.6835 76.3619 55.2169 75.2835 56.9002 74.49L60.2225 72.924C61.9916 72.0888 64.0186 71.9815 65.8676 72.6222Z" fill="#6200EE"/>
<path d="M44.2399 81.6561L48.3136 81.6561L45.2271 84.7425C44.6644 85.3053 43.752 85.3053 43.1913 84.7425C42.6286 84.1798 42.6286 83.2674 43.1913 82.7047L44.2399 81.6561Z" fill="#BD8FFF"/>
<path d="M96.0925 62.7194C96.3536 62.9805 96.515 63.3412 96.5145 63.7397L96.5084 68.9514C96.5075 69.747 95.8618 70.3912 95.0662 70.3903C94.2706 70.3894 93.6263 69.7435 93.6274 68.9481L93.6335 63.7364C93.6344 62.9408 94.2801 62.2966 95.0756 62.2976C95.4727 62.2979 95.8323 62.4592 96.0925 62.7194Z" fill="#00EDDF"/>
<path d="M103.819 65.4761C104.305 65.9619 104.386 66.7405 103.977 67.3221L101.315 71.1101C100.858 71.761 99.9592 71.9177 99.3083 71.4603C98.6578 71.0026 98.5008 70.1044 98.958 69.4535L101.62 65.6653C102.078 65.0144 102.976 64.8577 103.627 65.3152C103.697 65.3639 103.761 65.4178 103.819 65.4761Z" fill="#00EDDF"/>
<path d="M88.3605 65.4735C88.4186 65.5316 88.4725 65.5957 88.5215 65.6654L91.1838 69.4534C91.6412 70.1042 91.4844 71.0027 90.8336 71.4602C90.1827 71.9174 89.2845 71.7616 88.8267 71.1098L86.1644 67.3217C85.707 66.671 85.8638 65.7725 86.5146 65.315C87.0959 64.9064 87.8748 64.9878 88.3605 65.4735Z" fill="#00EDDF"/>
<path d="M96.0927 121.891C96.3538 122.152 96.5152 122.513 96.5146 122.911L96.5085 128.123C96.5076 128.919 95.8619 129.563 95.0664 129.562C94.2707 129.561 93.6265 128.915 93.6275 128.12L93.6336 122.908C93.6345 122.112 94.2802 121.468 95.0758 121.469C95.4729 121.47 95.8324 121.631 96.0927 121.891Z" fill="#00EDDF"/>
<path d="M91.0253 120.56C91.5111 121.046 91.5923 121.824 91.1838 122.406L88.5214 126.194C88.0639 126.845 87.1654 127.002 86.5145 126.544C85.8641 126.087 85.707 125.188 86.1642 124.537L88.8267 120.749C89.2841 120.098 90.1826 119.942 90.8335 120.399C90.903 120.448 90.9672 120.502 91.0253 120.56Z" fill="#00EDDF"/>
<path d="M101.154 120.557C101.212 120.615 101.266 120.679 101.315 120.749L103.977 124.537C104.435 125.188 104.278 126.087 103.627 126.544C102.976 127.001 102.078 126.846 101.62 126.194L98.958 122.406C98.5006 121.755 98.6575 120.856 99.3082 120.399C99.8895 119.99 100.668 120.072 101.154 120.557Z" fill="#00EDDF"/>
</g>
<defs>
<clipPath id="clip0">
<rect width="134.677" height="134.677" fill="white" transform="translate(95.7692 190.462) rotate(-135)"/>
</clipPath>
</defs>
</svg>
