<svg width="27" height="27" viewBox="0 0 27 27" fill="none" xmlns="http://www.w3.org/2000/svg">
<path fill-rule="evenodd" clip-rule="evenodd" d="M4.14841 8.10015C5.47427 5.79758 7.60248 4.06465 10.1259 3.23286C12.6494 2.40108 15.3909 2.52884 17.8261 3.5917C20.2612 4.65457 22.2191 6.57791 23.325 8.99381C24.431 11.4097 24.6075 14.1486 23.8207 16.6864C23.7224 17.0261 23.7614 17.3907 23.9291 17.7019C24.0968 18.0132 24.38 18.2462 24.7177 18.3509C25.0554 18.4555 25.4207 18.4235 25.7351 18.2617C26.0495 18.0999 26.2878 17.8212 26.3988 17.4855C28.2238 11.5976 25.8144 5.02254 20.2491 1.80995C13.7929 -1.91693 5.53873 0.296789 1.81052 6.75032C-1.91633 13.2066 0.294676 21.4635 6.75086 25.189C12.3162 28.4016 19.2151 27.2029 23.4009 22.6783C23.5277 22.5495 23.6273 22.3965 23.6938 22.2285C23.7604 22.0604 23.7925 21.8808 23.7883 21.7001C23.7841 21.5194 23.7437 21.3414 23.6694 21.1766C23.5951 21.0118 23.4885 20.8637 23.3558 20.7409C23.2232 20.6181 23.0672 20.5232 22.8972 20.4618C22.7272 20.4005 22.5467 20.3739 22.3662 20.3836C22.1857 20.3933 22.009 20.4392 21.8466 20.5185C21.6842 20.5978 21.5394 20.7089 21.4207 20.8452C19.616 22.7944 17.1561 24.01 14.5115 24.2595C11.8669 24.5091 9.22307 23.7751 7.08559 22.1979C4.94812 20.6207 3.46696 18.311 2.92534 15.7104C2.38372 13.1099 2.81965 10.4009 4.14976 8.1015L4.14841 8.10015ZM13.4797 8.10015C12.111 8.10015 10.9758 9.11252 10.7882 10.4313C10.7373 10.7857 10.5478 11.1054 10.2612 11.3201C9.97469 11.5348 9.61459 11.6268 9.26018 11.576C8.90576 11.5251 8.58606 11.3356 8.3714 11.049C8.15673 10.7625 8.0647 10.4024 8.11553 10.048C8.25535 9.07669 8.65619 8.16158 9.27529 7.40025C9.89438 6.63892 10.7085 6.05991 11.6309 5.72499C12.5532 5.39006 13.5492 5.31178 14.5125 5.49849C15.4759 5.6852 16.3705 6.12989 17.1009 6.78515C17.8314 7.44041 18.3702 8.28165 18.6601 9.21915C18.9499 10.1566 18.9799 11.1552 18.7467 12.1084C18.5136 13.0616 18.0261 13.9336 17.3362 14.6315C16.6463 15.3293 15.78 15.8268 14.8295 16.0709V16.1991C14.8295 16.5571 14.6873 16.9005 14.4342 17.1536C14.181 17.4067 13.8377 17.549 13.4797 17.549C13.1217 17.549 12.7784 17.4067 12.5252 17.1536C12.2721 16.9005 12.1299 16.5571 12.1299 16.1991V14.8911C12.1299 14.5331 12.2721 14.1898 12.5252 13.9367C12.7784 13.6835 13.1217 13.5413 13.4797 13.5413C14.2011 13.5413 14.8929 13.2548 15.403 12.7447C15.913 12.2346 16.1996 11.5428 16.1996 10.8214C16.1996 10.1 15.913 9.40823 15.403 8.89814C14.8929 8.38806 14.2011 8.10015 13.4797 8.10015ZM14.8498 20.2486C14.8498 20.6066 14.7076 20.9499 14.4544 21.2031C14.2013 21.4562 13.858 21.5984 13.5 21.5984C13.142 21.5984 12.7986 21.4562 12.5455 21.2031C12.2924 20.9499 12.1501 20.6066 12.1501 20.2486C12.1501 19.8906 12.2924 19.5473 12.5455 19.2941C12.7986 19.041 13.142 18.8988 13.5 18.8988C13.858 18.8988 14.2013 19.041 14.4544 19.2941C14.7076 19.5473 14.8498 19.8906 14.8498 20.2486Z" fill="white"/>
</svg>
