<svg width="380" height="324" viewBox="0 0 380 324" fill="none" xmlns="http://www.w3.org/2000/svg">
<g filter="url(#filter0_dd)">
<rect x="8" y="9" width="364" height="303" rx="5" fill="white"/>
</g>
<path d="M140.881 71.3628C141.557 71.3628 142.192 70.9457 142.436 70.2738C142.749 69.4153 142.306 68.4659 141.447 68.1533C138.659 67.1386 136.692 64.5728 136.435 61.6168C135.964 56.1807 131.67 51.976 126.226 51.6186C125.313 51.5606 124.526 52.2493 124.466 53.1612C124.407 54.0729 125.097 54.8606 126.009 54.9203C129.811 55.1698 132.81 58.1064 133.139 61.9027C133.506 66.1354 136.323 69.8097 140.315 71.2627C140.502 71.3306 140.694 71.3628 140.881 71.3628Z" fill="#D7BBFF"/>
<path d="M120.431 109.236C123.601 109.236 126.709 107.851 128.871 105.232C129.452 104.527 129.352 103.485 128.648 102.903C127.943 102.322 126.9 102.421 126.319 103.126C123.893 106.065 119.757 106.78 116.485 104.828C112.837 102.65 108.21 102.787 104.696 105.177C103.94 105.69 103.744 106.719 104.258 107.475C104.772 108.23 105.801 108.426 106.557 107.912C109.01 106.244 112.242 106.148 114.79 107.669C116.56 108.725 118.507 109.236 120.431 109.236Z" fill="#D7BBFF"/>
<path d="M95.5888 85.4882C97.9962 85.4882 100.411 84.6883 102.434 83.0745C104.753 81.2245 107.968 80.8828 110.625 82.205C111.443 82.6122 112.436 82.2789 112.843 81.461C113.25 80.6431 112.917 79.65 112.099 79.2428C108.296 77.3497 103.692 77.8386 100.371 80.488C97.3918 82.8643 93.1977 82.7134 90.3976 80.1289C89.7259 79.5093 88.6797 79.5509 88.0599 80.2224C87.44 80.8936 87.4819 81.9405 88.1534 82.5601C90.2611 84.5057 92.9208 85.4882 95.5888 85.4882Z" fill="#D7BBFF"/>
<path d="M118.823 66.8798C118.998 66.8798 119.174 66.8736 119.351 66.8608C120.262 66.7953 120.948 66.0034 120.882 65.092C120.817 64.1808 120.025 63.4959 119.113 63.5607C117.036 63.7107 115.24 62.2077 115.017 60.1408C114.789 58.0303 113.646 56.1432 111.881 54.9635C110.116 53.7838 107.935 53.4494 105.898 54.0459C105.021 54.3024 104.519 55.2216 104.775 56.0984C105.032 56.975 105.95 57.4781 106.828 57.2212C107.922 56.9009 109.094 57.0804 110.043 57.7142C110.991 58.3481 111.605 59.3619 111.728 60.4959C112.124 64.1664 115.191 66.8796 118.823 66.8798Z" fill="#00EDDF"/>
<path d="M97.9332 100.266C99.0079 100.266 100.095 99.9518 101.054 99.2999C101.81 98.7864 102.006 97.7574 101.492 97.0019C100.979 96.2462 99.9498 96.0497 99.1939 96.5634C98.194 97.2426 96.8502 97.0114 96.1355 96.0362C95.1623 94.709 93.6623 93.8873 92.0199 93.7818C90.3765 93.6773 88.7848 94.2996 87.6499 95.4914C87.0199 96.1531 87.0455 97.2002 87.7072 97.8302C88.3688 98.4604 89.4159 98.4346 90.0463 97.7729C90.5036 97.2924 91.1459 97.0432 91.8079 97.0838C92.4701 97.1263 93.0747 97.4576 93.4671 97.9926C94.555 99.476 96.2292 100.266 97.9332 100.266Z" fill="#00EDDF"/>
<path d="M134.739 86.6738C136.562 86.6738 138.319 85.979 139.658 84.7073C140.321 84.078 140.348 83.0309 139.718 82.3685C139.089 81.7059 138.042 81.6792 137.379 82.3083C136.552 83.0938 135.429 83.4705 134.295 83.3397C133.162 83.2096 132.152 82.5886 131.524 81.636C129.396 78.4051 125.14 77.4497 121.835 79.461C121.054 79.9359 120.807 80.9539 121.281 81.7343C121.757 82.515 122.775 82.7625 123.555 82.2873C125.331 81.2067 127.617 81.7198 128.761 83.456C129.929 85.229 131.809 86.3847 133.918 86.6269C134.192 86.6582 134.466 86.6738 134.739 86.6738Z" fill="#00EDDF"/>
<path d="M113.258 48.4848C111.191 48.4848 109.515 46.8093 109.515 44.7424C109.515 42.6755 111.191 41 113.258 41C115.325 41 117 42.6755 117 44.7424C117 46.8093 115.325 48.4848 113.258 48.4848Z" fill="#18D5CA"/>
<path d="M90.7426 48.4848C88.6757 48.4848 87.0002 46.8093 87.0002 44.7424C87.0002 42.6755 88.6757 41 90.7426 41C92.8095 41 94.485 42.6755 94.485 44.7424C94.485 46.8093 92.8095 48.4848 90.7426 48.4848Z" fill="#18D5CA"/>
<path d="M113.258 97.4848C111.191 97.4848 109.515 95.8093 109.515 93.7424C109.515 91.6755 111.191 90 113.258 90C115.325 90 117 91.6755 117 93.7424C117 95.8093 115.325 97.4848 113.258 97.4848Z" fill="#18D5CA"/>
<path d="M243.49 69.3361C242.881 69.3361 242.31 68.9606 242.09 68.3556C241.809 67.5827 242.208 66.728 242.98 66.4466C245.491 65.533 247.262 63.223 247.493 60.5616C247.917 55.6675 251.783 51.8819 256.685 51.5602C257.506 51.508 258.215 52.128 258.269 52.949C258.322 53.7697 257.701 54.4789 256.88 54.5327C253.457 54.7574 250.757 57.4012 250.461 60.819C250.13 64.6298 247.594 67.9378 244 69.2459C243.831 69.3071 243.659 69.3361 243.49 69.3361Z" fill="#D7BBFF"/>
<path d="M261.902 103.434C259.048 103.434 256.25 102.186 254.304 99.8289C253.78 99.1944 253.87 98.2556 254.504 97.7319C255.138 97.2084 256.077 97.2978 256.601 97.9325C258.785 100.578 262.509 101.222 265.454 99.4647C268.739 97.5045 272.905 97.6277 276.068 99.7788C276.748 100.241 276.925 101.168 276.462 101.848C275.999 102.528 275.073 102.705 274.393 102.242C272.184 100.74 269.275 100.653 266.98 102.023C265.387 102.974 263.634 103.434 261.902 103.434Z" fill="#D7BBFF"/>
<path d="M284.267 82.0534C282.1 82.0534 279.926 81.3333 278.105 79.8804C276.017 78.2148 273.122 77.9072 270.73 79.0975C269.994 79.4641 269.1 79.1641 268.733 78.4277C268.367 77.6913 268.667 76.7972 269.403 76.4306C272.827 74.7263 276.972 75.1664 279.962 77.5517C282.644 79.6911 286.42 79.5553 288.941 77.2284C289.546 76.6705 290.488 76.7081 291.046 77.3126C291.604 77.9169 291.566 78.8594 290.962 79.4173C289.064 81.1689 286.669 82.0534 284.267 82.0534Z" fill="#D7BBFF"/>
<path d="M263.349 65.3001C263.192 65.3001 263.034 65.2945 262.874 65.283C262.054 65.224 261.436 64.5111 261.496 63.6905C261.554 62.8701 262.267 62.2535 263.088 62.3118C264.958 62.4469 266.575 61.0937 266.776 59.2329C266.981 57.3327 268.01 55.6337 269.599 54.5717C271.188 53.5096 273.152 53.2085 274.986 53.7455C275.775 53.9765 276.228 54.804 275.997 55.5934C275.766 56.3826 274.939 56.8356 274.149 56.6043C273.163 56.3159 272.109 56.4776 271.255 57.0481C270.401 57.6189 269.848 58.5316 269.738 59.5526C269.38 62.8572 266.619 65.2999 263.349 65.3001Z" fill="#00EDDF"/>
<path d="M282.157 95.3579C281.189 95.3579 280.211 95.0753 279.347 94.4885C278.667 94.0261 278.49 93.0997 278.953 92.4195C279.415 91.7391 280.341 91.5622 281.022 92.0247C281.922 92.6362 283.132 92.4281 283.775 91.5501C284.651 90.3552 286.002 89.6154 287.481 89.5205C288.96 89.4263 290.393 89.9866 291.415 91.0596C291.982 91.6553 291.959 92.5981 291.363 93.1652C290.768 93.7326 289.825 93.7094 289.257 93.1136C288.846 92.6811 288.267 92.4567 287.671 92.4932C287.075 92.5315 286.531 92.8298 286.178 93.3114C285.198 94.6469 283.691 95.3579 282.157 95.3579Z" fill="#00EDDF"/>
<path d="M249.02 83.121C247.379 83.121 245.797 82.4954 244.591 81.3505C243.995 80.784 243.97 79.8412 244.537 79.2449C245.104 78.6483 246.047 78.6242 246.643 79.1906C247.387 79.8978 248.398 80.237 249.42 80.1193C250.44 80.0021 251.349 79.443 251.914 78.5853C253.83 75.6765 257.662 74.8164 260.638 76.6272C261.341 77.0548 261.564 77.9713 261.136 78.6739C260.708 79.3767 259.792 79.5995 259.089 79.1718C257.49 78.1989 255.432 78.6608 254.402 80.2239C253.35 81.8202 251.658 82.8606 249.76 83.0787C249.513 83.1069 249.265 83.121 249.02 83.121Z" fill="#00EDDF"/>
<path d="M267.042 48.7387C268.902 48.7387 270.411 47.2302 270.411 45.3693C270.411 43.5085 268.902 42 267.042 42C265.181 42 263.672 43.5085 263.672 45.3693C263.672 47.2302 265.181 48.7387 267.042 48.7387Z" fill="#18D5CA"/>
<path d="M288.631 64.8407C290.492 64.8407 292 63.3322 292 61.4714C292 59.6106 290.492 58.1021 288.631 58.1021C286.77 58.1021 285.261 59.6106 285.261 61.4714C285.261 63.3322 286.77 64.8407 288.631 64.8407Z" fill="#00EDDF"/>
<path d="M268.708 92.8603C270.569 92.8603 272.077 91.3517 272.077 89.4909C272.077 87.6301 270.569 86.1216 268.708 86.1216C266.847 86.1216 265.339 87.6301 265.339 89.4909C265.339 91.3517 266.847 92.8603 268.708 92.8603Z" fill="#18D5CA"/>
<g filter="url(#filter1_d)">
<path d="M181.775 68.7445C181.775 68.7445 172.141 56.2761 162.729 59.5469C159.741 60.5859 157.526 63.0562 156.655 66.0373C155.841 68.826 155.445 73.1072 157.551 78.5715L164.029 82L180.18 78.5715L184 74.3514L181.775 68.7445Z" fill="#6200EE"/>
<path d="M198.226 68.7445C198.226 68.7445 207.859 56.2761 217.271 59.5469C220.26 60.5859 222.475 63.0562 223.345 66.0373C224.159 68.826 224.554 73.1072 222.448 78.5715L215.972 82L199.821 78.5715L196 74.3514L198.226 68.7445Z" fill="#6200EE"/>
<path d="M194.947 67H185.053C182.262 67 180 69.3822 180 72.3215V88H200V72.3215C200 69.3822 197.737 67 194.947 67Z" fill="#6200EE"/>
<path d="M150 88V153.452C150 157.068 152.911 160 156.502 160H223.498C227.089 160 230 157.068 230 153.452V88H150Z" fill="#D7BBFF"/>
<path d="M157.748 153.452V88H150V153.452C150 157.068 152.799 160 156.252 160H164C160.547 160 157.748 157.068 157.748 153.452Z" fill="#6200EE"/>
<path d="M230.5 79H149.501C147.568 79 146 80.5814 146 82.5318V93.4682C146 95.4186 147.568 97 149.501 97H230.499C232.433 97 234 95.4186 234 93.4682V82.5318C234.001 80.5814 232.433 79 230.5 79Z" fill="#BD8FFF"/>
<path d="M180 79H200V97H180V79Z" fill="#6200EE"/>
<ellipse cx="190" cy="126.5" rx="19" ry="18.5" fill="#6200EE"/>
<path d="M188.242 115.833C188.468 115.345 188.888 114.727 190.003 114.727C191.02 114.727 191.537 115.361 191.763 115.833L201.033 135.491C201.259 135.979 201.291 136.467 201.113 136.971C200.936 137.475 200.596 137.849 200.128 138.076C199.644 138.304 199.159 138.337 198.659 138.158C198.158 137.979 197.787 137.654 197.56 137.166L190.019 121.199L182.461 137.166C182.235 137.654 181.863 137.979 181.363 138.158C180.862 138.337 180.361 138.304 179.877 138.076C179.393 137.849 179.07 137.475 178.892 136.971C178.714 136.467 178.73 135.963 178.973 135.491L188.242 115.833Z" fill="white"/>
</g>
<defs>
<filter id="filter0_dd" x="0" y="0" width="380" height="324" filterUnits="userSpaceOnUse" color-interpolation-filters="sRGB">
<feFlood flood-opacity="0" result="BackgroundImageFix"/>
<feColorMatrix in="SourceAlpha" type="matrix" values="0 0 0 0 0 0 0 0 0 0 0 0 0 0 0 0 0 0 127 0"/>
<feOffset dy="4"/>
<feGaussianBlur stdDeviation="4"/>
<feColorMatrix type="matrix" values="0 0 0 0 0 0 0 0 0 0 0 0 0 0 0 0 0 0 0.18 0"/>
<feBlend mode="normal" in2="BackgroundImageFix" result="effect1_dropShadow"/>
<feColorMatrix in="SourceAlpha" type="matrix" values="0 0 0 0 0 0 0 0 0 0 0 0 0 0 0 0 0 0 127 0"/>
<feOffset dy="-1"/>
<feGaussianBlur stdDeviation="4"/>
<feColorMatrix type="matrix" values="0 0 0 0 0 0 0 0 0 0 0 0 0 0 0 0 0 0 0.18 0"/>
<feBlend mode="normal" in2="effect1_dropShadow" result="effect2_dropShadow"/>
<feBlend mode="normal" in="SourceGraphic" in2="effect2_dropShadow" result="shape"/>
</filter>
<filter id="filter1_d" x="142" y="59" width="96" height="109" filterUnits="userSpaceOnUse" color-interpolation-filters="sRGB">
<feFlood flood-opacity="0" result="BackgroundImageFix"/>
<feColorMatrix in="SourceAlpha" type="matrix" values="0 0 0 0 0 0 0 0 0 0 0 0 0 0 0 0 0 0 127 0"/>
<feOffset dy="4"/>
<feGaussianBlur stdDeviation="2"/>
<feColorMatrix type="matrix" values="0 0 0 0 0 0 0 0 0 0 0 0 0 0 0 0 0 0 0.25 0"/>
<feBlend mode="normal" in2="BackgroundImageFix" result="effect1_dropShadow"/>
<feBlend mode="normal" in="SourceGraphic" in2="effect1_dropShadow" result="shape"/>
</filter>
</defs>
</svg>
