<svg width="302" height="138" viewBox="0 0 302 138" fill="none" xmlns="http://www.w3.org/2000/svg">
<path d="M151.474 50.1322V124.78C151.474 128.079 150.279 131.244 148.153 133.577C146.026 135.91 143.142 137.221 140.135 137.221H102.339C100.348 137.219 98.3919 136.644 96.6672 135.552C94.9425 134.461 93.5096 132.891 92.5119 131V130.979C91.5174 129.096 90.9957 126.956 91 124.78V50.1322C91 46.8325 92.1947 43.6681 94.3211 41.3349C96.4475 39.0017 99.3316 37.6909 102.339 37.6909H140.135C142.994 37.6925 145.747 38.8791 147.843 41.0131C149.938 43.1471 151.222 46.0709 151.436 49.1991C151.455 49.5101 151.474 49.8211 151.474 50.1322Z" fill="#D7BBFF"/>
<rect x="97.2994" y="49.0293" width="47.8751" height="71.8127" rx="10" fill="#BD8FFF"/>
<path d="M260 28C263.314 28 266 25.3137 266 22C266 18.6863 263.314 16 260 16C256.686 16 254 18.6863 254 22C254 25.3137 256.686 28 260 28Z" fill="#C47A4A"/>
<path d="M296 40C299.314 40 302 37.0898 302 33.5C302 29.9101 299.314 27 296 27C292.686 27 290 29.9101 290 33.5C290 37.0898 292.686 40 296 40Z" fill="#C47A4A"/>
<path d="M261.557 20.6849L258.672 30.7834C256.024 40.0522 261.437 49.6998 270.762 52.3319C280.088 54.9641 289.794 49.5841 292.443 40.3152L295.328 30.2167C297.976 20.9479 292.563 11.3003 283.238 8.66803C273.912 6.03598 264.206 11.416 261.557 20.6849Z" fill="#E89A5E"/>
<path d="M295 18.5105C294.213 19.0711 293.372 19.5699 292.494 20.0025C288.509 21.9657 283.676 22.5841 278.943 21.3975C273.162 19.9481 268.862 16.1398 267 11.4908C267.787 10.9302 268.628 10.4296 269.51 9.9957C273.491 8.03559 278.324 7.41542 283.059 8.6025C288.84 10.0519 293.14 13.8602 295 18.5105Z" fill="#BD8FFF"/>
<path d="M295 18.7691C294.236 19.2879 293.419 19.7503 292.567 20.1504C288.699 21.9686 284.01 22.5406 279.416 21.4422C276.013 20.6281 273.137 19.0109 271 16.9037C272.561 17.745 274.291 18.4099 276.166 18.8587C281.318 20.0911 286.579 19.449 290.916 17.4104C291.794 16.998 292.639 16.5264 293.434 16C294.07 16.8733 294.595 17.8014 295 18.7691Z" fill="#6200EE"/>
<path d="M279.289 38.0204C279.865 38.1764 280.164 38.7889 279.908 39.3048C278.515 42.1106 275.163 43.6284 271.93 42.7523C268.697 41.8761 266.681 38.9037 267.042 35.8183C267.108 35.251 267.7 34.8798 268.275 35.0358L279.289 38.0204Z" fill="#C47A4A"/>
<path d="M269.454 31C269.323 31 269.19 30.9797 269.058 30.9375C268.289 30.6915 267.843 29.7891 268.061 28.9221C268.235 28.2318 267.878 27.5108 267.266 27.3148C266.969 27.2196 266.658 27.2607 266.388 27.4301C266.119 27.5993 265.924 27.8768 265.84 28.2109C265.622 29.0778 264.821 29.5808 264.053 29.335C263.283 29.089 262.837 28.1866 263.055 27.3199C263.351 26.1469 264.034 25.1738 264.978 24.5799C265.923 23.9861 267.016 23.8427 268.057 24.1757C270.204 24.8634 271.455 27.3925 270.846 29.8138C270.665 30.5314 270.085 31 269.454 31Z" fill="#C47A4A"/>
<path d="M285.647 35C285.533 35 285.416 34.9855 285.3 34.9553C284.628 34.7795 284.237 34.1349 284.428 33.5156C284.58 33.0227 284.268 32.5077 283.733 32.3677C283.473 32.2996 283.2 32.3289 282.965 32.45C282.729 32.5709 282.559 32.7691 282.485 33.0079C282.294 33.6271 281.593 33.9861 280.921 33.8107C280.248 33.6348 279.857 32.9902 280.049 32.3711C280.307 31.5333 280.905 30.8384 281.731 30.4142C282.557 29.99 283.514 29.8877 284.425 30.1255C286.304 30.6168 287.399 32.4233 286.865 34.1528C286.707 34.6654 286.199 35 285.647 35Z" fill="#C47A4A"/>
<path d="M6 42C9.31371 42 12 39.0899 12 35.5C12 31.9101 9.31371 29 6 29C2.68629 29 0 31.9101 0 35.5C0 39.0899 2.68629 42 6 42Z" fill="#F5A871"/>
<path d="M40 32C43.3137 32 46 29.3137 46 26C46 22.6863 43.3137 20 40 20C36.6863 20 34 22.6863 34 26C34 29.3137 36.6863 32 40 32Z" fill="#F5A871"/>
<path d="M39.7859 45.4008C37.6371 49.167 34.0281 52.1228 29.4721 53.3753C20.3653 55.8802 10.9219 50.6276 8.38231 41.6433L4.0774 26.4204L2 19.0739L34.9839 10L38.9276 23.9445L41.366 32.5693C42.636 37.0617 41.9418 41.6382 39.7859 45.4008Z" fill="#FDD1A7"/>
<path d="M38 24.6009L24.6414 28.5478C23.6245 28.8487 22.5788 29 21.5313 29C19.0163 29 16.5268 28.1064 14.5187 26.4834C13.5477 25.6979 12.3762 25.2674 11.2215 25.2674C10.7709 25.2674 10.3237 25.3321 9.89004 25.4601L4.02522 27.1931L2 19.5009L34.1554 10L38 24.6009Z" fill="#FFBC8A"/>
<path d="M26.9849 2.19394L13.1861 6.09768C10.9116 6.74114 9.58201 9.13304 10.2164 11.4403C10.2164 11.4403 8.10581 10.9922 5.83135 11.6357L4.77822 11.9335C2.03093 12.7107 0.424973 15.6 1.19113 18.3867L3.09367 25.3065L9.12066 23.6014C11.4583 22.94 13.9329 23.5029 15.8623 24.9959C18.1751 26.7856 21.2574 27.4931 24.2755 26.6394L38 22.7567L33.3467 5.83253C32.5804 3.04579 29.7322 1.4166 26.9849 2.19394Z" fill="#18D5CA"/>
<path d="M33.3607 5.84998L38 22.8544L33.9818 24L29.3425 6.9956C28.5783 4.19427 25.7405 2.5585 23 3.33991L27.0154 2.19517C29.7558 1.41376 32.5963 3.04866 33.3607 5.84998Z" fill="#009189"/>
<path d="M32.4676 37.4474C32.9677 37.3079 33.4776 37.6483 33.5349 38.1642C33.8551 41.0508 32.0469 43.8264 29.1588 44.6321C26.2662 45.4389 23.2776 43.9938 22.0614 41.3503C21.8467 40.8834 22.1132 40.3354 22.6081 40.1974L32.4676 37.4474Z" fill="#F5A871"/>
<path d="M15.5839 37.6168C15.0128 37.6168 14.4884 37.2392 14.3275 36.6621C13.7781 34.6921 14.934 32.6422 16.904 32.0928C18.8743 31.5434 20.9238 32.6995 21.4734 34.6691C21.667 35.3634 21.2611 36.0831 20.5671 36.2768C19.8731 36.4707 19.1533 36.0647 18.9594 35.3705C18.7966 34.7867 18.1889 34.4441 17.605 34.6069C17.0212 34.7698 16.6787 35.3773 16.8416 35.9613C17.0352 36.6556 16.6293 37.3753 15.9352 37.5689C15.8178 37.6013 15.6997 37.6168 15.5839 37.6168Z" fill="#F5A871"/>
<path d="M30.8699 33.3538C30.2988 33.3538 29.7744 32.976 29.6135 32.399C29.0641 30.429 30.2201 28.3792 32.1901 27.8297C34.1601 27.28 36.2098 28.4361 36.7594 30.4061C36.953 31.1004 36.5471 31.8201 35.8531 32.0138C35.1591 32.2077 34.4393 31.8016 34.2454 31.1075C34.0826 30.5234 33.4747 30.1813 32.8912 30.3437C32.3073 30.5066 31.9648 31.1142 32.1276 31.6983C32.3212 32.3924 31.9152 33.1121 31.2212 33.3058C31.1038 33.3382 30.9857 33.3538 30.8699 33.3538Z" fill="#F5A871"/>
<path d="M54.059 36.4276L54.6653 34.1707C54.8742 33.393 55.5886 32.9001 56.3374 33.0171L66.7059 34.6375C67.612 34.7792 68.1935 35.7426 67.9406 36.6835L66.5585 41.8289C66.3057 42.77 65.3348 43.2566 64.4964 42.8626L54.9038 38.354C54.211 38.0282 53.8501 37.2053 54.059 36.4276Z" fill="#00EDDF"/>
<path d="M67.9429 37.1634L66.6025 41.9178C66.3566 42.7872 65.4143 43.2377 64.6015 42.8725L63 42.156C63.4183 41.9978 63.7632 41.6465 63.8964 41.17L65.2384 36.4156C65.3835 35.8956 65.2417 35.3687 64.914 35L66.7443 35.273C67.6235 35.4035 68.1869 36.2938 67.9429 37.1634Z" fill="#009189"/>
<path d="M53.1602 26.916L53.0038 24.7303C52.95 23.9772 53.4774 23.3015 54.2385 23.1485L64.776 21.0317C65.697 20.8468 66.5744 21.493 66.6396 22.4043L66.9962 27.3869C67.0614 28.2982 66.2844 29.0562 65.346 28.9967L54.6084 28.3165C53.8327 28.2675 53.214 27.6691 53.1602 26.916Z" fill="#00EDDF"/>
<path d="M64.8167 28.9967L61.904 28.8563C62.3071 28.5613 62.5433 28.1416 62.4981 27.6851L62.0282 22.7033C61.978 22.1765 61.5702 21.7376 61 21.4987L64.0632 21.0315C65.2799 20.8471 66.4369 21.4933 66.5227 22.4047L66.995 27.3882C67.0808 28.2996 66.0549 29.0564 64.8167 28.9967Z" fill="#009189"/>
<path d="M48.2563 44.3904L49.4011 42.6206C49.7956 42.0109 50.5303 41.8227 51.1206 42.1804L59.2953 47.1323C60.0098 47.5651 60.2208 48.6068 59.7434 49.3448L57.1339 53.3794C56.6566 54.1173 55.71 54.2127 55.1237 53.582L48.4137 46.3653C47.9291 45.8439 47.8619 45.0002 48.2563 44.3904Z" fill="#00EDDF"/>
<path d="M59.7512 49.1463L57.2219 53.3532C56.7592 54.1228 55.8431 54.2216 55.2745 53.5635L54 52.09C54.4702 52.1941 54.9751 51.9766 55.2806 51.4683L57.8099 47.2634C58.0397 46.8814 58.1048 46.4207 58.0277 46L59.3174 46.8409C60.0097 47.2925 60.2139 48.3784 59.7512 49.1463Z" fill="#009189"/>
<path d="M241.783 18.3279L240.685 20.2609C240.306 20.9269 239.537 21.1837 238.884 20.8618L229.844 16.4047C229.054 16.0152 228.759 14.9514 229.217 14.1455L231.721 9.73895C232.179 8.9331 233.181 8.75486 233.848 9.36059L241.482 16.2912C242.033 16.7915 242.162 17.6617 241.783 18.3279Z" fill="#BD8FFF"/>
<path d="M234.258 9.37799L241.508 16.6534C242.031 17.1788 242.154 18.0917 241.794 18.7917L240.751 20.8201C240.718 20.8842 240.682 20.9445 240.642 21C240.891 20.3325 240.747 19.5369 240.27 19.0592L233.02 11.7851C232.387 11.1483 231.435 11.3358 231 12.1824L232.238 9.77534C232.673 8.93019 233.624 8.74271 234.258 9.37799Z" fill="#6200EE"/>
<path d="M241.967 28.1485L241.511 30.6201C241.354 31.4718 240.67 32.0593 239.912 31.9952L229.409 31.1088C228.491 31.0312 227.843 30.0453 228.033 29.0149L229.073 23.3805C229.263 22.3501 230.204 21.748 231.071 22.1019L240.991 26.1511C241.707 26.4434 242.124 27.2969 241.967 28.1485Z" fill="#BD8FFF"/>
<path d="M230.639 22.1034L240.95 26.2239C241.695 26.5211 242.129 27.3888 241.966 28.2562L241.492 30.7699C241.477 30.8497 241.457 30.9263 241.432 31C241.485 30.2149 241.065 29.4755 240.388 29.2052L230.077 25.0865C229.176 24.7251 228.198 25.3384 228 26.3876L228.563 23.4048C228.76 22.3569 229.738 21.7438 230.639 22.1034Z" fill="#6200EE"/>
<path d="M251.48 13.1265L249.929 14.6403C249.395 15.162 248.633 15.111 248.147 14.5211L241.41 6.35314C240.822 5.63931 240.873 4.44245 241.52 3.81116L245.056 0.359938C245.702 -0.271353 246.647 -0.0471343 247.062 0.836015L251.814 10.9413C252.157 11.6714 252.014 12.605 251.48 13.1265Z" fill="#BD8FFF"/>
<path d="M246.379 0.848688L251.788 11.1135C252.179 11.8549 252.017 12.8029 251.408 13.3332L249.642 14.8706C249.586 14.9193 249.529 14.9629 249.469 15C249.949 14.4534 250.05 13.6108 249.694 12.9368L244.285 2.67314C243.813 1.77545 242.737 1.54808 242 2.18974L244.095 0.365478C244.83 -0.275398 245.907 -0.0480281 246.379 0.848688Z" fill="#6200EE"/>
<path d="M125.017 122.102C126.018 122.105 126.978 122.504 127.686 123.212C128.394 123.92 128.793 124.88 128.796 125.881C128.789 126.881 128.388 127.838 127.681 128.546C126.974 129.253 126.017 129.653 125.017 129.661H117.457C116.456 129.658 115.496 129.259 114.788 128.55C114.08 127.842 113.681 126.883 113.678 125.881C113.685 124.881 114.086 123.924 114.793 123.217C115.5 122.51 116.457 122.109 117.457 122.102H125.017Z" fill="#F5EEFF"/>
<path d="M139.312 55.6989C139.312 54.6552 140.158 53.8091 141.202 53.8091H152.541C153.585 53.8091 154.431 54.6552 154.431 55.6989C154.431 56.7426 153.585 57.5887 152.541 57.5887H141.202C140.158 57.5887 139.312 56.7426 139.312 55.6989Z" fill="#6200EE"/>
<path d="M119.977 115.173C119.977 112.737 121.951 110.763 124.387 110.763H138.245C140.681 110.763 142.655 112.737 142.655 115.173C142.655 117.608 140.681 119.582 138.245 119.582H124.387C121.951 119.582 119.977 117.608 119.977 115.173Z" fill="#BD8FFF"/>
<path d="M118.717 111.393C118.717 108.958 120.691 106.983 123.127 106.983H135.725C138.161 106.983 140.135 108.958 140.135 111.393C140.135 113.828 138.161 115.802 135.725 115.802H123.127C120.691 115.802 118.717 113.828 118.717 111.393Z" fill="#6200EE"/>
<path d="M104.372 80.7665C104.372 79.7205 105.22 78.8726 106.266 78.8726H110.054C111.1 78.8726 111.948 79.7205 111.948 80.7665C111.948 81.8125 111.1 82.6605 110.054 82.6605H106.266C105.22 82.6605 104.372 81.8125 104.372 80.7665Z" fill="#6200EE"/>
<path d="M104.372 88.3422C104.372 87.2962 105.22 86.4482 106.266 86.4482H110.054C111.1 86.4482 111.948 87.2962 111.948 88.3422C111.948 89.3882 111.1 90.2362 110.054 90.2362H106.266C105.22 90.2362 104.372 89.3882 104.372 88.3422Z" fill="#6200EE"/>
<path d="M226.672 79.3897C224.562 91.2731 217.781 101.838 207.821 108.762C197.861 115.686 185.537 118.402 173.559 116.312C172.115 116.068 170.686 115.743 169.278 115.341C161.998 113.36 155.326 109.618 149.861 104.45L128.365 108.424L139.496 89.7353C136.169 82.1952 134.967 73.9011 136.017 65.7365C137.066 57.572 140.329 49.8429 145.457 43.3729C150.584 36.9029 157.385 31.9343 165.134 28.9965C172.883 26.0588 181.29 25.2619 189.459 26.6909C201.436 28.7851 212.085 35.5131 219.063 45.3954C226.041 55.2778 228.778 67.5054 226.672 79.3897Z" fill="#00EDDF"/>
<g filter="url(#filter0_d)">
<rect x="145.365" y="50" width="74.3807" height="44.6284" rx="5" fill="#6200EE"/>
<path d="M178.837 91.6533L197.484 56.6943L215.283 91.6533" stroke="#BD8FFF" stroke-width="5" stroke-linecap="round" stroke-linejoin="round"/>
<path d="M160.063 55.3501C160.287 55.3501 160.467 55.4221 160.603 55.5661C160.739 55.7021 160.807 55.8861 160.807 56.1181V63.2221C160.807 63.4461 160.743 63.6221 160.615 63.7501C160.487 63.8781 160.319 63.9421 160.111 63.9421C159.903 63.9421 159.739 63.8781 159.619 63.7501C159.499 63.6221 159.439 63.4461 159.439 63.2221V58.2781L157.399 62.1421C157.303 62.3181 157.199 62.4501 157.087 62.5381C156.975 62.6181 156.843 62.6581 156.691 62.6581C156.539 62.6581 156.407 62.6181 156.295 62.5381C156.183 62.4581 156.079 62.3261 155.983 62.1421L153.931 58.3381V63.2221C153.931 63.4381 153.867 63.6141 153.739 63.7501C153.619 63.8781 153.455 63.9421 153.247 63.9421C153.039 63.9421 152.875 63.8781 152.755 63.7501C152.635 63.6221 152.575 63.4461 152.575 63.2221V56.1181C152.575 55.8861 152.639 55.7021 152.767 55.5661C152.903 55.4221 153.083 55.3501 153.307 55.3501C153.619 55.3501 153.863 55.5221 154.039 55.8661L156.703 60.9421L159.355 55.8661C159.531 55.5221 159.767 55.3501 160.063 55.3501ZM170.309 62.9461C170.357 63.0501 170.381 63.1541 170.381 63.2581C170.381 63.4421 170.305 63.5981 170.153 63.7261C170.009 63.8541 169.841 63.9181 169.649 63.9181C169.521 63.9181 169.401 63.8861 169.289 63.8221C169.177 63.7501 169.089 63.6421 169.025 63.4981L168.305 61.8901H164.081L163.361 63.4981C163.297 63.6421 163.209 63.7501 163.097 63.8221C162.985 63.8861 162.861 63.9181 162.725 63.9181C162.541 63.9181 162.373 63.8541 162.221 63.7261C162.069 63.5981 161.993 63.4421 161.993 63.2581C161.993 63.1541 162.017 63.0501 162.065 62.9461L165.377 55.8301C165.449 55.6701 165.557 55.5501 165.701 55.4701C165.853 55.3821 166.013 55.3381 166.181 55.3381C166.349 55.3381 166.505 55.3821 166.649 55.4701C166.801 55.5501 166.913 55.6701 166.985 55.8301L170.309 62.9461ZM164.609 60.6901H167.777L166.193 57.1261L164.609 60.6901ZM175.058 63.9781C174.242 63.9781 173.526 63.8021 172.91 63.4501C172.302 63.0981 171.834 62.5941 171.506 61.9381C171.178 61.2821 171.014 60.5141 171.014 59.6341C171.014 58.7541 171.178 57.9901 171.506 57.3421C171.834 56.6861 172.302 56.1821 172.91 55.8301C173.526 55.4781 174.242 55.3021 175.058 55.3021C175.586 55.3021 176.082 55.3821 176.546 55.5421C177.01 55.6941 177.422 55.9181 177.782 56.2141C177.886 56.2941 177.958 56.3781 177.998 56.4661C178.038 56.5541 178.058 56.6621 178.058 56.7901C178.058 56.9661 178.01 57.1141 177.914 57.2341C177.818 57.3541 177.702 57.4141 177.566 57.4141C177.406 57.4141 177.242 57.3581 177.074 57.2461C176.73 56.9901 176.41 56.8141 176.114 56.7181C175.818 56.6141 175.49 56.5621 175.13 56.5621C174.298 56.5621 173.666 56.8221 173.234 57.3421C172.81 57.8621 172.598 58.6261 172.598 59.6341C172.598 60.6501 172.81 61.4181 173.234 61.9381C173.666 62.4581 174.298 62.7181 175.13 62.7181C175.474 62.7181 175.79 62.6661 176.078 62.5621C176.374 62.4581 176.706 62.2821 177.074 62.0341C177.154 61.9861 177.234 61.9461 177.314 61.9141C177.394 61.8821 177.478 61.8661 177.566 61.8661C177.702 61.8661 177.818 61.9261 177.914 62.0461C178.01 62.1661 178.058 62.3141 178.058 62.4901C178.058 62.6101 178.038 62.7181 177.998 62.8141C177.958 62.9021 177.886 62.9861 177.782 63.0661C177.422 63.3621 177.01 63.5901 176.546 63.7501C176.082 63.9021 175.586 63.9781 175.058 63.9781ZM186.023 55.3501C186.255 55.3501 186.439 55.4221 186.575 55.5661C186.711 55.7021 186.779 55.8861 186.779 56.1181V63.1621C186.779 63.3941 186.707 63.5821 186.563 63.7261C186.427 63.8701 186.247 63.9421 186.023 63.9421C185.791 63.9421 185.607 63.8701 185.471 63.7261C185.335 63.5821 185.267 63.3941 185.267 63.1621V60.1981H180.935V63.1621C180.935 63.3941 180.863 63.5821 180.719 63.7261C180.583 63.8701 180.399 63.9421 180.167 63.9421C179.943 63.9421 179.759 63.8701 179.615 63.7261C179.479 63.5821 179.411 63.3941 179.411 63.1621V56.1181C179.411 55.8861 179.479 55.7021 179.615 55.5661C179.751 55.4221 179.935 55.3501 180.167 55.3501C180.399 55.3501 180.583 55.4221 180.719 55.5661C180.863 55.7021 180.935 55.8861 180.935 56.1181V58.9501H185.267V56.1181C185.267 55.8861 185.335 55.7021 185.471 55.5661C185.607 55.4221 185.791 55.3501 186.023 55.3501Z" fill="#BD8FFF"/>
<circle cx="152.804" cy="69.3392" r="1.48761" fill="#D7BBFF"/>
<circle cx="163.217" cy="69.3392" r="1.48761" fill="#D7BBFF"/>
<circle cx="173.63" cy="69.3392" r="1.48761" fill="#D7BBFF"/>
<circle cx="158.01" cy="69.3392" r="1.48761" fill="#D7BBFF"/>
<circle cx="168.424" cy="69.3392" r="1.48761" fill="#D7BBFF"/>
<circle cx="178.837" cy="69.3392" r="1.48761" fill="#D7BBFF"/>
</g>
<defs>
<filter id="filter0_d" x="145.365" y="50" width="86.3807" height="56.6284" filterUnits="userSpaceOnUse" color-interpolation-filters="sRGB">
<feFlood flood-opacity="0" result="BackgroundImageFix"/>
<feColorMatrix in="SourceAlpha" type="matrix" values="0 0 0 0 0 0 0 0 0 0 0 0 0 0 0 0 0 0 127 0"/>
<feOffset dx="8" dy="8"/>
<feGaussianBlur stdDeviation="2"/>
<feColorMatrix type="matrix" values="0 0 0 0 0 0 0 0 0 0 0 0 0 0 0 0 0 0 0.18 0"/>
<feBlend mode="normal" in2="BackgroundImageFix" result="effect1_dropShadow"/>
<feBlend mode="normal" in="SourceGraphic" in2="effect1_dropShadow" result="shape"/>
</filter>
</defs>
</svg>
