<svg width="300" height="105" viewBox="0 0 300 105" fill="none" xmlns="http://www.w3.org/2000/svg">
<rect x="69" width="168" height="29" rx="10" fill="#BD8FFF"/>
<path fill-rule="evenodd" clip-rule="evenodd" d="M99.4302 6.78743C99.4302 6.62379 99.3634 6.46685 99.2445 6.35113C99.1256 6.23542 98.9644 6.17041 98.7962 6.17041C98.6281 6.17041 98.4668 6.23542 98.3479 6.35113C98.229 6.46685 98.1623 6.62379 98.1623 6.78743V8.02147H96.8943C96.7262 8.02147 96.5649 8.08648 96.4461 8.2022C96.3272 8.31791 96.2604 8.47485 96.2604 8.63849C96.2604 8.80214 96.3272 8.95908 96.4461 9.07479C96.5649 9.19051 96.7262 9.25552 96.8943 9.25552H98.1623V10.4896C98.1623 10.6532 98.229 10.8101 98.3479 10.9259C98.4668 11.0416 98.6281 11.1066 98.7962 11.1066C98.9644 11.1066 99.1256 11.0416 99.2445 10.9259C99.3634 10.8101 99.4302 10.6532 99.4302 10.4896V9.25552H100.698C100.866 9.25552 101.027 9.19051 101.146 9.07479C101.265 8.95908 101.332 8.80214 101.332 8.63849C101.332 8.47485 101.265 8.31791 101.146 8.2022C101.027 8.08648 100.866 8.02147 100.698 8.02147H99.4302V6.78743ZM94.3585 11.1066C94.3585 11.4339 94.2249 11.7478 93.9871 11.9792C93.7493 12.2106 93.4268 12.3406 93.0906 12.3406C92.7543 12.3406 92.4318 12.2106 92.194 11.9792C91.9562 11.7478 91.8226 11.4339 91.8226 11.1066C91.8226 10.7793 91.9562 10.4654 92.194 10.234C92.4318 10.0026 92.7543 9.87254 93.0906 9.87254C93.4268 9.87254 93.7493 10.0026 93.9871 10.234C94.2249 10.4654 94.3585 10.7793 94.3585 11.1066ZM95.6264 11.1066C95.6264 11.7612 95.3592 12.3889 94.8837 12.8518C94.4081 13.3146 93.7631 13.5747 93.0906 13.5747C92.418 13.5747 91.773 13.3146 91.2974 12.8518C90.8219 12.3889 90.5547 11.7612 90.5547 11.1066C90.5547 10.452 90.8219 9.82424 91.2974 9.36138C91.773 8.89852 92.418 8.63849 93.0906 8.63849C93.7631 8.63849 94.4081 8.89852 94.8837 9.36138C95.3592 9.82424 95.6264 10.452 95.6264 11.1066ZM89.2868 17.2768C89.2868 16.7859 89.4872 16.315 89.8438 15.9679C90.2005 15.6208 90.6843 15.4257 91.1887 15.4257H94.9924C95.4969 15.4257 95.9806 15.6208 96.3373 15.9679C96.694 16.315 96.8943 16.7859 96.8943 17.2768V17.8938C96.8943 18.0575 96.9611 18.2144 97.08 18.3301C97.1989 18.4458 97.3602 18.5108 97.5283 18.5108C97.6964 18.5108 97.8577 18.4458 97.9766 18.3301C98.0955 18.2144 98.1623 18.0575 98.1623 17.8938V17.2768C98.1623 16.4586 97.8283 15.6739 97.2338 15.0953C96.6394 14.5167 95.8331 14.1917 94.9924 14.1917H91.1887C90.348 14.1917 89.5417 14.5167 88.9473 15.0953C88.3528 15.6739 88.0189 16.4586 88.0189 17.2768V17.8938C88.0189 18.0575 88.0857 18.2144 88.2045 18.3301C88.3234 18.4458 88.4847 18.5108 88.6528 18.5108C88.821 18.5108 88.9822 18.4458 89.1011 18.3301C89.22 18.2144 89.2868 18.0575 89.2868 17.8938V17.2768Z" fill="white"/>
<path d="M116.32 17.947C116.424 18.103 116.476 18.2547 116.476 18.402C116.476 18.6013 116.394 18.766 116.229 18.896C116.073 19.026 115.887 19.091 115.67 19.091C115.531 19.091 115.397 19.0607 115.267 19C115.146 18.9307 115.042 18.831 114.955 18.701L113.226 16.075C113.053 15.7977 112.866 15.6027 112.667 15.49C112.476 15.3773 112.225 15.321 111.913 15.321H110.639V18.233C110.639 18.493 110.565 18.701 110.418 18.857C110.271 19.0043 110.071 19.078 109.82 19.078C109.569 19.078 109.365 19.0043 109.209 18.857C109.062 18.701 108.988 18.493 108.988 18.233V10.628C108.988 10.3767 109.057 10.1817 109.196 10.043C109.343 9.90433 109.543 9.835 109.794 9.835H113.044C114.084 9.835 114.873 10.069 115.41 10.537C115.956 10.9963 116.229 11.6637 116.229 12.539C116.229 13.2497 116.025 13.8347 115.618 14.294C115.219 14.7447 114.652 15.035 113.915 15.165C114.166 15.2257 114.387 15.334 114.578 15.49C114.769 15.646 114.955 15.8627 115.137 16.14L116.32 17.947ZM112.81 14.034C113.443 14.034 113.906 13.917 114.201 13.683C114.496 13.4403 114.643 13.072 114.643 12.578C114.643 12.0753 114.496 11.7113 114.201 11.486C113.906 11.252 113.443 11.135 112.81 11.135H110.626V14.034H112.81ZM122.915 17.258C123.062 17.258 123.179 17.3143 123.266 17.427C123.361 17.5397 123.409 17.6913 123.409 17.882C123.409 18.1507 123.249 18.376 122.928 18.558C122.633 18.7227 122.3 18.857 121.927 18.961C121.554 19.0563 121.199 19.104 120.861 19.104C119.838 19.104 119.028 18.8093 118.43 18.22C117.832 17.6307 117.533 16.8247 117.533 15.802C117.533 15.152 117.663 14.5757 117.923 14.073C118.183 13.5703 118.547 13.1803 119.015 12.903C119.492 12.6257 120.029 12.487 120.627 12.487C121.199 12.487 121.697 12.6127 122.122 12.864C122.547 13.1153 122.876 13.4707 123.11 13.93C123.344 14.3893 123.461 14.931 123.461 15.555C123.461 15.9277 123.296 16.114 122.967 16.114H119.132C119.184 16.712 119.353 17.154 119.639 17.44C119.925 17.7173 120.341 17.856 120.887 17.856C121.164 17.856 121.407 17.8213 121.615 17.752C121.832 17.6827 122.074 17.5873 122.343 17.466C122.603 17.3273 122.794 17.258 122.915 17.258ZM120.666 13.631C120.224 13.631 119.869 13.7697 119.6 14.047C119.34 14.3243 119.184 14.723 119.132 15.243H122.07C122.053 14.7143 121.923 14.3157 121.68 14.047C121.437 13.7697 121.099 13.631 120.666 13.631ZM130.172 12.513C130.415 12.513 130.61 12.5823 130.757 12.721C130.905 12.8597 130.978 13.046 130.978 13.28V18.415C130.978 19.4117 130.701 20.1657 130.146 20.677C129.592 21.1883 128.773 21.444 127.689 21.444C126.745 21.444 125.956 21.2663 125.323 20.911C125.003 20.7203 124.842 20.4907 124.842 20.222C124.842 20.0313 124.886 19.8797 124.972 19.767C125.068 19.6543 125.189 19.598 125.336 19.598C125.414 19.598 125.51 19.6153 125.622 19.65C125.735 19.6933 125.852 19.741 125.973 19.793C126.285 19.923 126.563 20.0227 126.805 20.092C127.057 20.1613 127.343 20.196 127.663 20.196C128.799 20.196 129.366 19.6413 129.366 18.532V17.7C129.176 18.0553 128.898 18.3327 128.534 18.532C128.17 18.7227 127.754 18.818 127.286 18.818C126.732 18.818 126.238 18.688 125.804 18.428C125.38 18.1593 125.046 17.7867 124.803 17.31C124.561 16.8333 124.439 16.283 124.439 15.659C124.439 15.035 124.556 14.4847 124.79 14.008C125.033 13.5227 125.371 13.15 125.804 12.89C126.238 12.6213 126.732 12.487 127.286 12.487C127.754 12.487 128.17 12.5867 128.534 12.786C128.898 12.9767 129.176 13.2497 129.366 13.605V13.267C129.366 13.0417 129.44 12.8597 129.587 12.721C129.735 12.5823 129.93 12.513 130.172 12.513ZM127.715 17.557C128.235 17.557 128.638 17.388 128.924 17.05C129.219 16.712 129.366 16.2483 129.366 15.659C129.366 15.061 129.219 14.593 128.924 14.255C128.638 13.917 128.235 13.748 127.715 13.748C127.204 13.748 126.801 13.917 126.506 14.255C126.212 14.593 126.064 15.061 126.064 15.659C126.064 16.2483 126.212 16.712 126.506 17.05C126.801 17.388 127.204 17.557 127.715 17.557ZM135.417 12.487C136.301 12.487 136.956 12.708 137.38 13.15C137.814 13.5833 138.03 14.2463 138.03 15.139V18.311C138.03 18.545 137.961 18.7313 137.822 18.87C137.684 19 137.493 19.065 137.25 19.065C137.025 19.065 136.839 18.9957 136.691 18.857C136.553 18.7183 136.483 18.5363 136.483 18.311V18.025C136.336 18.363 136.102 18.6273 135.781 18.818C135.469 19.0087 135.105 19.104 134.689 19.104C134.265 19.104 133.879 19.0173 133.532 18.844C133.186 18.6707 132.913 18.4323 132.713 18.129C132.514 17.8257 132.414 17.4877 132.414 17.115C132.414 16.647 132.531 16.2787 132.765 16.01C133.008 15.7413 133.398 15.5463 133.935 15.425C134.473 15.3037 135.214 15.243 136.158 15.243H136.483V14.944C136.483 14.5193 136.392 14.2117 136.21 14.021C136.028 13.8217 135.734 13.722 135.326 13.722C135.075 13.722 134.819 13.761 134.559 13.839C134.299 13.9083 133.992 14.0123 133.636 14.151C133.411 14.2637 133.246 14.32 133.142 14.32C132.986 14.32 132.856 14.2637 132.752 14.151C132.657 14.0383 132.609 13.891 132.609 13.709C132.609 13.5617 132.644 13.436 132.713 13.332C132.791 13.2193 132.917 13.1153 133.09 13.02C133.394 12.8553 133.753 12.7253 134.169 12.63C134.594 12.5347 135.01 12.487 135.417 12.487ZM135.014 17.934C135.448 17.934 135.799 17.791 136.067 17.505C136.345 17.2103 136.483 16.8333 136.483 16.374V16.101H136.249C135.669 16.101 135.218 16.127 134.897 16.179C134.577 16.231 134.347 16.322 134.208 16.452C134.07 16.582 134 16.7597 134 16.985C134 17.2623 134.096 17.492 134.286 17.674C134.486 17.8473 134.728 17.934 135.014 17.934ZM140.488 19.078C140.254 19.078 140.059 19.013 139.903 18.883C139.756 18.7443 139.682 18.5493 139.682 18.298V10.537C139.682 10.2857 139.756 10.095 139.903 9.965C140.059 9.835 140.254 9.77 140.488 9.77C140.722 9.77 140.917 9.835 141.073 9.965C141.229 10.095 141.307 10.2857 141.307 10.537V18.298C141.307 18.5493 141.229 18.7443 141.073 18.883C140.917 19.013 140.722 19.078 140.488 19.078ZM145.739 12.487C146.623 12.487 147.277 12.708 147.702 13.15C148.135 13.5833 148.352 14.2463 148.352 15.139V18.311C148.352 18.545 148.282 18.7313 148.144 18.87C148.005 19 147.814 19.065 147.572 19.065C147.346 19.065 147.16 18.9957 147.013 18.857C146.874 18.7183 146.805 18.5363 146.805 18.311V18.025C146.657 18.363 146.423 18.6273 146.103 18.818C145.791 19.0087 145.427 19.104 145.011 19.104C144.586 19.104 144.2 19.0173 143.854 18.844C143.507 18.6707 143.234 18.4323 143.035 18.129C142.835 17.8257 142.736 17.4877 142.736 17.115C142.736 16.647 142.853 16.2787 143.087 16.01C143.329 15.7413 143.719 15.5463 144.257 15.425C144.794 15.3037 145.535 15.243 146.48 15.243H146.805V14.944C146.805 14.5193 146.714 14.2117 146.532 14.021C146.35 13.8217 146.055 13.722 145.648 13.722C145.396 13.722 145.141 13.761 144.881 13.839C144.621 13.9083 144.313 14.0123 143.958 14.151C143.732 14.2637 143.568 14.32 143.464 14.32C143.308 14.32 143.178 14.2637 143.074 14.151C142.978 14.0383 142.931 13.891 142.931 13.709C142.931 13.5617 142.965 13.436 143.035 13.332C143.113 13.2193 143.238 13.1153 143.412 13.02C143.715 12.8553 144.075 12.7253 144.491 12.63C144.915 12.5347 145.331 12.487 145.739 12.487ZM145.336 17.934C145.769 17.934 146.12 17.791 146.389 17.505C146.666 17.2103 146.805 16.8333 146.805 16.374V16.101H146.571C145.99 16.101 145.539 16.127 145.219 16.179C144.898 16.231 144.668 16.322 144.53 16.452C144.391 16.582 144.322 16.7597 144.322 16.985C144.322 17.2623 144.417 17.492 144.608 17.674C144.807 17.8473 145.05 17.934 145.336 17.934ZM156.289 12.487C157.173 12.487 157.827 12.708 158.252 13.15C158.685 13.5833 158.902 14.2463 158.902 15.139V18.311C158.902 18.545 158.832 18.7313 158.694 18.87C158.555 19 158.364 19.065 158.122 19.065C157.896 19.065 157.71 18.9957 157.563 18.857C157.424 18.7183 157.355 18.5363 157.355 18.311V18.025C157.207 18.363 156.973 18.6273 156.653 18.818C156.341 19.0087 155.977 19.104 155.561 19.104C155.136 19.104 154.75 19.0173 154.403 18.844C154.057 18.6707 153.784 18.4323 153.585 18.129C153.385 17.8257 153.286 17.4877 153.286 17.115C153.286 16.647 153.403 16.2787 153.637 16.01C153.879 15.7413 154.269 15.5463 154.807 15.425C155.344 15.3037 156.085 15.243 157.03 15.243H157.355V14.944C157.355 14.5193 157.264 14.2117 157.082 14.021C156.9 13.8217 156.605 13.722 156.198 13.722C155.946 13.722 155.691 13.761 155.431 13.839C155.171 13.9083 154.863 14.0123 154.508 14.151C154.282 14.2637 154.118 14.32 154.014 14.32C153.858 14.32 153.728 14.2637 153.624 14.151C153.528 14.0383 153.481 13.891 153.481 13.709C153.481 13.5617 153.515 13.436 153.585 13.332C153.663 13.2193 153.788 13.1153 153.962 13.02C154.265 12.8553 154.625 12.7253 155.041 12.63C155.465 12.5347 155.881 12.487 156.289 12.487ZM155.886 17.934C156.319 17.934 156.67 17.791 156.939 17.505C157.216 17.2103 157.355 16.8333 157.355 16.374V16.101H157.121C156.54 16.101 156.089 16.127 155.769 16.179C155.448 16.231 155.218 16.322 155.08 16.452C154.941 16.582 154.872 16.7597 154.872 16.985C154.872 17.2623 154.967 17.492 155.158 17.674C155.357 17.8473 155.6 17.934 155.886 17.934ZM169.1 12.513C169.352 12.513 169.551 12.5823 169.698 12.721C169.846 12.8597 169.919 13.046 169.919 13.28V18.324C169.919 18.5493 169.841 18.7313 169.685 18.87C169.538 19.0087 169.343 19.078 169.1 19.078C168.866 19.078 168.68 19.013 168.541 18.883C168.403 18.753 168.333 18.5753 168.333 18.35V18.025C168.134 18.3717 167.865 18.6403 167.527 18.831C167.189 19.013 166.808 19.104 166.383 19.104C164.823 19.104 164.043 18.2287 164.043 16.478V13.28C164.043 13.046 164.117 12.8597 164.264 12.721C164.412 12.5823 164.607 12.513 164.849 12.513C165.101 12.513 165.3 12.5823 165.447 12.721C165.595 12.8597 165.668 13.046 165.668 13.28V16.491C165.668 16.9417 165.759 17.2753 165.941 17.492C166.123 17.7087 166.409 17.817 166.799 17.817C167.25 17.817 167.61 17.6697 167.878 17.375C168.156 17.0717 168.294 16.673 168.294 16.179V13.28C168.294 13.046 168.368 12.8597 168.515 12.721C168.663 12.5823 168.858 12.513 169.1 12.513ZM175.303 12.487C176.065 12.487 176.633 12.7037 177.006 13.137C177.378 13.5703 177.565 14.2247 177.565 15.1V18.298C177.565 18.5407 177.491 18.7313 177.344 18.87C177.205 19.0087 177.01 19.078 176.759 19.078C176.507 19.078 176.308 19.0087 176.161 18.87C176.013 18.7313 175.94 18.5407 175.94 18.298V15.191C175.94 14.697 175.844 14.3373 175.654 14.112C175.472 13.8867 175.181 13.774 174.783 13.774C174.315 13.774 173.938 13.9213 173.652 14.216C173.374 14.5107 173.236 14.905 173.236 15.399V18.298C173.236 18.5407 173.162 18.7313 173.015 18.87C172.867 19.0087 172.668 19.078 172.417 19.078C172.165 19.078 171.966 19.0087 171.819 18.87C171.68 18.7313 171.611 18.5407 171.611 18.298V13.267C171.611 13.0417 171.684 12.8597 171.832 12.721C171.979 12.5823 172.178 12.513 172.43 12.513C172.655 12.513 172.837 12.5823 172.976 12.721C173.123 12.851 173.197 13.0243 173.197 13.241V13.592C173.413 13.2367 173.704 12.9637 174.068 12.773C174.432 12.5823 174.843 12.487 175.303 12.487ZM185.5 12.487C186.384 12.487 187.039 12.708 187.463 13.15C187.897 13.5833 188.113 14.2463 188.113 15.139V18.311C188.113 18.545 188.044 18.7313 187.905 18.87C187.767 19 187.576 19.065 187.333 19.065C187.108 19.065 186.922 18.9957 186.774 18.857C186.636 18.7183 186.566 18.5363 186.566 18.311V18.025C186.419 18.363 186.185 18.6273 185.864 18.818C185.552 19.0087 185.188 19.104 184.772 19.104C184.348 19.104 183.962 19.0173 183.615 18.844C183.269 18.6707 182.996 18.4323 182.796 18.129C182.597 17.8257 182.497 17.4877 182.497 17.115C182.497 16.647 182.614 16.2787 182.848 16.01C183.091 15.7413 183.481 15.5463 184.018 15.425C184.556 15.3037 185.297 15.243 186.241 15.243H186.566V14.944C186.566 14.5193 186.475 14.2117 186.293 14.021C186.111 13.8217 185.817 13.722 185.409 13.722C185.158 13.722 184.902 13.761 184.642 13.839C184.382 13.9083 184.075 14.0123 183.719 14.151C183.494 14.2637 183.329 14.32 183.225 14.32C183.069 14.32 182.939 14.2637 182.835 14.151C182.74 14.0383 182.692 13.891 182.692 13.709C182.692 13.5617 182.727 13.436 182.796 13.332C182.874 13.2193 183 13.1153 183.173 13.02C183.477 12.8553 183.836 12.7253 184.252 12.63C184.677 12.5347 185.093 12.487 185.5 12.487ZM185.097 17.934C185.531 17.934 185.882 17.791 186.15 17.505C186.428 17.2103 186.566 16.8333 186.566 16.374V16.101H186.332C185.752 16.101 185.301 16.127 184.98 16.179C184.66 16.231 184.43 16.322 184.291 16.452C184.153 16.582 184.083 16.7597 184.083 16.985C184.083 17.2623 184.179 17.492 184.369 17.674C184.569 17.8473 184.811 17.934 185.097 17.934ZM197.318 12.487C198.011 12.487 198.54 12.695 198.904 13.111C199.277 13.5183 199.463 14.1813 199.463 15.1V18.298C199.463 18.5493 199.385 18.7443 199.229 18.883C199.082 19.013 198.887 19.078 198.644 19.078C198.41 19.078 198.215 19.013 198.059 18.883C197.912 18.7443 197.838 18.5493 197.838 18.298V15.1C197.838 14.6233 197.751 14.2853 197.578 14.086C197.413 13.878 197.158 13.774 196.811 13.774C196.386 13.774 196.048 13.9213 195.797 14.216C195.546 14.502 195.42 14.8963 195.42 15.399V18.298C195.42 18.5493 195.342 18.7443 195.186 18.883C195.039 19.013 194.848 19.078 194.614 19.078C194.38 19.078 194.185 19.013 194.029 18.883C193.873 18.7443 193.795 18.5493 193.795 18.298V15.1C193.795 14.6233 193.708 14.2853 193.535 14.086C193.37 13.878 193.115 13.774 192.768 13.774C192.343 13.774 192.005 13.9213 191.754 14.216C191.511 14.502 191.39 14.8963 191.39 15.399V18.298C191.39 18.5493 191.312 18.7443 191.156 18.883C191 19.013 190.805 19.078 190.571 19.078C190.337 19.078 190.142 19.013 189.986 18.883C189.839 18.7443 189.765 18.5493 189.765 18.298V13.267C189.765 13.0243 189.843 12.838 189.999 12.708C190.155 12.578 190.35 12.513 190.584 12.513C190.809 12.513 190.991 12.578 191.13 12.708C191.277 12.8293 191.351 13.007 191.351 13.241V13.553C191.55 13.2063 191.815 12.942 192.144 12.76C192.482 12.578 192.868 12.487 193.301 12.487C194.254 12.487 194.891 12.8857 195.212 13.683C195.403 13.319 195.684 13.0287 196.057 12.812C196.43 12.5953 196.85 12.487 197.318 12.487ZM201.921 19.078C201.687 19.078 201.492 19.013 201.336 18.883C201.188 18.7443 201.115 18.5493 201.115 18.298V13.28C201.115 13.0287 201.188 12.838 201.336 12.708C201.492 12.578 201.687 12.513 201.921 12.513C202.155 12.513 202.35 12.578 202.506 12.708C202.662 12.838 202.74 13.0287 202.74 13.28V18.298C202.74 18.5493 202.662 18.7443 202.506 18.883C202.35 19.013 202.155 19.078 201.921 19.078ZM201.921 11.356C201.626 11.356 201.392 11.278 201.219 11.122C201.045 10.9573 200.959 10.745 200.959 10.485C200.959 10.225 201.045 10.017 201.219 9.861C201.392 9.705 201.626 9.627 201.921 9.627C202.207 9.627 202.436 9.705 202.61 9.861C202.792 10.017 202.883 10.225 202.883 10.485C202.883 10.745 202.796 10.9573 202.623 11.122C202.449 11.278 202.215 11.356 201.921 11.356ZM209.797 12.513C210.04 12.513 210.235 12.5823 210.382 12.721C210.53 12.8597 210.603 13.046 210.603 13.28V18.415C210.603 19.4117 210.326 20.1657 209.771 20.677C209.217 21.1883 208.398 21.444 207.314 21.444C206.37 21.444 205.581 21.2663 204.948 20.911C204.628 20.7203 204.467 20.4907 204.467 20.222C204.467 20.0313 204.511 19.8797 204.597 19.767C204.693 19.6543 204.814 19.598 204.961 19.598C205.039 19.598 205.135 19.6153 205.247 19.65C205.36 19.6933 205.477 19.741 205.598 19.793C205.91 19.923 206.188 20.0227 206.43 20.092C206.682 20.1613 206.968 20.196 207.288 20.196C208.424 20.196 208.991 19.6413 208.991 18.532V17.7C208.801 18.0553 208.523 18.3327 208.159 18.532C207.795 18.7227 207.379 18.818 206.911 18.818C206.357 18.818 205.863 18.688 205.429 18.428C205.005 18.1593 204.671 17.7867 204.428 17.31C204.186 16.8333 204.064 16.283 204.064 15.659C204.064 15.035 204.181 14.4847 204.415 14.008C204.658 13.5227 204.996 13.15 205.429 12.89C205.863 12.6213 206.357 12.487 206.911 12.487C207.379 12.487 207.795 12.5867 208.159 12.786C208.523 12.9767 208.801 13.2497 208.991 13.605V13.267C208.991 13.0417 209.065 12.8597 209.212 12.721C209.36 12.5823 209.555 12.513 209.797 12.513ZM207.34 17.557C207.86 17.557 208.263 17.388 208.549 17.05C208.844 16.712 208.991 16.2483 208.991 15.659C208.991 15.061 208.844 14.593 208.549 14.255C208.263 13.917 207.86 13.748 207.34 13.748C206.829 13.748 206.426 13.917 206.131 14.255C205.837 14.593 205.689 15.061 205.689 15.659C205.689 16.2483 205.837 16.712 206.131 17.05C206.426 17.388 206.829 17.557 207.34 17.557ZM215.185 19.104C214.535 19.104 213.963 18.9697 213.469 18.701C212.984 18.4323 212.607 18.0467 212.338 17.544C212.07 17.0413 211.935 16.4563 211.935 15.789C211.935 15.1217 212.07 14.541 212.338 14.047C212.607 13.5443 212.984 13.1587 213.469 12.89C213.963 12.6213 214.535 12.487 215.185 12.487C215.835 12.487 216.403 12.6213 216.888 12.89C217.382 13.1587 217.759 13.5443 218.019 14.047C218.288 14.541 218.422 15.1217 218.422 15.789C218.422 16.4563 218.288 17.0413 218.019 17.544C217.759 18.0467 217.382 18.4323 216.888 18.701C216.403 18.9697 215.835 19.104 215.185 19.104ZM215.172 17.843C215.701 17.843 216.104 17.6697 216.381 17.323C216.659 16.9763 216.797 16.465 216.797 15.789C216.797 15.1217 216.659 14.6147 216.381 14.268C216.104 13.9127 215.705 13.735 215.185 13.735C214.665 13.735 214.262 13.9127 213.976 14.268C213.699 14.6147 213.56 15.1217 213.56 15.789C213.56 16.465 213.699 16.9763 213.976 17.323C214.254 17.6697 214.652 17.843 215.172 17.843Z" fill="white"/>
<path d="M59 16.0468C51.8333 15.5468 36.1 18.8468 30.5 36.0468" stroke="#999999" stroke-width="2" stroke-linecap="round"/>
<path d="M27 29.0469L30 36.0469" stroke="#999999" stroke-width="2" stroke-linecap="round"/>
<path d="M37 32.5469L30.5 36.5469" stroke="#999999" stroke-width="2" stroke-linecap="round"/>
<path d="M167.023 75.7534C172.98 79.7698 188.255 84.7786 201.705 72.6829" stroke="#999999" stroke-width="2" stroke-linecap="round"/>
<path d="M201.236 80.4951L202.138 72.9329" stroke="#999999" stroke-width="2" stroke-linecap="round"/>
<path d="M194.326 72.4639L201.955 72.2498" stroke="#999999" stroke-width="2" stroke-linecap="round"/>
<circle cx="13.5" cy="67.5" r="13.5" fill="#6200EE"/>
<circle cx="91.5" cy="67.5" r="13.5" fill="#6200EE"/>
<circle cx="52.5" cy="67.5" r="13.5" fill="#6200EE"/>
<circle cx="130.5" cy="67.5" r="13.5" fill="#6200EE"/>
<path d="M13.5 60C11.4612 60 11.2071 60.0098 10.4091 60.0436C9.60795 60.083 9.06601 60.2072 8.58782 60.3929C8.08735 60.5818 7.63411 60.8776 7.25969 61.2597C6.87655 61.6332 6.58057 62.0867 6.39286 62.5878C6.20721 63.066 6.08298 63.608 6.0436 64.4091C6.0075 65.2075 6 65.4612 6 67.5C6 69.5388 6.00984 69.7929 6.0436 70.5909C6.08298 71.3897 6.20721 71.934 6.39286 72.4122C6.5818 72.9126 6.87762 73.3659 7.25969 73.7403C7.63323 74.1234 8.08673 74.4194 8.58782 74.6071C9.06601 74.7904 9.6103 74.917 10.4091 74.9564C11.2075 74.9925 11.4612 75 13.5 75C15.5388 75 15.7929 74.9902 16.5909 74.9564C17.3897 74.917 17.934 74.79 18.4122 74.6071C18.9126 74.4182 19.3659 74.1224 19.7403 73.7403C20.1239 73.3672 20.42 72.9136 20.6071 72.4122C20.7904 71.934 20.917 71.3897 20.9564 70.5909C20.9925 69.7925 21 69.5388 21 67.5C21 65.4612 20.9902 65.2071 20.9564 64.4091C20.917 63.6103 20.79 63.0632 20.6071 62.5878C20.4182 62.0874 20.1224 61.6341 19.7403 61.2597C19.3672 60.8761 18.9136 60.58 18.4122 60.3929C17.934 60.2072 17.3897 60.083 16.5909 60.0436C15.7925 60.0075 15.5388 60 13.5 60ZM13.5 61.3502C15.5023 61.3502 15.7414 61.36 16.5327 61.3938C17.2627 61.428 17.6602 61.5499 17.9241 61.653C18.2504 61.7735 18.5458 61.9652 18.7886 62.2142C19.0372 62.456 19.2282 62.7507 19.3474 63.0763C19.4506 63.3403 19.5725 63.7378 19.6067 64.4677C19.6405 65.2591 19.6503 65.4987 19.6503 67.5005C19.6503 69.5023 19.6405 69.7418 19.6039 70.5332C19.5645 71.2631 19.4426 71.6607 19.3399 71.9246C19.1979 72.2767 19.0394 72.5228 18.7778 72.7891C18.5342 73.0365 18.239 73.2273 17.9134 73.3479C17.6527 73.4511 17.2495 73.5729 16.5168 73.6072C15.7212 73.6409 15.4868 73.6508 13.4794 73.6508C11.4719 73.6508 11.238 73.6409 10.4415 73.6044C9.71156 73.565 9.30885 73.4431 9.04491 73.3404C8.68862 73.1984 8.44437 73.0399 8.18277 72.7783C7.91883 72.5144 7.751 72.2631 7.62161 71.9138C7.5166 71.6532 7.39658 71.25 7.35767 70.5173C7.33095 69.7311 7.31829 69.4873 7.31829 67.4892C7.31829 65.4921 7.33095 65.2478 7.35767 64.4518C7.39658 63.7191 7.5166 63.3168 7.62161 63.0552C7.751 62.6985 7.9193 62.4547 8.18277 62.1907C8.4439 61.9296 8.68862 61.7608 9.04491 61.6286C9.30885 61.526 9.70171 61.4041 10.4345 61.3675C11.23 61.3389 11.4644 61.3286 13.4691 61.3286L13.5 61.3502ZM13.5 63.6506C12.9943 63.6504 12.4936 63.7499 12.0263 63.9433C11.5591 64.1368 11.1346 64.4204 10.777 64.7779C10.4194 65.1355 10.1358 65.56 9.94239 66.0273C9.74896 66.4945 9.64949 66.9953 9.64968 67.5009C9.64949 68.0066 9.74896 68.5074 9.94239 68.9746C10.1358 69.4418 10.4194 69.8664 10.777 70.2239C11.1346 70.5815 11.5591 70.8651 12.0263 71.0585C12.4936 71.252 12.9943 71.3514 13.5 71.3513C14.0057 71.3514 14.5064 71.252 14.9737 71.0585C15.4409 70.8651 15.8654 70.5815 16.223 70.2239C16.5806 69.8664 16.8642 69.4418 17.0576 68.9746C17.251 68.5074 17.3505 68.0066 17.3503 67.5009C17.3505 66.9953 17.251 66.4945 17.0576 66.0273C16.8642 65.56 16.5806 65.1355 16.223 64.7779C15.8654 64.4204 15.4409 64.1368 14.9737 63.9433C14.5064 63.7499 14.0057 63.6504 13.5 63.6506ZM13.5 70.0011C12.118 70.0011 10.9998 68.883 10.9998 67.5009C10.9998 66.1189 12.118 65.0008 13.5 65.0008C14.882 65.0008 16.0002 66.1189 16.0002 67.5009C16.0002 68.883 14.882 70.0011 13.5 70.0011ZM18.4056 63.4968C18.4054 63.7358 18.3103 63.9648 18.1412 64.1337C17.9722 64.3026 17.743 64.3974 17.5041 64.3974C17.386 64.3974 17.269 64.3742 17.1598 64.3289C17.0507 64.2837 16.9515 64.2175 16.868 64.1339C16.7844 64.0504 16.7181 63.9512 16.6729 63.8421C16.6277 63.7329 16.6045 63.6159 16.6045 63.4978C16.6045 63.3796 16.6277 63.2627 16.6729 63.1535C16.7181 63.0444 16.7844 62.9452 16.868 62.8616C16.9515 62.7781 17.0507 62.7118 17.1598 62.6666C17.269 62.6214 17.386 62.5981 17.5041 62.5981C17.9996 62.5981 18.4056 63.0013 18.4056 63.4968Z" fill="#D7BBFF"/>
<path fill-rule="evenodd" clip-rule="evenodd" d="M58.6687 62.1801C57.9307 61.487 57.0527 60.9374 56.0854 60.5632C55.1181 60.189 54.0808 59.9975 53.0337 60C48.6428 60 45.0683 63.3344 45.0666 67.4329C45.0666 68.7428 45.4331 70.0213 46.1297 71.149L45 75L49.2232 73.9658C50.3914 74.5592 51.7001 74.8703 53.0302 74.8708H53.0337C57.4237 74.8708 60.9982 71.5365 61 67.4379C61.003 66.4613 60.7985 65.4938 60.3984 64.5913C59.9982 63.6889 59.4104 62.8693 58.6687 62.1801ZM53.0337 73.6164H53.031C51.845 73.6165 50.6809 73.3188 49.6607 72.7545L49.4193 72.6203L46.9133 73.2339L47.5815 70.9544L47.4244 70.7209C46.7613 69.736 46.4103 68.5961 46.4119 67.4329C46.4136 64.0266 49.3838 61.2553 53.0364 61.2553C53.9062 61.2535 54.7679 61.4127 55.5714 61.7236C56.3749 62.0346 57.1043 62.4912 57.7174 63.0669C58.3339 63.6399 58.8224 64.3212 59.1549 65.0715C59.4875 65.8217 59.6573 66.626 59.6547 67.4379C59.6529 70.8443 56.6827 73.6164 53.0337 73.6164ZM56.6659 68.9887C56.4662 68.8952 55.4883 68.4464 55.3055 68.3843C55.1236 68.3222 54.9913 68.2916 54.8582 68.477C54.7251 68.6625 54.3435 69.0807 54.2273 69.2049C54.111 69.3291 53.9948 69.344 53.796 69.2512C53.5972 69.1585 52.9556 68.9623 52.1951 68.3297C51.6032 67.837 51.2039 67.2293 51.0876 67.043C50.9714 66.8567 51.0752 66.7565 51.1755 66.6637C51.2651 66.5809 51.3743 66.4468 51.4736 66.3383C51.573 66.2299 51.6059 66.1529 51.6724 66.0287C51.739 65.9045 51.7061 65.796 51.6556 65.7033C51.6059 65.6097 51.2074 64.6956 51.0415 64.3238C50.8809 63.9636 50.7167 64.0117 50.5942 64.0067C50.4674 64.0019 50.3405 63.9996 50.2135 64.0001C50.1126 64.0025 50.0133 64.0243 49.9218 64.0642C49.8303 64.1041 49.7487 64.1612 49.682 64.2319C49.4992 64.4182 48.9853 64.867 48.9853 65.7811C48.9853 66.6952 49.6988 67.5787 49.7982 67.7029C49.8976 67.8271 51.2021 69.7025 53.1988 70.5073C53.6744 70.6986 54.0454 70.8128 54.3338 70.8989C54.8103 71.0405 55.2442 71.0198 55.5877 70.9726C55.9701 70.9196 56.7653 70.5239 56.9312 70.09C57.0971 69.6561 57.0971 69.2843 57.0475 69.2065C56.9978 69.1287 56.8638 69.0815 56.6659 68.9887Z" fill="#D7BBFF"/>
<path d="M85.7045 60C85.2535 60.0032 84.8218 60.1838 84.5028 60.5028C84.1838 60.8218 84.0032 61.2535 84 61.7045V73.2955C84 74.2275 84.7725 75 85.7045 75H97.2955C98.2275 75 99 74.2275 99 73.2955V61.7045C99 60.7725 98.2275 60 97.2955 60H85.7045ZM85.7045 61.3636H97.2955C97.4898 61.3636 97.6364 61.5102 97.6364 61.7045V73.2955C97.6364 73.4898 97.4898 73.6364 97.2955 73.6364H85.7045C85.6595 73.6374 85.6147 73.6293 85.5729 73.6125C85.5311 73.5957 85.4931 73.5707 85.4612 73.5388C85.4293 73.5069 85.4043 73.4689 85.3875 73.4271C85.3707 73.3853 85.3626 73.3405 85.3636 73.2955V61.7045C85.3636 61.5102 85.5102 61.3636 85.7045 61.3636ZM87.7077 62.5357C87.5515 62.5319 87.3961 62.5594 87.2506 62.6166C87.1051 62.6738 86.9726 62.7595 86.8608 62.8687C86.7489 62.9779 86.66 63.1083 86.5994 63.2523C86.5387 63.3964 86.5074 63.5511 86.5074 63.7074C86.5074 63.8637 86.5387 64.0184 86.5994 64.1624C86.66 64.3065 86.7489 64.4369 86.8608 64.5461C86.9726 64.6553 87.1051 64.741 87.2506 64.7982C87.3961 64.8553 87.5515 64.8829 87.7077 64.8791C88.0136 64.8717 88.3044 64.745 88.5182 64.5261C88.7319 64.3072 88.8515 64.0133 88.8515 63.7074C88.8515 63.4014 88.7319 63.1076 88.5182 62.8887C88.3044 62.6697 88.0136 62.5431 87.7077 62.5357ZM93.8645 65.6461C92.8875 65.6461 92.2377 66.1814 91.9691 66.69H91.9261V65.7955H90.0082V72.2727H92.0114V69.0764C92.0114 68.2323 92.1791 67.4148 93.2257 67.4148C94.2566 67.4148 94.2702 68.368 94.2702 69.1193V72.2727H96.2727V68.7143C96.2727 66.973 95.9018 65.6461 93.8645 65.6461ZM86.7273 65.7955V72.2727H88.7516V65.7955H86.7273Z" fill="#D7BBFF"/>
<path d="M138 62.9168V72.0833C138 72.6035 137.595 73 137.062 73H136.125V64.6809L130.5 68.6317L124.875 64.6809V73H123.938C123.405 73 123 72.6035 123 72.0833V62.9168C123 62.6564 123.1 62.4273 123.269 62.265C123.356 62.1793 123.461 62.1117 123.576 62.0661C123.69 62.0206 123.814 61.9982 123.938 62.0001H124.25L130.5 66.4308L136.75 62.0001H137.062C137.329 62.0001 137.563 62.0982 137.731 62.265C137.9 62.4273 138 62.6564 138 62.9168Z" fill="#D7BBFF"/>
<rect x="224" y="45" width="58" height="33" rx="10" fill="#00EDDF"/>
<path d="M236.986 65C236.735 65 236.535 64.9307 236.388 64.792C236.249 64.6533 236.18 64.4583 236.18 64.207V56.628C236.18 56.3767 236.249 56.1817 236.388 56.043C236.535 55.9043 236.735 55.835 236.986 55.835H241.679C241.93 55.835 242.125 55.8913 242.264 56.004C242.403 56.1167 242.472 56.277 242.472 56.485C242.472 56.7017 242.403 56.8707 242.264 56.992C242.125 57.1047 241.93 57.161 241.679 57.161H237.818V59.683H241.419C241.67 59.683 241.865 59.7393 242.004 59.852C242.143 59.9647 242.212 60.1293 242.212 60.346C242.212 60.554 242.143 60.7143 242.004 60.827C241.865 60.9397 241.67 60.996 241.419 60.996H237.818V63.674H241.679C241.93 63.674 242.125 63.7347 242.264 63.856C242.403 63.9687 242.472 64.1333 242.472 64.35C242.472 64.558 242.403 64.7183 242.264 64.831C242.125 64.9437 241.93 65 241.679 65H236.986ZM247.384 58.487C248.147 58.487 248.715 58.7037 249.087 59.137C249.46 59.5703 249.646 60.2247 249.646 61.1V64.298C249.646 64.5407 249.573 64.7313 249.425 64.87C249.287 65.0087 249.092 65.078 248.84 65.078C248.589 65.078 248.39 65.0087 248.242 64.87C248.095 64.7313 248.021 64.5407 248.021 64.298V61.191C248.021 60.697 247.926 60.3373 247.735 60.112C247.553 59.8867 247.263 59.774 246.864 59.774C246.396 59.774 246.019 59.9213 245.733 60.216C245.456 60.5107 245.317 60.905 245.317 61.399V64.298C245.317 64.5407 245.244 64.7313 245.096 64.87C244.949 65.0087 244.75 65.078 244.498 65.078C244.247 65.078 244.048 65.0087 243.9 64.87C243.762 64.7313 243.692 64.5407 243.692 64.298V59.267C243.692 59.0417 243.766 58.8597 243.913 58.721C244.061 58.5823 244.26 58.513 244.511 58.513C244.737 58.513 244.919 58.5823 245.057 58.721C245.205 58.851 245.278 59.0243 245.278 59.241V59.592C245.495 59.2367 245.785 58.9637 246.149 58.773C246.513 58.5823 246.925 58.487 247.384 58.487ZM255.73 58.981C255.799 58.825 255.89 58.708 256.003 58.63C256.124 58.552 256.254 58.513 256.393 58.513C256.592 58.513 256.77 58.5823 256.926 58.721C257.09 58.851 257.173 59.0157 257.173 59.215C257.173 59.319 257.147 59.423 257.095 59.527L254.69 64.558C254.612 64.7227 254.499 64.8483 254.352 64.935C254.213 65.0217 254.057 65.065 253.884 65.065C253.719 65.065 253.559 65.0217 253.403 64.935C253.255 64.8483 253.143 64.7227 253.065 64.558L250.647 59.527C250.603 59.4403 250.582 59.3407 250.582 59.228C250.582 59.0287 250.664 58.8597 250.829 58.721C251.002 58.5823 251.197 58.513 251.414 58.513C251.726 58.513 251.955 58.6647 252.103 58.968L253.923 62.985L255.73 58.981ZM259.161 65.078C258.927 65.078 258.732 65.013 258.576 64.883C258.429 64.7443 258.355 64.5493 258.355 64.298V59.28C258.355 59.0287 258.429 58.838 258.576 58.708C258.732 58.578 258.927 58.513 259.161 58.513C259.395 58.513 259.59 58.578 259.746 58.708C259.902 58.838 259.98 59.0287 259.98 59.28V64.298C259.98 64.5493 259.902 64.7443 259.746 64.883C259.59 65.013 259.395 65.078 259.161 65.078ZM259.161 57.356C258.867 57.356 258.633 57.278 258.459 57.122C258.286 56.9573 258.199 56.745 258.199 56.485C258.199 56.225 258.286 56.017 258.459 55.861C258.633 55.705 258.867 55.627 259.161 55.627C259.447 55.627 259.677 55.705 259.85 55.861C260.032 56.017 260.123 56.225 260.123 56.485C260.123 56.745 260.037 56.9573 259.863 57.122C259.69 57.278 259.456 57.356 259.161 57.356ZM264.412 58.487C265.296 58.487 265.95 58.708 266.375 59.15C266.808 59.5833 267.025 60.2463 267.025 61.139V64.311C267.025 64.545 266.956 64.7313 266.817 64.87C266.678 65 266.488 65.065 266.245 65.065C266.02 65.065 265.833 64.9957 265.686 64.857C265.547 64.7183 265.478 64.5363 265.478 64.311V64.025C265.331 64.363 265.097 64.6273 264.776 64.818C264.464 65.0087 264.1 65.104 263.684 65.104C263.259 65.104 262.874 65.0173 262.527 64.844C262.18 64.6707 261.907 64.4323 261.708 64.129C261.509 63.8257 261.409 63.4877 261.409 63.115C261.409 62.647 261.526 62.2787 261.76 62.01C262.003 61.7413 262.393 61.5463 262.93 61.425C263.467 61.3037 264.208 61.243 265.153 61.243H265.478V60.944C265.478 60.5193 265.387 60.2117 265.205 60.021C265.023 59.8217 264.728 59.722 264.321 59.722C264.07 59.722 263.814 59.761 263.554 59.839C263.294 59.9083 262.986 60.0123 262.631 60.151C262.406 60.2637 262.241 60.32 262.137 60.32C261.981 60.32 261.851 60.2637 261.747 60.151C261.652 60.0383 261.604 59.891 261.604 59.709C261.604 59.5617 261.639 59.436 261.708 59.332C261.786 59.2193 261.912 59.1153 262.085 59.02C262.388 58.8553 262.748 58.7253 263.164 58.63C263.589 58.5347 264.005 58.487 264.412 58.487ZM264.009 63.934C264.442 63.934 264.793 63.791 265.062 63.505C265.339 63.2103 265.478 62.8333 265.478 62.374V62.101H265.244C264.663 62.101 264.213 62.127 263.892 62.179C263.571 62.231 263.342 62.322 263.203 62.452C263.064 62.582 262.995 62.7597 262.995 62.985C262.995 63.2623 263.09 63.492 263.281 63.674C263.48 63.8473 263.723 63.934 264.009 63.934ZM272.226 58.513C272.451 58.4957 272.629 58.5433 272.759 58.656C272.889 58.7687 272.954 58.9377 272.954 59.163C272.954 59.397 272.897 59.5703 272.785 59.683C272.672 59.7957 272.468 59.8693 272.174 59.904L271.784 59.943C271.272 59.995 270.895 60.1683 270.653 60.463C270.419 60.7577 270.302 61.126 270.302 61.568V64.298C270.302 64.5493 270.224 64.7443 270.068 64.883C269.912 65.013 269.717 65.078 269.483 65.078C269.249 65.078 269.054 65.013 268.898 64.883C268.75 64.7443 268.677 64.5493 268.677 64.298V59.267C268.677 59.0243 268.75 58.838 268.898 58.708C269.054 58.578 269.244 58.513 269.47 58.513C269.695 58.513 269.877 58.578 270.016 58.708C270.154 58.8293 270.224 59.007 270.224 59.241V59.761C270.388 59.3797 270.631 59.085 270.952 58.877C271.281 58.669 271.645 58.552 272.044 58.526L272.226 58.513Z" fill="#6200EE"/>
<path d="M274.682 69.3538C275.897 68.6525 277.45 69.0687 278.151 70.2833L283.495 76.677L276.618 80.6472L275.105 75.1661L273.753 72.823C273.051 71.6082 273.467 70.0551 274.682 69.3538Z" fill="#B14F0F"/>
<path d="M275.395 60.4309C276.61 59.7297 278.163 60.1458 278.864 61.3605L286.654 74.8525L282.255 77.3921L274.466 63.9C273.764 62.6853 274.181 61.1322 275.395 60.4309Z" fill="#C47A4A"/>
<path d="M289.392 98.6788L283.399 102.139L280.678 97.4264L274.853 95.046L268.909 84.751L277.399 79.1386L286.536 78.489L289.392 98.6788Z" fill="#C47A4A"/>
<path d="M282.138 82.2671C280.923 82.9684 279.37 82.5522 278.669 81.3375L277.399 79.1382L283.616 75.5487C286.152 74.0848 289.394 74.9536 290.858 77.4893L294.459 83.7263L293.608 89.9612L296.329 94.6738L289.392 98.6784L285.126 91.2883L284.526 90.2488C282.894 87.4236 283.024 83.9142 284.858 81.2167L285.44 80.3603L282.138 82.2671Z" fill="#E89A5E"/>
<path d="M268.552 79.0524C269.767 78.3512 271.32 78.7674 272.021 79.982L273.437 80.6509L273.308 82.2112C274.009 83.4259 273.593 84.9791 272.379 85.6804C271.164 86.3816 269.611 85.9655 268.909 84.7508L267.622 82.5217C266.921 81.3069 267.337 79.7537 268.552 79.0524Z" fill="#B14F0F"/>
<path d="M271.636 74.2366C272.851 73.5353 274.404 73.9514 275.105 75.1662L277.707 79.6721C278.408 80.8867 277.992 82.4399 276.777 83.1412C275.563 83.8425 274.01 83.4263 273.308 82.2117L270.707 77.7057C270.005 76.491 270.422 74.9379 271.636 74.2366Z" fill="#B14F0F"/>
</svg>
