<svg width="380" height="326" viewBox="0 0 380 326" fill="none" xmlns="http://www.w3.org/2000/svg">
<g filter="url(#filter0_dd)">
<rect x="8" y="9" width="364" height="305" rx="5" fill="white"/>
</g>
<rect x="110" y="108" width="168" height="29" rx="10" fill="#BD8FFF"/>
<path fill-rule="evenodd" clip-rule="evenodd" d="M140.43 114.787C140.43 114.624 140.363 114.467 140.244 114.351C140.126 114.235 139.964 114.17 139.796 114.17C139.628 114.17 139.467 114.235 139.348 114.351C139.229 114.467 139.162 114.624 139.162 114.787V116.021H137.894C137.726 116.021 137.565 116.086 137.446 116.202C137.327 116.318 137.26 116.475 137.26 116.638C137.26 116.802 137.327 116.959 137.446 117.075C137.565 117.191 137.726 117.256 137.894 117.256H139.162V118.49C139.162 118.653 139.229 118.81 139.348 118.926C139.467 119.042 139.628 119.107 139.796 119.107C139.964 119.107 140.126 119.042 140.244 118.926C140.363 118.81 140.43 118.653 140.43 118.49V117.256H141.698C141.866 117.256 142.027 117.191 142.146 117.075C142.265 116.959 142.332 116.802 142.332 116.638C142.332 116.475 142.265 116.318 142.146 116.202C142.027 116.086 141.866 116.021 141.698 116.021H140.43V114.787ZM135.358 119.107C135.358 119.434 135.225 119.748 134.987 119.979C134.749 120.211 134.427 120.341 134.091 120.341C133.754 120.341 133.432 120.211 133.194 119.979C132.956 119.748 132.823 119.434 132.823 119.107C132.823 118.779 132.956 118.465 133.194 118.234C133.432 118.003 133.754 117.873 134.091 117.873C134.427 117.873 134.749 118.003 134.987 118.234C135.225 118.465 135.358 118.779 135.358 119.107ZM136.626 119.107C136.626 119.761 136.359 120.389 135.884 120.852C135.408 121.315 134.763 121.575 134.091 121.575C133.418 121.575 132.773 121.315 132.297 120.852C131.822 120.389 131.555 119.761 131.555 119.107C131.555 118.452 131.822 117.824 132.297 117.361C132.773 116.899 133.418 116.638 134.091 116.638C134.763 116.638 135.408 116.899 135.884 117.361C136.359 117.824 136.626 118.452 136.626 119.107ZM130.287 125.277C130.287 124.786 130.487 124.315 130.844 123.968C131.201 123.621 131.684 123.426 132.189 123.426H135.992C136.497 123.426 136.981 123.621 137.337 123.968C137.694 124.315 137.894 124.786 137.894 125.277V125.894C137.894 126.057 137.961 126.214 138.08 126.33C138.199 126.446 138.36 126.511 138.528 126.511C138.696 126.511 138.858 126.446 138.977 126.33C139.095 126.214 139.162 126.057 139.162 125.894V125.277C139.162 124.459 138.828 123.674 138.234 123.095C137.639 122.517 136.833 122.192 135.992 122.192H132.189C131.348 122.192 130.542 122.517 129.947 123.095C129.353 123.674 129.019 124.459 129.019 125.277V125.894C129.019 126.057 129.086 126.214 129.205 126.33C129.323 126.446 129.485 126.511 129.653 126.511C129.821 126.511 129.982 126.446 130.101 126.33C130.22 126.214 130.287 126.057 130.287 125.894V125.277Z" fill="white"/>
<path d="M157.32 125.947C157.424 126.103 157.476 126.255 157.476 126.402C157.476 126.601 157.394 126.766 157.229 126.896C157.073 127.026 156.887 127.091 156.67 127.091C156.531 127.091 156.397 127.061 156.267 127C156.146 126.931 156.042 126.831 155.955 126.701L154.226 124.075C154.053 123.798 153.866 123.603 153.667 123.49C153.476 123.377 153.225 123.321 152.913 123.321H151.639V126.233C151.639 126.493 151.565 126.701 151.418 126.857C151.271 127.004 151.071 127.078 150.82 127.078C150.569 127.078 150.365 127.004 150.209 126.857C150.062 126.701 149.988 126.493 149.988 126.233V118.628C149.988 118.377 150.057 118.182 150.196 118.043C150.343 117.904 150.543 117.835 150.794 117.835H154.044C155.084 117.835 155.873 118.069 156.41 118.537C156.956 118.996 157.229 119.664 157.229 120.539C157.229 121.25 157.025 121.835 156.618 122.294C156.219 122.745 155.652 123.035 154.915 123.165C155.166 123.226 155.387 123.334 155.578 123.49C155.769 123.646 155.955 123.863 156.137 124.14L157.32 125.947ZM153.81 122.034C154.443 122.034 154.906 121.917 155.201 121.683C155.496 121.44 155.643 121.072 155.643 120.578C155.643 120.075 155.496 119.711 155.201 119.486C154.906 119.252 154.443 119.135 153.81 119.135H151.626V122.034H153.81ZM163.915 125.258C164.062 125.258 164.179 125.314 164.266 125.427C164.361 125.54 164.409 125.691 164.409 125.882C164.409 126.151 164.249 126.376 163.928 126.558C163.633 126.723 163.3 126.857 162.927 126.961C162.554 127.056 162.199 127.104 161.861 127.104C160.838 127.104 160.028 126.809 159.43 126.22C158.832 125.631 158.533 124.825 158.533 123.802C158.533 123.152 158.663 122.576 158.923 122.073C159.183 121.57 159.547 121.18 160.015 120.903C160.492 120.626 161.029 120.487 161.627 120.487C162.199 120.487 162.697 120.613 163.122 120.864C163.547 121.115 163.876 121.471 164.11 121.93C164.344 122.389 164.461 122.931 164.461 123.555C164.461 123.928 164.296 124.114 163.967 124.114H160.132C160.184 124.712 160.353 125.154 160.639 125.44C160.925 125.717 161.341 125.856 161.887 125.856C162.164 125.856 162.407 125.821 162.615 125.752C162.832 125.683 163.074 125.587 163.343 125.466C163.603 125.327 163.794 125.258 163.915 125.258ZM161.666 121.631C161.224 121.631 160.869 121.77 160.6 122.047C160.34 122.324 160.184 122.723 160.132 123.243H163.07C163.053 122.714 162.923 122.316 162.68 122.047C162.437 121.77 162.099 121.631 161.666 121.631ZM171.172 120.513C171.415 120.513 171.61 120.582 171.757 120.721C171.905 120.86 171.978 121.046 171.978 121.28V126.415C171.978 127.412 171.701 128.166 171.146 128.677C170.592 129.188 169.773 129.444 168.689 129.444C167.745 129.444 166.956 129.266 166.323 128.911C166.003 128.72 165.842 128.491 165.842 128.222C165.842 128.031 165.886 127.88 165.972 127.767C166.068 127.654 166.189 127.598 166.336 127.598C166.414 127.598 166.51 127.615 166.622 127.65C166.735 127.693 166.852 127.741 166.973 127.793C167.285 127.923 167.563 128.023 167.805 128.092C168.057 128.161 168.343 128.196 168.663 128.196C169.799 128.196 170.366 127.641 170.366 126.532V125.7C170.176 126.055 169.898 126.333 169.534 126.532C169.17 126.723 168.754 126.818 168.286 126.818C167.732 126.818 167.238 126.688 166.804 126.428C166.38 126.159 166.046 125.787 165.803 125.31C165.561 124.833 165.439 124.283 165.439 123.659C165.439 123.035 165.556 122.485 165.79 122.008C166.033 121.523 166.371 121.15 166.804 120.89C167.238 120.621 167.732 120.487 168.286 120.487C168.754 120.487 169.17 120.587 169.534 120.786C169.898 120.977 170.176 121.25 170.366 121.605V121.267C170.366 121.042 170.44 120.86 170.587 120.721C170.735 120.582 170.93 120.513 171.172 120.513ZM168.715 125.557C169.235 125.557 169.638 125.388 169.924 125.05C170.219 124.712 170.366 124.248 170.366 123.659C170.366 123.061 170.219 122.593 169.924 122.255C169.638 121.917 169.235 121.748 168.715 121.748C168.204 121.748 167.801 121.917 167.506 122.255C167.212 122.593 167.064 123.061 167.064 123.659C167.064 124.248 167.212 124.712 167.506 125.05C167.801 125.388 168.204 125.557 168.715 125.557ZM176.417 120.487C177.301 120.487 177.956 120.708 178.38 121.15C178.814 121.583 179.03 122.246 179.03 123.139V126.311C179.03 126.545 178.961 126.731 178.822 126.87C178.684 127 178.493 127.065 178.25 127.065C178.025 127.065 177.839 126.996 177.691 126.857C177.553 126.718 177.483 126.536 177.483 126.311V126.025C177.336 126.363 177.102 126.627 176.781 126.818C176.469 127.009 176.105 127.104 175.689 127.104C175.265 127.104 174.879 127.017 174.532 126.844C174.186 126.671 173.913 126.432 173.713 126.129C173.514 125.826 173.414 125.488 173.414 125.115C173.414 124.647 173.531 124.279 173.765 124.01C174.008 123.741 174.398 123.546 174.935 123.425C175.473 123.304 176.214 123.243 177.158 123.243H177.483V122.944C177.483 122.519 177.392 122.212 177.21 122.021C177.028 121.822 176.734 121.722 176.326 121.722C176.075 121.722 175.819 121.761 175.559 121.839C175.299 121.908 174.992 122.012 174.636 122.151C174.411 122.264 174.246 122.32 174.142 122.32C173.986 122.32 173.856 122.264 173.752 122.151C173.657 122.038 173.609 121.891 173.609 121.709C173.609 121.562 173.644 121.436 173.713 121.332C173.791 121.219 173.917 121.115 174.09 121.02C174.394 120.855 174.753 120.725 175.169 120.63C175.594 120.535 176.01 120.487 176.417 120.487ZM176.014 125.934C176.448 125.934 176.799 125.791 177.067 125.505C177.345 125.21 177.483 124.833 177.483 124.374V124.101H177.249C176.669 124.101 176.218 124.127 175.897 124.179C175.577 124.231 175.347 124.322 175.208 124.452C175.07 124.582 175 124.76 175 124.985C175 125.262 175.096 125.492 175.286 125.674C175.486 125.847 175.728 125.934 176.014 125.934ZM181.488 127.078C181.254 127.078 181.059 127.013 180.903 126.883C180.756 126.744 180.682 126.549 180.682 126.298V118.537C180.682 118.286 180.756 118.095 180.903 117.965C181.059 117.835 181.254 117.77 181.488 117.77C181.722 117.77 181.917 117.835 182.073 117.965C182.229 118.095 182.307 118.286 182.307 118.537V126.298C182.307 126.549 182.229 126.744 182.073 126.883C181.917 127.013 181.722 127.078 181.488 127.078ZM186.739 120.487C187.623 120.487 188.277 120.708 188.702 121.15C189.135 121.583 189.352 122.246 189.352 123.139V126.311C189.352 126.545 189.282 126.731 189.144 126.87C189.005 127 188.814 127.065 188.572 127.065C188.346 127.065 188.16 126.996 188.013 126.857C187.874 126.718 187.805 126.536 187.805 126.311V126.025C187.657 126.363 187.423 126.627 187.103 126.818C186.791 127.009 186.427 127.104 186.011 127.104C185.586 127.104 185.2 127.017 184.854 126.844C184.507 126.671 184.234 126.432 184.035 126.129C183.835 125.826 183.736 125.488 183.736 125.115C183.736 124.647 183.853 124.279 184.087 124.01C184.329 123.741 184.719 123.546 185.257 123.425C185.794 123.304 186.535 123.243 187.48 123.243H187.805V122.944C187.805 122.519 187.714 122.212 187.532 122.021C187.35 121.822 187.055 121.722 186.648 121.722C186.396 121.722 186.141 121.761 185.881 121.839C185.621 121.908 185.313 122.012 184.958 122.151C184.732 122.264 184.568 122.32 184.464 122.32C184.308 122.32 184.178 122.264 184.074 122.151C183.978 122.038 183.931 121.891 183.931 121.709C183.931 121.562 183.965 121.436 184.035 121.332C184.113 121.219 184.238 121.115 184.412 121.02C184.715 120.855 185.075 120.725 185.491 120.63C185.915 120.535 186.331 120.487 186.739 120.487ZM186.336 125.934C186.769 125.934 187.12 125.791 187.389 125.505C187.666 125.21 187.805 124.833 187.805 124.374V124.101H187.571C186.99 124.101 186.539 124.127 186.219 124.179C185.898 124.231 185.668 124.322 185.53 124.452C185.391 124.582 185.322 124.76 185.322 124.985C185.322 125.262 185.417 125.492 185.608 125.674C185.807 125.847 186.05 125.934 186.336 125.934ZM197.289 120.487C198.173 120.487 198.827 120.708 199.252 121.15C199.685 121.583 199.902 122.246 199.902 123.139V126.311C199.902 126.545 199.832 126.731 199.694 126.87C199.555 127 199.364 127.065 199.122 127.065C198.896 127.065 198.71 126.996 198.563 126.857C198.424 126.718 198.355 126.536 198.355 126.311V126.025C198.207 126.363 197.973 126.627 197.653 126.818C197.341 127.009 196.977 127.104 196.561 127.104C196.136 127.104 195.75 127.017 195.403 126.844C195.057 126.671 194.784 126.432 194.585 126.129C194.385 125.826 194.286 125.488 194.286 125.115C194.286 124.647 194.403 124.279 194.637 124.01C194.879 123.741 195.269 123.546 195.807 123.425C196.344 123.304 197.085 123.243 198.03 123.243H198.355V122.944C198.355 122.519 198.264 122.212 198.082 122.021C197.9 121.822 197.605 121.722 197.198 121.722C196.946 121.722 196.691 121.761 196.431 121.839C196.171 121.908 195.863 122.012 195.508 122.151C195.282 122.264 195.118 122.32 195.014 122.32C194.858 122.32 194.728 122.264 194.624 122.151C194.528 122.038 194.481 121.891 194.481 121.709C194.481 121.562 194.515 121.436 194.585 121.332C194.663 121.219 194.788 121.115 194.962 121.02C195.265 120.855 195.625 120.725 196.041 120.63C196.465 120.535 196.881 120.487 197.289 120.487ZM196.886 125.934C197.319 125.934 197.67 125.791 197.939 125.505C198.216 125.21 198.355 124.833 198.355 124.374V124.101H198.121C197.54 124.101 197.089 124.127 196.769 124.179C196.448 124.231 196.218 124.322 196.08 124.452C195.941 124.582 195.872 124.76 195.872 124.985C195.872 125.262 195.967 125.492 196.158 125.674C196.357 125.847 196.6 125.934 196.886 125.934ZM210.1 120.513C210.352 120.513 210.551 120.582 210.698 120.721C210.846 120.86 210.919 121.046 210.919 121.28V126.324C210.919 126.549 210.841 126.731 210.685 126.87C210.538 127.009 210.343 127.078 210.1 127.078C209.866 127.078 209.68 127.013 209.541 126.883C209.403 126.753 209.333 126.575 209.333 126.35V126.025C209.134 126.372 208.865 126.64 208.527 126.831C208.189 127.013 207.808 127.104 207.383 127.104C205.823 127.104 205.043 126.229 205.043 124.478V121.28C205.043 121.046 205.117 120.86 205.264 120.721C205.412 120.582 205.607 120.513 205.849 120.513C206.101 120.513 206.3 120.582 206.447 120.721C206.595 120.86 206.668 121.046 206.668 121.28V124.491C206.668 124.942 206.759 125.275 206.941 125.492C207.123 125.709 207.409 125.817 207.799 125.817C208.25 125.817 208.61 125.67 208.878 125.375C209.156 125.072 209.294 124.673 209.294 124.179V121.28C209.294 121.046 209.368 120.86 209.515 120.721C209.663 120.582 209.858 120.513 210.1 120.513ZM216.303 120.487C217.065 120.487 217.633 120.704 218.006 121.137C218.378 121.57 218.565 122.225 218.565 123.1V126.298C218.565 126.541 218.491 126.731 218.344 126.87C218.205 127.009 218.01 127.078 217.759 127.078C217.507 127.078 217.308 127.009 217.161 126.87C217.013 126.731 216.94 126.541 216.94 126.298V123.191C216.94 122.697 216.844 122.337 216.654 122.112C216.472 121.887 216.181 121.774 215.783 121.774C215.315 121.774 214.938 121.921 214.652 122.216C214.374 122.511 214.236 122.905 214.236 123.399V126.298C214.236 126.541 214.162 126.731 214.015 126.87C213.867 127.009 213.668 127.078 213.417 127.078C213.165 127.078 212.966 127.009 212.819 126.87C212.68 126.731 212.611 126.541 212.611 126.298V121.267C212.611 121.042 212.684 120.86 212.832 120.721C212.979 120.582 213.178 120.513 213.43 120.513C213.655 120.513 213.837 120.582 213.976 120.721C214.123 120.851 214.197 121.024 214.197 121.241V121.592C214.413 121.237 214.704 120.964 215.068 120.773C215.432 120.582 215.843 120.487 216.303 120.487ZM226.5 120.487C227.384 120.487 228.039 120.708 228.463 121.15C228.897 121.583 229.113 122.246 229.113 123.139V126.311C229.113 126.545 229.044 126.731 228.905 126.87C228.767 127 228.576 127.065 228.333 127.065C228.108 127.065 227.922 126.996 227.774 126.857C227.636 126.718 227.566 126.536 227.566 126.311V126.025C227.419 126.363 227.185 126.627 226.864 126.818C226.552 127.009 226.188 127.104 225.772 127.104C225.348 127.104 224.962 127.017 224.615 126.844C224.269 126.671 223.996 126.432 223.796 126.129C223.597 125.826 223.497 125.488 223.497 125.115C223.497 124.647 223.614 124.279 223.848 124.01C224.091 123.741 224.481 123.546 225.018 123.425C225.556 123.304 226.297 123.243 227.241 123.243H227.566V122.944C227.566 122.519 227.475 122.212 227.293 122.021C227.111 121.822 226.817 121.722 226.409 121.722C226.158 121.722 225.902 121.761 225.642 121.839C225.382 121.908 225.075 122.012 224.719 122.151C224.494 122.264 224.329 122.32 224.225 122.32C224.069 122.32 223.939 122.264 223.835 122.151C223.74 122.038 223.692 121.891 223.692 121.709C223.692 121.562 223.727 121.436 223.796 121.332C223.874 121.219 224 121.115 224.173 121.02C224.477 120.855 224.836 120.725 225.252 120.63C225.677 120.535 226.093 120.487 226.5 120.487ZM226.097 125.934C226.531 125.934 226.882 125.791 227.15 125.505C227.428 125.21 227.566 124.833 227.566 124.374V124.101H227.332C226.752 124.101 226.301 124.127 225.98 124.179C225.66 124.231 225.43 124.322 225.291 124.452C225.153 124.582 225.083 124.76 225.083 124.985C225.083 125.262 225.179 125.492 225.369 125.674C225.569 125.847 225.811 125.934 226.097 125.934ZM238.318 120.487C239.011 120.487 239.54 120.695 239.904 121.111C240.277 121.518 240.463 122.181 240.463 123.1V126.298C240.463 126.549 240.385 126.744 240.229 126.883C240.082 127.013 239.887 127.078 239.644 127.078C239.41 127.078 239.215 127.013 239.059 126.883C238.912 126.744 238.838 126.549 238.838 126.298V123.1C238.838 122.623 238.751 122.285 238.578 122.086C238.413 121.878 238.158 121.774 237.811 121.774C237.386 121.774 237.048 121.921 236.797 122.216C236.546 122.502 236.42 122.896 236.42 123.399V126.298C236.42 126.549 236.342 126.744 236.186 126.883C236.039 127.013 235.848 127.078 235.614 127.078C235.38 127.078 235.185 127.013 235.029 126.883C234.873 126.744 234.795 126.549 234.795 126.298V123.1C234.795 122.623 234.708 122.285 234.535 122.086C234.37 121.878 234.115 121.774 233.768 121.774C233.343 121.774 233.005 121.921 232.754 122.216C232.511 122.502 232.39 122.896 232.39 123.399V126.298C232.39 126.549 232.312 126.744 232.156 126.883C232 127.013 231.805 127.078 231.571 127.078C231.337 127.078 231.142 127.013 230.986 126.883C230.839 126.744 230.765 126.549 230.765 126.298V121.267C230.765 121.024 230.843 120.838 230.999 120.708C231.155 120.578 231.35 120.513 231.584 120.513C231.809 120.513 231.991 120.578 232.13 120.708C232.277 120.829 232.351 121.007 232.351 121.241V121.553C232.55 121.206 232.815 120.942 233.144 120.76C233.482 120.578 233.868 120.487 234.301 120.487C235.254 120.487 235.891 120.886 236.212 121.683C236.403 121.319 236.684 121.029 237.057 120.812C237.43 120.595 237.85 120.487 238.318 120.487ZM242.921 127.078C242.687 127.078 242.492 127.013 242.336 126.883C242.188 126.744 242.115 126.549 242.115 126.298V121.28C242.115 121.029 242.188 120.838 242.336 120.708C242.492 120.578 242.687 120.513 242.921 120.513C243.155 120.513 243.35 120.578 243.506 120.708C243.662 120.838 243.74 121.029 243.74 121.28V126.298C243.74 126.549 243.662 126.744 243.506 126.883C243.35 127.013 243.155 127.078 242.921 127.078ZM242.921 119.356C242.626 119.356 242.392 119.278 242.219 119.122C242.045 118.957 241.959 118.745 241.959 118.485C241.959 118.225 242.045 118.017 242.219 117.861C242.392 117.705 242.626 117.627 242.921 117.627C243.207 117.627 243.436 117.705 243.61 117.861C243.792 118.017 243.883 118.225 243.883 118.485C243.883 118.745 243.796 118.957 243.623 119.122C243.449 119.278 243.215 119.356 242.921 119.356ZM250.797 120.513C251.04 120.513 251.235 120.582 251.382 120.721C251.53 120.86 251.603 121.046 251.603 121.28V126.415C251.603 127.412 251.326 128.166 250.771 128.677C250.217 129.188 249.398 129.444 248.314 129.444C247.37 129.444 246.581 129.266 245.948 128.911C245.628 128.72 245.467 128.491 245.467 128.222C245.467 128.031 245.511 127.88 245.597 127.767C245.693 127.654 245.814 127.598 245.961 127.598C246.039 127.598 246.135 127.615 246.247 127.65C246.36 127.693 246.477 127.741 246.598 127.793C246.91 127.923 247.188 128.023 247.43 128.092C247.682 128.161 247.968 128.196 248.288 128.196C249.424 128.196 249.991 127.641 249.991 126.532V125.7C249.801 126.055 249.523 126.333 249.159 126.532C248.795 126.723 248.379 126.818 247.911 126.818C247.357 126.818 246.863 126.688 246.429 126.428C246.005 126.159 245.671 125.787 245.428 125.31C245.186 124.833 245.064 124.283 245.064 123.659C245.064 123.035 245.181 122.485 245.415 122.008C245.658 121.523 245.996 121.15 246.429 120.89C246.863 120.621 247.357 120.487 247.911 120.487C248.379 120.487 248.795 120.587 249.159 120.786C249.523 120.977 249.801 121.25 249.991 121.605V121.267C249.991 121.042 250.065 120.86 250.212 120.721C250.36 120.582 250.555 120.513 250.797 120.513ZM248.34 125.557C248.86 125.557 249.263 125.388 249.549 125.05C249.844 124.712 249.991 124.248 249.991 123.659C249.991 123.061 249.844 122.593 249.549 122.255C249.263 121.917 248.86 121.748 248.34 121.748C247.829 121.748 247.426 121.917 247.131 122.255C246.837 122.593 246.689 123.061 246.689 123.659C246.689 124.248 246.837 124.712 247.131 125.05C247.426 125.388 247.829 125.557 248.34 125.557ZM256.185 127.104C255.535 127.104 254.963 126.97 254.469 126.701C253.984 126.432 253.607 126.047 253.338 125.544C253.07 125.041 252.935 124.456 252.935 123.789C252.935 123.122 253.07 122.541 253.338 122.047C253.607 121.544 253.984 121.159 254.469 120.89C254.963 120.621 255.535 120.487 256.185 120.487C256.835 120.487 257.403 120.621 257.888 120.89C258.382 121.159 258.759 121.544 259.019 122.047C259.288 122.541 259.422 123.122 259.422 123.789C259.422 124.456 259.288 125.041 259.019 125.544C258.759 126.047 258.382 126.432 257.888 126.701C257.403 126.97 256.835 127.104 256.185 127.104ZM256.172 125.843C256.701 125.843 257.104 125.67 257.381 125.323C257.659 124.976 257.797 124.465 257.797 123.789C257.797 123.122 257.659 122.615 257.381 122.268C257.104 121.913 256.705 121.735 256.185 121.735C255.665 121.735 255.262 121.913 254.976 122.268C254.699 122.615 254.56 123.122 254.56 123.789C254.56 124.465 254.699 124.976 254.976 125.323C255.254 125.67 255.652 125.843 256.172 125.843Z" fill="white"/>
<path d="M100 124.047C92.8333 123.547 77.1 126.847 71.5 144.047" stroke="#999999" stroke-width="2" stroke-linecap="round"/>
<path d="M68 137.047L71 144.047" stroke="#999999" stroke-width="2" stroke-linecap="round"/>
<path d="M78 140.547L71.5 144.547" stroke="#999999" stroke-width="2" stroke-linecap="round"/>
<path d="M208.023 183.753C213.98 187.77 229.255 192.779 242.705 180.683" stroke="#999999" stroke-width="2" stroke-linecap="round"/>
<path d="M242.236 188.495L243.138 180.933" stroke="#999999" stroke-width="2" stroke-linecap="round"/>
<path d="M235.326 180.464L242.955 180.25" stroke="#999999" stroke-width="2" stroke-linecap="round"/>
<circle cx="54.5" cy="175.5" r="13.5" fill="#6200EE"/>
<circle cx="132.5" cy="175.5" r="13.5" fill="#6200EE"/>
<circle cx="93.5" cy="175.5" r="13.5" fill="#6200EE"/>
<circle cx="171.5" cy="175.5" r="13.5" fill="#6200EE"/>
<path d="M54.5 168C52.4612 168 52.2071 168.01 51.4091 168.044C50.608 168.083 50.066 168.207 49.5878 168.393C49.0874 168.582 48.6341 168.878 48.2597 169.26C47.8766 169.633 47.5806 170.087 47.3929 170.588C47.2072 171.066 47.083 171.608 47.0436 172.409C47.0075 173.208 47 173.461 47 175.5C47 177.539 47.0098 177.793 47.0436 178.591C47.083 179.39 47.2072 179.934 47.3929 180.412C47.5818 180.913 47.8776 181.366 48.2597 181.74C48.6332 182.123 49.0867 182.419 49.5878 182.607C50.066 182.79 50.6103 182.917 51.4091 182.956C52.2075 182.992 52.4612 183 54.5 183C56.5388 183 56.7929 182.99 57.5909 182.956C58.3897 182.917 58.934 182.79 59.4122 182.607C59.9126 182.418 60.3659 182.122 60.7403 181.74C61.1239 181.367 61.42 180.914 61.6071 180.412C61.7904 179.934 61.917 179.39 61.9564 178.591C61.9925 177.792 62 177.539 62 175.5C62 173.461 61.9902 173.207 61.9564 172.409C61.917 171.61 61.79 171.063 61.6071 170.588C61.4182 170.087 61.1224 169.634 60.7403 169.26C60.3672 168.876 59.9136 168.58 59.4122 168.393C58.934 168.207 58.3897 168.083 57.5909 168.044C56.7925 168.008 56.5388 168 54.5 168ZM54.5 169.35C56.5023 169.35 56.7414 169.36 57.5327 169.394C58.2627 169.428 58.6602 169.55 58.9241 169.653C59.2504 169.773 59.5458 169.965 59.7886 170.214C60.0372 170.456 60.2282 170.751 60.3474 171.076C60.4506 171.34 60.5725 171.738 60.6067 172.468C60.6405 173.259 60.6503 173.499 60.6503 175.5C60.6503 177.502 60.6405 177.742 60.6039 178.533C60.5645 179.263 60.4426 179.661 60.3399 179.925C60.1979 180.277 60.0394 180.523 59.7778 180.789C59.5342 181.037 59.239 181.227 58.9134 181.348C58.6527 181.451 58.2495 181.573 57.5168 181.607C56.7212 181.641 56.4868 181.651 54.4794 181.651C52.4719 181.651 52.238 181.641 51.4415 181.604C50.7116 181.565 50.3089 181.443 50.0449 181.34C49.6886 181.198 49.4444 181.04 49.1828 180.778C48.9188 180.514 48.751 180.263 48.6216 179.914C48.5166 179.653 48.3966 179.25 48.3577 178.517C48.3309 177.731 48.3183 177.487 48.3183 175.489C48.3183 173.492 48.3309 173.248 48.3577 172.452C48.3966 171.719 48.5166 171.317 48.6216 171.055C48.751 170.698 48.9193 170.455 49.1828 170.191C49.4439 169.93 49.6886 169.761 50.0449 169.629C50.3089 169.526 50.7017 169.404 51.4345 169.368C52.23 169.339 52.4644 169.329 54.4691 169.329L54.5 169.35ZM54.5 171.651C53.9943 171.65 53.4936 171.75 53.0263 171.943C52.5591 172.137 52.1346 172.42 51.777 172.778C51.4194 173.136 51.1358 173.56 50.9424 174.027C50.749 174.494 50.6495 174.995 50.6497 175.501C50.6495 176.007 50.749 176.507 50.9424 176.975C51.1358 177.442 51.4194 177.866 51.777 178.224C52.1346 178.582 52.5591 178.865 53.0263 179.059C53.4936 179.252 53.9943 179.351 54.5 179.351C55.0057 179.351 55.5064 179.252 55.9737 179.059C56.4409 178.865 56.8654 178.582 57.223 178.224C57.5806 177.866 57.8642 177.442 58.0576 176.975C58.251 176.507 58.3505 176.007 58.3503 175.501C58.3505 174.995 58.251 174.494 58.0576 174.027C57.8642 173.56 57.5806 173.136 57.223 172.778C56.8654 172.42 56.4409 172.137 55.9737 171.943C55.5064 171.75 55.0057 171.65 54.5 171.651ZM54.5 178.001C53.118 178.001 51.9998 176.883 51.9998 175.501C51.9998 174.119 53.118 173.001 54.5 173.001C55.882 173.001 57.0002 174.119 57.0002 175.501C57.0002 176.883 55.882 178.001 54.5 178.001ZM59.4056 171.497C59.4054 171.736 59.3103 171.965 59.1412 172.134C58.9722 172.303 58.743 172.397 58.5041 172.397C58.386 172.397 58.269 172.374 58.1598 172.329C58.0507 172.284 57.9515 172.217 57.868 172.134C57.7844 172.05 57.7181 171.951 57.6729 171.842C57.6277 171.733 57.6045 171.616 57.6045 171.498C57.6045 171.38 57.6277 171.263 57.6729 171.154C57.7181 171.044 57.7844 170.945 57.868 170.862C57.9515 170.778 58.0507 170.712 58.1598 170.667C58.269 170.621 58.386 170.598 58.5041 170.598C58.9996 170.598 59.4056 171.001 59.4056 171.497Z" fill="#D7BBFF"/>
<path fill-rule="evenodd" clip-rule="evenodd" d="M99.6687 170.18C98.9307 169.487 98.0527 168.937 97.0854 168.563C96.1181 168.189 95.0808 167.998 94.0337 168C89.6428 168 86.0683 171.334 86.0666 175.433C86.0666 176.743 86.4331 178.021 87.1297 179.149L86 183L90.2232 181.966C91.3914 182.559 92.7001 182.87 94.0302 182.871H94.0337C98.4237 182.871 101.998 179.536 102 175.438C102.003 174.461 101.799 173.494 101.398 172.591C100.998 171.689 100.41 170.869 99.6687 170.18ZM94.0337 181.616H94.031C92.845 181.617 91.6809 181.319 90.6607 180.754L90.4193 180.62L87.9133 181.234L88.5815 178.954L88.4244 178.721C87.7613 177.736 87.4103 176.596 87.4119 175.433C87.4136 172.027 90.3838 169.255 94.0364 169.255C94.9062 169.253 95.7679 169.413 96.5714 169.724C97.3749 170.035 98.1043 170.491 98.7174 171.067C99.3339 171.64 99.8224 172.321 100.155 173.071C100.487 173.822 100.657 174.626 100.655 175.438C100.653 178.844 97.6827 181.616 94.0337 181.616ZM97.6659 176.989C97.4662 176.895 96.4883 176.446 96.3055 176.384C96.1236 176.322 95.9913 176.292 95.8582 176.477C95.7251 176.663 95.3435 177.081 95.2273 177.205C95.111 177.329 94.9948 177.344 94.796 177.251C94.5972 177.158 93.9556 176.962 93.1951 176.33C92.6032 175.837 92.2039 175.229 92.0876 175.043C91.9714 174.857 92.0752 174.756 92.1755 174.664C92.2651 174.581 92.3743 174.447 92.4736 174.338C92.573 174.23 92.6059 174.153 92.6724 174.029C92.739 173.904 92.7061 173.796 92.6556 173.703C92.6059 173.61 92.2074 172.696 92.0415 172.324C91.8809 171.964 91.7167 172.012 91.5942 172.007C91.4674 172.002 91.3405 172 91.2135 172C91.1126 172.002 91.0133 172.024 90.9218 172.064C90.8303 172.104 90.7487 172.161 90.682 172.232C90.4992 172.418 89.9853 172.867 89.9853 173.781C89.9853 174.695 90.6988 175.579 90.7982 175.703C90.8976 175.827 92.2021 177.702 94.1988 178.507C94.6744 178.699 95.0454 178.813 95.3338 178.899C95.8103 179.041 96.2442 179.02 96.5877 178.973C96.9701 178.92 97.7653 178.524 97.9312 178.09C98.0971 177.656 98.0971 177.284 98.0475 177.207C97.9978 177.129 97.8638 177.081 97.6659 176.989Z" fill="#D7BBFF"/>
<path d="M126.705 168C126.253 168.003 125.822 168.184 125.503 168.503C125.184 168.822 125.003 169.253 125 169.705V181.295C125 182.227 125.773 183 126.705 183H138.295C139.227 183 140 182.227 140 181.295V169.705C140 168.773 139.227 168 138.295 168H126.705ZM126.705 169.364H138.295C138.49 169.364 138.636 169.51 138.636 169.705V181.295C138.636 181.49 138.49 181.636 138.295 181.636H126.705C126.659 181.637 126.615 181.629 126.573 181.613C126.531 181.596 126.493 181.571 126.461 181.539C126.429 181.507 126.404 181.469 126.387 181.427C126.371 181.385 126.363 181.341 126.364 181.295V169.705C126.364 169.51 126.51 169.364 126.705 169.364ZM128.708 170.536C128.551 170.532 128.396 170.559 128.251 170.617C128.105 170.674 127.973 170.76 127.861 170.869C127.749 170.978 127.66 171.108 127.599 171.252C127.539 171.396 127.507 171.551 127.507 171.707C127.507 171.864 127.539 172.018 127.599 172.162C127.66 172.306 127.749 172.437 127.861 172.546C127.973 172.655 128.105 172.741 128.251 172.798C128.396 172.855 128.551 172.883 128.708 172.879C129.014 172.872 129.304 172.745 129.518 172.526C129.732 172.307 129.852 172.013 129.852 171.707C129.852 171.401 129.732 171.108 129.518 170.889C129.304 170.67 129.014 170.543 128.708 170.536ZM134.865 173.646C133.888 173.646 133.238 174.181 132.969 174.69H132.926V173.795H131.008V180.273H133.011V177.076C133.011 176.232 133.179 175.415 134.226 175.415C135.257 175.415 135.27 176.368 135.27 177.119V180.273H137.273V176.714C137.273 174.973 136.902 173.646 134.865 173.646ZM127.727 173.795V180.273H129.752V173.795H127.727Z" fill="#D7BBFF"/>
<path d="M179 170.917V180.083C179 180.604 178.595 181 178.062 181H177.125V172.681L171.5 176.632L165.875 172.681V181H164.938C164.405 181 164 180.604 164 180.083V170.917C164 170.656 164.1 170.427 164.269 170.265C164.356 170.179 164.461 170.112 164.576 170.066C164.69 170.021 164.814 169.998 164.938 170H165.25L171.5 174.431L177.75 170H178.062C178.329 170 178.563 170.098 178.731 170.265C178.9 170.427 179 170.656 179 170.917Z" fill="#D7BBFF"/>
<rect x="265" y="153" width="58" height="33" rx="10" fill="#00EDDF"/>
<path d="M277.986 173C277.735 173 277.535 172.931 277.388 172.792C277.249 172.653 277.18 172.458 277.18 172.207V164.628C277.18 164.377 277.249 164.182 277.388 164.043C277.535 163.904 277.735 163.835 277.986 163.835H282.679C282.93 163.835 283.125 163.891 283.264 164.004C283.403 164.117 283.472 164.277 283.472 164.485C283.472 164.702 283.403 164.871 283.264 164.992C283.125 165.105 282.93 165.161 282.679 165.161H278.818V167.683H282.419C282.67 167.683 282.865 167.739 283.004 167.852C283.143 167.965 283.212 168.129 283.212 168.346C283.212 168.554 283.143 168.714 283.004 168.827C282.865 168.94 282.67 168.996 282.419 168.996H278.818V171.674H282.679C282.93 171.674 283.125 171.735 283.264 171.856C283.403 171.969 283.472 172.133 283.472 172.35C283.472 172.558 283.403 172.718 283.264 172.831C283.125 172.944 282.93 173 282.679 173H277.986ZM288.384 166.487C289.147 166.487 289.715 166.704 290.087 167.137C290.46 167.57 290.646 168.225 290.646 169.1V172.298C290.646 172.541 290.573 172.731 290.425 172.87C290.287 173.009 290.092 173.078 289.84 173.078C289.589 173.078 289.39 173.009 289.242 172.87C289.095 172.731 289.021 172.541 289.021 172.298V169.191C289.021 168.697 288.926 168.337 288.735 168.112C288.553 167.887 288.263 167.774 287.864 167.774C287.396 167.774 287.019 167.921 286.733 168.216C286.456 168.511 286.317 168.905 286.317 169.399V172.298C286.317 172.541 286.244 172.731 286.096 172.87C285.949 173.009 285.75 173.078 285.498 173.078C285.247 173.078 285.048 173.009 284.9 172.87C284.762 172.731 284.692 172.541 284.692 172.298V167.267C284.692 167.042 284.766 166.86 284.913 166.721C285.061 166.582 285.26 166.513 285.511 166.513C285.737 166.513 285.919 166.582 286.057 166.721C286.205 166.851 286.278 167.024 286.278 167.241V167.592C286.495 167.237 286.785 166.964 287.149 166.773C287.513 166.582 287.925 166.487 288.384 166.487ZM296.73 166.981C296.799 166.825 296.89 166.708 297.003 166.63C297.124 166.552 297.254 166.513 297.393 166.513C297.592 166.513 297.77 166.582 297.926 166.721C298.09 166.851 298.173 167.016 298.173 167.215C298.173 167.319 298.147 167.423 298.095 167.527L295.69 172.558C295.612 172.723 295.499 172.848 295.352 172.935C295.213 173.022 295.057 173.065 294.884 173.065C294.719 173.065 294.559 173.022 294.403 172.935C294.255 172.848 294.143 172.723 294.065 172.558L291.647 167.527C291.603 167.44 291.582 167.341 291.582 167.228C291.582 167.029 291.664 166.86 291.829 166.721C292.002 166.582 292.197 166.513 292.414 166.513C292.726 166.513 292.955 166.665 293.103 166.968L294.923 170.985L296.73 166.981ZM300.161 173.078C299.927 173.078 299.732 173.013 299.576 172.883C299.429 172.744 299.355 172.549 299.355 172.298V167.28C299.355 167.029 299.429 166.838 299.576 166.708C299.732 166.578 299.927 166.513 300.161 166.513C300.395 166.513 300.59 166.578 300.746 166.708C300.902 166.838 300.98 167.029 300.98 167.28V172.298C300.98 172.549 300.902 172.744 300.746 172.883C300.59 173.013 300.395 173.078 300.161 173.078ZM300.161 165.356C299.867 165.356 299.633 165.278 299.459 165.122C299.286 164.957 299.199 164.745 299.199 164.485C299.199 164.225 299.286 164.017 299.459 163.861C299.633 163.705 299.867 163.627 300.161 163.627C300.447 163.627 300.677 163.705 300.85 163.861C301.032 164.017 301.123 164.225 301.123 164.485C301.123 164.745 301.037 164.957 300.863 165.122C300.69 165.278 300.456 165.356 300.161 165.356ZM305.412 166.487C306.296 166.487 306.95 166.708 307.375 167.15C307.808 167.583 308.025 168.246 308.025 169.139V172.311C308.025 172.545 307.956 172.731 307.817 172.87C307.678 173 307.488 173.065 307.245 173.065C307.02 173.065 306.833 172.996 306.686 172.857C306.547 172.718 306.478 172.536 306.478 172.311V172.025C306.331 172.363 306.097 172.627 305.776 172.818C305.464 173.009 305.1 173.104 304.684 173.104C304.259 173.104 303.874 173.017 303.527 172.844C303.18 172.671 302.907 172.432 302.708 172.129C302.509 171.826 302.409 171.488 302.409 171.115C302.409 170.647 302.526 170.279 302.76 170.01C303.003 169.741 303.393 169.546 303.93 169.425C304.467 169.304 305.208 169.243 306.153 169.243H306.478V168.944C306.478 168.519 306.387 168.212 306.205 168.021C306.023 167.822 305.728 167.722 305.321 167.722C305.07 167.722 304.814 167.761 304.554 167.839C304.294 167.908 303.986 168.012 303.631 168.151C303.406 168.264 303.241 168.32 303.137 168.32C302.981 168.32 302.851 168.264 302.747 168.151C302.652 168.038 302.604 167.891 302.604 167.709C302.604 167.562 302.639 167.436 302.708 167.332C302.786 167.219 302.912 167.115 303.085 167.02C303.388 166.855 303.748 166.725 304.164 166.63C304.589 166.535 305.005 166.487 305.412 166.487ZM305.009 171.934C305.442 171.934 305.793 171.791 306.062 171.505C306.339 171.21 306.478 170.833 306.478 170.374V170.101H306.244C305.663 170.101 305.213 170.127 304.892 170.179C304.571 170.231 304.342 170.322 304.203 170.452C304.064 170.582 303.995 170.76 303.995 170.985C303.995 171.262 304.09 171.492 304.281 171.674C304.48 171.847 304.723 171.934 305.009 171.934ZM313.226 166.513C313.451 166.496 313.629 166.543 313.759 166.656C313.889 166.769 313.954 166.938 313.954 167.163C313.954 167.397 313.897 167.57 313.785 167.683C313.672 167.796 313.468 167.869 313.174 167.904L312.784 167.943C312.272 167.995 311.895 168.168 311.653 168.463C311.419 168.758 311.302 169.126 311.302 169.568V172.298C311.302 172.549 311.224 172.744 311.068 172.883C310.912 173.013 310.717 173.078 310.483 173.078C310.249 173.078 310.054 173.013 309.898 172.883C309.75 172.744 309.677 172.549 309.677 172.298V167.267C309.677 167.024 309.75 166.838 309.898 166.708C310.054 166.578 310.244 166.513 310.47 166.513C310.695 166.513 310.877 166.578 311.016 166.708C311.154 166.829 311.224 167.007 311.224 167.241V167.761C311.388 167.38 311.631 167.085 311.952 166.877C312.281 166.669 312.645 166.552 313.044 166.526L313.226 166.513Z" fill="#6200EE"/>
<path d="M315.682 177.354C316.897 176.653 318.45 177.069 319.151 178.283L324.495 184.677L317.618 188.647L316.105 183.166L314.753 180.823C314.051 179.608 314.467 178.055 315.682 177.354Z" fill="#B14F0F"/>
<path d="M316.395 168.431C317.61 167.73 319.163 168.146 319.864 169.36L327.654 182.853L323.255 185.392L315.466 171.9C314.764 170.685 315.181 169.132 316.395 168.431Z" fill="#C47A4A"/>
<path d="M330.392 206.679L324.399 210.139L321.678 205.426L315.853 203.046L309.909 192.751L318.399 187.139L327.536 186.489L330.392 206.679Z" fill="#C47A4A"/>
<path d="M323.138 190.267C321.923 190.968 320.37 190.552 319.669 189.338L318.399 187.138L324.616 183.549C327.152 182.085 330.394 182.954 331.858 185.489L335.459 191.726L334.608 197.961L337.329 202.674L330.392 206.678L326.126 199.288L325.526 198.249C323.894 195.424 324.024 191.914 325.858 189.217L326.44 188.36L323.138 190.267Z" fill="#E89A5E"/>
<path d="M309.552 187.052C310.767 186.351 312.32 186.767 313.021 187.982L314.437 188.651L314.308 190.211C315.009 191.426 314.593 192.979 313.379 193.68C312.164 194.382 310.611 193.965 309.909 192.751L308.622 190.522C307.921 189.307 308.337 187.754 309.552 187.052Z" fill="#B14F0F"/>
<path d="M312.636 182.237C313.851 181.535 315.404 181.951 316.105 183.166L318.707 187.672C319.408 188.887 318.992 190.44 317.777 191.141C316.563 191.843 315.01 191.426 314.308 190.212L311.707 185.706C311.005 184.491 311.422 182.938 312.636 182.237Z" fill="#B14F0F"/>
<defs>
<filter id="filter0_dd" x="0" y="0" width="380" height="326" filterUnits="userSpaceOnUse" color-interpolation-filters="sRGB">
<feFlood flood-opacity="0" result="BackgroundImageFix"/>
<feColorMatrix in="SourceAlpha" type="matrix" values="0 0 0 0 0 0 0 0 0 0 0 0 0 0 0 0 0 0 127 0"/>
<feOffset dy="4"/>
<feGaussianBlur stdDeviation="4"/>
<feColorMatrix type="matrix" values="0 0 0 0 0 0 0 0 0 0 0 0 0 0 0 0 0 0 0.18 0"/>
<feBlend mode="normal" in2="BackgroundImageFix" result="effect1_dropShadow"/>
<feColorMatrix in="SourceAlpha" type="matrix" values="0 0 0 0 0 0 0 0 0 0 0 0 0 0 0 0 0 0 127 0"/>
<feOffset dy="-1"/>
<feGaussianBlur stdDeviation="4"/>
<feColorMatrix type="matrix" values="0 0 0 0 0 0 0 0 0 0 0 0 0 0 0 0 0 0 0.18 0"/>
<feBlend mode="normal" in2="effect1_dropShadow" result="effect2_dropShadow"/>
<feBlend mode="normal" in="SourceGraphic" in2="effect2_dropShadow" result="shape"/>
</filter>
</defs>
</svg>
