<svg width="380" height="324" viewBox="0 0 380 324" fill="none" xmlns="http://www.w3.org/2000/svg">
<g filter="url(#filter0_dd)">
<rect x="8" y="9" width="364" height="303" rx="5" fill="white"/>
</g>
<path d="M190.474 96.1322V170.78C190.474 174.079 189.279 177.244 187.153 179.577C185.026 181.91 182.142 183.221 179.135 183.221H141.339C139.348 183.219 137.392 182.644 135.667 181.552C133.943 180.461 132.51 178.891 131.512 177V176.979C130.517 175.096 129.996 172.956 130 170.78V96.1322C130 92.8325 131.195 89.6681 133.321 87.3349C135.448 85.0017 138.332 83.6909 141.339 83.6909H179.135C181.994 83.6925 184.747 84.8791 186.843 87.0131C188.938 89.1471 190.222 92.0709 190.436 95.1991C190.455 95.5101 190.474 95.8211 190.474 96.1322Z" fill="#D7BBFF"/>
<rect x="136.299" y="95.0293" width="47.8751" height="71.8127" rx="10" fill="#BD8FFF"/>
<path d="M299 74C302.314 74 305 71.3137 305 68C305 64.6863 302.314 62 299 62C295.686 62 293 64.6863 293 68C293 71.3137 295.686 74 299 74Z" fill="#C47A4A"/>
<path d="M335 86C338.314 86 341 83.0898 341 79.5C341 75.9101 338.314 73 335 73C331.686 73 329 75.9101 329 79.5C329 83.0898 331.686 86 335 86Z" fill="#C47A4A"/>
<path d="M300.557 66.6849L297.672 76.7834C295.024 86.0522 300.437 95.6998 309.762 98.3319C319.088 100.964 328.794 95.5841 331.443 86.3152L334.328 76.2167C336.976 66.9479 331.563 57.3003 322.238 54.668C312.912 52.036 303.206 57.416 300.557 66.6849Z" fill="#E89A5E"/>
<path d="M334 64.5105C333.213 65.0711 332.372 65.5699 331.494 66.0025C327.509 67.9657 322.676 68.5841 317.943 67.3975C312.162 65.9481 307.862 62.1398 306 57.4908C306.787 56.9302 307.628 56.4296 308.51 55.9957C312.491 54.0356 317.324 53.4154 322.059 54.6025C327.84 56.0519 332.14 59.8602 334 64.5105Z" fill="#BD8FFF"/>
<path d="M334 64.7691C333.236 65.2879 332.419 65.7503 331.567 66.1504C327.699 67.9686 323.01 68.5406 318.416 67.4422C315.013 66.6281 312.137 65.0109 310 62.9037C311.561 63.745 313.291 64.4099 315.166 64.8587C320.318 66.0911 325.579 65.449 329.916 63.4104C330.794 62.998 331.639 62.5264 332.434 62C333.07 62.8733 333.595 63.8014 334 64.7691Z" fill="#6200EE"/>
<path d="M318.289 84.0204C318.865 84.1764 319.164 84.7889 318.908 85.3048C317.515 88.1106 314.163 89.6284 310.93 88.7523C307.697 87.8761 305.681 84.9037 306.042 81.8183C306.108 81.251 306.7 80.8798 307.275 81.0358L318.289 84.0204Z" fill="#C47A4A"/>
<path d="M308.454 77C308.323 77 308.19 76.9797 308.058 76.9375C307.289 76.6915 306.843 75.7891 307.061 74.9221C307.235 74.2318 306.878 73.5108 306.266 73.3148C305.969 73.2196 305.658 73.2607 305.388 73.4301C305.119 73.5993 304.924 73.8768 304.84 74.2109C304.622 75.0778 303.821 75.5808 303.053 75.335C302.283 75.089 301.837 74.1866 302.055 73.3199C302.351 72.1469 303.034 71.1738 303.978 70.5799C304.923 69.9861 306.016 69.8427 307.057 70.1757C309.204 70.8634 310.455 73.3925 309.846 75.8138C309.665 76.5314 309.085 77 308.454 77Z" fill="#C47A4A"/>
<path d="M324.647 81C324.533 81 324.416 80.9855 324.3 80.9553C323.628 80.7795 323.237 80.1349 323.428 79.5156C323.58 79.0227 323.268 78.5077 322.733 78.3677C322.473 78.2996 322.2 78.3289 321.965 78.45C321.729 78.5709 321.559 78.7691 321.485 79.0079C321.294 79.6271 320.593 79.9861 319.921 79.8107C319.248 79.6348 318.857 78.9902 319.049 78.3711C319.307 77.5333 319.905 76.8384 320.731 76.4142C321.557 75.99 322.514 75.8877 323.425 76.1255C325.304 76.6168 326.399 78.4233 325.865 80.1528C325.707 80.6654 325.199 81 324.647 81Z" fill="#C47A4A"/>
<path d="M45 88C48.3137 88 51 85.0899 51 81.5C51 77.9101 48.3137 75 45 75C41.6863 75 39 77.9101 39 81.5C39 85.0899 41.6863 88 45 88Z" fill="#F5A871"/>
<path d="M79 78C82.3137 78 85 75.3137 85 72C85 68.6863 82.3137 66 79 66C75.6863 66 73 68.6863 73 72C73 75.3137 75.6863 78 79 78Z" fill="#F5A871"/>
<path d="M78.7859 91.4008C76.6371 95.167 73.0281 98.1228 68.4721 99.3753C59.3653 101.88 49.9219 96.6276 47.3823 87.6433L43.0774 72.4204L41 65.0739L73.9839 56L77.9276 69.9445L80.366 78.5693C81.636 83.0617 80.9418 87.6382 78.7859 91.4008Z" fill="#FDD1A7"/>
<path d="M77 70.6009L63.6414 74.5478C62.6245 74.8487 61.5788 75 60.5313 75C58.0163 75 55.5268 74.1064 53.5187 72.4834C52.5477 71.6979 51.3762 71.2674 50.2215 71.2674C49.7709 71.2674 49.3237 71.3321 48.89 71.4601L43.0252 73.1931L41 65.5009L73.1554 56L77 70.6009Z" fill="#FFBC8A"/>
<path d="M65.9849 48.1939L52.1861 52.0977C49.9116 52.7411 48.582 55.133 49.2164 57.4403C49.2164 57.4403 47.1058 56.9922 44.8314 57.6357L43.7782 57.9335C41.0309 58.7107 39.425 61.6 40.1911 64.3867L42.0937 71.3065L48.1207 69.6014C50.4583 68.94 52.9329 69.5029 54.8623 70.9959C57.1751 72.7856 60.2574 73.4931 63.2755 72.6394L77 68.7567L72.3467 51.8325C71.5804 49.0458 68.7322 47.4166 65.9849 48.1939Z" fill="#18D5CA"/>
<path d="M72.3607 51.85L77 68.8544L72.9818 70L68.3425 52.9956C67.5783 50.1943 64.7405 48.5585 62 49.3399L66.0154 48.1952C68.7558 47.4138 71.5963 49.0487 72.3607 51.85Z" fill="#009189"/>
<path d="M71.4676 83.4474C71.9677 83.3079 72.4776 83.6483 72.5349 84.1642C72.8551 87.0508 71.0469 89.8264 68.1588 90.6321C65.2662 91.4389 62.2776 89.9938 61.0614 87.3503C60.8467 86.8834 61.1132 86.3354 61.6081 86.1974L71.4676 83.4474Z" fill="#F5A871"/>
<path d="M54.5839 83.6168C54.0128 83.6168 53.4884 83.2392 53.3275 82.6621C52.7781 80.6921 53.934 78.6422 55.904 78.0928C57.8743 77.5434 59.9238 78.6995 60.4734 80.6691C60.667 81.3634 60.2611 82.0831 59.5671 82.2768C58.8731 82.4707 58.1533 82.0647 57.9594 81.3705C57.7966 80.7867 57.1889 80.4441 56.605 80.6069C56.0212 80.7698 55.6787 81.3773 55.8416 81.9613C56.0352 82.6556 55.6293 83.3753 54.9352 83.5689C54.8178 83.6013 54.6997 83.6168 54.5839 83.6168Z" fill="#F5A871"/>
<path d="M69.8699 79.3538C69.2988 79.3538 68.7744 78.976 68.6135 78.399C68.0641 76.429 69.2201 74.3792 71.1901 73.8297C73.1601 73.28 75.2098 74.4361 75.7594 76.4061C75.953 77.1004 75.5471 77.8201 74.8531 78.0138C74.1591 78.2077 73.4393 77.8016 73.2454 77.1075C73.0826 76.5234 72.4747 76.1813 71.8912 76.3437C71.3073 76.5066 70.9648 77.1142 71.1276 77.6983C71.3212 78.3924 70.9152 79.1121 70.2212 79.3058C70.1038 79.3382 69.9857 79.3538 69.8699 79.3538Z" fill="#F5A871"/>
<path d="M93.059 82.4276L93.6653 80.1707C93.8742 79.393 94.5886 78.9001 95.3374 79.0171L105.706 80.6375C106.612 80.7792 107.193 81.7426 106.941 82.6835L105.559 87.8289C105.306 88.77 104.335 89.2566 103.496 88.8626L93.9038 84.354C93.211 84.0282 92.8501 83.2053 93.059 82.4276Z" fill="#00EDDF"/>
<path d="M106.943 83.1634L105.603 87.9178C105.357 88.7872 104.414 89.2377 103.601 88.8725L102 88.156C102.418 87.9978 102.763 87.6465 102.896 87.17L104.238 82.4156C104.383 81.8956 104.242 81.3687 103.914 81L105.744 81.273C106.623 81.4035 107.187 82.2938 106.943 83.1634Z" fill="#009189"/>
<path d="M92.1602 72.916L92.0038 70.7303C91.95 69.9772 92.4774 69.3015 93.2385 69.1485L103.776 67.0317C104.697 66.8468 105.574 67.493 105.64 68.4043L105.996 73.3869C106.061 74.2982 105.284 75.0562 104.346 74.9967L93.6084 74.3165C92.8327 74.2675 92.214 73.6691 92.1602 72.916Z" fill="#00EDDF"/>
<path d="M103.817 74.9967L100.904 74.8563C101.307 74.5613 101.543 74.1416 101.498 73.6851L101.028 68.7033C100.978 68.1765 100.57 67.7376 100 67.4987L103.063 67.0315C104.28 66.8471 105.437 67.4933 105.523 68.4047L105.995 73.3882C106.081 74.2996 105.055 75.0564 103.817 74.9967Z" fill="#009189"/>
<path d="M87.2563 90.3904L88.4011 88.6206C88.7956 88.0109 89.5303 87.8227 90.1206 88.1804L98.2953 93.1323C99.0098 93.5651 99.2208 94.6068 98.7434 95.3448L96.1339 99.3794C95.6566 100.117 94.71 100.213 94.1237 99.582L87.4137 92.3653C86.9291 91.8439 86.8619 91.0002 87.2563 90.3904Z" fill="#00EDDF"/>
<path d="M98.7512 95.1463L96.2219 99.3532C95.7592 100.123 94.8431 100.222 94.2745 99.5635L93 98.09C93.4702 98.1941 93.9751 97.9766 94.2806 97.4683L96.8099 93.2634C97.0397 92.8814 97.1048 92.4207 97.0277 92L98.3174 92.8409C99.0097 93.2925 99.2139 94.3784 98.7512 95.1463Z" fill="#009189"/>
<path d="M280.783 64.3279L279.685 66.2609C279.306 66.9269 278.537 67.1837 277.884 66.8618L268.844 62.4047C268.054 62.0152 267.759 60.9514 268.217 60.1455L270.721 55.739C271.179 54.9331 272.181 54.7549 272.848 55.3606L280.482 62.2912C281.033 62.7915 281.162 63.6617 280.783 64.3279Z" fill="#BD8FFF"/>
<path d="M273.258 55.378L280.508 62.6534C281.031 63.1788 281.154 64.0917 280.794 64.7917L279.751 66.8201C279.718 66.8842 279.682 66.9445 279.642 67C279.891 66.3325 279.747 65.5369 279.27 65.0592L272.02 57.7851C271.387 57.1483 270.435 57.3358 270 58.1824L271.238 55.7753C271.673 54.9302 272.624 54.7427 273.258 55.378Z" fill="#6200EE"/>
<path d="M280.967 74.1485L280.511 76.6201C280.354 77.4718 279.67 78.0593 278.912 77.9952L268.409 77.1088C267.491 77.0312 266.843 76.0453 267.033 75.0149L268.073 69.3805C268.263 68.3501 269.204 67.748 270.071 68.1019L279.991 72.1511C280.707 72.4434 281.124 73.2969 280.967 74.1485Z" fill="#BD8FFF"/>
<path d="M269.639 68.1034L279.95 72.2239C280.695 72.5211 281.129 73.3888 280.966 74.2562L280.492 76.7699C280.477 76.8497 280.457 76.9263 280.432 77C280.485 76.2149 280.065 75.4755 279.388 75.2052L269.077 71.0865C268.176 70.7251 267.198 71.3384 267 72.3876L267.563 69.4048C267.76 68.3569 268.738 67.7438 269.639 68.1034Z" fill="#6200EE"/>
<path d="M290.48 59.1265L288.929 60.6403C288.395 61.162 287.633 61.111 287.147 60.5211L280.41 52.3531C279.822 51.6393 279.873 50.4425 280.52 49.8112L284.056 46.3599C284.702 45.7286 285.647 45.9529 286.062 46.836L290.814 56.9413C291.157 57.6714 291.014 58.605 290.48 59.1265Z" fill="#BD8FFF"/>
<path d="M285.379 46.8487L290.788 57.1135C291.179 57.8549 291.017 58.8029 290.408 59.3332L288.642 60.8706C288.586 60.9193 288.529 60.9629 288.469 61C288.949 60.4534 289.05 59.6108 288.694 58.9368L283.285 48.6731C282.813 47.7754 281.737 47.5481 281 48.1897L283.095 46.3655C283.83 45.7246 284.907 45.952 285.379 46.8487Z" fill="#6200EE"/>
<path d="M164.017 168.102C165.018 168.105 165.978 168.504 166.686 169.212C167.394 169.92 167.793 170.88 167.796 171.881C167.789 172.881 167.388 173.838 166.681 174.546C165.974 175.253 165.017 175.653 164.017 175.661H156.457C155.456 175.658 154.496 175.259 153.788 174.55C153.08 173.842 152.681 172.883 152.678 171.881C152.685 170.881 153.086 169.924 153.793 169.217C154.5 168.51 155.457 168.109 156.457 168.102H164.017Z" fill="#F5EEFF"/>
<path d="M178.312 101.699C178.312 100.655 179.158 99.8091 180.202 99.8091H191.541C192.585 99.8091 193.431 100.655 193.431 101.699C193.431 102.743 192.585 103.589 191.541 103.589H180.202C179.158 103.589 178.312 102.743 178.312 101.699Z" fill="#6200EE"/>
<path d="M158.977 161.173C158.977 158.737 160.951 156.763 163.387 156.763H177.245C179.681 156.763 181.655 158.737 181.655 161.173C181.655 163.608 179.681 165.582 177.245 165.582H163.387C160.951 165.582 158.977 163.608 158.977 161.173Z" fill="#BD8FFF"/>
<path d="M157.717 157.393C157.717 154.958 159.691 152.983 162.127 152.983H174.725C177.161 152.983 179.135 154.958 179.135 157.393C179.135 159.828 177.161 161.802 174.725 161.802H162.127C159.691 161.802 157.717 159.828 157.717 157.393Z" fill="#6200EE"/>
<path d="M143.372 126.767C143.372 125.721 144.22 124.873 145.266 124.873H149.054C150.1 124.873 150.948 125.721 150.948 126.767C150.948 127.813 150.1 128.661 149.054 128.661H145.266C144.22 128.661 143.372 127.813 143.372 126.767Z" fill="#6200EE"/>
<path d="M143.372 134.342C143.372 133.296 144.22 132.448 145.266 132.448H149.054C150.1 132.448 150.948 133.296 150.948 134.342C150.948 135.388 150.1 136.236 149.054 136.236H145.266C144.22 136.236 143.372 135.388 143.372 134.342Z" fill="#6200EE"/>
<path d="M265.672 125.39C263.562 137.273 256.781 147.838 246.821 154.762C236.861 161.686 224.537 164.402 212.559 162.312C211.115 162.068 209.686 161.743 208.278 161.341C200.998 159.36 194.326 155.618 188.861 150.45L167.365 154.424L178.496 135.735C175.169 128.195 173.967 119.901 175.017 111.737C176.066 103.572 179.329 95.8429 184.457 89.3729C189.584 82.9029 196.385 77.9343 204.134 74.9965C211.883 72.0588 220.29 71.2619 228.459 72.6909C240.436 74.7851 251.085 81.5131 258.063 91.3954C265.041 101.278 267.778 113.505 265.672 125.39Z" fill="#00EDDF"/>
<g filter="url(#filter1_d)">
<rect x="184.365" y="96" width="74.3807" height="44.6284" rx="5" fill="#6200EE"/>
<path d="M217.837 137.653L236.484 102.694L254.283 137.653" stroke="#BD8FFF" stroke-width="5" stroke-linecap="round" stroke-linejoin="round"/>
<path d="M199.063 101.35C199.287 101.35 199.467 101.422 199.603 101.566C199.739 101.702 199.807 101.886 199.807 102.118V109.222C199.807 109.446 199.743 109.622 199.615 109.75C199.487 109.878 199.319 109.942 199.111 109.942C198.903 109.942 198.739 109.878 198.619 109.75C198.499 109.622 198.439 109.446 198.439 109.222V104.278L196.399 108.142C196.303 108.318 196.199 108.45 196.087 108.538C195.975 108.618 195.843 108.658 195.691 108.658C195.539 108.658 195.407 108.618 195.295 108.538C195.183 108.458 195.079 108.326 194.983 108.142L192.931 104.338V109.222C192.931 109.438 192.867 109.614 192.739 109.75C192.619 109.878 192.455 109.942 192.247 109.942C192.039 109.942 191.875 109.878 191.755 109.75C191.635 109.622 191.575 109.446 191.575 109.222V102.118C191.575 101.886 191.639 101.702 191.767 101.566C191.903 101.422 192.083 101.35 192.307 101.35C192.619 101.35 192.863 101.522 193.039 101.866L195.703 106.942L198.355 101.866C198.531 101.522 198.767 101.35 199.063 101.35ZM209.309 108.946C209.357 109.05 209.381 109.154 209.381 109.258C209.381 109.442 209.305 109.598 209.153 109.726C209.009 109.854 208.841 109.918 208.649 109.918C208.521 109.918 208.401 109.886 208.289 109.822C208.177 109.75 208.089 109.642 208.025 109.498L207.305 107.89H203.081L202.361 109.498C202.297 109.642 202.209 109.75 202.097 109.822C201.985 109.886 201.861 109.918 201.725 109.918C201.541 109.918 201.373 109.854 201.221 109.726C201.069 109.598 200.993 109.442 200.993 109.258C200.993 109.154 201.017 109.05 201.065 108.946L204.377 101.83C204.449 101.67 204.557 101.55 204.701 101.47C204.853 101.382 205.013 101.338 205.181 101.338C205.349 101.338 205.505 101.382 205.649 101.47C205.801 101.55 205.913 101.67 205.985 101.83L209.309 108.946ZM203.609 106.69H206.777L205.193 103.126L203.609 106.69ZM214.058 109.978C213.242 109.978 212.526 109.802 211.91 109.45C211.302 109.098 210.834 108.594 210.506 107.938C210.178 107.282 210.014 106.514 210.014 105.634C210.014 104.754 210.178 103.99 210.506 103.342C210.834 102.686 211.302 102.182 211.91 101.83C212.526 101.478 213.242 101.302 214.058 101.302C214.586 101.302 215.082 101.382 215.546 101.542C216.01 101.694 216.422 101.918 216.782 102.214C216.886 102.294 216.958 102.378 216.998 102.466C217.038 102.554 217.058 102.662 217.058 102.79C217.058 102.966 217.01 103.114 216.914 103.234C216.818 103.354 216.702 103.414 216.566 103.414C216.406 103.414 216.242 103.358 216.074 103.246C215.73 102.99 215.41 102.814 215.114 102.718C214.818 102.614 214.49 102.562 214.13 102.562C213.298 102.562 212.666 102.822 212.234 103.342C211.81 103.862 211.598 104.626 211.598 105.634C211.598 106.65 211.81 107.418 212.234 107.938C212.666 108.458 213.298 108.718 214.13 108.718C214.474 108.718 214.79 108.666 215.078 108.562C215.374 108.458 215.706 108.282 216.074 108.034C216.154 107.986 216.234 107.946 216.314 107.914C216.394 107.882 216.478 107.866 216.566 107.866C216.702 107.866 216.818 107.926 216.914 108.046C217.01 108.166 217.058 108.314 217.058 108.49C217.058 108.61 217.038 108.718 216.998 108.814C216.958 108.902 216.886 108.986 216.782 109.066C216.422 109.362 216.01 109.59 215.546 109.75C215.082 109.902 214.586 109.978 214.058 109.978ZM225.023 101.35C225.255 101.35 225.439 101.422 225.575 101.566C225.711 101.702 225.779 101.886 225.779 102.118V109.162C225.779 109.394 225.707 109.582 225.563 109.726C225.427 109.87 225.247 109.942 225.023 109.942C224.791 109.942 224.607 109.87 224.471 109.726C224.335 109.582 224.267 109.394 224.267 109.162V106.198H219.935V109.162C219.935 109.394 219.863 109.582 219.719 109.726C219.583 109.87 219.399 109.942 219.167 109.942C218.943 109.942 218.759 109.87 218.615 109.726C218.479 109.582 218.411 109.394 218.411 109.162V102.118C218.411 101.886 218.479 101.702 218.615 101.566C218.751 101.422 218.935 101.35 219.167 101.35C219.399 101.35 219.583 101.422 219.719 101.566C219.863 101.702 219.935 101.886 219.935 102.118V104.95H224.267V102.118C224.267 101.886 224.335 101.702 224.471 101.566C224.607 101.422 224.791 101.35 225.023 101.35Z" fill="#BD8FFF"/>
<circle cx="191.804" cy="115.339" r="1.48761" fill="#D7BBFF"/>
<circle cx="202.217" cy="115.339" r="1.48761" fill="#D7BBFF"/>
<circle cx="212.63" cy="115.339" r="1.48761" fill="#D7BBFF"/>
<circle cx="197.01" cy="115.339" r="1.48761" fill="#D7BBFF"/>
<circle cx="207.424" cy="115.339" r="1.48761" fill="#D7BBFF"/>
<circle cx="217.837" cy="115.339" r="1.48761" fill="#D7BBFF"/>
</g>
<defs>
<filter id="filter0_dd" x="0" y="0" width="380" height="324" filterUnits="userSpaceOnUse" color-interpolation-filters="sRGB">
<feFlood flood-opacity="0" result="BackgroundImageFix"/>
<feColorMatrix in="SourceAlpha" type="matrix" values="0 0 0 0 0 0 0 0 0 0 0 0 0 0 0 0 0 0 127 0"/>
<feOffset dy="4"/>
<feGaussianBlur stdDeviation="4"/>
<feColorMatrix type="matrix" values="0 0 0 0 0 0 0 0 0 0 0 0 0 0 0 0 0 0 0.18 0"/>
<feBlend mode="normal" in2="BackgroundImageFix" result="effect1_dropShadow"/>
<feColorMatrix in="SourceAlpha" type="matrix" values="0 0 0 0 0 0 0 0 0 0 0 0 0 0 0 0 0 0 127 0"/>
<feOffset dy="-1"/>
<feGaussianBlur stdDeviation="4"/>
<feColorMatrix type="matrix" values="0 0 0 0 0 0 0 0 0 0 0 0 0 0 0 0 0 0 0.18 0"/>
<feBlend mode="normal" in2="effect1_dropShadow" result="effect2_dropShadow"/>
<feBlend mode="normal" in="SourceGraphic" in2="effect2_dropShadow" result="shape"/>
</filter>
<filter id="filter1_d" x="184.365" y="96" width="86.3807" height="56.6284" filterUnits="userSpaceOnUse" color-interpolation-filters="sRGB">
<feFlood flood-opacity="0" result="BackgroundImageFix"/>
<feColorMatrix in="SourceAlpha" type="matrix" values="0 0 0 0 0 0 0 0 0 0 0 0 0 0 0 0 0 0 127 0"/>
<feOffset dx="8" dy="8"/>
<feGaussianBlur stdDeviation="2"/>
<feColorMatrix type="matrix" values="0 0 0 0 0 0 0 0 0 0 0 0 0 0 0 0 0 0 0.18 0"/>
<feBlend mode="normal" in2="BackgroundImageFix" result="effect1_dropShadow"/>
<feBlend mode="normal" in="SourceGraphic" in2="effect1_dropShadow" result="shape"/>
</filter>
</defs>
</svg>
