<svg width="226" height="218" viewBox="0 0 226 218" fill="none" xmlns="http://www.w3.org/2000/svg">
<path fill-rule="evenodd" clip-rule="evenodd" d="M189.734 26.7985C197.145 26.7985 203.151 20.7972 203.151 13.4059C203.151 6.00137 197.145 0 189.734 0C182.323 0 176.316 6.00137 176.316 13.4059C176.316 20.7972 182.323 26.7985 189.734 26.7985Z" fill="#00EDDF"/>
<path fill-rule="evenodd" clip-rule="evenodd" d="M66.0613 118.755L50.4592 94.8277C-2.7697 53.1554 -24.3133 130.563 38.1204 123.159L66.0613 118.755Z" fill="#00EDDF"/>
<path fill-rule="evenodd" clip-rule="evenodd" d="M88.9575 94.8404C128.079 45.6862 50.8626 23.2912 58.3517 90.4369L71.3665 112.845L88.9575 94.8404Z" fill="#00EDDF"/>
<path fill-rule="evenodd" clip-rule="evenodd" d="M95.6661 218L105.3 174.379L95.6661 133.07H75.9814L51.8892 130.992L47.0654 149.178V209.452C47.0654 214.155 50.9141 218 55.6207 218H95.6661Z" fill="#BD8FFF"/>
<path fill-rule="evenodd" clip-rule="evenodd" d="M176.277 209.452V153.829V137.851C176.277 135.227 174.118 133.071 171.492 133.071H127.676L116.222 175.548L127.676 218H167.721C172.428 218 176.277 214.155 176.277 209.452Z" fill="#BD8FFF"/>
<path fill-rule="evenodd" clip-rule="evenodd" d="M88.9576 94.8403C115.806 61.1049 87.8526 39.97 70.1052 51.7393C84.7319 52.5576 97.3957 70.0685 79.2586 95.2432L81.391 99.0492L88.9576 94.8403Z" fill="#009189"/>
<path fill-rule="evenodd" clip-rule="evenodd" d="M50.4596 94.8276C20.0877 71.056 0.0391959 86.0332 0 101.92C6.3189 92.7754 21.0627 88.4237 41.0465 101.336C41.8524 100.089 42.9578 99.0106 44.349 98.2443L50.4596 94.8276Z" fill="#009189"/>
<path fill-rule="evenodd" clip-rule="evenodd" d="M95.6663 133.071H127.677V218H95.6663V133.071Z" fill="#6200EE"/>
<path fill-rule="evenodd" clip-rule="evenodd" d="M176.277 153.829V137.851C176.277 135.227 174.118 133.071 171.492 133.071H152.185C154.811 133.071 156.969 135.227 156.969 137.851V153.829V209.452C156.969 214.155 153.108 217.999 148.401 217.999H167.722C172.428 217.999 176.277 214.154 176.277 209.452V153.829H176.277Z" fill="#D7BBFF"/>
<path d="M39.5768 109.025C39.1963 109.025 38.8096 108.96 38.4313 108.823C33.6098 107.07 29.8108 106.032 22.427 105.225C20.587 105.023 19.2583 103.369 19.4596 101.529C19.6609 99.69 21.315 98.3631 23.1568 98.5635C30.2878 99.3439 34.7205 100.344 40.7227 102.525C42.4623 103.158 43.3598 105.08 42.7274 106.819C42.2324 108.18 40.9464 109.025 39.5768 109.025V109.025Z" fill="#009189"/>
<path d="M73.3073 90.6699C73.2184 90.6699 73.1289 90.6664 73.0387 90.6594C71.1929 90.5132 69.8154 88.8995 69.9616 87.0547C70.394 81.6012 72.9519 73.9597 76.044 68.8845C77.0067 67.3044 79.0691 66.8023 80.6502 67.7655C82.2316 68.7277 82.7328 70.7893 81.7701 72.3694C79.2439 76.5163 76.9926 83.1994 76.6451 87.584C76.5064 89.3382 75.0381 90.6699 73.3073 90.6699Z" fill="#009189"/>
<path d="M151.612 117.208C150.799 117.208 149.985 116.915 149.34 116.321C147.979 115.066 147.894 112.946 149.149 111.586C163.5 96.037 159.246 55.0715 159.201 54.6593C159.002 52.8198 160.332 51.1669 162.173 50.9674C164.015 50.7701 165.667 52.0984 165.867 53.9375C166.062 55.7432 170.471 98.3667 154.077 116.129C153.416 116.846 152.515 117.208 151.612 117.208Z" fill="#6200EE"/>
<path d="M185.588 70.5197C185.341 70.5197 185.09 70.4919 184.838 70.4347C183.036 70.022 181.908 68.2322 182.317 66.4305C182.391 66.1051 184.193 58.3593 189.863 49.6807C197.415 38.1232 208.305 30.3686 221.355 27.2554C223.156 26.826 224.964 27.9362 225.394 29.7361C225.824 31.5361 224.712 33.3435 222.912 33.7729C211.478 36.5007 202.291 43.0187 195.608 53.1453C190.529 60.8414 188.87 67.8504 188.853 67.92C188.495 69.4689 187.114 70.5197 185.588 70.5197V70.5197Z" fill="#6200EE"/>
<path fill-rule="evenodd" clip-rule="evenodd" d="M149.09 29.1885L155.669 21.2648C157.021 19.7318 156.93 19.2773 154.941 18.7836L144.722 16.2504C143.565 15.9646 143.5 15.6528 142.928 14.7173L137.766 6.10481C136.726 4.35113 136.089 4.35113 135.036 6.10481L129.874 14.7173C129.315 15.6528 129.237 15.9646 128.08 16.2504L117.861 18.7836C115.885 19.2773 115.78 19.7318 117.133 21.2648L123.725 29.1885C124.427 30.0328 124.531 31.0202 124.44 32.2154L123.647 42.01C123.426 44.0363 123.855 44.2834 125.753 43.5171L134.738 39.7758C135.674 39.3861 137.143 39.3861 138.066 39.7758L147.063 43.5171C148.961 44.2834 149.377 44.0367 149.156 42.01L148.376 32.2154C148.284 31.0202 148.375 30.0328 149.09 29.1885V29.1885Z" fill="#6200EE"/>
<path fill-rule="evenodd" clip-rule="evenodd" d="M136.778 21.0178C135.439 29.5911 132.592 37.0603 129.146 42.1007L134.737 39.7754C135.673 39.3857 137.143 39.3857 138.066 39.7754L147.063 43.5166C148.961 44.2829 149.377 44.0363 149.156 42.0096L148.376 32.215C148.285 31.0198 148.376 30.0328 149.091 29.1881L155.67 21.2644C157.022 19.7313 156.931 19.2769 154.942 18.7832L144.723 16.25C143.566 15.9641 143.501 15.6523 142.929 14.7169L137.767 6.10439C137.598 5.81857 137.442 5.58472 137.299 5.40283C137.792 10.0671 137.662 15.4194 136.778 21.0178V21.0178Z" fill="#BD8FFF"/>
<path fill-rule="evenodd" clip-rule="evenodd" d="M214.645 106.207L221.223 98.2829C222.589 96.7503 222.485 96.2954 220.495 95.8017L210.276 93.2685C209.132 92.9827 209.054 92.6709 208.495 91.7359L203.333 83.1234C202.28 81.3697 201.643 81.3697 200.603 83.1234L195.428 91.7359C194.869 92.6713 194.791 92.9831 193.647 93.2685L183.428 95.8017C181.438 96.2954 181.334 96.7499 182.7 98.2829L189.278 106.207C189.993 107.051 190.084 108.038 189.993 109.234L189.2 119.015C188.992 121.054 189.408 121.301 191.307 120.535L200.291 116.794C201.227 116.404 202.696 116.404 203.632 116.794L212.617 120.535C214.515 121.301 214.931 121.054 214.723 119.015L213.93 109.234C213.839 108.038 213.929 107.051 214.645 106.207V106.207Z" fill="#BD8FFF"/>
<path fill-rule="evenodd" clip-rule="evenodd" d="M202.345 98.036C200.993 106.609 198.158 114.079 194.7 119.119L200.291 116.794C201.227 116.404 202.696 116.404 203.632 116.794L212.616 120.535C214.515 121.301 214.931 121.055 214.723 119.015L213.93 109.234C213.839 108.038 213.93 107.052 214.645 106.207L221.224 98.2831C222.589 96.7505 222.485 96.2955 220.496 95.8018L210.277 93.2686C209.132 92.9828 209.054 92.671 208.495 91.736L203.334 83.1235C203.165 82.8377 203.009 82.6038 202.853 82.4092C203.359 87.0854 203.216 92.4376 202.345 98.036V98.036Z" fill="#6200EE"/>
<path fill-rule="evenodd" clip-rule="evenodd" d="M203.151 13.4059C203.151 6.00137 197.144 0 189.733 0C187.289 0 185.001 0.649595 183.025 1.79244C187.042 4.10456 189.733 8.44341 189.733 13.4054C189.733 18.3547 187.042 22.6935 183.025 25.0057C185.001 26.1489 187.289 26.7981 189.733 26.7981C197.144 26.7985 203.151 20.7972 203.151 13.4059V13.4059Z" fill="#009189"/>
<path fill-rule="evenodd" clip-rule="evenodd" d="M45.285 119.158L67.1796 115.001L81.3905 99.0495L76.8271 90.8787C75.9692 89.3329 74.7338 88.1376 73.3034 87.3193C70.5469 85.7475 67.0365 85.6048 64.0721 87.2546L58.3513 90.4374L50.4593 94.8282L44.3487 98.2444C41.5142 99.8162 39.824 102.661 39.5769 105.675C39.421 107.455 39.7848 109.299 40.7211 110.975L45.285 119.158Z" fill="#00EDDF"/>
<path fill-rule="evenodd" clip-rule="evenodd" d="M94.5873 122.704L132.89 101.375C136.05 99.6082 137.194 95.5939 135.438 92.4376L128.638 80.2529C126.87 77.0966 122.853 75.9533 119.693 77.7197L88.9576 94.8409L81.3906 99.0498V115.002L94.5873 122.704Z" fill="#BD8FFF"/>
<path fill-rule="evenodd" clip-rule="evenodd" d="M20.1785 164.156L58.4812 142.813L59.5735 126.861L45.2846 119.158L38.1205 123.159L6.96862 140.501C3.82238 142.254 2.67821 146.268 4.43322 149.425L11.233 161.623C12.9889 164.766 17.0195 165.909 20.1785 164.156Z" fill="#BD8FFF"/>
<path fill-rule="evenodd" clip-rule="evenodd" d="M79.2581 95.2435L76.8266 90.8787C75.9687 89.3329 74.7334 88.1376 73.303 87.3193C70.5465 85.7475 67.036 85.6048 64.0717 87.2546L58.3508 90.4374L52.9163 93.4643C55.8806 91.8145 59.3783 91.9572 62.1476 93.529C63.5775 94.3473 64.8129 95.5553 65.6712 97.0884L70.2347 105.272L81.3901 99.0499L79.2581 95.2435Z" fill="#18D5CA"/>
<path fill-rule="evenodd" clip-rule="evenodd" d="M132.89 101.375C136.049 99.6082 137.194 95.5939 135.438 92.4376L128.638 80.2529C126.87 77.0966 122.853 75.9533 119.693 77.7197L104.325 86.2803C107.485 84.5138 111.502 85.6567 113.258 88.8135L120.058 100.998C121.813 104.155 120.682 108.156 117.548 109.922L132.89 101.375Z" fill="#D7BBFF"/>
<path fill-rule="evenodd" clip-rule="evenodd" d="M94.5872 122.704L81.3905 99.0493L45.2849 119.158L58.4816 142.813C70.5341 136.097 82.5346 129.42 94.5872 122.704V122.704Z" fill="#6200EE"/>
<circle cx="112" cy="174" r="22" fill="#6200EE"/>
<path d="M109.965 161.315C110.227 160.735 110.713 160 112.003 160C113.181 160 113.779 160.754 114.041 161.315L124.775 184.692C125.036 185.272 125.074 185.853 124.868 186.452C124.662 187.051 124.27 187.496 123.727 187.767C123.166 188.038 122.605 188.076 122.026 187.864C121.446 187.651 121.016 187.264 120.754 186.684L112.022 167.696L103.271 186.684C103.009 187.264 102.579 187.651 101.999 187.864C101.419 188.076 100.84 188.038 100.279 187.767C99.7177 187.496 99.3437 187.051 99.138 186.452C98.9323 185.853 98.951 185.253 99.2315 184.692L109.965 161.315Z" fill="white"/>
</svg>
