<svg width="14" height="15" viewBox="0 0 14 15" fill="none" xmlns="http://www.w3.org/2000/svg">
<path fill-rule="evenodd" clip-rule="evenodd" d="M3.23556 0.453777C2.82641 0.742818 2.53325 1.15916 2.40558 1.63249C2.2779 2.10582 2.32354 2.60713 2.53478 3.05177C1.82224 3.18144 1.17903 3.54699 0.716232 4.08528C0.253435 4.62356 0.000107784 5.3008 0 6.00002V9.00001C0 9.19892 0.0819442 9.38969 0.227806 9.53034C0.373667 9.67099 0.571498 9.75001 0.777778 9.75001C0.984057 9.75001 1.18189 9.67099 1.32775 9.53034C1.47361 9.38969 1.55556 9.19892 1.55556 9.00001V7.50001H6.22222V13.5H3.11111C2.69855 13.5 2.30289 13.342 2.01117 13.0607C1.71944 12.7794 1.55556 12.3978 1.55556 12C1.55556 11.8011 1.47361 11.6103 1.32775 11.4697C1.18189 11.329 0.984057 11.25 0.777778 11.25C0.571498 11.25 0.373667 11.329 0.227806 11.4697C0.0819442 11.6103 0 11.8011 0 12C0 12.7957 0.327777 13.5587 0.911223 14.1213C1.49467 14.6839 2.28599 15 3.11111 15H10.8889C11.714 15 12.5053 14.6839 13.0888 14.1213C13.6722 13.5587 14 12.7957 14 12V6.00002C13.9999 5.3008 13.7466 4.62356 13.2838 4.08528C12.821 3.54699 12.1778 3.18144 11.4652 3.05177C11.893 2.15927 11.6301 1.07853 10.7652 0.453777C10.3545 0.157912 9.85531 -0.00132547 9.34267 2.76778e-05C8.64811 2.76778e-05 7.96133 0.289527 7.50322 0.841526C7.26833 1.12353 7.10889 1.63353 6.99922 2.20877C6.88956 1.63353 6.73011 1.12353 6.49522 0.841526C6.27381 0.577277 5.99359 0.364439 5.67531 0.218774C5.35704 0.0731093 5.00886 -0.00165166 4.65656 2.76778e-05C4.15956 2.76778e-05 3.65867 0.147777 3.23556 0.453777ZM4.82689 3.00002H5.54867C5.47089 2.39252 5.36433 1.91102 5.24922 1.71752C5.17623 1.63489 5.08533 1.56869 4.98293 1.5236C4.88053 1.4785 4.76912 1.45561 4.65656 1.45653C4.48865 1.45587 4.32509 1.50801 4.19067 1.60502C4.1119 1.66115 4.04564 1.73196 3.9958 1.81326C3.94597 1.89455 3.91358 1.98468 3.90056 2.07827C3.87567 2.25942 3.92598 2.44272 4.04056 2.58827C4.16656 2.70002 4.44889 2.84402 4.82689 3.00002ZM8.45133 3.00002H9.17078C9.55033 2.84327 9.83344 2.69927 9.95944 2.58752C10.0171 2.51374 10.059 2.42964 10.0827 2.34012C10.1064 2.25059 10.1114 2.15742 10.0974 2.06601C10.0835 1.9746 10.0508 1.88677 10.0014 1.80764C9.9519 1.7285 9.88663 1.65963 9.80933 1.60502C9.67527 1.5078 9.51197 1.45539 9.34422 1.45578C9.23166 1.45491 9.12027 1.47783 9.01788 1.52292C8.91549 1.56801 8.82459 1.63418 8.75156 1.71677C8.63644 1.91027 8.52989 2.39177 8.45133 3.00002ZM6.22222 6.00002H1.55556C1.55556 5.60219 1.71944 5.22066 2.01117 4.93936C2.30289 4.65805 2.69855 4.50002 3.11111 4.50002H10.8889C11.3014 4.50002 11.6971 4.65805 11.9888 4.93936C12.2806 5.22066 12.4444 5.60219 12.4444 6.00002H6.22222ZM7.77778 7.50001H12.4444V12C12.4444 12.3978 12.2806 12.7794 11.9888 13.0607C11.6971 13.342 11.3014 13.5 10.8889 13.5H7.77778V7.50001Z" fill="white"/>
</svg>
