<svg width="22" height="20" viewBox="0 0 22 20" fill="none" xmlns="http://www.w3.org/2000/svg">
<path fill-rule="evenodd" clip-rule="evenodd" d="M18.9844 1C18.9844 0.734784 18.879 0.48043 18.6915 0.292893C18.5039 0.105357 18.2496 0 17.9844 0C17.7192 0 17.4648 0.105357 17.2773 0.292893C17.0897 0.48043 16.9844 0.734784 16.9844 1V3H14.9844C14.7192 3 14.4648 3.10536 14.2773 3.29289C14.0897 3.48043 13.9844 3.73478 13.9844 4C13.9844 4.26522 14.0897 4.51957 14.2773 4.70711C14.4648 4.89464 14.7192 5 14.9844 5H16.9844V7C16.9844 7.26522 17.0897 7.51957 17.2773 7.70711C17.4648 7.89464 17.7192 8 17.9844 8C18.2496 8 18.5039 7.89464 18.6915 7.70711C18.879 7.51957 18.9844 7.26522 18.9844 7V5H20.9844C21.2496 5 21.5039 4.89464 21.6915 4.70711C21.879 4.51957 21.9844 4.26522 21.9844 4C21.9844 3.73478 21.879 3.48043 21.6915 3.29289C21.5039 3.10536 21.2496 3 20.9844 3H18.9844V1ZM10.9844 8C10.9844 8.53043 10.7737 9.03914 10.3986 9.41421C10.0235 9.78929 9.51481 10 8.98438 10C8.45394 10 7.94523 9.78929 7.57016 9.41421C7.19509 9.03914 6.98438 8.53043 6.98438 8C6.98438 7.46957 7.19509 6.96086 7.57016 6.58579C7.94523 6.21071 8.45394 6 8.98438 6C9.51481 6 10.0235 6.21071 10.3986 6.58579C10.7737 6.96086 10.9844 7.46957 10.9844 8ZM12.9844 8C12.9844 9.06087 12.5629 10.0783 11.8128 10.8284C11.0627 11.5786 10.0452 12 8.98438 12C7.92351 12 6.90609 11.5786 6.15595 10.8284C5.4058 10.0783 4.98438 9.06087 4.98438 8C4.98438 6.93913 5.4058 5.92172 6.15595 5.17157C6.90609 4.42143 7.92351 4 8.98438 4C10.0452 4 11.0627 4.42143 11.8128 5.17157C12.5629 5.92172 12.9844 6.93913 12.9844 8ZM2.98438 18C2.98438 17.2044 3.30045 16.4413 3.86305 15.8787C4.42566 15.3161 5.18873 15 5.98438 15H11.9844C12.78 15 13.5431 15.3161 14.1057 15.8787C14.6683 16.4413 14.9844 17.2044 14.9844 18V19C14.9844 19.2652 15.0897 19.5196 15.2773 19.7071C15.4648 19.8946 15.7192 20 15.9844 20C16.2496 20 16.5039 19.8946 16.6915 19.7071C16.879 19.5196 16.9844 19.2652 16.9844 19V18C16.9844 16.6739 16.4576 15.4021 15.5199 14.4645C14.5822 13.5268 13.3105 13 11.9844 13H5.98438C4.65829 13 3.38652 13.5268 2.44884 14.4645C1.51116 15.4021 0.984375 16.6739 0.984375 18V19C0.984375 19.2652 1.08973 19.5196 1.27727 19.7071C1.4648 19.8946 1.71916 20 1.98438 20C2.24959 20 2.50395 19.8946 2.69148 19.7071C2.87902 19.5196 2.98438 19.2652 2.98438 19V18Z" fill="#999999"/>
</svg>
