<svg width="75" height="79" viewBox="0 0 75 79" fill="none" xmlns="http://www.w3.org/2000/svg">
<path d="M61.3854 73.3074C61.3025 76.4718 58.7201 79 55.5541 79H5.88469C2.71853 79 0.137758 76.4718 0.0549006 73.3074C-0.608575 48.0914 4.91016 28.8299 7.50682 21.247C8.22785 19.1416 10.2072 17.73 12.4307 17.73H49.008C51.2331 17.73 53.2124 19.1415 53.9335 21.247C55.3913 25.5058 57.7711 33.4474 59.4602 44.0576C60.7778 52.3423 61.6758 62.2522 61.3854 73.3074Z" fill="#6200EE"/>
<path d="M17.4806 17.73C15.8696 17.73 14.4372 19.1415 13.9157 21.247C12.0351 28.8298 8.04116 48.0914 8.52133 73.3074C8.58027 76.4718 10.4497 79 12.7418 79H5.88471C2.71854 79 0.137772 76.4718 0.0549146 73.3074C-0.608561 48.0914 4.90863 28.8299 7.50529 21.247C8.22631 19.1416 10.2056 17.73 12.4307 17.73H17.4806Z" fill="#BD8FFF"/>
<path d="M43.2298 32.6245C41.8063 32.6245 40.6523 31.4705 40.6523 30.047V15.0874C40.6523 9.61068 36.1967 5.15505 30.7199 5.15505C25.2431 5.15505 20.7875 9.61068 20.7875 15.0874V30.0468C20.7875 31.4704 19.6335 32.6243 18.21 32.6243C16.7864 32.6243 15.6324 31.4704 15.6324 30.0468V15.0874C15.6324 6.76823 22.4005 0 30.7199 0C39.0393 0 45.8073 6.76823 45.8073 15.0874V30.0468C45.8073 31.4704 44.6533 32.6245 43.2298 32.6245Z" fill="#00EDDF"/>
<path d="M43.2828 30.047V15.0877C43.2828 9.6109 38.8272 5.15527 33.3504 5.15527C32.9043 5.15527 32.4658 5.18783 32.035 5.24507C36.8918 5.89096 40.652 10.0571 40.652 15.0877V30.047C40.652 31.4706 41.806 32.6246 43.2296 32.6246C43.7107 32.6246 44.1595 32.4903 44.545 32.2607C43.7903 31.8113 43.2828 30.9895 43.2828 30.047Z" fill="#009189"/>
<path d="M18.2631 30.0468V15.0874C18.2631 7.21137 24.3297 0.726738 32.0351 0.0578613C31.6015 0.0203672 31.163 0 30.7199 0C22.4007 0 15.6324 6.76823 15.6324 15.0874V30.0468C15.6324 31.4704 16.7864 32.6243 18.21 32.6243C18.6912 32.6243 19.1399 32.4901 19.5254 32.2605C18.7705 31.811 18.2631 30.9893 18.2631 30.0468Z" fill="#009189"/>
<path d="M28.4853 76.3023C26.2852 71.7426 22.3474 61.7283 22.5394 48.7706C22.5781 46.159 24.6989 44.0581 27.3108 44.0581H48.2892H69.2675C71.8794 44.0581 74.0003 46.159 74.039 48.7706C74.2309 61.7283 70.293 71.7426 68.093 76.3023C67.2967 77.9522 65.6275 78.9998 63.7957 78.9998H32.7825C30.9505 78.9998 29.2815 77.9522 28.4853 76.3023Z" fill="#00EDDF"/>
<path d="M37.6137 78.9997H32.7824C30.9513 78.9997 29.2812 77.9517 28.4854 76.3025C26.2859 71.7422 22.3477 61.7287 22.5391 48.7707C22.5773 46.1597 24.6988 44.0574 27.3115 44.0574H33.8479C32.0504 44.0574 30.5894 46.1597 30.5637 48.7707C30.4314 61.7287 33.1413 71.7424 34.6566 76.3025C35.2036 77.9517 36.3537 78.9997 37.6137 78.9997Z" fill="#18D5CA"/>
<path d="M49.0867 67.0115C43.262 67.0115 38.5234 62.2727 38.5234 56.4482V51.1072C38.5234 49.9639 39.4505 49.0369 40.5938 49.0369C41.7371 49.0369 42.6641 49.9639 42.6641 51.1072V56.4482C42.6641 59.9898 45.5453 62.8708 49.0867 62.8708C52.6282 62.8708 55.5093 59.9896 55.5093 56.4482V51.1072C55.5093 49.9639 56.4364 49.0369 57.5797 49.0369C58.723 49.0369 59.6501 49.9639 59.6501 51.1072V56.4482C59.6501 62.2729 54.9113 67.0115 49.0867 67.0115Z" fill="#BD8FFF"/>
<path d="M51.0233 62.8706C54.5647 62.8706 57.4459 59.9895 57.4459 56.448V51.1071C57.4459 50.3137 57.8927 49.6252 58.5479 49.2777C58.2589 49.1244 57.9296 49.0369 57.5797 49.0369C56.4363 49.0369 55.5093 49.9639 55.5093 51.1072V56.4482C55.5093 59.6607 53.1387 62.3295 50.0549 62.7978C50.3708 62.8457 50.6942 62.8706 51.0233 62.8706Z" fill="#6200EE"/>
<path d="M40.4599 56.4483V51.1073C40.4599 50.3139 40.9067 49.6254 41.562 49.278C41.273 49.1246 40.9437 49.0371 40.5938 49.0371C39.4505 49.0371 38.5234 49.9641 38.5234 51.1075V56.4484C38.5234 62.2731 43.262 67.0118 49.0867 67.0118C49.4134 67.0118 49.7359 66.9946 50.055 66.9655C44.6827 66.4746 40.4599 61.9463 40.4599 56.4483Z" fill="#6200EE"/>
</svg>
