<svg width="18" height="20" viewBox="0 0 18 20" fill="none" xmlns="http://www.w3.org/2000/svg">
<path fill-rule="evenodd" clip-rule="evenodd" d="M1 0C0.734783 0 0.48043 0.105357 0.292893 0.292893C0.105357 0.48043 0 0.734784 0 1V19C0 19.2652 0.105357 19.5196 0.292893 19.7071C0.48043 19.8946 0.734783 20 1 20C1.26522 20 1.51957 19.8946 1.70711 19.7071C1.89464 19.5196 2 19.2652 2 19V2H11V6C11 6.26522 11.1054 6.51957 11.2929 6.70711C11.4804 6.89464 11.7348 7 12 7H17C17.1883 6.99988 17.3728 6.94658 17.5322 6.84622C17.6916 6.74586 17.8194 6.60253 17.9009 6.43273C17.9824 6.26293 18.0143 6.07357 17.9929 5.88644C17.9715 5.69931 17.8977 5.52203 17.78 5.375L13.78 0.375C13.6864 0.258063 13.5677 0.163655 13.4327 0.0987475C13.2977 0.0338405 13.1498 9.36103e-05 13 0H1ZM13 5V2.6L14.92 5H13ZM7.285 7.682H6.19C6.0913 7.68093 5.99337 7.69957 5.90196 7.73682C5.81055 7.77407 5.72749 7.82918 5.65764 7.89893C5.5878 7.96869 5.53257 8.05167 5.4952 8.14303C5.45783 8.2344 5.43906 8.33229 5.44 8.431C5.44 8.849 5.771 9.18 6.19 9.18H7.285C7.91838 9.18158 8.52537 9.4339 8.97324 9.88176C9.4211 10.3296 9.67342 10.9366 9.675 11.57C9.675 12.781 8.742 13.792 7.558 13.927V14.389C7.558 14.6042 7.4725 14.8106 7.32032 14.9628C7.16813 15.115 6.96172 15.2005 6.7465 15.2005C6.53128 15.2005 6.32487 15.115 6.17268 14.9628C6.0205 14.8106 5.935 14.6042 5.935 14.389V13.927C5.46769 13.875 5.02619 13.6859 4.66605 13.3836C4.30592 13.0813 4.04322 12.6792 3.911 12.228C3.8796 12.1218 3.87656 12.0093 3.90217 11.9015C3.92779 11.7938 3.98117 11.6947 4.057 11.614C4.13047 11.5359 4.21929 11.4738 4.3179 11.4316C4.4165 11.3895 4.52276 11.3681 4.63 11.369C4.861 11.369 5.054 11.473 5.207 11.599C5.359 11.724 5.487 11.883 5.589 12.02C5.65874 12.1131 5.74936 12.1886 5.85356 12.2404C5.95777 12.2921 6.07265 12.3187 6.189 12.318H7.285C7.703 12.318 8.034 11.988 8.034 11.569C8.03494 11.4703 8.01617 11.3724 7.9788 11.281C7.94143 11.1897 7.8862 11.1067 7.81636 11.0369C7.74651 10.9672 7.66345 10.9121 7.57204 10.8748C7.48063 10.8376 7.3827 10.8189 7.284 10.82H6.19C5.55662 10.8184 4.94963 10.5661 4.50176 10.1182C4.0539 9.67037 3.80158 9.06338 3.8 8.43C3.8 7.219 4.733 6.208 5.917 6.073V5.611C5.917 5.39578 6.0025 5.18937 6.15468 5.03718C6.30687 4.885 6.51328 4.7995 6.7285 4.7995C6.94372 4.7995 7.15013 4.885 7.30232 5.03718C7.4545 5.18937 7.54 5.39578 7.54 5.611V6.073C8.502 6.181 9.3 6.859 9.563 7.772C9.5945 7.87817 9.5976 7.99075 9.57198 8.09849C9.54636 8.20624 9.49292 8.30537 9.417 8.386C9.34365 8.464 9.25498 8.52602 9.15656 8.56818C9.05814 8.61033 8.95207 8.63172 8.845 8.631C8.63126 8.62478 8.42657 8.54333 8.267 8.401C8.12384 8.27581 7.99595 8.13417 7.886 7.979C7.81605 7.88592 7.72523 7.81056 7.62085 7.75897C7.51646 7.70739 7.40143 7.68103 7.285 7.682ZM5 17C5.26522 17 5.51957 17.1054 5.70711 17.2929C5.89464 17.4804 6 17.7348 6 18V19C6 19.2652 5.89464 19.5196 5.70711 19.7071C5.51957 19.8946 5.26522 20 5 20C4.73478 20 4.48043 19.8946 4.29289 19.7071C4.10536 19.5196 4 19.2652 4 19V18C4 17.7348 4.10536 17.4804 4.29289 17.2929C4.48043 17.1054 4.73478 17 5 17ZM10 18C10 17.7348 9.89464 17.4804 9.70711 17.2929C9.51957 17.1054 9.26522 17 9 17C8.73478 17 8.48043 17.1054 8.29289 17.2929C8.10536 17.4804 8 17.7348 8 18V19C8 19.2652 8.10536 19.5196 8.29289 19.7071C8.48043 19.8946 8.73478 20 9 20C9.26522 20 9.51957 19.8946 9.70711 19.7071C9.89464 19.5196 10 19.2652 10 19V18ZM13 17C13.2652 17 13.5196 17.1054 13.7071 17.2929C13.8946 17.4804 14 17.7348 14 18V19C14 19.2652 13.8946 19.5196 13.7071 19.7071C13.5196 19.8946 13.2652 20 13 20C12.7348 20 12.4804 19.8946 12.2929 19.7071C12.1054 19.5196 12 19.2652 12 19V18C12 17.7348 12.1054 17.4804 12.2929 17.2929C12.4804 17.1054 12.7348 17 13 17ZM18 10C18 9.73478 17.8946 9.48043 17.7071 9.29289C17.5196 9.10536 17.2652 9 17 9C16.7348 9 16.4804 9.10536 16.2929 9.29289C16.1054 9.48043 16 9.73478 16 10V19C16 19.2652 16.1054 19.5196 16.2929 19.7071C16.4804 19.8946 16.7348 20 17 20C17.2652 20 17.5196 19.8946 17.7071 19.7071C17.8946 19.5196 18 19.2652 18 19V10Z" fill="#999999"/>
</svg>
