<svg width="59" height="74" viewBox="0 0 59 74" fill="none" xmlns="http://www.w3.org/2000/svg">
<g filter="url(#filter0_dd)">
<path d="M55 5L55 66L14 66C8.47715 66 4 61.5228 4 56L4 15C4 9.47715 8.47716 5 14 5L55 5Z" fill="white"/>
</g>
<path d="M29.9531 31.6755C29.9779 31.8221 29.9906 31.973 29.9906 32.1272C29.9906 32.5138 29.6772 32.8272 29.2906 32.8272C28.904 32.8272 28.5906 32.5138 28.5906 32.1272C28.5906 31.6915 28.4058 31.4158 28.1937 31.2376C27.9767 31.0553 27.7277 30.9731 27.6099 30.9426C27.407 30.8901 27.215 30.8806 27.0562 30.8996C26.9363 30.9139 26.8426 30.9435 26.778 30.9773L26.8169 32.7686C26.8253 33.1551 26.5189 33.4752 26.1323 33.4836L26.1312 33.4836C25.748 33.4891 25.4257 33.1867 25.4173 32.799L25.2591 25.5254C25.2473 24.98 24.8381 24.5602 24.3771 24.5602C23.8999 24.5602 23.4953 24.9773 23.4953 25.5102V37.6512C23.4953 38.0378 23.1819 38.3512 22.7953 38.3512C22.4087 38.3512 22.0953 38.0378 22.0953 37.6512V37.5079C21.3554 37.0413 20.9751 36.5039 20.6713 36.0744L20.6693 36.0716L20.6693 36.0716C20.4713 35.7917 20.3202 35.5796 20.1143 35.4103C19.9127 35.2445 19.6503 35.1139 19.2255 35.0223C18.7093 34.911 18.2311 35.1583 18.0496 35.424C18.0458 35.4297 18.0254 35.4605 18.0111 35.4935C18.0084 35.4998 18.0064 35.5051 18.0048 35.5096C18.0594 35.589 18.1305 35.6806 18.2163 35.7909C18.2163 35.7909 18.2163 35.7909 18.2163 35.7909L18.0979 35.883L29.9531 31.6755ZM29.9531 31.6755C30.2338 31.6405 30.5712 31.6924 30.8669 31.8371L30.8669 31.8372C31.1472 31.9743 31.5862 32.2885 31.5862 32.9212C31.5862 33.3078 31.8996 33.6212 32.2862 33.6212C32.6728 33.6212 32.9862 33.3078 32.9862 32.9212C32.9862 32.8035 32.9784 32.6875 32.9632 32.5735C33.1541 32.5582 33.4015 32.5885 33.6588 32.6922L33.7149 32.5531L33.6588 32.6922C33.9877 32.8247 34.7498 33.2523 34.7498 34.4061V39.0467C34.7498 39.9001 34.51 40.7698 34.2479 41.7166C34.0395 42.4692 33.8218 43.2557 33.7349 44.0599H31.3336C30.947 44.0599 30.6336 44.3733 30.6336 44.7599C30.6336 45.1465 30.947 45.4599 31.3336 45.4599H34.2426V47.91H23.4753V45.46H26.3838C26.7704 45.46 27.0838 45.1466 27.0838 44.76C27.0838 44.3734 26.7704 44.06 26.3838 44.06H23.9795C23.8749 43.2429 23.5855 42.6491 23.202 42.1759C22.8028 41.6834 22.3047 41.3262 21.8324 40.9875L21.8272 40.9838C20.9948 40.3868 20.1648 39.7899 19.6637 38.4143L19.5228 38.4657L29.9531 31.6755ZM31.4825 30.5796L31.4824 30.5796C30.7793 30.2356 29.9842 30.1712 29.3234 30.3854C28.9767 30.0082 28.5105 29.7294 27.9606 29.5872C27.5401 29.4784 27.1231 29.4626 26.7466 29.531L26.6589 25.4949C26.6306 24.1932 25.6341 23.1602 24.3772 23.1602C23.1145 23.1602 22.0954 24.2187 22.0954 25.5102V35.6477C21.9974 35.5245 21.9068 35.3967 21.8123 35.2631L21.8088 35.2582C21.6003 34.9634 21.3664 34.6328 21.0165 34.3423C20.6621 34.048 20.1947 33.7992 19.5207 33.6539C18.351 33.4016 17.3409 33.9798 16.8938 34.6344C16.5361 35.1578 16.4969 35.768 16.8195 36.2558L16.8195 36.2558C16.9068 36.3878 17.0083 36.5183 17.1112 36.6505L17.1113 36.6506L17.1114 36.6506L17.1128 36.6525C17.4472 37.0824 17.9012 37.6661 18.3484 38.8936C18.9984 40.6778 20.1252 41.4859 21.0085 42.1194L21.0114 42.1215C21.4394 42.4284 21.7958 42.6852 22.0669 43.0028C22.3096 43.287 22.4856 43.6229 22.5688 44.0917C22.2832 44.1797 22.0754 44.4452 22.0754 44.7601V48.61C22.0754 48.9966 22.3888 49.31 22.7754 49.31H34.9428C35.3294 49.31 35.6428 48.9966 35.6428 48.61V44.7601C35.6428 44.4421 35.4308 44.1745 35.1408 44.0892C35.2224 43.4469 35.4038 42.7895 35.5973 42.0903L35.6 42.0805C35.8673 41.1152 36.15 40.094 36.15 39.0468V34.4062C36.15 33.0226 35.4159 31.8909 34.1823 31.3937C33.5624 31.1439 32.9136 31.1028 32.3787 31.2663C32.14 30.9872 31.8376 30.7534 31.4825 30.5796Z" fill="#6200EE" stroke="#6200EE" stroke-width="0.3"/>
<path d="M17.0212 22.045L17.0212 22.045L16.24 22.8262H20.628C21.0146 22.8262 21.328 23.1396 21.328 23.5262C21.328 23.9128 21.0146 24.2262 20.628 24.2262H16.24L17.0212 25.0074C17.2945 25.2807 17.2945 25.7239 17.0212 25.9973L17.0212 22.045ZM17.0212 22.045C17.2945 21.7717 17.2945 21.3284 17.0212 21.055C16.7478 20.7816 16.3046 20.7817 16.0312 21.055L16.0312 21.055M17.0212 22.045L16.0312 21.055M16.0312 21.055L14.055 23.0312C13.9238 23.1625 13.85 23.3406 13.85 23.5262C13.85 23.7119 13.9238 23.8899 14.055 24.0212L14.055 24.0212M16.0312 21.055L14.055 24.0212M14.055 24.0212L16.0312 25.9973M14.055 24.0212L16.0312 25.9973M16.0312 25.9973C16.1679 26.134 16.3473 26.2024 16.5262 26.2024M16.0312 25.9973L16.5262 26.2024M16.5262 26.2024C16.7051 26.2024 16.8845 26.134 17.0212 25.9973L16.5262 26.2024Z" fill="#6200EE" stroke="#6200EE" stroke-width="0.3"/>
<path d="M28.859 44.06H28.8586C28.472 44.06 28.1589 44.3734 28.1589 44.76C28.1589 45.1466 28.4725 45.46 28.859 45.46C29.2456 45.46 29.559 45.1466 29.559 44.76C29.559 44.3734 29.2456 44.06 28.859 44.06Z" fill="#6200EE" stroke="#6200EE" stroke-width="0.3"/>
<defs>
<filter id="filter0_dd" x="0" y="0" width="59" height="74" filterUnits="userSpaceOnUse" color-interpolation-filters="sRGB">
<feFlood flood-opacity="0" result="BackgroundImageFix"/>
<feColorMatrix in="SourceAlpha" type="matrix" values="0 0 0 0 0 0 0 0 0 0 0 0 0 0 0 0 0 0 127 0"/>
<feOffset dy="4"/>
<feGaussianBlur stdDeviation="2"/>
<feColorMatrix type="matrix" values="0 0 0 0 0 0 0 0 0 0 0 0 0 0 0 0 0 0 0.1 0"/>
<feBlend mode="normal" in2="BackgroundImageFix" result="effect1_dropShadow"/>
<feColorMatrix in="SourceAlpha" type="matrix" values="0 0 0 0 0 0 0 0 0 0 0 0 0 0 0 0 0 0 127 0"/>
<feOffset dy="-1"/>
<feGaussianBlur stdDeviation="2"/>
<feColorMatrix type="matrix" values="0 0 0 0 0 0 0 0 0 0 0 0 0 0 0 0 0 0 0.05 0"/>
<feBlend mode="normal" in2="effect1_dropShadow" result="effect2_dropShadow"/>
<feBlend mode="normal" in="SourceGraphic" in2="effect2_dropShadow" result="shape"/>
</filter>
</defs>
</svg>
