<svg width="59" height="74" viewBox="0 0 59 74" fill="none" xmlns="http://www.w3.org/2000/svg">
<g filter="url(#filter0_dd)">
<path d="M55 5L55 66L14 66C8.47715 66 4 61.5228 4 56L4 15C4 9.47715 8.47716 5 14 5L55 5Z" fill="white"/>
</g>
<path d="M36 39.0468V34.4062C36 33.0799 35.2995 32.0057 34.1262 31.5329C33.4944 31.2782 32.8406 31.2541 32.3283 31.4413C32.0948 31.1443 31.7867 30.8955 31.4165 30.7143C30.7111 30.3692 29.9142 30.3219 29.2776 30.5602C28.9461 30.1686 28.482 29.8769 27.923 29.7324C27.4551 29.6114 26.9956 29.612 26.6006 29.7171L26.5089 25.4982C26.4823 24.2712 25.5459 23.3102 24.3772 23.3102C23.2017 23.3102 22.2454 24.2971 22.2454 25.5102V36.0418C22.0237 35.8216 21.8593 35.5892 21.6899 35.3498C21.2694 34.7554 20.7928 34.0816 19.4891 33.8005C18.3848 33.5623 17.4338 34.1097 17.0176 34.719C16.6884 35.2008 16.6611 35.7445 16.9446 36.173C17.0282 36.2995 17.1261 36.4253 17.2297 36.5585C17.5691 36.9949 18.0341 37.5926 18.4893 38.8423C19.1235 40.583 20.2188 41.3684 21.0989 41.9996C21.9477 42.6084 22.589 43.0688 22.739 44.2119C22.4523 44.2307 22.2254 44.4686 22.2254 44.7601V48.61C22.2254 48.9138 22.4716 49.16 22.7754 49.16H34.9428C35.2465 49.16 35.4928 48.9138 35.4928 48.61V44.7601C35.4928 44.4674 35.264 44.2288 34.9756 44.2117C35.0488 43.5108 35.246 42.7971 35.4528 42.0503C35.7218 41.0785 36 40.0738 36 39.0468V39.0468ZM34.3927 48.06H23.3253V45.31H26.3838C26.6876 45.31 26.9338 45.0638 26.9338 44.76C26.9338 44.4562 26.6876 44.21 26.3838 44.21H23.8456C23.6738 42.4937 22.6923 41.7887 21.7398 41.1057C20.9044 40.5065 20.0406 39.8871 19.5228 38.4657C19.0083 37.0535 18.4605 36.3491 18.0979 35.883C18.0037 35.7618 17.9223 35.6572 17.8619 35.566C17.8184 35.5003 17.9147 35.3557 17.9258 35.3394C18.1425 35.0221 18.6827 34.7518 19.2571 34.8757C20.1421 35.0665 20.4005 35.4319 20.7917 35.985C21.1039 36.4262 21.484 36.9636 22.2453 37.4243V37.6512C22.2453 37.9549 22.4915 38.2012 22.7953 38.2012C23.099 38.2012 23.3453 37.9549 23.3453 37.6512V25.5102C23.3453 24.9036 23.8081 24.4102 24.3771 24.4102C24.9328 24.4102 25.3958 24.909 25.4091 25.5221L25.5673 32.7958C25.5739 33.0994 25.8266 33.338 26.1291 33.3337C26.4328 33.3271 26.6736 33.0755 26.667 32.7718L26.6262 30.8976C26.8045 30.7533 27.2067 30.6834 27.6475 30.7974C27.904 30.8637 28.7406 31.1556 28.7406 32.1272C28.7406 32.4309 28.9869 32.6772 29.2906 32.6772C29.5944 32.6772 29.8406 32.4309 29.8406 32.1272C29.8406 31.9298 29.8186 31.7388 29.7763 31.5561C30.117 31.4703 30.5574 31.5187 30.9329 31.7024C31.2329 31.8492 31.7362 32.2028 31.7362 32.9212C31.7362 33.225 31.9824 33.4712 32.2862 33.4712C32.5899 33.4712 32.8362 33.225 32.8362 32.9212C32.8362 32.7597 32.8207 32.6018 32.7907 32.4487C33.0249 32.3931 33.3657 32.4124 33.7149 32.5531C34.0711 32.6966 34.8998 33.1647 34.8998 34.4061V39.0467C34.8998 39.9242 34.6534 40.8143 34.3924 41.7566C34.1716 42.554 33.9451 43.374 33.8709 44.2099H31.3336C31.0299 44.2099 30.7836 44.4562 30.7836 44.7599C30.7836 45.0637 31.0299 45.3099 31.3336 45.3099H34.3926V48.06H34.3927Z" fill="#6200EE"/>
<path d="M16.9151 25.1134L15.8779 24.0762H20.628C20.9317 24.0762 21.178 23.83 21.178 23.5262C21.178 23.2224 20.9317 22.9762 20.628 22.9762H15.8778L16.9151 21.939C17.1299 21.7242 17.1299 21.3759 16.9151 21.1611C16.7003 20.9463 16.3521 20.9463 16.1372 21.1611L14.1611 23.1373C14.058 23.2404 14 23.3803 14 23.5262C14 23.6721 14.058 23.812 14.1611 23.9151L16.1373 25.8913C16.2447 25.9987 16.3855 26.0524 16.5262 26.0524C16.6669 26.0524 16.8077 25.9987 16.9151 25.8913C17.1299 25.6765 17.1299 25.3282 16.9151 25.1134V25.1134Z" fill="#6200EE"/>
<path d="M28.859 44.21H28.8586C28.5549 44.21 28.3089 44.4562 28.3089 44.76C28.3089 45.0637 28.5553 45.31 28.859 45.31C29.1628 45.31 29.409 45.0637 29.409 44.76C29.409 44.4562 29.1628 44.21 28.859 44.21Z" fill="#6200EE"/>
<defs>
<filter id="filter0_dd" x="0" y="0" width="59" height="74" filterUnits="userSpaceOnUse" color-interpolation-filters="sRGB">
<feFlood flood-opacity="0" result="BackgroundImageFix"/>
<feColorMatrix in="SourceAlpha" type="matrix" values="0 0 0 0 0 0 0 0 0 0 0 0 0 0 0 0 0 0 127 0"/>
<feOffset dy="4"/>
<feGaussianBlur stdDeviation="2"/>
<feColorMatrix type="matrix" values="0 0 0 0 0 0 0 0 0 0 0 0 0 0 0 0 0 0 0.1 0"/>
<feBlend mode="normal" in2="BackgroundImageFix" result="effect1_dropShadow"/>
<feColorMatrix in="SourceAlpha" type="matrix" values="0 0 0 0 0 0 0 0 0 0 0 0 0 0 0 0 0 0 127 0"/>
<feOffset dy="-1"/>
<feGaussianBlur stdDeviation="2"/>
<feColorMatrix type="matrix" values="0 0 0 0 0 0 0 0 0 0 0 0 0 0 0 0 0 0 0.05 0"/>
<feBlend mode="normal" in2="effect1_dropShadow" result="effect2_dropShadow"/>
<feBlend mode="normal" in="SourceGraphic" in2="effect2_dropShadow" result="shape"/>
</filter>
</defs>
</svg>
