<svg width="285" height="214" viewBox="0 0 285 214" fill="none" xmlns="http://www.w3.org/2000/svg">
<path d="M159.917 36.7691V159.333C159.917 164.75 157.949 169.946 154.447 173.777C150.944 177.608 146.194 179.76 141.241 179.76H78.9861C75.7065 179.758 72.485 178.813 69.6442 177.021C66.8035 175.228 64.4433 172.651 62.7999 169.546V169.512C61.1618 166.419 60.3026 162.907 60.3097 159.333V36.7691C60.3097 31.3514 62.2774 26.1557 65.7799 22.3248C69.2824 18.494 74.0328 16.3418 78.9861 16.3418H141.241C145.95 16.3445 150.484 18.2927 153.936 21.7965C157.387 25.3003 159.502 30.1009 159.855 35.237C159.886 35.7477 159.917 36.2584 159.917 36.7691Z" fill="#D7BBFF"/>
<path d="M116.339 154.858C117.988 154.863 119.569 155.521 120.735 156.687C121.902 157.853 122.559 159.434 122.564 161.084C122.552 162.731 121.892 164.307 120.727 165.472C119.562 166.637 117.986 167.297 116.339 167.309H103.888C102.238 167.304 100.658 166.647 99.4912 165.48C98.3248 164.314 97.6673 162.733 97.6624 161.084C97.6746 159.436 98.3344 157.86 99.4993 156.695C100.664 155.53 102.241 154.87 103.888 154.858H116.339Z" fill="#F5EEFF"/>
<path d="M100.464 157.068C100.464 158.707 100.035 160.316 99.2187 161.737L98.1915 163.543C97.8409 162.77 97.6604 161.932 97.6624 161.084C97.658 160.266 97.8184 159.456 98.1339 158.702C98.4495 157.948 98.9137 157.265 99.4989 156.695C99.7772 156.41 100.079 156.15 100.402 155.917C100.433 156.29 100.464 156.695 100.464 157.068Z" fill="#E6E7E8"/>
<path d="M123.591 84.962C125.636 87.0006 126.91 89.6852 127.196 92.5581C127.483 95.4309 126.764 98.3142 125.162 100.716C123.561 103.119 121.176 104.891 118.414 105.731C115.651 106.572 112.683 106.428 110.015 105.325C107.347 104.222 105.144 102.228 103.782 99.6824C102.42 97.1368 101.983 94.1976 102.545 91.3658C103.107 88.534 104.634 85.9849 106.866 84.153C109.097 82.3212 111.895 81.32 114.782 81.3201C118.084 81.326 121.25 82.6348 123.591 84.962Z" fill="#BD8FFF"/>
<path d="M117.366 78.7364C119.41 80.775 120.684 83.4596 120.971 86.3325C121.257 89.2054 120.538 92.0886 118.937 94.4908C117.335 96.893 114.95 98.6654 112.188 99.5058C109.426 100.346 106.458 100.203 103.79 99.0996C101.122 97.9966 98.9188 96.0023 97.5566 93.4568C96.1944 90.9112 95.7572 87.9721 96.3195 85.1402C96.8819 82.3084 98.409 79.7593 100.641 77.9274C102.872 76.0956 105.67 75.0944 108.557 75.0945C111.858 75.1004 115.024 76.4092 117.366 78.7364Z" fill="#18D5CA"/>
<path d="M94.2384 150.843C94.2407 148.785 93.5634 146.785 92.3116 145.151C91.0599 143.518 89.3039 142.345 87.3164 141.812C85.3288 141.28 83.2212 141.419 81.3207 142.207C79.4203 142.996 77.8336 144.39 76.8071 146.174L62.7999 170.391C61.1618 167.563 60.3025 164.352 60.3097 161.084V111.342C59.2775 111.485 58.2978 111.885 57.4603 112.505C56.6228 113.125 55.9543 113.945 55.5161 114.891L41.3843 145.551C39.4932 149.628 38.5158 154.068 38.5206 158.562V214L88.3242 213.969V200.46C88.3175 197.071 87.3924 193.747 85.6473 190.841L78.986 179.76L92.9933 155.512C93.8092 154.091 94.2385 152.481 94.2384 150.843Z" fill="#BD8FFF"/>
<path d="M85.2115 39.6873H91.437V45.9127H85.2115V39.6873Z" fill="#6200EE"/>
<path d="M97.6624 42.8C97.6624 41.0809 99.056 39.6873 100.775 39.6873H119.452C121.171 39.6873 122.564 41.0809 122.564 42.8C122.564 44.5191 121.171 45.9127 119.452 45.9127H100.775C99.056 45.9127 97.6624 44.5191 97.6624 42.8Z" fill="#6200EE"/>
<path d="M108.946 142.991C108.946 138.801 112.343 135.404 116.533 135.404H137.544C141.735 135.404 145.131 138.801 145.131 142.991C145.131 147.181 141.735 150.578 137.544 150.578H116.533C112.343 150.578 108.946 147.181 108.946 142.991Z" fill="#BD8FFF"/>
<path d="M106.612 136.765C106.612 132.575 110.008 129.178 114.199 129.178H135.21C139.4 129.178 142.797 132.575 142.797 136.765C142.797 140.956 139.4 144.353 135.21 144.353H114.199C110.008 144.353 106.612 140.956 106.612 136.765Z" fill="#6200EE"/>
<path d="M60.2988 10.1091V95.678C65.3037 93.5082 69.8872 90.4736 73.8391 86.7133L95.7216 90.791L84.3913 71.6166C86.8506 65.9964 88.1782 59.9466 88.2982 53.8131C88.4183 47.6795 87.3284 41.5824 85.091 35.8703C82.8535 30.1581 79.5123 24.9429 75.2583 20.5227C71.0044 16.1024 65.921 12.5638 60.2988 10.1091Z" fill="#BD8FFF"/>
<path d="M0.705666 54.7769C2.85432 66.9691 9.75713 77.8088 19.8963 84.9126C30.0354 92.0164 42.5807 94.8027 54.7737 92.6588C56.2437 92.4077 57.6985 92.0752 59.1316 91.6627C66.5429 89.6298 73.3343 85.7902 78.8974 80.488L100.78 84.5657L89.4495 65.3913C92.8356 57.6553 94.0596 49.1456 92.991 40.769C91.9224 32.3923 88.6013 24.4624 83.3815 17.8243C78.1617 11.1862 71.2389 6.08848 63.3505 3.0744C55.4622 0.0603092 46.9039 -0.757259 38.5876 0.708803C26.3954 2.85746 15.5556 9.76026 8.45182 19.8994C1.34801 30.0385 -1.43827 42.5839 0.705666 54.7769Z" fill="#00EDDF"/>
<path d="M24.892 62.2473V68.4728C24.8969 70.1223 25.5544 71.703 26.7208 72.8694C27.8872 74.0358 29.4679 74.6933 31.1174 74.6982H62.2447C63.8943 74.6933 65.4749 74.0358 66.6413 72.8694C67.8077 71.703 68.4652 70.1223 68.4702 68.4728V62.2473H24.892Z" fill="#F5EEFF"/>
<path d="M68.4702 31.1201H24.892V62.2474H68.4702V31.1201Z" fill="#BD8FFF"/>
<path d="M34.2302 37.3454C34.2302 39.0645 35.6238 40.4581 37.3429 40.4581C39.062 40.4581 40.4557 39.0645 40.4557 37.3454V24.8945C40.4557 23.2434 41.1115 21.66 42.279 20.4925C43.4465 19.325 45.03 18.6691 46.6811 18.6691C48.3322 18.6691 49.9157 19.325 51.0832 20.4925C52.2507 21.66 52.9066 23.2434 52.9066 24.8945V37.3454C52.9066 39.0645 54.3002 40.4581 56.0193 40.4581C57.7384 40.4581 59.132 39.0645 59.132 37.3454V24.8945C59.132 21.5923 57.8202 18.4254 55.4852 16.0904C53.1502 13.7554 49.9833 12.4436 46.6811 12.4436C43.3789 12.4436 40.212 13.7554 37.877 16.0904C35.542 18.4254 34.2302 21.5923 34.2302 24.8945V37.3454Z" fill="#6200EE"/>
<path d="M130.346 81.32C130.346 79.6009 131.74 78.2073 133.459 78.2073H139.684C141.403 78.2073 142.797 79.6009 142.797 81.32C142.797 83.0391 141.403 84.4327 139.684 84.4327H133.459C131.74 84.4327 130.346 83.0391 130.346 81.32Z" fill="#6200EE"/>
<path d="M130.346 93.7707C130.346 92.0516 131.74 90.658 133.459 90.658H139.684C141.403 90.658 142.797 92.0516 142.797 93.7707C142.797 95.4898 141.403 96.8834 139.684 96.8834H133.459C131.74 96.8834 130.346 95.4898 130.346 93.7707Z" fill="#6200EE"/>
<path d="M283.877 89.163C281.024 105.371 271.856 119.782 258.39 129.226C244.924 138.67 228.262 142.374 212.069 139.524C210.116 139.19 208.184 138.748 206.281 138.199C196.438 135.497 187.418 130.393 180.03 123.344L150.967 128.765L166.015 103.274C161.518 92.9896 159.893 81.6767 161.312 70.5406C162.731 59.4046 167.142 48.8625 174.074 40.0377C181.007 31.2128 190.201 24.4359 200.678 20.4289C211.154 16.422 222.521 15.3351 233.566 17.2841C249.758 20.1405 264.155 29.3172 273.59 42.7963C283.024 56.2754 286.725 72.9534 283.877 89.163Z" fill="#00EDDF"/>
<g filter="url(#filter0_d)">
<rect x="180.927" y="52.9165" width="82.8764" height="49.7258" rx="5" fill="#6200EE"/>
<path d="M218.222 99.3274L238.998 60.3755L258.831 99.3274" stroke="#BD8FFF" stroke-width="5" stroke-linecap="round" stroke-linejoin="round"/>
<path d="M196.801 59.06C197.062 59.06 197.272 59.144 197.431 59.312C197.589 59.4707 197.669 59.6853 197.669 59.956V68.244C197.669 68.5053 197.594 68.7107 197.445 68.86C197.295 69.0093 197.099 69.084 196.857 69.084C196.614 69.084 196.423 69.0093 196.283 68.86C196.143 68.7107 196.073 68.5053 196.073 68.244V62.476L193.693 66.984C193.581 67.1893 193.459 67.3433 193.329 67.446C193.198 67.5393 193.044 67.586 192.867 67.586C192.689 67.586 192.535 67.5393 192.405 67.446C192.274 67.3527 192.153 67.1987 192.041 66.984L189.647 62.546V68.244C189.647 68.496 189.572 68.7013 189.423 68.86C189.283 69.0093 189.091 69.084 188.849 69.084C188.606 69.084 188.415 69.0093 188.275 68.86C188.135 68.7107 188.065 68.5053 188.065 68.244V59.956C188.065 59.6853 188.139 59.4707 188.289 59.312C188.447 59.144 188.657 59.06 188.919 59.06C189.283 59.06 189.567 59.2607 189.773 59.662L192.881 65.584L195.975 59.662C196.18 59.2607 196.455 59.06 196.801 59.06ZM208.754 67.922C208.81 68.0433 208.838 68.1647 208.838 68.286C208.838 68.5007 208.749 68.6827 208.572 68.832C208.404 68.9813 208.208 69.056 207.984 69.056C207.835 69.056 207.695 69.0187 207.564 68.944C207.433 68.86 207.331 68.734 207.256 68.566L206.416 66.69H201.488L200.648 68.566C200.573 68.734 200.471 68.86 200.34 68.944C200.209 69.0187 200.065 69.056 199.906 69.056C199.691 69.056 199.495 68.9813 199.318 68.832C199.141 68.6827 199.052 68.5007 199.052 68.286C199.052 68.1647 199.08 68.0433 199.136 67.922L203 59.62C203.084 59.4333 203.21 59.2933 203.378 59.2C203.555 59.0973 203.742 59.046 203.938 59.046C204.134 59.046 204.316 59.0973 204.484 59.2C204.661 59.2933 204.792 59.4333 204.876 59.62L208.754 67.922ZM202.104 65.29H205.8L203.952 61.132L202.104 65.29ZM214.294 69.126C213.342 69.126 212.507 68.9207 211.788 68.51C211.079 68.0993 210.533 67.5113 210.15 66.746C209.768 65.9807 209.576 65.0847 209.576 64.058C209.576 63.0313 209.768 62.14 210.15 61.384C210.533 60.6187 211.079 60.0307 211.788 59.62C212.507 59.2093 213.342 59.004 214.294 59.004C214.91 59.004 215.489 59.0973 216.03 59.284C216.572 59.4613 217.052 59.7227 217.472 60.068C217.594 60.1613 217.678 60.2593 217.724 60.362C217.771 60.4647 217.794 60.5907 217.794 60.74C217.794 60.9453 217.738 61.118 217.626 61.258C217.514 61.398 217.379 61.468 217.22 61.468C217.034 61.468 216.842 61.4027 216.646 61.272C216.245 60.9733 215.872 60.768 215.526 60.656C215.181 60.5347 214.798 60.474 214.378 60.474C213.408 60.474 212.67 60.7773 212.166 61.384C211.672 61.9907 211.424 62.882 211.424 64.058C211.424 65.2433 211.672 66.1393 212.166 66.746C212.67 67.3527 213.408 67.656 214.378 67.656C214.78 67.656 215.148 67.5953 215.484 67.474C215.83 67.3527 216.217 67.1473 216.646 66.858C216.74 66.802 216.833 66.7553 216.926 66.718C217.02 66.6807 217.118 66.662 217.22 66.662C217.379 66.662 217.514 66.732 217.626 66.872C217.738 67.012 217.794 67.1847 217.794 67.39C217.794 67.53 217.771 67.656 217.724 67.768C217.678 67.8707 217.594 67.9687 217.472 68.062C217.052 68.4073 216.572 68.6733 216.03 68.86C215.489 69.0373 214.91 69.126 214.294 69.126ZM227.087 59.06C227.357 59.06 227.572 59.144 227.731 59.312C227.889 59.4707 227.969 59.6853 227.969 59.956V68.174C227.969 68.4447 227.885 68.664 227.717 68.832C227.558 69 227.348 69.084 227.087 69.084C226.816 69.084 226.601 69 226.443 68.832C226.284 68.664 226.205 68.4447 226.205 68.174V64.716H221.151V68.174C221.151 68.4447 221.067 68.664 220.899 68.832C220.74 69 220.525 69.084 220.255 69.084C219.993 69.084 219.779 69 219.611 68.832C219.452 68.664 219.373 68.4447 219.373 68.174V59.956C219.373 59.6853 219.452 59.4707 219.611 59.312C219.769 59.144 219.984 59.06 220.255 59.06C220.525 59.06 220.74 59.144 220.899 59.312C221.067 59.4707 221.151 59.6853 221.151 59.956V63.26H226.205V59.956C226.205 59.6853 226.284 59.4707 226.443 59.312C226.601 59.144 226.816 59.06 227.087 59.06Z" fill="#BD8FFF"/>
<circle cx="189.215" cy="74.4642" r="1.65753" fill="#D7BBFF"/>
<circle cx="200.817" cy="74.4642" r="1.65753" fill="#D7BBFF"/>
<circle cx="212.42" cy="74.4642" r="1.65753" fill="#D7BBFF"/>
<circle cx="195.016" cy="74.4642" r="1.65753" fill="#D7BBFF"/>
<circle cx="206.619" cy="74.4642" r="1.65753" fill="#D7BBFF"/>
<circle cx="218.222" cy="74.4642" r="1.65753" fill="#D7BBFF"/>
</g>
<defs>
<filter id="filter0_d" x="180.927" y="52.9165" width="94.8764" height="61.7258" filterUnits="userSpaceOnUse" color-interpolation-filters="sRGB">
<feFlood flood-opacity="0" result="BackgroundImageFix"/>
<feColorMatrix in="SourceAlpha" type="matrix" values="0 0 0 0 0 0 0 0 0 0 0 0 0 0 0 0 0 0 127 0"/>
<feOffset dx="8" dy="8"/>
<feGaussianBlur stdDeviation="2"/>
<feColorMatrix type="matrix" values="0 0 0 0 0 0 0 0 0 0 0 0 0 0 0 0 0 0 0.18 0"/>
<feBlend mode="normal" in2="BackgroundImageFix" result="effect1_dropShadow"/>
<feBlend mode="normal" in="SourceGraphic" in2="effect1_dropShadow" result="shape"/>
</filter>
</defs>
</svg>
