<svg width="24" height="30" viewBox="0 0 24 30" fill="none" xmlns="http://www.w3.org/2000/svg">
<path d="M18.4825 10.5796L18.4824 10.5796C17.7793 10.2356 16.9842 10.1712 16.3234 10.3854C15.9767 10.0082 15.5105 9.72937 14.9606 9.58716C14.5401 9.47843 14.1231 9.46256 13.7466 9.53097L13.6589 5.49492C13.6306 4.1932 12.6341 3.16018 11.3772 3.16018C10.1145 3.16018 9.09544 4.21874 9.09544 5.51017V15.6477C8.99742 15.5245 8.90684 15.3967 8.81233 15.2631L8.80885 15.2582C8.60032 14.9634 8.36644 14.6328 8.01651 14.3423C7.66212 14.048 7.19466 13.7992 6.52069 13.6539C5.35099 13.4016 4.34091 13.9798 3.89375 14.6344C3.53611 15.1578 3.49686 15.768 3.81946 16.2558L3.81947 16.2558C3.90684 16.3878 4.00834 16.5183 4.11124 16.6505L4.11134 16.6506L4.11137 16.6506L4.11279 16.6525C4.44717 17.0824 4.90122 17.6661 5.34841 18.8936C5.9984 20.6778 7.12519 21.4859 8.00846 22.1194L8.01144 22.1215C8.43939 22.4284 8.79579 22.6852 9.0669 23.0028C9.30956 23.287 9.48559 23.6229 9.56879 24.0917C9.2832 24.1797 9.07536 24.4452 9.07536 24.7601V28.61C9.07536 28.9966 9.38875 29.31 9.77536 29.31H21.9428C22.3294 29.31 22.6428 28.9966 22.6428 28.61V24.7601C22.6428 24.4421 22.4308 24.1745 22.1408 24.0892C22.2224 23.4469 22.4038 22.7895 22.5973 22.0903L22.6 22.0805C22.8673 21.1152 23.15 20.094 23.15 19.0468V14.4062C23.15 13.0226 22.4159 11.8909 21.1823 11.3937C20.5624 11.1439 19.9136 11.1028 19.3787 11.2663C19.14 10.9872 18.8376 10.7534 18.4825 10.5796ZM16.9906 12.1272C16.9906 11.973 16.9779 11.8221 16.9531 11.6755C17.2338 11.6405 17.5712 11.6924 17.8669 11.8371L17.8669 11.8372C18.1472 11.9743 18.5862 12.2885 18.5862 12.9212C18.5862 13.3078 18.8996 13.6212 19.2862 13.6212C19.6728 13.6212 19.9862 13.3078 19.9862 12.9212C19.9862 12.8035 19.9784 12.6875 19.9632 12.5735C20.1541 12.5582 20.4015 12.5885 20.6588 12.6922L20.7104 12.5642L20.6588 12.6922C20.9877 12.8247 21.7498 13.2523 21.7498 14.4061V19.0467C21.7498 19.9001 21.51 20.7698 21.2479 21.7166C21.0395 22.4692 20.8218 23.2557 20.7349 24.0599H18.3336C17.947 24.0599 17.6336 24.3733 17.6336 24.7599C17.6336 25.1466 17.947 25.4599 18.3336 25.4599H21.2426V27.91H10.4753V25.46H13.3838C13.7704 25.46 14.0838 25.1466 14.0838 24.76C14.0838 24.3734 13.7704 24.06 13.3838 24.06H10.9795C10.8749 23.2429 10.5855 22.6491 10.202 22.1759C9.80282 21.6834 9.3047 21.3262 8.83241 20.9875L8.82724 20.9838C7.99479 20.3868 7.16483 19.7899 6.66373 18.4143L6.52467 18.465L6.66373 18.4143C6.14175 16.9815 5.58359 16.2631 5.21632 15.7909C5.13054 15.6806 5.05939 15.589 5.00482 15.5096C5.00636 15.5051 5.00841 15.4998 5.01109 15.4935C5.02536 15.4605 5.04575 15.4297 5.04962 15.424C5.23114 15.1583 5.70935 14.911 6.22546 15.0223C6.65034 15.1139 6.91269 15.2445 7.1143 15.4103C7.32015 15.5796 7.47134 15.7917 7.66928 16.0716L7.66929 16.0716L7.6713 16.0744C7.97515 16.5039 8.35538 17.0413 9.09527 17.5079V17.6512C9.09527 18.0378 9.40866 18.3512 9.79527 18.3512C10.1819 18.3512 10.4953 18.0378 10.4953 17.6512V5.51017C10.4953 4.97729 10.8999 4.56017 11.3771 4.56017C11.8381 4.56017 12.2473 4.97999 12.2591 5.52536L12.4173 12.799C12.4257 13.1867 12.748 13.4891 13.1312 13.4836L13.1323 13.4836C13.5189 13.4752 13.8253 13.1551 13.8169 12.7686L13.778 10.9773C13.8426 10.9435 13.9363 10.9139 14.0562 10.8996C14.215 10.8806 14.407 10.8901 14.6099 10.9426C14.7277 10.9731 14.9767 11.0553 15.1937 11.2376C15.4058 11.4158 15.5906 11.6915 15.5906 12.1272C15.5906 12.5138 15.904 12.8272 16.2906 12.8272C16.6772 12.8272 16.9906 12.5138 16.9906 12.1272ZM5.00055 15.526C5.00054 15.526 5.00056 15.5257 5.00064 15.5251L5.00055 15.526Z" fill="#6200EE" stroke="#6200EE" stroke-width="0.3"/>
<path d="M4.02117 2.04503L4.02117 2.04503L3.23995 2.82621H7.62798C8.01459 2.82621 8.32798 3.1396 8.32798 3.52621C8.32798 3.91281 8.01459 4.22621 7.62798 4.22621H3.23999L4.02117 5.00738C4.29451 5.28073 4.29452 5.72394 4.0212 5.9973L4.02117 2.04503ZM4.02117 2.04503C4.29453 1.77167 4.29451 1.32845 4.02118 1.05505C3.7478 0.781598 3.30457 0.781712 3.03119 1.05502L3.03117 1.05504L1.05503 3.03124M4.02117 2.04503L1.05503 3.03124M1.05503 3.03124C1.05503 3.03124 1.05503 3.03124 1.05503 3.03124C0.923777 3.16249 0.85 3.34056 0.85 3.52621C0.85 3.71186 0.923778 3.88993 1.05503 4.02118L1.05503 4.02118M1.05503 3.03124L1.05503 4.02118M1.05503 4.02118L3.03123 5.99733M1.05503 4.02118L3.03123 5.99733M3.03123 5.99733C3.16791 6.134 3.3473 6.20235 3.5262 6.20235M3.03123 5.99733L3.5262 6.20235M3.5262 6.20235C3.70506 6.20235 3.88453 6.13402 4.02117 5.99732L3.5262 6.20235Z" fill="#6200EE" stroke="#6200EE" stroke-width="0.3"/>
<path d="M15.859 24.06H15.8586C15.472 24.06 15.1589 24.3734 15.1589 24.76C15.1589 25.1466 15.4725 25.46 15.859 25.46C16.2456 25.46 16.559 25.1466 16.559 24.76C16.559 24.3734 16.2456 24.06 15.859 24.06Z" fill="#6200EE" stroke="#6200EE" stroke-width="0.3"/>
</svg>
