<svg width="20" height="15" viewBox="0 0 20 15" fill="none" xmlns="http://www.w3.org/2000/svg">
<path fill-rule="evenodd" clip-rule="evenodd" d="M4 0C2.93913 0 1.92172 0.395088 1.17157 1.09835C0.421427 1.80161 0 2.75544 0 3.75V11.25C0 12.2446 0.421427 13.1984 1.17157 13.9016C1.92172 14.6049 2.93913 15 4 15H11C11.2652 15 11.5196 14.9012 11.7071 14.7254C11.8946 14.5496 12 14.3111 12 14.0625C12 13.8139 11.8946 13.5754 11.7071 13.3996C11.5196 13.2238 11.2652 13.125 11 13.125H4C3.46957 13.125 2.96086 12.9275 2.58579 12.5758C2.21071 12.2242 2 11.7473 2 11.25V6.5625H18V11.25C18 11.7473 17.7893 12.2242 17.4142 12.5758C17.0391 12.9275 16.5304 13.125 16 13.125H15C14.7348 13.125 14.4804 13.2238 14.2929 13.3996C14.1054 13.5754 14 13.8139 14 14.0625C14 14.3111 14.1054 14.5496 14.2929 14.7254C14.4804 14.9012 14.7348 15 15 15H16C17.0609 15 18.0783 14.6049 18.8284 13.9016C19.5786 13.1984 20 12.2446 20 11.25V3.75C20 2.75544 19.5786 1.80161 18.8284 1.09835C18.0783 0.395088 17.0609 0 16 0H4ZM18 4.6875V3.75C18 3.25272 17.7893 2.77581 17.4142 2.42417C17.0391 2.07254 16.5304 1.875 16 1.875H4C3.46957 1.875 2.96086 2.07254 2.58579 2.42417C2.21071 2.77581 2 3.25272 2 3.75V4.6875H18ZM12 11.25C12.2652 11.25 12.5196 11.1512 12.7071 10.9754C12.8946 10.7996 13 10.5611 13 10.3125C13 10.0639 12.8946 9.8254 12.7071 9.64959C12.5196 9.47377 12.2652 9.375 12 9.375C11.7348 9.375 11.4804 9.47377 11.2929 9.64959C11.1054 9.8254 11 10.0639 11 10.3125C11 10.5611 11.1054 10.7996 11.2929 10.9754C11.4804 11.1512 11.7348 11.25 12 11.25ZM4 10.3125C4 10.0639 4.10536 9.8254 4.29289 9.64959C4.48043 9.47377 4.73478 9.375 5 9.375H9C9.26522 9.375 9.51957 9.47377 9.70711 9.64959C9.89464 9.8254 10 10.0639 10 10.3125C10 10.5611 9.89464 10.7996 9.70711 10.9754C9.51957 11.1512 9.26522 11.25 9 11.25H5C4.73478 11.25 4.48043 11.1512 4.29289 10.9754C4.10536 10.7996 4 10.5611 4 10.3125Z" fill="#999999"/>
</svg>
