<svg width="83" height="82" viewBox="0 0 83 82" fill="none" xmlns="http://www.w3.org/2000/svg">
<path d="M32.3525 54.3103C47.6465 55.78 62.9407 55.78 78.2348 54.3103C80.1775 54.1235 81.7111 52.5901 81.8977 50.6474C83.3674 35.3534 83.3674 20.0593 81.8977 4.76511C81.7109 2.8224 80.1775 1.28885 78.2348 1.10226C62.9408 -0.36742 47.6467 -0.36742 32.3525 1.10226C30.4098 1.28901 28.8762 2.8224 28.6897 4.76511C27.22 20.0593 27.22 35.3533 28.6897 50.6474C28.8762 52.59 30.4098 54.1235 32.3525 54.3103Z" fill="#BD8FFF"/>
<path d="M32.7246 52.4526C32.7948 53.1692 33.0336 53.8354 33.401 54.4082C33.0519 54.3782 32.7029 54.3448 32.3539 54.3112C30.41 54.1241 28.8768 52.5911 28.6899 50.6472C27.2202 35.3532 27.2202 20.0591 28.6899 4.76492C28.877 2.82269 30.41 1.28963 32.3539 1.10256C32.7029 1.06916 33.0519 1.03577 33.401 1.00562C33.0318 1.57835 32.7947 2.24315 32.7246 2.95951C31.1399 19.458 31.1399 35.9561 32.7246 52.4526Z" fill="#18D5CA"/>
<path d="M76.1849 27.7055C76.1849 28.1853 76.169 28.6598 76.1354 29.1309C75.4351 39.532 67.1209 47.8462 56.7196 48.5467C56.2485 48.5803 55.7741 48.5962 55.2942 48.5962C50.7534 48.5962 46.5514 47.1479 43.1253 44.6869C39.4578 42.0549 36.6776 38.262 35.3227 33.8483C34.7247 31.9061 34.4036 29.8437 34.4036 27.7057C34.4036 16.1684 43.7569 6.81519 55.294 6.81519C57.4321 6.81519 59.4945 7.13632 61.4367 7.73434C65.8504 9.08909 69.6433 11.8694 72.2753 15.537C74.7364 18.9627 76.1849 23.1648 76.1849 27.7055Z" fill="#D7BBFF"/>
<path d="M76.1849 27.7054C76.1849 28.1852 76.169 28.6597 76.1354 29.1308L56.7197 48.5466C56.2486 48.5802 55.7741 48.5961 55.2942 48.5961C50.7534 48.5961 46.5514 47.1478 43.1254 44.6868L56.4673 31.3449C57.6351 30.9709 58.5576 30.0466 58.9334 28.8787L72.2753 15.5369C74.7364 18.9625 76.1849 23.1647 76.1849 27.7054Z" fill="#F6F6F6"/>
<path d="M61.4369 7.7341L35.323 33.8481C34.7249 31.9058 34.4038 29.8435 34.4038 27.7054C34.4038 16.1681 43.7572 6.81494 55.2943 6.81494C57.4325 6.81494 59.4947 7.13608 61.4369 7.7341Z" fill="#F6F6F6"/>
<path d="M55.2937 31.5295C57.4052 31.5295 59.117 29.8177 59.117 27.7062C59.117 25.5946 57.4052 23.8828 55.2937 23.8828C53.1821 23.8828 51.4703 25.5946 51.4703 27.7062C51.4703 29.8177 53.1821 31.5295 55.2937 31.5295Z" fill="#F5EEFF"/>
<path d="M57.0403 42.679C42.3315 41.61 28.0436 41.6149 13.1972 42.6932C5.93567 43.2207 0.26737 49.1737 0.0754328 56.4519C-0.0205356 60.0935 -0.0239399 63.7351 0.0655442 67.3766C0.253428 75.0268 6.47176 81.1782 14.1241 81.2218C14.5351 81.2241 14.946 81.2239 15.3571 81.221C21.6095 81.1772 26.9224 77.0517 28.6739 71.3483C29.351 69.1436 31.3545 67.6155 33.6608 67.6155H36.565C38.8713 67.6155 40.8748 69.1436 41.552 71.3483C43.3035 77.0517 48.6163 81.1772 54.8687 81.221C55.2797 81.2239 55.6906 81.2241 56.1017 81.2218C63.7541 81.1782 69.9726 75.0267 70.1603 67.3764C70.2501 63.7171 70.2464 60.0577 70.1489 56.3984C69.9554 49.132 64.29 43.2058 57.0403 42.679Z" fill="#6200EE"/>
<path d="M3.14346 67.3768C3.05398 63.7352 3.05738 60.0936 3.15335 56.4521C3.3187 50.1811 7.54991 44.478 13.3626 42.6821C13.3072 42.6862 13.2521 42.6894 13.1965 42.6935C5.93498 43.2208 0.266515 49.1739 0.0745783 56.4521C-0.0213901 60.0938 -0.0247944 63.7354 0.0646897 67.3768C0.252574 75.0271 6.47091 81.1784 14.1233 81.2221C14.5342 81.2243 14.9451 81.2242 15.3563 81.2212C15.657 81.2191 15.9549 81.2047 16.2509 81.184C9.04098 80.661 3.32356 74.7074 3.14346 67.3768Z" fill="#BD8FFF"/>
<path d="M44.63 71.3484C43.9528 69.1438 41.9493 67.6157 39.643 67.6157H36.7388C36.7096 67.6157 36.6806 67.617 36.6516 67.6175C38.921 67.6556 40.8828 69.1716 41.5514 71.3484C43.3029 77.0518 48.6157 81.1774 54.8681 81.2212C55.2791 81.2241 55.69 81.2243 56.1011 81.222C56.4208 81.2202 56.7377 81.2068 57.052 81.1839C51.1923 80.7739 46.2973 76.7775 44.63 71.3484Z" fill="#BD8FFF"/>
<path d="M21.7122 56.0423H18.086V52.4161C18.086 51.1505 17.06 50.1245 15.7944 50.1245H13.7982C12.5326 50.1245 11.5067 51.1505 11.5067 52.4161V56.0423H7.88044C6.61485 56.0423 5.58887 57.0683 5.58887 58.3339V60.3301C5.58887 61.5957 6.61485 62.6216 7.88044 62.6216H11.5067V66.2479C11.5067 67.5134 12.5326 68.5394 13.7982 68.5394H15.7944C17.06 68.5394 18.086 67.5134 18.086 66.2479V62.6216H21.7122C22.9778 62.6216 24.0038 61.5957 24.0038 60.3301V58.3339C24.0038 57.0683 22.9778 56.0423 21.7122 56.0423Z" fill="#00EDDF"/>
<path d="M13.3849 52.4161C13.3849 51.1505 14.4109 50.1245 15.6765 50.1245H13.7982C12.5326 50.1245 11.5066 51.1505 11.5066 52.4161V56.0425H12.3286C12.9119 56.0425 13.3848 55.5696 13.3848 54.9863V52.4161H13.3849Z" fill="#18D5CA"/>
<path d="M7.46722 60.33V58.3338C7.46722 57.0682 8.49321 56.0422 9.75879 56.0422H7.88044C6.61485 56.0422 5.58887 57.0682 5.58887 58.3338V60.33C5.58887 61.5956 6.61485 62.6216 7.88044 62.6216H9.75863C8.49321 62.6216 7.46722 61.5956 7.46722 60.33Z" fill="#18D5CA"/>
<path d="M13.385 66.248V63.678C13.385 63.0947 12.9122 62.6218 12.3289 62.6218H11.5068V66.248C11.5068 67.5136 12.5328 68.5396 13.7984 68.5396H15.6766C14.411 68.5396 13.385 67.5136 13.385 66.248Z" fill="#18D5CA"/>
<path d="M58.9192 57.812C61.0421 57.812 62.763 56.0911 62.763 53.9683C62.763 51.8454 61.0421 50.1245 58.9192 50.1245C56.7964 50.1245 55.0754 51.8454 55.0754 53.9683C55.0754 56.0911 56.7964 57.812 58.9192 57.812Z" fill="#BD8FFF"/>
<path d="M59.8861 57.6896C59.577 57.7701 59.2523 57.8124 58.9191 57.8124C56.796 57.8124 55.0752 56.0916 55.0752 53.9684C55.0752 51.8453 56.796 50.1245 58.9191 50.1245C59.2523 50.1245 59.577 50.1668 59.8861 50.2474C58.2302 50.6752 57.0077 52.1786 57.0077 53.9684C57.0077 55.7584 58.2302 57.2618 59.8861 57.6896Z" fill="#D7BBFF"/>
<path d="M52.3505 67.6067C54.4733 67.6067 56.1942 65.8858 56.1942 63.763C56.1942 61.6401 54.4733 59.9192 52.3505 59.9192C50.2276 59.9192 48.5067 61.6401 48.5067 63.763C48.5067 65.8858 50.2276 67.6067 52.3505 67.6067Z" fill="#D7BBFF"/>
<path d="M53.3163 67.4834C53.0071 67.5638 52.6839 67.6063 52.3508 67.6063C50.2276 67.6063 48.5068 65.8855 48.5068 63.7624C48.5068 61.6407 50.2276 59.9199 52.3508 59.9199C52.6839 59.9199 53.0071 59.9622 53.3163 60.0428C51.6603 60.4706 50.4379 61.974 50.4379 63.7626C50.4379 65.5524 51.6603 67.0558 53.3163 67.4834Z" fill="#F5EEFF"/>
<path d="M37.4 57.2651H32.8245C31.7283 57.2651 30.8396 58.1538 30.8396 59.25C30.8396 60.3462 31.7283 61.2349 32.8245 61.2349H37.4C38.4962 61.2349 39.3848 60.3462 39.3848 59.25C39.3848 58.1538 38.4963 57.2651 37.4 57.2651Z" fill="#F6F6F6"/>
</svg>
