<svg width="20" height="17" viewBox="0 0 20 17" fill="none" xmlns="http://www.w3.org/2000/svg">
<path fill-rule="evenodd" clip-rule="evenodd" d="M14.2931 0.276527C14.4806 0.0994668 14.7349 0 15.0001 0C15.2653 0 15.5196 0.0994668 15.7071 0.276527L19.7072 4.05439C19.8947 4.23151 20 4.47169 20 4.72213C20 4.97257 19.8947 5.21276 19.7072 5.38987L15.7071 9.16774C15.5185 9.33978 15.2659 9.43498 15.0037 9.43283C14.7415 9.43067 14.4907 9.33135 14.3053 9.15623C14.1199 8.98112 14.0147 8.74424 14.0124 8.4966C14.0101 8.24896 14.1109 8.01039 14.2931 7.83226L16.5861 5.6666H8.99998C8.73476 5.6666 8.4804 5.56709 8.29286 5.38997C8.10532 5.21285 7.99996 4.97262 7.99996 4.72213C7.99996 4.47164 8.10532 4.23142 8.29286 4.05429C8.4804 3.87717 8.73476 3.77767 8.99998 3.77767H16.5861L14.2931 1.612C14.1056 1.43489 14.0003 1.1947 14.0003 0.944265C14.0003 0.693826 14.1056 0.453641 14.2931 0.276527ZM5.70691 16.7235C5.51938 16.9005 5.26506 17 4.99989 17C4.73472 17 4.48041 16.9005 4.29288 16.7235L0.292793 12.9456C0.105318 12.7685 0 12.5283 0 12.2779C0 12.0274 0.105318 11.7872 0.292793 11.6101L4.29288 7.83226C4.48148 7.66022 4.73409 7.56502 4.99629 7.56717C5.2585 7.56933 5.50931 7.66866 5.69473 7.84377C5.88014 8.01888 5.98531 8.25576 5.98759 8.5034C5.98987 8.75104 5.88907 8.98961 5.70691 9.16774L3.41386 11.3334H11C11.2652 11.3334 11.5196 11.4329 11.7071 11.61C11.8947 11.7872 12 12.0274 12 12.2779C12 12.5284 11.8947 12.7686 11.7071 12.9457C11.5196 13.1228 11.2652 13.2223 11 13.2223H3.41386L5.70691 15.388C5.89438 15.5651 5.9997 15.8053 5.9997 16.0557C5.9997 16.3062 5.89438 16.5464 5.70691 16.7235Z" fill="#999999"/>
</svg>
