<svg width="64" height="64" viewBox="0 0 64 64" fill="none" xmlns="http://www.w3.org/2000/svg">
<g filter="url(#filter0_f)">
<path d="M6 57.2405L9.60513 44.0864C7.38846 40.2373 6.207 35.8649 6.21919 31.395C6.21919 17.388 17.6194 6 31.6264 6C38.4226 6 44.8049 8.64306 49.5917 13.4418C54.3905 18.2406 57.0335 24.6229 57.0213 31.4072C57.0213 45.4139 45.6209 56.8022 31.6142 56.8022H31.602C27.3513 56.8022 23.1735 55.7304 19.4587 53.7083L6 57.2405ZM20.092 49.1043L20.8593 49.5673C24.0992 51.4917 27.814 52.5025 31.602 52.5147H31.6142C43.246 52.5147 52.7217 43.051 52.7217 31.4072C52.7217 25.7678 50.5294 20.4697 46.5466 16.4745C42.5638 12.4796 37.2533 10.2873 31.6142 10.2873C19.9702 10.2873 10.4943 19.751 10.4943 31.3948C10.4943 35.3778 11.6026 39.263 13.722 42.6248L14.2213 43.4286L12.0899 51.2115L20.092 49.1043Z" fill="black" fill-opacity="0.24"/>
</g>
<path d="M7.15247 55.8829L10.5926 43.3369C8.47133 39.657 7.35542 35.4838 7.35694 31.2362C7.35694 17.8844 18.231 7.02252 31.5705 7.02252C38.054 7.02252 44.1286 9.54853 48.6994 14.1193C53.2702 18.6903 55.7844 24.7769 55.7844 31.2482C55.7844 44.5999 44.9104 55.4617 31.5707 55.4617H31.5587C27.5049 55.4617 23.5234 54.4394 19.987 52.5148L7.15247 55.8831V55.8829Z" fill="url(#paint0_linear)"/>
<path d="M6.27429 56.7608L9.83466 43.7699C7.64552 39.9689 6.47856 35.6505 6.49075 31.2361C6.49075 17.4032 17.7496 6.15637 31.5827 6.15637C38.2945 6.15637 44.5973 8.76644 49.3248 13.5057C54.0639 18.2451 56.6742 24.5481 56.6622 31.2481C56.6622 45.081 45.4034 56.3279 31.5703 56.3279H31.5585C27.3686 56.3262 23.2458 55.2758 19.5659 53.2725L6.27429 56.7608ZM20.1913 48.7257L20.9491 49.1828C24.1488 51.0834 27.8174 52.0818 31.5585 52.0938H31.5705C43.0577 52.0938 52.4162 42.7475 52.4162 31.2481C52.4162 25.6789 50.251 20.4464 46.3176 16.501C42.3842 12.5557 37.1397 10.3905 31.5705 10.3905C20.0711 10.3905 10.7129 19.7367 10.7129 31.2361C10.7129 35.1695 11.8073 39.0066 13.9004 42.3264L14.3937 43.1203L12.2886 50.8066L20.1913 48.7257Z" fill="white"/>
<path d="M25.3036 20.7351C24.8343 19.6885 24.3411 19.6644 23.8962 19.6524C23.5354 19.6404 23.1145 19.6404 22.6933 19.6404C22.2724 19.6404 21.5987 19.7968 21.0214 20.4222C20.4439 21.0478 18.832 22.5634 18.832 25.6549C18.832 28.734 21.0815 31.7171 21.3942 32.138C21.7069 32.5592 25.7365 39.0907 32.0997 41.6047C37.3923 43.6978 38.475 43.2766 39.6176 43.1684C40.7724 43.0602 43.3225 41.6528 43.8517 40.1853C44.3689 38.7179 44.3689 37.4668 44.2125 37.2022C44.0562 36.9375 43.6352 36.7813 43.0096 36.4684C42.3842 36.1557 39.3049 34.6401 38.7276 34.4236C38.1501 34.2072 37.7292 34.1109 37.3202 34.7363C36.8991 35.3618 35.6964 36.7691 35.3353 37.1903C34.9745 37.6112 34.6017 37.6593 33.9761 37.3466C33.3507 37.0339 31.3299 36.3722 28.9363 34.2311C27.0718 32.5712 25.8088 30.5142 25.4478 29.8888C25.0869 29.2634 25.4118 28.9263 25.7245 28.6138C26.0011 28.3371 26.3499 27.88 26.6629 27.5192C26.9756 27.1583 27.0838 26.8937 27.2883 26.4726C27.4927 26.0517 27.3965 25.6908 27.2401 25.3781C27.0838 25.0652 25.8569 21.9739 25.3036 20.7351Z" fill="white"/>
<defs>
<filter id="filter0_f" x="0" y="0" width="63.0214" height="63.2405" filterUnits="userSpaceOnUse" color-interpolation-filters="sRGB">
<feFlood flood-opacity="0" result="BackgroundImageFix"/>
<feBlend mode="normal" in="SourceGraphic" in2="BackgroundImageFix" result="shape"/>
<feGaussianBlur stdDeviation="3" result="effect1_foregroundBlur"/>
</filter>
<linearGradient id="paint0_linear" x1="31.4675" y1="55.8797" x2="31.4675" y2="7.01959" gradientUnits="userSpaceOnUse">
<stop stop-color="#20B038"/>
<stop offset="1" stop-color="#60D66A"/>
</linearGradient>
</defs>
</svg>
